<svg width="328" height="326" viewBox="0 0 328 326" fill="none" xmlns="http://www.w3.org/2000/svg">
<g clip-path="url(#clip0_56_868)">
<rect width="328" height="326" fill="white"/>
<path d="M295.348 94.0044L273.931 137.151L280.326 137.394L262.177 171.675H271.707L256.842 202.137H339.955L321.654 171.675L330.425 171.296L312.884 137.03L319.364 136.65L295.348 94.0044Z" fill="#F5F5F5"/>
<path d="M298.971 144.068C299.093 144.068 298.92 170.122 298.591 202.258C298.262 234.394 297.735 264.061 297.73 263.94C297.694 257.068 297.816 234.394 298.15 202.258C298.485 170.122 298.844 144.068 298.971 144.068Z" fill="#E0E0E0"/>
<path d="M309.155 155.144C309.251 155.22 307.128 158.15 304.387 161.687C301.646 165.224 299.361 168.027 299.28 167.951C299.199 167.875 301.307 164.951 304.048 161.414C306.789 157.877 309.059 155.068 309.155 155.144Z" fill="#E0E0E0"/>
<path d="M298.774 167.035C298.698 167.132 296.585 165.619 294.062 163.65C291.538 161.682 289.547 160.012 289.618 159.911C289.689 159.81 291.807 161.333 294.335 163.301C296.863 165.27 298.844 166.939 298.774 167.035Z" fill="#E0E0E0"/>
<path d="M298.196 188.201C297.631 187.844 297.104 187.432 296.62 186.972C295.678 186.177 294.381 185.084 292.926 183.895C291.472 182.706 290.13 181.664 289.162 180.905C288.613 180.524 288.104 180.09 287.642 179.609C288.252 179.886 288.825 180.236 289.349 180.652C290.363 181.35 291.741 182.362 293.205 183.551C294.669 184.74 295.941 185.884 296.833 186.739C297.346 187.168 297.804 187.659 298.196 188.201Z" fill="#E0E0E0"/>
<path d="M309.17 175.116C309.261 175.197 306.926 178.263 303.941 181.967C300.957 185.671 298.464 188.611 298.368 188.545C298.272 188.48 300.613 185.403 303.597 181.699C306.581 177.995 309.074 175.04 309.17 175.116Z" fill="#E0E0E0"/>
<path d="M52.0825 94.0044L32.5707 133.316L38.3974 133.533L21.8649 164.774H30.5441L17.0009 192.523H92.7222L76.0478 164.774L84.0379 164.424L68.0627 133.204L73.9654 132.855L52.0825 94.0044Z" fill="#F5F5F5"/>
<path d="M55.3808 139.605C55.4923 139.605 55.3403 163.337 55.0414 192.609C54.7424 221.881 54.403 255.069 54.2915 255.064C54.18 255.059 54.332 221.886 54.636 192.604C54.94 163.321 55.2694 139.605 55.3808 139.605Z" fill="#E0E0E0"/>
<path d="M64.6629 149.71C64.7491 149.776 62.8035 152.447 60.3157 155.666C57.828 158.884 55.7557 161.449 55.6544 161.378C55.5531 161.307 57.5088 158.646 59.9965 155.423C62.4843 152.199 64.5717 149.634 64.6629 149.71Z" fill="#E0E0E0"/>
<path d="M55.1985 160.543C55.1275 160.629 53.2073 159.248 50.907 157.457C48.6067 155.666 46.7929 154.142 46.8537 154.051C46.9145 153.96 48.8449 155.347 51.1502 157.138C53.4555 158.929 55.2643 160.457 55.1985 160.543Z" fill="#E0E0E0"/>
<path d="M54.6817 179.827C54.1642 179.504 53.682 179.127 53.2427 178.704C52.3865 177.985 51.2161 176.983 49.8734 175.906C48.5307 174.828 47.3401 173.882 46.4483 173.178C45.9471 172.833 45.482 172.438 45.0601 171.999C45.6175 172.249 46.1417 172.567 46.6206 172.945C47.5478 173.583 48.7993 174.509 50.1318 175.592C51.4643 176.675 52.6195 177.712 53.4353 178.491C53.9024 178.886 54.3208 179.334 54.6817 179.827Z" fill="#E0E0E0"/>
<path d="M64.6933 167.906C64.7795 167.976 62.6667 170.77 59.9357 174.145C57.2048 177.52 54.9451 180.217 54.8691 180.131C54.7931 180.045 56.8957 177.272 59.6267 173.892C62.3576 170.512 64.5869 167.85 64.6933 167.906Z" fill="#E0E0E0"/>
<path d="M18.4854 146.603L3.45764 176.882L7.94671 177.054L-4.79089 201.109H1.89711L-8.53516 222.488H46.4382L36.9483 201.109L43.0992 200.841L30.7923 176.796L35.3422 176.528L18.4854 146.603Z" fill="#EBEBEB"/>
<path d="M21.0289 181.725C21.115 181.725 20.9934 200.006 20.7654 222.549C20.5374 245.091 20.2587 263.378 20.1878 263.378C20.1169 263.378 20.2182 245.101 20.4513 222.549C20.6843 199.996 20.9427 181.725 21.0289 181.725Z" fill="#E0E0E0"/>
<path d="M28.1779 189.512C27.1437 191.098 26.0258 192.628 24.8289 194.096C23.7118 195.627 22.5126 197.097 21.2366 198.498C21.1707 198.443 22.6654 196.388 24.5806 193.909C26.4958 191.43 28.107 189.456 28.1779 189.512Z" fill="#E0E0E0"/>
<path d="M20.8869 197.856C20.8312 197.922 19.3669 196.844 17.5784 195.478C16.4761 194.682 15.4346 193.806 14.4624 192.857C14.5181 192.786 15.9824 193.869 17.7709 195.23C19.5595 196.591 20.9376 197.785 20.8869 197.856Z" fill="#E0E0E0"/>
<path d="M20.4867 212.707C20.0903 212.456 19.7202 212.167 19.3822 211.842C18.7184 211.285 17.8064 210.516 16.788 209.686C15.7696 208.856 14.8272 208.118 14.1483 207.586C13.7618 207.32 13.4036 207.015 13.0792 206.676C13.5077 206.871 13.9109 207.117 14.28 207.409C14.9944 207.915 15.9571 208.608 16.9856 209.433C18.0142 210.258 18.9008 211.068 19.519 211.67C19.8836 211.974 20.2087 212.322 20.4867 212.707Z" fill="#E0E0E0"/>
<path d="M28.1829 203.523C28.2539 203.579 26.6123 205.729 24.5197 208.33C22.4272 210.931 20.6741 212.995 20.6083 212.94C21.7501 211.279 22.9744 209.676 24.2765 208.138C26.3691 205.537 28.1171 203.473 28.1829 203.523Z" fill="#E0E0E0"/>
<path d="M279.363 264.051C259.562 278.866 232.993 280.971 208.343 278.902C183.694 276.832 159.197 271.16 134.492 272.627C120.503 273.457 106.696 276.569 92.6867 276.817C78.6773 277.065 63.8067 273.989 53.6733 264.324L279.363 264.051Z" fill="#F5F5F5"/>
<path d="M92.9907 122.31H159.871C159.871 122.31 153.953 111.558 136.731 113.121C120.285 114.639 119.449 107.833 111.089 106.999C102.729 106.164 95.7825 112.565 92.9907 122.31Z" fill="#EBEBEB"/>
<path d="M152.57 140.698H189.05C189.05 140.698 185.822 134.839 176.434 135.689C167.466 136.503 167.01 132.805 162.45 132.349C157.89 131.894 154.09 135.385 152.57 140.698Z" fill="#F5F5F5"/>
<path d="M190.539 106.589H227.019C227.019 106.589 223.787 100.724 214.403 101.564C205.435 102.379 204.979 98.6799 200.419 98.2245C195.859 97.7691 192.059 101.276 190.539 106.589Z" fill="#FAFAFA"/>
<path d="M337.498 263.742C337.498 263.818 259.79 263.874 163.959 263.874C68.1286 263.874 -9.59412 263.818 -9.59412 263.742C-9.59412 263.666 68.0931 263.611 163.959 263.611C259.826 263.611 337.498 263.671 337.498 263.742Z" fill="#263238"/>
<path d="M314.906 213.856C317.306 216.436 318.688 219.798 318.796 223.319C318.904 226.839 317.73 230.28 315.493 233.003C313.457 235.44 310.893 237.385 307.995 238.69L283.097 249.893L265.511 252.61L35.3523 251.153L20.9275 248.334C17.5584 247.676 14.5278 245.856 12.3647 243.194C10.2016 240.531 9.04325 237.195 9.0918 233.767L9.23873 223.758C9.25149 223.005 9.50393 222.277 9.95943 221.677C10.4149 221.077 11.0498 220.638 11.7721 220.423L12.7854 220.11C12.7854 220.11 13.6366 210.298 19.5646 208.077C41.1689 198.782 55.467 195.796 91.6278 194.288L122.165 176.072C122.165 176.072 134.492 168.204 145.978 167.172C157.464 166.14 183.471 166.13 195.383 166.813C209.372 167.617 227.121 173.973 237.021 178.876C244.773 182.716 263.433 192.204 263.433 192.204L273.987 193.97C275.578 194.046 304.727 195.822 308.076 196.333C309.294 196.53 310.434 197.06 311.37 197.864C312.306 198.667 313.002 199.713 313.381 200.887C314.217 203.649 314.901 213.795 314.901 213.795" fill="#5E88C6"/>
<path d="M225.813 179.392C220.838 176.907 207.492 173.482 200.029 172.085C192.566 170.689 177.396 170.496 171.337 170.648C165.277 170.8 148.435 171.094 139.558 173.608C134.998 174.904 127.657 178.699 123.345 181.876C121.825 182.979 115.319 188.085 113.865 189.244L102.567 199.779L241.393 195.402C241.393 195.402 242.194 190.569 239.696 187.786C237.198 185.003 225.813 179.392 225.813 179.392Z" fill="#263238"/>
<path d="M19.8686 219.518L12.8462 219.417C13.1198 217.524 14.047 212.494 17.0515 209.676L26.3489 209.813C26.7349 209.818 27.1125 209.925 27.4434 210.124C27.7743 210.323 28.0466 210.605 28.2325 210.943C28.4184 211.281 28.5113 211.662 28.5017 212.047C28.4921 212.433 28.3804 212.809 28.1779 213.137L26.4857 215.885C25.7923 217.011 24.8179 217.938 23.6579 218.575C22.498 219.211 21.1922 219.536 19.8686 219.518Z" fill="#FAFAFA"/>
<path d="M20.7198 219.093C21.4494 216.006 22.3715 211.948 24.9809 209.792H26.3489C26.7349 209.798 27.1125 209.905 27.4434 210.104C27.7743 210.302 28.0466 210.585 28.2325 210.923C28.4184 211.261 28.5113 211.642 28.5017 212.027C28.4921 212.412 28.3804 212.788 28.1779 213.117L26.4857 215.864C25.8598 216.883 25.0016 217.741 23.9812 218.366C22.9607 218.991 21.8068 219.367 20.6134 219.462L20.7198 219.093Z" fill="#E0E0E0"/>
<g opacity="0.7">
<path d="M88.8614 251.578C89.6059 247.97 89.7667 244.266 89.3377 240.608C87.5238 225.038 77.3145 213.835 61.8916 213.613C48.47 213.42 37.3841 221.795 35.1193 237.304C34.4566 241.933 34.6144 246.643 35.5854 251.219L88.8614 251.578Z" fill="black"/>
</g>
<g opacity="0.7">
<path d="M283.067 249.959C283.067 249.387 283.001 248.8 282.991 248.193C282.717 228.545 269.518 214.933 253.822 214.706C246.925 214.614 240.274 217.258 235.327 222.058C230.38 226.858 227.541 233.422 227.435 240.309C227.369 244.681 227.161 248.795 227.678 252.423L265.48 252.676L283.067 249.959Z" fill="black"/>
</g>
<path d="M230.799 240.355C230.734 244.831 232 249.225 234.436 252.983C236.873 256.74 240.37 259.692 244.486 261.465C248.602 263.237 253.152 263.751 257.56 262.941C261.969 262.131 266.037 260.034 269.252 256.915C272.467 253.795 274.684 249.794 275.622 245.416C276.559 241.039 276.176 236.482 274.521 232.322C272.865 228.162 270.012 224.586 266.321 222.045C262.63 219.505 258.268 218.115 253.786 218.05C247.777 217.964 241.978 220.265 237.667 224.448C233.356 228.631 230.886 234.353 230.799 240.355Z" fill="#263238"/>
<path d="M230.799 240.299V240.355C230.756 243.327 231.3 246.279 232.399 249.041C233.498 251.803 235.132 254.323 237.206 256.455C239.28 258.587 241.754 260.29 244.487 261.467C247.221 262.644 250.159 263.272 253.135 263.314C256.112 263.357 259.067 262.814 261.833 261.717C264.599 260.619 267.122 258.987 269.256 256.916C271.391 254.845 273.097 252.374 274.275 249.644C275.454 246.914 276.082 243.98 276.125 241.007C276.125 241.007 276.125 240.972 276.125 240.952L230.799 240.299Z" fill="#263238"/>
<path d="M237.548 240.456C237.507 243.598 238.4 246.682 240.113 249.317C241.827 251.953 244.285 254.022 247.175 255.263C250.066 256.504 253.26 256.862 256.355 256.29C259.449 255.719 262.304 254.244 264.559 252.053C266.814 249.861 268.368 247.051 269.025 243.978C269.681 240.905 269.411 237.706 268.248 234.786C267.085 231.867 265.081 229.357 262.49 227.574C259.899 225.791 256.836 224.815 253.69 224.77C251.598 224.74 249.521 225.122 247.578 225.894C245.634 226.666 243.862 227.814 242.363 229.271C240.863 230.728 239.666 232.465 238.84 234.385C238.014 236.304 237.575 238.367 237.548 240.456Z" fill="#FAFAFA"/>
<path d="M253.68 224.79C251.589 224.761 249.512 225.143 247.568 225.916C245.625 226.688 243.853 227.836 242.354 229.292C240.855 230.749 239.658 232.487 238.831 234.406C238.005 236.325 237.565 238.387 237.538 240.476L269.361 240.932C269.394 238.843 269.014 236.769 268.244 234.827C267.473 232.885 266.327 231.114 264.871 229.615C263.414 228.116 261.676 226.918 259.756 226.09C257.836 225.262 255.771 224.82 253.68 224.79Z" fill="#E0E0E0"/>
<path d="M243.77 240.542C243.742 242.456 244.283 244.336 245.325 245.943C246.367 247.55 247.862 248.813 249.623 249.571C251.383 250.329 253.329 250.549 255.215 250.203C257.1 249.856 258.841 248.959 260.215 247.625C261.59 246.291 262.538 244.579 262.939 242.707C263.34 240.835 263.176 238.886 262.468 237.107C261.76 235.328 260.539 233.798 258.96 232.712C257.382 231.625 255.516 231.031 253.599 231.004C251.029 230.967 248.55 231.952 246.707 233.74C244.863 235.529 243.807 237.976 243.77 240.542Z" fill="#263238"/>
<path d="M63.3485 263.891C75.8553 263.33 85.5389 252.75 84.9775 240.26C84.4162 227.77 73.8224 218.099 61.3156 218.659C48.8089 219.22 39.1252 229.8 39.6866 242.29C40.248 254.781 50.8418 264.451 63.3485 263.891Z" fill="#263238"/>
<path d="M39.6894 240.881C39.6894 240.881 39.6894 240.921 39.6894 240.942C39.6027 246.944 41.9073 252.736 46.0962 257.041C50.2851 261.347 56.0151 263.815 62.0258 263.901C68.0364 263.988 73.8353 261.686 78.1468 257.503C82.4582 253.32 84.9291 247.597 85.0158 241.594V241.534L39.6894 240.881Z" fill="#263238"/>
<path d="M46.4533 241.038C46.4076 244.181 47.2962 247.267 49.007 249.906C50.7177 252.545 53.1737 254.618 56.0642 255.863C58.9548 257.108 62.1501 257.469 65.246 256.9C68.3419 256.331 71.1993 254.858 73.4568 252.667C75.7144 250.476 77.2706 247.666 77.9288 244.592C78.5869 241.518 78.3173 238.317 77.1542 235.396C75.991 232.475 73.9865 229.964 71.3942 228.18C68.8019 226.397 65.7382 225.421 62.5907 225.377C58.3715 225.318 54.3014 226.934 51.2753 229.871C48.2492 232.807 46.5147 236.824 46.4533 241.038Z" fill="#FAFAFA"/>
<path d="M62.5755 225.377C58.359 225.322 54.2928 226.94 51.2699 229.876C48.2471 232.812 46.5148 236.827 46.4534 241.038L78.2771 241.498C78.3072 239.41 77.9249 237.336 77.1519 235.395C76.3789 233.454 75.2305 231.685 73.7722 230.187C72.314 228.69 70.5745 227.495 68.6533 226.669C66.732 225.844 64.6668 225.405 62.5755 225.377Z" fill="#E0E0E0"/>
<path d="M52.6549 241.129C52.6241 243.044 53.1626 244.925 54.2024 246.534C55.2422 248.143 56.7366 249.408 58.4964 250.168C60.2562 250.929 62.2023 251.151 64.0886 250.807C65.9749 250.463 67.7166 249.567 69.0933 248.234C70.47 246.901 71.4198 245.19 71.8225 243.318C72.2253 241.446 72.0629 239.496 71.3559 237.716C70.649 235.936 69.4291 234.405 67.8508 233.318C66.2725 232.23 64.4067 231.634 62.4893 231.606C59.9212 231.568 57.4431 232.55 55.5991 234.335C53.7552 236.121 52.6963 238.564 52.6549 241.129Z" fill="#263238"/>
<g opacity="0.4">
<path d="M18.5005 236.079C18.4651 238.609 17.1781 240.633 15.6328 240.633C14.0875 240.633 12.8563 238.533 12.8917 235.998C12.9272 233.463 14.2141 231.444 15.7645 231.444C17.3149 231.444 18.536 233.544 18.5005 236.079Z" fill="black"/>
</g>
<path d="M314.906 213.855C314.762 213.882 314.616 213.894 314.47 213.891L313.213 213.936C312.124 213.962 310.548 213.997 308.608 214.078C306.667 214.159 304.347 214.26 301.783 214.468C299.006 214.674 296.248 215.08 293.53 215.682C292.134 216.01 290.776 216.48 289.476 217.084C288.281 217.681 287.16 218.416 286.137 219.275C284.111 220.848 282.591 222.594 281.187 223.965C280.12 225.079 278.93 226.068 277.64 226.915C277.284 227.139 276.914 227.339 276.531 227.512C276.402 227.583 276.266 227.639 276.125 227.679C276.125 227.649 276.668 227.406 277.57 226.809C278.825 225.931 279.985 224.924 281.03 223.803C282.393 222.422 283.913 220.646 285.955 219.042C286.991 218.162 288.129 217.409 289.344 216.8C290.663 216.18 292.044 215.7 293.464 215.368C296.2 214.762 298.977 214.362 301.773 214.169C304.347 213.982 306.667 213.886 308.613 213.845C310.559 213.805 312.16 213.8 313.229 213.81H314.485C314.626 213.813 314.767 213.828 314.906 213.855Z" fill="#263238"/>
<g opacity="0.5">
<path d="M282.357 250.363C282.446 250.3 282.537 250.241 282.631 250.186C282.896 250.012 283.152 249.823 283.396 249.62C284.316 248.816 285.033 247.807 285.489 246.675C286.19 244.871 286.442 242.925 286.223 241.002C285.96 238.455 285.451 235.938 284.703 233.488C283.828 230.513 282.604 227.651 281.055 224.962C279.271 221.879 276.993 219.108 274.312 216.76C271.359 214.155 267.886 212.206 264.123 211.042C260.062 209.859 255.806 209.496 251.603 209.975C247.396 210.42 243.279 211.49 239.387 213.147C235.89 214.524 232.726 216.627 230.105 219.319C227.484 222.01 225.467 225.227 224.187 228.757C223.087 231.659 222.296 234.667 221.826 237.734C221.603 239.14 221.436 240.486 221.319 241.782C221.183 242.979 221.132 244.185 221.167 245.39C221.238 247.636 221.973 249.559 223.123 250.657C223.962 251.553 225.098 252.114 226.32 252.236C226.745 252.247 227.171 252.208 227.587 252.119L227.273 252.21C226.958 252.279 226.637 252.31 226.315 252.301C225.069 252.201 223.903 251.649 223.037 250.748C221.846 249.635 221.071 247.672 221.01 245.4C220.966 244.185 221.009 242.97 221.137 241.761C221.243 240.481 221.405 239.13 221.618 237.713C222.077 234.627 222.861 231.598 223.959 228.676C224.582 227.052 225.334 225.48 226.209 223.976C227.15 222.384 228.257 220.897 229.512 219.538C232.262 216.657 235.591 214.39 239.281 212.884C243.199 211.207 247.348 210.127 251.588 209.681C255.84 209.19 260.147 209.558 264.254 210.764C268.06 211.944 271.57 213.921 274.55 216.563C277.249 218.936 279.539 221.736 281.329 224.851C284.138 229.824 285.874 235.329 286.426 241.013C286.617 242.954 286.334 244.912 285.6 246.72C285.125 247.863 284.381 248.875 283.432 249.67C283.105 249.947 282.744 250.18 282.357 250.363Z" fill="white"/>
</g>
<path d="M35.5956 237.299C35.3341 237.025 35.0888 236.736 34.8609 236.433C34.1954 235.655 33.4593 234.94 32.662 234.298C29.9938 232.21 26.8685 230.783 23.542 230.134C20.203 229.508 16.8002 229.291 13.4086 229.486C12.1065 229.531 11.0526 229.597 10.323 229.633C9.94614 229.673 9.56663 229.683 9.18811 229.663C9.28141 229.631 9.37857 229.613 9.47691 229.607L10.3129 229.506C11.0374 229.43 12.0913 229.334 13.3985 229.258C16.8063 228.998 20.2336 229.185 23.5926 229.815C26.9754 230.471 30.1422 231.956 32.8089 234.136C33.6039 234.802 34.3242 235.552 34.9572 236.373C35.1389 236.592 35.308 236.822 35.4638 237.061C35.516 237.135 35.5601 237.215 35.5956 237.299Z" fill="#263238"/>
<path d="M35.4537 220.474C35.4537 220.565 30.0425 220.56 23.3697 220.474C16.6969 220.388 11.2908 220.226 11.2908 220.135C11.2908 220.044 16.702 220.054 23.3748 220.135C30.0476 220.216 35.4588 220.358 35.4537 220.474Z" fill="#263238"/>
<g opacity="0.5">
<path d="M96.7856 249.24C96.7799 249.137 96.7799 249.034 96.7856 248.931C96.7856 248.714 96.7856 248.425 96.7856 248.026C96.7856 247.626 96.7856 247.13 96.7248 246.548C96.664 245.966 96.6539 245.293 96.5779 244.524C96.1827 240.26 95.2586 236.062 93.8267 232.026C92.8481 229.234 91.6433 226.526 90.2243 223.93C88.6368 220.94 86.6996 218.15 84.4534 215.616C81.9535 212.824 78.8528 210.634 75.384 209.21C71.6577 207.683 67.677 206.87 63.6496 206.812C61.6145 206.793 59.5813 206.939 57.5696 207.247C55.6186 207.58 53.6961 208.062 51.819 208.689C50.0118 209.31 48.2581 210.077 46.575 210.981L45.9568 211.31L45.359 211.67L44.1683 212.378L43.0486 213.152L42.4912 213.537L41.9846 213.957C39.2969 216.021 36.957 218.502 35.0534 221.304C33.3892 223.744 32.0409 226.384 31.0406 229.162C30.2197 231.459 29.6308 233.832 29.2824 236.246C29.1659 237.314 29.0342 238.305 29.0139 239.226C28.9936 240.147 28.9683 240.987 28.9734 241.756C28.9784 242.525 29.0544 243.183 29.0798 243.78C29.1051 244.377 29.1862 244.853 29.2368 245.248C29.2875 245.642 29.3179 245.931 29.3483 246.148C29.3787 246.366 29.3483 246.457 29.3483 246.457C29.3483 246.457 29.3483 246.356 29.2875 246.153C29.2267 245.951 29.2064 245.647 29.1456 245.258C29.0848 244.868 28.9936 244.372 28.9582 243.79C28.9227 243.208 28.8163 242.536 28.8214 241.766C28.8264 240.997 28.7707 240.157 28.8214 239.236C28.872 238.315 28.9582 237.309 29.0696 236.236C29.3981 233.808 29.9753 231.421 30.7923 229.111C31.7832 226.307 33.1283 223.641 34.795 221.177C36.7078 218.345 39.0613 215.835 41.7667 213.744L42.2987 213.324L42.8611 212.935L43.991 212.145L45.1816 211.422L45.7795 211.057L46.4027 210.728C48.097 209.81 49.8646 209.033 51.6872 208.406C53.5821 207.77 55.5233 207.281 57.4936 206.943C59.5269 206.63 61.5823 206.483 63.6395 206.503C67.7032 206.566 71.7185 207.393 75.4752 208.942C78.9862 210.381 82.1264 212.593 84.6611 215.414C86.9072 217.984 88.8409 220.81 90.4219 223.834C91.8375 226.441 93.0339 229.161 93.999 231.965C95.418 236.023 96.3136 240.245 96.664 244.529C96.8021 246.095 96.8427 247.669 96.7856 249.24Z" fill="white"/>
</g>
<path d="M274.013 194.268C274.025 194.378 274.025 194.488 274.013 194.597C273.982 194.85 273.942 195.159 273.891 195.538C273.78 196.353 273.612 197.532 273.506 198.994C273.352 200.702 273.43 202.423 273.739 204.11C274.138 206.168 275.129 208.066 276.592 209.57C278.074 211.053 279.847 212.216 281.8 212.985C283.391 213.609 285.036 214.083 286.715 214.402C288.159 214.69 289.339 214.868 290.15 214.999L291.087 215.156C291.198 215.169 291.307 215.195 291.412 215.232C291.301 215.25 291.188 215.25 291.077 215.232L290.135 215.136C289.314 215.04 288.108 214.898 286.674 214.63C284.962 214.338 283.283 213.875 281.663 213.248C279.661 212.48 277.843 211.299 276.328 209.782C274.836 208.232 273.832 206.28 273.44 204.166C273.142 202.453 273.084 200.708 273.268 198.979C273.41 197.507 273.612 196.328 273.774 195.518C273.85 195.113 273.916 194.8 273.962 194.587C273.965 194.479 273.982 194.372 274.013 194.268Z" fill="#263238"/>
<path d="M158.862 206.655C158.954 206.633 159.048 206.624 159.141 206.63C159.41 206.617 159.68 206.63 159.947 206.67C160.167 206.697 160.379 206.77 160.569 206.885C160.759 207.001 160.921 207.155 161.046 207.338C161.216 207.583 161.318 207.868 161.341 208.165C161.364 208.462 161.308 208.76 161.178 209.028C161.01 209.343 160.778 209.619 160.496 209.838C160.214 210.057 159.888 210.214 159.541 210.298C158.768 210.465 157.972 210.504 157.185 210.415L151.855 210.111C151.367 210.104 150.884 210.014 150.426 209.843C150.197 209.754 149.988 209.618 149.813 209.443C149.639 209.269 149.503 209.061 149.413 208.831C149.345 208.596 149.335 208.348 149.381 208.108C149.428 207.868 149.531 207.642 149.682 207.45C149.949 207.083 150.325 206.809 150.756 206.665C151.523 206.461 152.319 206.381 153.112 206.427C153.841 206.427 154.525 206.427 155.138 206.478L158.072 206.605C158.433 206.597 158.793 206.615 159.151 206.66C159.061 206.687 158.967 206.699 158.873 206.696C158.69 206.696 158.422 206.721 158.072 206.726C157.378 206.726 156.375 206.726 155.133 206.726C154.515 206.726 153.836 206.726 153.107 206.726C152.347 206.693 151.586 206.778 150.852 206.979C150.48 207.102 150.158 207.339 149.93 207.657C149.808 207.81 149.725 207.99 149.687 208.182C149.649 208.374 149.658 208.572 149.712 208.76C149.788 208.95 149.903 209.122 150.05 209.265C150.196 209.408 150.371 209.519 150.563 209.59C150.987 209.744 151.435 209.824 151.886 209.828L157.211 210.157C157.968 210.25 158.736 210.224 159.486 210.081C159.803 210.012 160.103 209.878 160.365 209.686C160.626 209.494 160.845 209.249 161.006 208.968C161.124 208.734 161.179 208.474 161.165 208.213C161.151 207.952 161.068 207.699 160.925 207.48C160.818 207.306 160.676 207.156 160.507 207.041C160.339 206.926 160.148 206.848 159.947 206.812C159.253 206.67 158.857 206.691 158.862 206.655Z" fill="#263238"/>
<path d="M230.541 206.063C230.633 206.049 230.727 206.049 230.819 206.063C231.088 206.05 231.358 206.063 231.625 206.104C231.845 206.131 232.057 206.205 232.246 206.32C232.436 206.435 232.599 206.589 232.724 206.772C232.894 207.016 232.996 207.302 233.019 207.599C233.042 207.896 232.986 208.193 232.856 208.462C232.688 208.777 232.456 209.052 232.174 209.271C231.892 209.49 231.566 209.647 231.219 209.732C230.442 209.899 229.643 209.939 228.853 209.848L223.523 209.544C223.036 209.537 222.553 209.448 222.094 209.281C221.864 209.192 221.656 209.056 221.481 208.882C221.307 208.707 221.17 208.499 221.081 208.269C221.01 208.035 220.997 207.787 221.043 207.546C221.089 207.306 221.192 207.08 221.345 206.888C221.614 206.523 221.989 206.249 222.419 206.104C223.187 205.902 223.982 205.822 224.775 205.866C225.504 205.866 226.188 205.891 226.801 205.916L229.74 206.043C230.099 206.042 230.457 206.06 230.814 206.099C230.724 206.125 230.63 206.137 230.535 206.134C230.353 206.134 230.085 206.159 229.735 206.169C229.041 206.169 228.038 206.169 226.796 206.169C226.178 206.169 225.499 206.169 224.77 206.169C224.009 206.136 223.249 206.222 222.515 206.422C222.142 206.545 221.819 206.785 221.593 207.105C221.471 207.258 221.388 207.437 221.35 207.628C221.312 207.819 221.321 208.016 221.375 208.203C221.451 208.394 221.566 208.566 221.712 208.709C221.859 208.852 222.034 208.962 222.226 209.033C222.65 209.187 223.097 209.269 223.549 209.276L228.874 209.6C229.631 209.696 230.399 209.67 231.149 209.524C231.465 209.456 231.764 209.322 232.026 209.131C232.288 208.94 232.507 208.696 232.669 208.416C232.785 208.181 232.839 207.921 232.825 207.659C232.811 207.397 232.729 207.144 232.587 206.923C232.479 206.754 232.337 206.61 232.169 206.499C232.002 206.388 231.813 206.314 231.615 206.281C230.931 206.078 230.535 206.099 230.541 206.063Z" fill="#263238"/>
<path d="M241.343 195.402C241.343 195.402 241.343 195.498 241.272 195.685C241.201 195.872 241.145 196.161 241.044 196.53L240.137 199.799C239.331 202.668 238.156 206.883 236.656 212.196V212.226H236.626C234.081 213.415 231.73 214.981 229.654 216.871C228.479 217.931 227.393 219.085 226.406 220.322C225.357 221.651 224.409 223.057 223.569 224.527C221.764 227.762 220.401 231.223 219.516 234.819C218.495 238.774 217.968 242.839 217.945 246.923V247.044H217.828H167L101.437 247.019H101.341V246.928C99.6535 233.529 98.6401 222.498 97.9966 214.781C97.6825 210.936 97.49 207.93 97.3279 205.886C97.262 204.874 97.2113 204.085 97.1759 203.553C97.1404 203.022 97.1201 202.764 97.1201 202.764C97.1201 202.764 97.1505 203.032 97.1911 203.558C97.2316 204.085 97.2975 204.869 97.3735 205.886C97.5407 207.91 97.7889 210.946 98.1031 214.776C98.7668 222.462 99.8358 233.498 101.503 246.928L101.401 246.837H166.964H217.793L217.676 246.958C217.706 242.86 218.24 238.781 219.267 234.814C220.172 231.201 221.555 227.724 223.381 224.476C224.228 222.998 225.185 221.586 226.244 220.251C227.239 219.011 228.334 217.853 229.517 216.79C231.612 214.897 233.981 213.331 236.545 212.145L236.504 212.191L240.051 199.814C240.461 198.392 240.775 197.284 240.993 196.55C241.1 196.186 241.181 195.908 241.241 195.715C241.302 195.523 241.343 195.402 241.343 195.402Z" fill="#263238"/>
<path d="M168.276 197.967C168.281 198.009 168.281 198.051 168.276 198.094C168.276 198.19 168.251 198.311 168.236 198.463C168.195 198.807 168.134 199.283 168.058 199.88C167.982 200.477 167.881 201.251 167.79 202.126C167.699 203.002 167.572 203.999 167.481 205.107C167.39 206.215 167.273 207.419 167.197 208.72C167.121 210.02 167.045 211.417 166.974 212.879C166.878 215.809 166.853 219.037 166.974 222.417C167.096 225.797 167.339 229.02 167.638 231.935C167.8 233.392 167.947 234.779 168.145 236.069C168.342 237.359 168.499 238.563 168.677 239.661C168.854 240.759 169.036 241.741 169.183 242.611C169.33 243.482 169.477 244.226 169.604 244.833C169.73 245.44 169.806 245.895 169.872 246.234L169.938 246.604C169.945 246.646 169.945 246.688 169.938 246.73C169.918 246.692 169.904 246.651 169.898 246.609C169.871 246.514 169.84 246.393 169.806 246.245C169.73 245.905 169.624 245.44 169.487 244.853C169.35 244.266 169.183 243.507 169.021 242.637C168.859 241.766 168.646 240.79 168.474 239.692C168.302 238.594 168.084 237.395 167.912 236.099C167.739 234.804 167.557 233.422 167.405 231.96C167.096 229.041 166.842 225.817 166.721 222.427C166.599 219.037 166.65 215.809 166.756 212.869C166.832 211.401 166.893 210.01 167.005 208.704C167.116 207.399 167.207 206.174 167.324 205.086C167.44 203.999 167.562 202.987 167.668 202.111C167.775 201.236 167.886 200.482 167.982 199.87C168.079 199.257 168.155 198.797 168.21 198.458L168.276 198.088C168.27 198.048 168.27 198.007 168.276 197.967Z" fill="#263238"/>
<path d="M97.7331 196.525C96.1118 197.739 93.6798 198.043 91.7038 197.633C89.7278 197.223 88.1571 196.307 87.1438 194.552L91.6025 194.354L97.7331 196.525Z" fill="#263238"/>
<path d="M91.5923 194.354C91.5923 194.354 96.0915 197.092 97.3987 196.717C98.7059 196.343 119.692 179.786 132.333 173.396C131.096 172.938 129.802 172.645 128.488 172.525C128.488 172.525 122.6 175.501 115.254 179.913C109.68 183.273 103.98 186.795 101.32 188.414L91.5923 194.354Z" fill="#455A64"/>
<path d="M105.982 197.866L105.835 197.957L105.394 198.215L103.671 199.192L97.1758 202.83C93.1225 202.683 87.8785 202.577 81.8846 202.83C78.8902 202.961 75.7084 203.174 72.3948 203.513C69.0812 203.852 65.6308 204.323 62.0993 204.884C55.9129 205.846 50.0812 207.065 44.7409 208.042C40.009 208.902 35.229 209.475 30.4276 209.757C26.3286 209.99 22.9998 209.929 20.7097 209.863C19.5596 209.828 18.683 209.782 18.07 209.747L17.3809 209.701C17.3033 209.705 17.2255 209.705 17.1478 209.701C17.1478 209.701 17.2289 209.701 17.386 209.701H18.07C18.6729 209.701 19.59 209.752 20.7097 209.772C23.0049 209.808 26.3236 209.838 30.4174 209.58C35.192 209.275 39.9444 208.689 44.6497 207.824C49.9798 206.812 55.8217 205.608 62.0132 204.641C65.5598 204.08 69.0001 203.629 72.3238 203.275C75.6476 202.921 78.8345 202.734 81.834 202.617C87.8329 202.385 93.0668 202.521 97.1404 202.693H97.0948L103.631 199.151L105.374 198.21L105.825 197.972C105.872 197.93 105.925 197.894 105.982 197.866Z" fill="#263238"/>
<path d="M110.76 198.387C142.619 196.965 206.884 195.781 238.744 194.339C238.744 194.339 239.792 190.843 236.793 188.657C235.704 187.862 229.087 182.863 221.36 179.923C211.884 176.391 201.995 174.083 191.933 173.057C186.258 172.596 175.876 172.176 175.876 172.176C175.876 172.176 156.871 172.935 151.556 173.411C144.872 173.965 138.347 175.739 132.303 178.643C125.691 181.952 114.134 191.632 114.134 191.632L106.027 198.402L110.76 198.387Z" fill="#455A64"/>
<path d="M169.391 171.26L163.24 197.517L174.392 197.163L176.606 171.26H169.391Z" fill="#263238"/>
<path d="M217.59 177.616L216.511 195.402H218.056L219.105 178.172L217.59 177.616Z" fill="#263238"/>
<path d="M111.965 192.366C112.472 193.018 115.284 199.374 115.284 199.374L104.522 198.67L111.965 192.366Z" fill="#263238"/>
<path d="M122.058 198.741L113.84 198.969C112.761 198.969 111.91 197.036 111.945 194.683C111.976 192.578 112.705 190.802 113.668 190.494L121.455 188.029L122.058 198.741Z" fill="#5E88C6"/>
<path d="M172.882 170.962C172.953 170.962 172.081 176.953 170.941 184.325C169.801 191.698 168.808 197.664 168.737 197.648C168.667 197.633 169.533 191.657 170.678 184.285C171.823 176.913 172.806 170.947 172.882 170.962Z" fill="#455A64"/>
<path d="M112.285 191.976C112.008 192.936 111.585 193.848 111.028 194.678C110.547 195.554 109.929 196.348 109.199 197.031C109.138 196.981 109.959 195.938 110.805 194.542C111.651 193.145 112.214 191.946 112.285 191.976Z" fill="#455A64"/>
<path d="M157.758 176.037C157.725 176.112 157.685 176.183 157.636 176.249L157.256 176.842C156.896 177.388 156.41 178.117 155.822 178.997C154.601 180.814 152.924 183.323 151.095 186.116C149.266 188.91 147.64 191.45 146.464 193.292L145.061 195.467C144.909 195.705 144.777 195.897 144.671 196.054C144.63 196.126 144.581 196.192 144.524 196.252C144.524 196.252 144.549 196.171 144.625 196.029L144.975 195.417C145.284 194.885 145.735 194.126 146.302 193.195C147.442 191.323 149.048 188.763 150.862 185.97C152.676 183.177 154.409 180.682 155.65 178.886C156.278 177.995 156.795 177.272 157.17 176.781C157.342 176.558 157.479 176.371 157.596 176.214C157.712 176.057 157.748 176.032 157.758 176.037Z" fill="#EBEBEB"/>
<path d="M153.081 179.994C152.319 181.286 151.481 182.533 150.573 183.728C149.739 184.976 148.831 186.172 147.853 187.311C148.616 186.019 149.453 184.772 150.361 183.576C151.196 182.329 152.104 181.133 153.081 179.994Z" fill="#EBEBEB"/>
<path d="M314.809 212.454C314.809 212.454 312.165 212.621 310.168 211.766C309.411 211.447 308.726 210.979 308.153 210.39C307.581 209.802 307.133 209.104 306.837 208.338C306.54 207.573 306.401 206.755 306.428 205.935C306.454 205.115 306.646 204.308 306.992 203.564L307.022 203.503C307.48 202.554 308.19 201.749 309.076 201.178C309.962 200.607 310.989 200.291 312.043 200.264H313.148C313.557 201.086 313.801 201.98 313.867 202.896C314.166 205.294 314.617 208.973 314.809 212.454Z" fill="#F5F5F5"/>
<path d="M197.774 176.887C197.835 176.928 195.403 180.859 192.343 185.671C189.283 190.483 186.77 194.349 186.688 194.309C186.607 194.268 189.055 190.342 192.12 185.53C195.185 180.717 197.714 176.847 197.774 176.887Z" fill="#EBEBEB"/>
<path d="M196.933 181.851C196.405 182.907 195.799 183.922 195.119 184.887C194.518 185.906 193.84 186.879 193.093 187.797C193.624 186.742 194.232 185.727 194.912 184.761C195.512 183.742 196.188 182.769 196.933 181.851Z" fill="#EBEBEB"/>
<path d="M120.178 189.552C118.177 190.499 116.037 191.122 113.84 191.399C113.84 191.323 115.259 190.984 117.002 190.473C118.745 189.962 120.153 189.482 120.178 189.552Z" fill="#EBEBEB"/>
<path d="M164.284 200.669C164.284 200.745 150.913 200.801 134.426 200.801C117.939 200.801 104.563 200.745 104.563 200.669C104.563 200.593 117.929 200.538 134.426 200.538C150.923 200.538 164.284 200.598 164.284 200.669Z" fill="#EBEBEB"/>
<path d="M159.896 205.972C158.454 206.105 157.006 206.149 155.559 206.104C154.11 206.149 152.66 206.106 151.217 205.972C152.66 205.842 154.11 205.798 155.559 205.841C157.006 205.798 158.454 205.842 159.896 205.972Z" fill="#EBEBEB"/>
<path d="M62.8085 211.983C62.6973 211.994 62.5853 211.994 62.4741 211.983C62.2563 211.983 61.9371 211.983 61.5267 211.983C60.3682 211.984 59.2109 212.055 58.0611 212.196C54.2555 212.648 50.5923 213.915 47.3213 215.909C44.0503 217.904 41.2484 220.579 39.1067 223.753C38.4551 224.709 37.8629 225.705 37.3333 226.733C37.1357 227.098 37.0091 227.386 36.9077 227.578C36.8663 227.681 36.8118 227.778 36.7456 227.867C36.7757 227.761 36.8147 227.658 36.8621 227.558C36.9483 227.361 37.0597 227.052 37.2421 226.688C37.7377 225.636 38.3083 224.622 38.9496 223.652C41.0679 220.419 43.8801 217.697 47.1821 215.684C50.4842 213.672 54.1934 212.418 58.0408 212.014C59.1996 211.884 60.3664 211.84 61.5317 211.882C61.9421 211.882 62.2613 211.928 62.4792 211.943C62.5902 211.943 62.7008 211.957 62.8085 211.983Z" fill="#EBEBEB"/>
<path d="M215.528 199.268C215.528 199.338 206.677 199.399 195.768 199.399C184.86 199.399 176.008 199.338 176.008 199.268C176.008 199.197 184.854 199.136 195.768 199.136C206.682 199.136 215.528 199.192 215.528 199.268Z" fill="#EBEBEB"/>
<path d="M232.866 205.198C232.391 205.238 231.913 205.238 231.438 205.198C230.556 205.198 229.34 205.152 227.997 205.142C226.655 205.132 225.439 205.142 224.557 205.142C224.081 205.176 223.603 205.167 223.128 205.117C223.596 205.016 224.073 204.962 224.552 204.955C225.434 204.899 226.649 204.854 227.997 204.859C229.345 204.864 230.566 204.925 231.448 204.995C231.926 205.013 232.402 205.081 232.866 205.198Z" fill="#EBEBEB"/>
<path d="M264.948 159.334C264.008 159.334 263.105 158.961 262.44 158.297C261.775 157.632 261.402 156.731 261.402 155.792V151.744C261.402 151.744 258.488 151.289 258.453 148.379C258.417 145.47 258.924 138.765 258.924 138.765C260.581 138.055 262.398 137.799 264.188 138.024C265.977 138.249 267.674 138.947 269.103 140.045L268.414 156.045C268.358 156.929 267.969 157.758 267.327 158.368C266.684 158.978 265.835 159.323 264.948 159.334Z" fill="#B78876"/>
<path d="M261.442 151.719C262.788 151.742 264.111 151.365 265.242 150.636C265.242 150.636 264.34 152.736 261.432 152.473L261.442 151.719Z" fill="#AA6550"/>
<path d="M268.819 143.42C268.87 143.42 270.846 142.833 270.76 144.822C270.674 146.81 268.708 146.34 268.708 146.279C268.708 146.218 268.819 143.42 268.819 143.42Z" fill="#B78876"/>
<path d="M269.341 145.545C269.341 145.545 269.372 145.571 269.432 145.601C269.473 145.618 269.517 145.627 269.561 145.627C269.606 145.627 269.65 145.618 269.691 145.601C269.822 145.525 269.931 145.414 270.005 145.282C270.079 145.149 270.115 144.999 270.111 144.847C270.123 144.675 270.095 144.502 270.03 144.341C270.014 144.278 269.982 144.22 269.938 144.173C269.894 144.125 269.838 144.089 269.777 144.068C269.738 144.055 269.695 144.057 269.657 144.072C269.619 144.088 269.588 144.117 269.569 144.154C269.544 144.21 269.569 144.25 269.544 144.255C269.518 144.26 269.503 144.22 269.544 144.139C269.557 144.089 269.587 144.046 269.63 144.017C269.657 143.997 269.688 143.982 269.721 143.974C269.755 143.966 269.789 143.965 269.822 143.972C269.902 143.992 269.976 144.032 270.037 144.088C270.098 144.143 270.144 144.213 270.172 144.291C270.252 144.465 270.289 144.656 270.278 144.847C270.284 145.025 270.236 145.201 270.14 145.352C270.044 145.503 269.905 145.621 269.741 145.692C269.688 145.705 269.632 145.706 269.578 145.695C269.524 145.685 269.472 145.663 269.427 145.631C269.341 145.586 269.331 145.55 269.341 145.545Z" fill="#AA6550"/>
<path d="M260.018 143.309C260.018 143.418 260.06 143.522 260.136 143.601C260.212 143.679 260.315 143.725 260.424 143.729C260.476 143.733 260.529 143.727 260.58 143.71C260.63 143.693 260.676 143.667 260.716 143.632C260.755 143.597 260.788 143.554 260.811 143.507C260.834 143.459 260.847 143.407 260.849 143.355C260.851 143.301 260.841 143.247 260.822 143.197C260.803 143.147 260.773 143.101 260.736 143.062C260.699 143.023 260.655 142.991 260.605 142.97C260.556 142.948 260.503 142.936 260.449 142.935C260.396 142.93 260.343 142.937 260.292 142.954C260.242 142.97 260.195 142.997 260.155 143.032C260.115 143.066 260.082 143.109 260.059 143.157C260.035 143.204 260.022 143.256 260.018 143.309Z" fill="#263238"/>
<path d="M259.512 142.894C259.567 142.945 259.882 142.712 260.327 142.717C260.773 142.722 261.108 142.94 261.153 142.884C261.199 142.828 261.123 142.763 260.981 142.656C260.787 142.524 260.557 142.453 260.322 142.454C260.089 142.455 259.862 142.529 259.674 142.666C259.537 142.773 259.486 142.869 259.512 142.894Z" fill="#263238"/>
<path d="M264.406 143.309C264.406 143.418 264.448 143.522 264.524 143.601C264.599 143.679 264.702 143.725 264.811 143.729C264.864 143.733 264.917 143.727 264.967 143.71C265.017 143.693 265.064 143.667 265.103 143.632C265.143 143.597 265.175 143.554 265.198 143.507C265.221 143.459 265.234 143.407 265.237 143.355C265.238 143.301 265.229 143.247 265.21 143.197C265.19 143.147 265.161 143.101 265.124 143.062C265.087 143.023 265.042 142.991 264.993 142.97C264.944 142.948 264.891 142.936 264.837 142.935C264.784 142.93 264.73 142.937 264.68 142.954C264.629 142.97 264.583 142.997 264.543 143.032C264.503 143.066 264.47 143.109 264.446 143.157C264.423 143.204 264.409 143.256 264.406 143.309Z" fill="#263238"/>
<path d="M263.92 142.975C263.97 143.031 264.285 142.798 264.735 142.798C265.186 142.798 265.511 143.026 265.556 142.97C265.602 142.914 265.531 142.849 265.384 142.742C265.191 142.607 264.961 142.536 264.725 142.54C264.492 142.538 264.265 142.61 264.077 142.747C263.94 142.854 263.894 142.95 263.92 142.975Z" fill="#263238"/>
<path d="M262.293 146.294C262.057 146.22 261.811 146.175 261.564 146.163C261.452 146.163 261.341 146.127 261.32 146.052C261.311 145.933 261.338 145.815 261.396 145.713C261.508 145.434 261.619 145.146 261.736 144.842C262.051 144.105 262.305 143.344 262.496 142.565C262.124 143.276 261.809 144.016 261.553 144.776C261.442 145.08 261.336 145.373 261.229 145.652C261.159 145.789 261.139 145.947 261.173 146.097C261.189 146.138 261.214 146.175 261.246 146.204C261.279 146.233 261.318 146.254 261.361 146.264C261.423 146.283 261.488 146.293 261.553 146.294C261.799 146.326 262.048 146.326 262.293 146.294Z" fill="#263238"/>
<path d="M263.611 146.598C263.54 146.598 263.535 147.104 263.104 147.423C262.673 147.741 262.172 147.716 262.167 147.782C262.162 147.848 262.283 147.878 262.501 147.883C262.794 147.893 263.08 147.796 263.307 147.61C263.517 147.438 263.653 147.191 263.687 146.922C263.697 146.719 263.646 146.598 263.611 146.598Z" fill="#263238"/>
<path d="M263.813 141.224C263.859 141.346 264.32 141.285 264.826 141.351C265.333 141.417 265.774 141.558 265.84 141.447C265.906 141.336 265.799 141.28 265.627 141.164C265.399 141.015 265.138 140.925 264.867 140.9C264.598 140.868 264.326 140.899 264.072 140.991C263.879 141.067 263.783 141.164 263.813 141.224Z" fill="#263238"/>
<path d="M259.679 141.599C259.755 141.7 260.064 141.599 260.439 141.599C260.814 141.599 261.123 141.67 261.194 141.563C261.265 141.457 261.194 141.406 261.042 141.31C260.857 141.195 260.641 141.137 260.423 141.144C260.204 141.151 259.993 141.223 259.816 141.351C259.689 141.442 259.643 141.538 259.679 141.599Z" fill="#263238"/>
<path d="M257.541 136.984C257.521 136.803 257.548 136.62 257.618 136.452C257.687 136.284 257.799 136.136 257.941 136.023C258.089 135.908 258.275 135.852 258.462 135.867C258.649 135.881 258.825 135.963 258.954 136.098C258.927 135.977 258.926 135.851 258.951 135.728C258.975 135.606 259.025 135.49 259.097 135.388C259.169 135.286 259.262 135.2 259.369 135.136C259.476 135.072 259.595 135.031 259.719 135.016C260.196 134.99 260.601 135.345 261.062 135.471C261.52 135.571 261.997 135.516 262.42 135.314C262.851 135.142 263.256 134.904 263.692 134.742C264.614 134.406 265.633 134.447 266.525 134.856C267.418 135.266 268.113 136.01 268.459 136.928C268.785 136.849 269.127 136.87 269.441 136.989C269.754 137.107 270.025 137.317 270.217 137.591C270.586 138.156 270.734 138.837 270.633 139.504C270.569 139.95 270.457 140.388 270.299 140.809C270.299 140.85 270.299 140.885 270.299 140.921C270.268 142.525 270.086 144.402 269.402 144.412C268.211 144.412 268.495 142.191 268.495 142.191C267.031 141.624 267.578 139.433 267.208 139.104C266.838 138.775 266.078 138.001 263.018 139.565C261.877 140.074 260.603 140.211 259.38 139.954H259.304C259.027 139.886 258.762 139.775 258.519 139.625C258.232 139.461 258.004 139.209 257.87 138.907C257.806 138.754 257.788 138.587 257.818 138.424C257.848 138.262 257.924 138.111 258.037 137.991C257.771 137.715 257.597 137.363 257.541 136.984Z" fill="#263238"/>
<path d="M293.58 156.642C293.509 156.763 292.678 158.327 292.678 158.327C292.678 158.327 293.337 155.772 293.362 155.681C293.575 154.846 293.058 154.932 292.906 155.23C292.754 155.529 291.817 158.049 291.817 158.049C292.693 154.77 292.42 154.476 292.171 154.426C291.923 154.375 291.158 157.376 291.158 157.376C290.957 157.034 290.686 156.74 290.363 156.51C289.567 155.964 288.245 156.51 288.184 156.885C288.123 157.259 288.589 157.36 288.589 157.36C288.776 157.22 288.999 157.136 289.232 157.121C289.465 157.106 289.698 157.159 289.901 157.274C290.104 157.389 290.269 157.561 290.376 157.769C290.482 157.977 290.525 158.211 290.499 158.443C290.482 158.615 290.406 158.775 290.284 158.896C290.162 159.018 290.002 159.093 289.83 159.11C289.659 159.127 289.487 159.084 289.344 158.988C289.201 158.892 289.095 158.75 289.045 158.585C288.716 157.107 288.209 157.573 288.209 157.573L288.716 160.837L288.179 162.476L285.22 170.486L279.565 164.606C279.565 164.606 276.525 171.281 276.475 171.503C276.424 171.726 279.307 174.65 281.202 176.599C281.873 177.286 282.717 177.779 283.644 178.028C284.572 178.277 285.55 178.272 286.476 178.013C287.401 177.754 288.239 177.252 288.903 176.557C289.566 175.863 290.03 175.004 290.246 174.069L292.48 162.567L293.529 158.798C293.529 158.798 293.904 157.28 293.995 156.91C294.112 156.47 293.777 156.323 293.58 156.642Z" fill="#B78876"/>
<path d="M243.349 179.114C245.036 179.412 246.972 178.198 248.01 176.837L252.221 171.296L247.271 166.889L242.837 172.404L226.188 171.524L222.267 169.338C221.997 169.186 221.685 169.129 221.38 169.176L215.969 170.694L221.035 172.252L229.897 175.582L243.349 179.114Z" fill="#B78876"/>
<path d="M281.085 260.605L281.785 263.534C281.785 263.534 286.578 269.748 288.057 269.445C289.025 269.247 287.834 267.623 286.03 262.902L285.65 260.954L281.085 260.605Z" fill="#5E88C6"/>
<path d="M288.25 268.544C288.242 268.574 288.23 268.603 288.214 268.63C288.166 268.71 288.095 268.775 288.012 268.817C287.881 268.887 287.734 268.921 287.586 268.913C287.391 268.894 287.204 268.824 287.044 268.711C286.185 268.022 285.377 267.271 284.627 266.464C283.868 265.669 283.153 264.833 282.484 263.96C282.231 263.621 282.028 263.347 281.896 263.15C281.841 263.074 281.79 262.998 281.744 262.927C281.726 262.902 281.709 262.875 281.694 262.846C281.694 262.846 281.719 262.846 281.759 262.917L281.927 263.13L282.54 263.919C283.046 264.577 283.806 265.473 284.693 266.399C285.441 267.199 286.238 267.953 287.079 268.655C287.205 268.76 287.358 268.827 287.519 268.85C287.681 268.873 287.846 268.852 287.997 268.787C288.103 268.732 288.191 268.648 288.25 268.544Z" fill="#263238"/>
<path d="M287.571 266.52C287.571 266.52 287.419 266.52 287.186 266.52C286.879 266.567 286.586 266.677 286.325 266.844C286.055 266.998 285.831 267.222 285.676 267.492C285.56 267.699 285.529 267.846 285.514 267.846C285.516 267.711 285.551 267.579 285.615 267.461C285.763 267.17 285.992 266.927 286.274 266.763C286.546 266.591 286.855 266.485 287.176 266.454C287.311 266.437 287.448 266.46 287.571 266.52Z" fill="#263238"/>
<path d="M283.036 265.068C283.036 265.068 283.087 264.86 283.122 264.521C283.17 264.08 283.087 263.635 282.884 263.241C282.684 262.844 282.363 262.52 281.967 262.315C281.804 262.238 281.634 262.176 281.46 262.128C281.511 262.12 281.562 262.12 281.612 262.128C281.75 262.151 281.885 262.192 282.013 262.249C282.432 262.446 282.773 262.777 282.98 263.19C283.196 263.6 283.274 264.069 283.203 264.526C283.183 264.662 283.151 264.796 283.107 264.926C283.067 265.002 283.067 265.073 283.036 265.068Z" fill="#263238"/>
<path d="M281.395 261.101C281.53 261.392 281.619 261.703 281.658 262.021C281.744 262.527 281.841 262.947 281.82 262.958C281.686 262.667 281.6 262.355 281.567 262.037C281.476 261.521 281.369 261.111 281.395 261.101Z" fill="#263238"/>
<path d="M286.107 263.317C286.107 263.342 285.833 263.317 285.514 263.408C285.195 263.499 284.951 263.611 284.936 263.585C285.091 263.445 285.282 263.351 285.489 263.317C285.69 263.256 285.905 263.256 286.107 263.317Z" fill="#263238"/>
<path d="M286.193 263.818C286.193 263.818 285.965 263.818 285.686 263.884C285.407 263.949 285.23 264.071 285.21 264.046C285.328 263.911 285.489 263.822 285.666 263.793C285.838 263.734 286.027 263.743 286.193 263.818Z" fill="#263238"/>
<path d="M286.578 264.445C286.409 264.429 286.24 264.429 286.071 264.445C285.908 264.501 285.748 264.569 285.595 264.648C285.644 264.568 285.711 264.501 285.79 264.45C285.869 264.399 285.958 264.367 286.051 264.354C286.14 264.329 286.234 264.324 286.325 264.34C286.416 264.356 286.503 264.392 286.578 264.445Z" fill="#263238"/>
<path d="M285.767 263.104C285.713 263.111 285.659 263.111 285.605 263.104C285.461 263.075 285.319 263.036 285.179 262.988C284.974 262.915 284.774 262.827 284.582 262.725C284.469 262.663 284.361 262.594 284.257 262.517C284.192 262.479 284.136 262.426 284.094 262.363C284.052 262.3 284.025 262.228 284.014 262.153C284.02 262.112 284.034 262.073 284.056 262.039C284.078 262.004 284.108 261.974 284.143 261.952C284.177 261.93 284.216 261.916 284.257 261.91C284.298 261.905 284.34 261.908 284.379 261.92C284.509 261.964 284.625 262.043 284.713 262.148C284.87 262.297 285.017 262.456 285.154 262.624C285.271 262.77 285.362 262.892 285.418 262.978C285.451 263.02 285.478 263.066 285.499 263.114C285.499 263.114 285.352 262.942 285.104 262.669C284.982 262.533 284.83 262.376 284.653 262.209C284.574 262.118 284.473 262.05 284.359 262.011C284.252 261.986 284.11 262.042 284.11 262.158C284.11 262.275 284.212 262.371 284.308 262.447C284.404 262.522 284.521 262.588 284.627 262.649C284.813 262.755 285.006 262.848 285.205 262.927C285.544 263.044 285.767 263.089 285.767 263.104Z" fill="#263238"/>
<path d="M285.514 263.044C285.505 262.995 285.505 262.946 285.514 262.897C285.514 262.806 285.514 262.669 285.544 262.502C285.567 262.302 285.618 262.106 285.696 261.921C285.742 261.81 285.806 261.708 285.884 261.617C285.923 261.555 285.984 261.508 286.054 261.486C286.124 261.464 286.2 261.467 286.269 261.496C286.324 261.54 286.366 261.599 286.39 261.666C286.413 261.733 286.417 261.806 286.4 261.875C286.38 261.994 286.344 262.11 286.294 262.219C286.212 262.407 286.097 262.578 285.955 262.725C285.86 262.822 285.756 262.91 285.645 262.988C285.569 263.039 285.524 263.064 285.519 263.059C285.514 263.054 285.681 262.927 285.904 262.68C286.034 262.538 286.138 262.376 286.213 262.199C286.259 262.097 286.291 261.99 286.309 261.88C286.309 261.774 286.309 261.637 286.223 261.592C286.137 261.546 286.025 261.592 285.949 261.693C285.879 261.778 285.82 261.872 285.772 261.971C285.694 262.149 285.64 262.336 285.61 262.528C285.587 262.701 285.555 262.874 285.514 263.044Z" fill="#263238"/>
<g opacity="0.4">
<path d="M281.785 263.535L281.445 262.128C281.445 262.128 282.621 262.346 282.925 263.221C283.106 263.705 283.186 264.222 283.158 264.739L285.691 267.486C285.691 267.486 286.335 266.237 287.495 266.535C287.495 266.535 288.407 268.559 288.377 269.04C288.346 269.521 287.763 269.485 287.556 269.389C286.713 268.9 285.943 268.293 285.271 267.588C283.933 266.171 282.438 264.395 281.785 263.535Z" fill="black"/>
</g>
<path d="M257.262 262.087L257.237 258.181L264.558 258.095L264.654 263.803L264.198 263.838C262.172 263.975 253.923 264.39 252.545 263.995C251.06 263.56 257.262 262.087 257.262 262.087Z" fill="#5E88C6"/>
<g opacity="0.4">
<path d="M262 263.777C262.099 263.16 262.424 262.601 262.912 262.209C263.39 261.815 264 261.618 264.619 261.657V263.681L262 263.777Z" fill="black"/>
</g>
<g opacity="0.4">
<path d="M254.232 262.912C254.232 262.912 252.059 263.57 252.337 263.924C252.616 264.278 260.951 264.172 264.654 263.803V263.641L254.906 263.848C254.906 263.848 254.658 262.927 254.232 262.912Z" fill="black"/>
</g>
<path d="M264.756 263.636H264.629L264.269 263.661L262.937 263.737C261.812 263.788 260.262 263.843 258.544 263.869C256.826 263.894 255.276 263.869 254.151 263.869L252.819 263.828H252.459H252.332H252.839H254.171C255.296 263.828 256.847 263.828 258.564 263.828C260.282 263.828 261.832 263.762 262.957 263.722L264.285 263.676H264.649L264.756 263.636Z" fill="#263238"/>
<path d="M254.896 263.96C254.83 263.741 254.744 263.529 254.638 263.327C254.503 263.142 254.348 262.972 254.177 262.821C254.398 262.914 254.585 263.073 254.713 263.276C254.842 263.478 254.906 263.715 254.896 263.954V263.96Z" fill="#263238"/>
<path d="M257.039 262.836C257.039 262.836 256.912 262.73 256.806 262.563C256.7 262.396 256.624 262.249 256.644 262.234C256.664 262.219 256.771 262.345 256.882 262.512C256.994 262.679 257.059 262.826 257.039 262.836Z" fill="#263238"/>
<path d="M257.627 262.518C257.627 262.518 257.495 262.462 257.368 262.351C257.242 262.239 257.151 262.133 257.166 262.113C257.181 262.092 257.297 262.173 257.429 262.285C257.561 262.396 257.647 262.497 257.627 262.518Z" fill="#263238"/>
<path d="M257.997 261.824C257.874 261.869 257.742 261.887 257.612 261.875C257.484 261.893 257.354 261.88 257.232 261.84C257.354 261.797 257.483 261.78 257.612 261.789C257.741 261.772 257.873 261.784 257.997 261.824Z" fill="#263238"/>
<path d="M258.118 261.333C257.994 261.422 257.845 261.468 257.693 261.465C257.544 261.493 257.39 261.473 257.252 261.409C257.394 261.387 257.538 261.375 257.683 261.374C257.827 261.352 257.972 261.339 258.118 261.333Z" fill="#263238"/>
<path d="M256.786 262.204C256.63 262.231 256.47 262.231 256.315 262.204C256.143 262.185 255.973 262.149 255.808 262.097C255.708 262.071 255.611 262.034 255.519 261.986C255.461 261.955 255.417 261.902 255.397 261.839C255.39 261.805 255.392 261.768 255.405 261.735C255.417 261.702 255.44 261.673 255.468 261.652C255.646 261.561 255.851 261.535 256.046 261.578C256.241 261.622 256.415 261.732 256.537 261.89C256.612 261.98 256.665 262.086 256.695 262.199C256.705 262.24 256.705 262.284 256.695 262.325C256.644 262.183 256.57 262.049 256.477 261.93C256.369 261.808 256.228 261.719 256.071 261.672C255.885 261.614 255.683 261.63 255.509 261.718C255.438 261.774 255.463 261.865 255.549 261.91C255.633 261.958 255.721 261.995 255.813 262.022C255.979 262.073 256.148 262.112 256.32 262.138C256.603 262.194 256.786 262.189 256.786 262.204Z" fill="#263238"/>
<path d="M256.664 262.229C256.633 262.182 256.612 262.129 256.602 262.073C256.591 262.018 256.592 261.961 256.603 261.905C256.616 261.78 256.659 261.66 256.73 261.556C256.769 261.486 256.824 261.428 256.891 261.385C256.959 261.343 257.036 261.318 257.115 261.313C257.139 261.317 257.162 261.327 257.183 261.34C257.204 261.353 257.221 261.37 257.235 261.391C257.249 261.411 257.258 261.434 257.263 261.458C257.268 261.482 257.267 261.507 257.262 261.531C257.255 261.605 257.229 261.677 257.186 261.738C257.128 261.844 257.054 261.942 256.968 262.027C256.821 262.173 256.705 262.229 256.7 262.219C256.695 262.209 256.796 262.133 256.923 261.986C256.995 261.898 257.059 261.803 257.115 261.703C257.181 261.602 257.222 261.419 257.115 261.399C257.009 261.379 256.882 261.511 256.811 261.607C256.746 261.697 256.701 261.801 256.679 261.91C256.665 262.016 256.66 262.123 256.664 262.229Z" fill="#263238"/>
<path d="M264.578 261.637C264.398 261.628 264.217 261.628 264.036 261.637C263.607 261.695 263.202 261.87 262.866 262.143C262.531 262.418 262.28 262.78 262.141 263.19C262.035 263.509 262.025 263.696 262.009 263.696C262.001 263.648 262.001 263.598 262.009 263.55C262.024 263.416 262.049 263.284 262.085 263.155C262.21 262.723 262.464 262.339 262.812 262.055C263.161 261.77 263.588 261.598 264.036 261.561C264.171 261.545 264.307 261.545 264.441 261.561C264.492 261.577 264.538 261.603 264.578 261.637Z" fill="#263238"/>
<path d="M263.783 258.601C263.84 259.105 263.868 259.612 263.864 260.119C263.894 260.625 263.894 261.132 263.864 261.637C263.806 261.133 263.777 260.626 263.778 260.119C263.748 259.613 263.75 259.106 263.783 258.601Z" fill="#263238"/>
<path d="M261.067 263.079C260.717 263.163 260.358 263.202 259.998 263.196C259.64 263.22 259.28 263.196 258.929 263.125C258.929 263.099 259.41 263.125 259.998 263.125C260.586 263.125 261.062 263.054 261.067 263.079Z" fill="#263238"/>
<path d="M262.501 263.059C262.501 263.059 262.466 263.16 262.415 263.266C262.364 263.373 262.344 263.474 262.319 263.474C262.293 263.474 262.278 263.358 262.319 263.231C262.359 263.105 262.486 263.039 262.501 263.059Z" fill="#263238"/>
<path d="M263.033 262.376C263.033 262.376 263.008 262.472 262.932 262.548C262.856 262.624 262.78 262.674 262.764 262.659C262.749 262.644 262.79 262.563 262.866 262.487C262.942 262.411 263.018 262.361 263.033 262.376Z" fill="#263238"/>
<path d="M263.813 262.062C263.813 262.087 263.712 262.087 263.605 262.128C263.499 262.168 263.423 262.224 263.403 262.204C263.382 262.184 263.443 262.087 263.575 262.042C263.707 261.996 263.813 262.037 263.813 262.062Z" fill="#263238"/>
<path d="M264.35 261.91C264.35 261.91 264.32 261.971 264.259 261.996C264.198 262.022 264.143 262.022 264.133 261.996C264.122 261.971 264.168 261.936 264.229 261.91C264.29 261.885 264.345 261.885 264.35 261.91Z" fill="#263238"/>
<path d="M288.863 261.126L274.387 184.568L254.268 187.629L255.696 260.402L267.096 260.64L265.201 197.152L278.025 261.126H288.863Z" fill="#455A64"/>
<path d="M276.612 191.89L253.614 191.035L254.268 170.071L251.253 173.507L245.102 168.189L251.866 158.985C252.736 157.811 253.832 156.824 255.091 156.081C256.349 155.338 257.744 154.854 259.192 154.659C260.049 154.542 260.712 154.482 261.128 154.431C263.569 155.203 266.19 155.203 268.632 154.431C269.692 154.467 270.74 154.668 271.738 155.028C273.618 155.692 275.316 156.79 276.693 158.231L284.237 168.417L277.787 173.983L274.114 170.754L276.612 191.89Z" fill="#263238"/>
<path d="M254.612 162.157C254.683 162.157 254.612 165.649 254.45 169.945C254.288 174.241 254.1 177.727 254.029 177.722C253.959 177.717 254.029 174.236 254.187 169.935C254.344 165.634 254.536 162.157 254.612 162.157Z" fill="#455A64"/>
<path d="M273.298 163.534C273.578 165.022 273.767 166.526 273.866 168.037C274.055 169.54 274.158 171.052 274.175 172.566C273.895 171.077 273.705 169.574 273.607 168.062C273.418 166.56 273.314 165.048 273.298 163.534Z" fill="#455A64"/>
<path d="M262.04 154.659C262.085 154.719 261.908 154.927 261.65 155.134C261.391 155.342 261.143 155.453 261.097 155.397C261.052 155.342 261.229 155.129 261.488 154.922C261.746 154.714 261.994 154.603 262.04 154.659Z" fill="#455A64"/>
<path d="M263.084 154.886C263.149 154.922 263.084 155.134 263.033 155.392C262.982 155.65 262.896 155.838 262.82 155.832C262.744 155.827 262.704 155.595 262.78 155.326C262.856 155.058 263.023 154.851 263.084 154.886Z" fill="#455A64"/>
<path d="M264.274 155.038C264.35 155.038 264.416 155.23 264.431 155.478C264.447 155.726 264.391 155.924 264.32 155.929C264.249 155.934 264.178 155.736 264.168 155.488C264.158 155.24 264.203 155.038 264.274 155.038Z" fill="#455A64"/>
<path d="M265.804 154.922C265.88 154.922 265.941 155.134 266.012 155.387C266.083 155.64 266.129 155.858 266.068 155.893C266.007 155.929 265.835 155.746 265.754 155.458C265.673 155.17 265.733 154.922 265.804 154.922Z" fill="#455A64"/>
<path d="M267.512 154.74C267.583 154.714 267.699 154.866 267.836 155.048C267.973 155.23 268.09 155.382 268.044 155.443C267.998 155.504 267.791 155.443 267.628 155.205C267.466 154.967 267.446 154.765 267.512 154.74Z" fill="#455A64"/>
<path d="M268.409 154.481C268.449 154.421 268.627 154.481 268.799 154.578C268.971 154.674 269.083 154.831 269.042 154.891C269.001 154.952 268.829 154.891 268.657 154.8C268.485 154.709 268.373 154.542 268.409 154.481Z" fill="#455A64"/>
<path d="M273.779 168.513C273.779 168.589 269.468 168.649 264.153 168.654C258.838 168.66 254.526 168.599 254.526 168.528C254.526 168.457 258.838 168.391 264.153 168.386C269.468 168.381 273.779 168.442 273.779 168.513Z" fill="#FAFAFA"/>
<path d="M273.947 169.935C273.947 170.011 269.635 170.071 264.32 170.076C259.005 170.081 254.693 170.021 254.693 169.95C254.693 169.879 259.005 169.813 264.32 169.813C269.635 169.813 273.947 169.874 273.947 169.935Z" fill="#FAFAFA"/>
<path d="M274.114 171.357C274.114 171.433 269.68 171.529 264.219 171.579C258.757 171.63 254.318 171.579 254.318 171.534C254.318 171.488 258.747 171.362 264.214 171.316C269.68 171.271 274.114 171.286 274.114 171.357Z" fill="#FAFAFA"/>
<path d="M280.361 163.033C280.125 163.367 279.849 163.671 279.54 163.939C279.003 164.445 278.233 165.178 277.351 165.922C276.47 166.666 275.644 167.304 275.031 167.744C274.718 168.001 274.379 168.223 274.018 168.407C274.295 168.107 274.602 167.835 274.935 167.597L277.205 165.72L279.434 163.802C279.719 163.518 280.029 163.261 280.361 163.033Z" fill="#FAFAFA"/>
<path d="M281.546 164.308C281.252 164.659 280.924 164.98 280.569 165.269C279.94 165.831 279.049 166.58 278.035 167.369C277.022 168.159 276.059 168.826 275.35 169.287C274.981 169.559 274.586 169.793 274.169 169.985C274.5 169.668 274.859 169.384 275.244 169.135C275.922 168.629 276.855 167.941 277.878 167.162C278.902 166.382 279.804 165.644 280.462 165.138C280.797 164.828 281.16 164.55 281.546 164.308Z" fill="#FAFAFA"/>
<path d="M282.119 165.507C281.033 166.611 279.885 167.652 278.679 168.624C277.529 169.662 276.321 170.633 275.061 171.534C276.151 170.433 277.301 169.394 278.507 168.422C279.657 167.386 280.863 166.413 282.119 165.507Z" fill="#FAFAFA"/>
<path d="M254.339 168.958C253.983 168.813 253.653 168.611 253.361 168.361C252.635 167.794 251.957 167.167 251.334 166.489C250.594 165.71 249.941 164.971 249.475 164.465C249.204 164.195 248.965 163.897 248.76 163.574C249.072 163.794 249.357 164.049 249.611 164.333C250.118 164.839 250.787 165.527 251.527 166.307C252.143 166.976 252.794 167.613 253.477 168.214C253.779 168.445 254.067 168.693 254.339 168.958Z" fill="#FAFAFA"/>
<path d="M253.68 170.694C253.315 170.487 252.975 170.239 252.667 169.955C252.084 169.449 251.293 168.766 250.468 167.931C249.642 167.096 248.917 166.347 248.441 165.77C248.152 165.475 247.899 165.147 247.686 164.794C248.009 165.049 248.308 165.333 248.578 165.644C249.084 166.185 249.844 166.934 250.67 167.744C251.496 168.553 252.261 169.262 252.813 169.768C253.134 170.045 253.425 170.355 253.68 170.694Z" fill="#FAFAFA"/>
<path d="M252.981 171.928C252.647 171.675 252.338 171.39 252.059 171.078C251.511 170.537 250.751 169.793 249.89 168.989C249.029 168.184 248.228 167.471 247.646 166.965C247.316 166.708 247.009 166.424 246.729 166.115C247.103 166.307 247.452 166.545 247.767 166.823C248.38 167.293 249.206 167.977 250.073 168.781C250.939 169.586 251.679 170.36 252.195 170.937C252.494 171.237 252.757 171.569 252.981 171.928Z" fill="#FAFAFA"/>
<path d="M276.566 190.924C276.566 190.994 271.454 190.924 265.151 190.767C258.848 190.61 253.741 190.423 253.741 190.352C253.741 190.281 258.853 190.352 265.156 190.504C271.459 190.655 276.566 190.848 276.566 190.924Z" fill="#455A64"/>
<path d="M327.907 234.642C328.564 234.97 329.148 235.428 329.624 235.987C330.101 236.546 330.459 237.195 330.678 237.896C331.105 239.302 331.205 240.786 330.972 242.237C330.597 245.045 328.945 247.854 327.177 250.07C324.847 247.96 324.365 244.342 324.239 242.48C324.041 239.56 325.455 234.151 327.907 234.632" fill="#5E88C6"/>
<path d="M326.64 263.347C326.652 263.153 326.683 262.96 326.731 262.771C326.817 262.366 326.924 261.84 327.051 261.212C327.347 259.478 327.924 257.803 328.758 256.253C329.625 254.706 330.887 253.415 332.416 252.514C332.881 252.249 333.376 252.042 333.891 251.897C334.03 251.853 334.172 251.819 334.316 251.795C334.412 251.795 334.463 251.795 334.463 251.795C333.777 252.014 333.115 252.302 332.487 252.656C331.01 253.575 329.79 254.853 328.94 256.37C328.122 257.905 327.535 259.552 327.197 261.258C327.04 261.91 326.914 262.442 326.817 262.801C326.773 262.987 326.714 263.17 326.64 263.347Z" fill="#263238"/>
<path d="M327.192 238.867C327.203 238.951 327.203 239.036 327.192 239.12C327.192 239.307 327.192 239.545 327.223 239.844C327.223 240.476 327.263 241.387 327.278 242.515C327.309 244.772 327.309 247.889 327.228 251.33C327.147 254.771 327.005 257.882 326.873 260.139C326.802 261.263 326.741 262.163 326.691 262.801C326.691 263.099 326.645 263.337 326.625 263.524C326.625 263.61 326.613 263.695 326.589 263.777C326.584 263.693 326.584 263.609 326.589 263.524C326.589 263.337 326.589 263.094 326.589 262.796C326.62 262.143 326.655 261.237 326.706 260.129C326.802 257.877 326.924 254.765 327.005 251.325C327.086 247.884 327.106 244.747 327.111 242.515C327.111 241.407 327.111 240.491 327.111 239.844C327.111 239.545 327.111 239.307 327.111 239.12C327.131 239.034 327.158 238.949 327.192 238.867Z" fill="#263238"/>
<path d="M325.713 256.4C325.46 254.687 324.802 253.059 323.793 251.651C322.784 250.243 321.453 249.096 319.911 248.304C319.126 247.909 318.098 247.646 317.434 248.218C316.77 248.79 316.897 249.857 317.201 250.682C317.865 252.395 319.022 253.872 320.526 254.929C322.03 255.985 323.814 256.573 325.652 256.618" fill="#5E88C6"/>
<path d="M320.246 251.006C320.422 251.065 320.591 251.142 320.752 251.234C320.945 251.329 321.133 251.433 321.315 251.547C321.523 251.684 321.781 251.821 322.029 252.013C322.313 252.211 322.585 252.426 322.845 252.655C323.15 252.909 323.439 253.181 323.711 253.47C324.983 254.79 325.909 256.403 326.407 258.166C326.512 258.547 326.596 258.934 326.66 259.325C326.722 259.659 326.763 259.997 326.782 260.337C326.807 260.619 326.815 260.903 326.807 261.187C326.809 261.401 326.799 261.616 326.777 261.829C326.773 262.013 326.749 262.197 326.706 262.376C326.66 262.376 326.756 261.591 326.64 260.352C326.61 260.012 326.561 259.674 326.493 259.34C326.424 258.956 326.334 258.576 326.224 258.201C325.963 257.344 325.61 256.518 325.171 255.737C324.717 254.965 324.182 254.244 323.575 253.586C323.31 253.298 323.029 253.024 322.734 252.767C322.481 252.538 322.217 252.322 321.943 252.119C320.935 251.385 320.226 251.046 320.246 251.006Z" fill="#263238"/>
</g>
<defs>
<clipPath id="clip0_56_868">
<rect width="328" height="326" fill="white"/>
</clipPath>
</defs>
</svg>
