<svg width="291" height="334" viewBox="0 0 291 334" fill="none" xmlns="http://www.w3.org/2000/svg">
<g clip-path="url(#clip0_56_1487)">
<rect width="291" height="334" fill="white"/>
<path d="M261.842 266.191H242.566V266.358H261.842V266.191Z" fill="#EBEBEB"/>
<path d="M192.77 268.008H187.712V268.175H192.77V268.008Z" fill="#EBEBEB"/>
<path d="M241.984 259.992H230.815V260.159H241.984V259.992Z" fill="#EBEBEB"/>
<path d="M55.6683 261.115H30.5317V261.282H55.6683V261.115Z" fill="#EBEBEB"/>
<path d="M64.5381 261.115H60.854V261.282H64.5381V261.115Z" fill="#EBEBEB"/>
<path d="M131.037 263.934H76.5156V264.101H131.037V263.934Z" fill="#EBEBEB"/>
<path d="M137.934 225.65H25.5557C24.6753 225.649 23.8315 225.246 23.2096 224.531C22.5876 223.816 22.2383 222.847 22.2383 221.836V40.5209C22.2459 39.5162 22.5987 38.5556 23.2198 37.8477C23.8409 37.1398 24.6803 36.7417 25.5557 36.74H137.934C138.815 36.74 139.661 37.1419 140.284 37.8572C140.907 38.5725 141.257 39.5427 141.257 40.5543V221.836C141.257 222.848 140.907 223.818 140.284 224.533C139.661 225.249 138.815 225.65 137.934 225.65ZM25.5557 36.8736C24.7139 36.8754 23.9071 37.2604 23.3125 37.9442C22.7178 38.628 22.3838 39.5547 22.3838 40.5209V221.836C22.3838 222.802 22.7178 223.729 23.3125 224.413C23.9071 225.097 24.7139 225.482 25.5557 225.483H137.934C138.776 225.482 139.584 225.097 140.179 224.413C140.775 223.73 141.11 222.803 141.112 221.836V40.5209C141.11 39.5541 140.775 38.6274 140.179 37.9438C139.584 37.2602 138.776 36.8754 137.934 36.8736H25.5557Z" fill="#EBEBEB"/>
<path d="M263.826 225.65H151.442C150.561 225.649 149.717 225.246 149.094 224.531C148.471 223.816 148.12 222.847 148.119 221.836V40.5209C148.128 39.5156 148.482 38.555 149.104 37.8473C149.726 37.1395 150.566 36.7417 151.442 36.74H263.826C264.701 36.7435 265.539 37.1423 266.158 37.85C266.778 38.5578 267.13 39.5174 267.138 40.5209V221.836C267.138 222.845 266.789 223.814 266.169 224.528C265.548 225.243 264.706 225.647 263.826 225.65ZM151.442 36.8736C150.6 36.8754 149.792 37.2602 149.197 37.9438C148.601 38.6274 148.266 39.5541 148.264 40.5209V221.836C148.266 222.803 148.601 223.73 149.197 224.413C149.792 225.097 150.6 225.482 151.442 225.483H263.826C264.669 225.482 265.476 225.097 266.072 224.413C266.667 223.73 267.002 222.803 267.004 221.836V40.5209C267.002 39.5541 266.667 38.6274 266.072 37.9438C265.476 37.2602 264.669 36.8754 263.826 36.8736H151.442Z" fill="#EBEBEB"/>
<path d="M291 255.443H0V255.61H291V255.443Z" fill="#EBEBEB"/>
<path d="M265.194 47.675H223.727V209.137H265.194V47.675Z" fill="#FAFAFA"/>
<path d="M266.248 104.829H214.403V207.728H266.248V104.829Z" fill="#E0E0E0"/>
<path d="M224.361 90.4539V116.259H228.453H252.204H256.295V90.4539H224.361Z" fill="#E0E0E0"/>
<path d="M224.361 108.644H217.726V116.259H224.361V108.644Z" fill="#FAFAFA"/>
<path d="M237.217 108.644H230.583V116.259H237.217V108.644Z" fill="#FAFAFA"/>
<path d="M250.074 108.644H243.439V116.259H250.074V108.644Z" fill="#FAFAFA"/>
<path d="M262.936 108.644H256.295V116.259H262.936V108.644Z" fill="#F0F0F0"/>
<path d="M224.361 122.484H217.726V130.106H224.361V122.484Z" fill="#F0F0F0"/>
<path d="M237.217 122.484H230.583V130.106H237.217V122.484Z" fill="#F0F0F0"/>
<path d="M250.074 122.484H243.439V130.106H250.074V122.484Z" fill="#FAFAFA"/>
<path d="M262.936 122.484H256.295V130.106H262.936V122.484Z" fill="#FAFAFA"/>
<path d="M224.361 136.325H217.726V143.941H224.361V136.325Z" fill="#F0F0F0"/>
<path d="M237.217 136.325H230.583V143.941H237.217V136.325Z" fill="#FAFAFA"/>
<path d="M250.074 136.325H243.439V143.941H250.074V136.325Z" fill="#FAFAFA"/>
<path d="M237.217 96.6729H230.583V104.288H237.217V96.6729Z" fill="#FAFAFA"/>
<path d="M250.074 96.6729H243.439V104.288H250.074V96.6729Z" fill="#F0F0F0"/>
<path d="M262.936 136.325H256.295V143.941H262.936V136.325Z" fill="#F0F0F0"/>
<path d="M224.361 150.167H217.726V157.782H224.361V150.167Z" fill="#FAFAFA"/>
<path d="M237.217 150.167H230.583V157.782H237.217V150.167Z" fill="#F0F0F0"/>
<path d="M250.074 150.167H243.439V157.782H250.074V150.167Z" fill="#F0F0F0"/>
<path d="M262.936 150.167H256.295V157.782H262.936V150.167Z" fill="#FAFAFA"/>
<path d="M224.361 164.014H217.726V171.636H224.361V164.014Z" fill="#F0F0F0"/>
<path d="M237.217 164.014H230.583V171.636H237.217V164.014Z" fill="#FAFAFA"/>
<path d="M250.074 164.014H243.439V171.636H250.074V164.014Z" fill="#FAFAFA"/>
<path d="M262.936 164.014H256.295V171.636H262.936V164.014Z" fill="#F0F0F0"/>
<path d="M224.361 177.855H217.726V185.47H224.361V177.855Z" fill="#F0F0F0"/>
<path d="M237.217 177.855H230.583V185.47H237.217V177.855Z" fill="#FAFAFA"/>
<path d="M250.074 177.855H243.439V185.47H250.074V177.855Z" fill="#F0F0F0"/>
<path d="M262.936 177.855H256.295V185.47H262.936V177.855Z" fill="#FAFAFA"/>
<path d="M224.361 191.696H217.726V199.318H224.361V191.696Z" fill="#FAFAFA"/>
<path d="M237.217 191.696H230.583V199.318H237.217V191.696Z" fill="#FAFAFA"/>
<path d="M250.074 191.696H243.439V199.318H250.074V191.696Z" fill="#F0F0F0"/>
<path d="M262.936 191.696H256.295V199.318H262.936V191.696Z" fill="#F0F0F0"/>
<path opacity="0.1" d="M265.113 47.675H223.645V209.137H265.113V47.675Z" fill="white"/>
<g opacity="0.3">
<path d="M261.056 47.675H247.833L233.37 209.137H246.588L261.056 47.675Z" fill="white"/>
</g>
<path d="M265.543 45.6311H223.377V49.7259H265.543V45.6311Z" fill="#E0E0E0"/>
<path d="M265.543 207.728H223.377V211.823H265.543V207.728Z" fill="#EBEBEB"/>
<path d="M267.179 215.316H221.469V41.6365H267.179V215.316ZM224.955 211.308H263.698V45.6445H224.955V211.308Z" fill="#EBEBEB"/>
<path d="M219.961 47.675H178.494V209.137H219.961V47.675Z" fill="#FAFAFA"/>
<path d="M216.824 158.343H181.363V208.289H216.824V158.343Z" fill="#E6E6E6"/>
<path d="M213.739 163.88H205.487H203.217H200.947V169.091H203.217H205.487H213.739V163.88Z" fill="#E6E6E6"/>
<path d="M213.739 173.974H205.487H203.217H200.947V179.184H203.217H205.487H213.739V173.974Z" fill="#FAFAFA"/>
<path d="M213.739 184.067H205.487H203.217H200.947V189.278H203.217H205.487H213.739V184.067Z" fill="#E6E6E6"/>
<path d="M213.739 194.161H205.487H201.983H200.947V199.371H201.983H205.487H213.739V194.161Z" fill="#FAFAFA"/>
<path d="M197.24 163.88H188.993H186.723H184.453V169.091H186.723H188.993H197.24V163.88Z" fill="#FAFAFA"/>
<path d="M197.24 173.974H188.993H185.792H184.453V179.184H185.792H188.993H197.24V173.974Z" fill="#FAFAFA"/>
<path d="M197.24 184.067H188.993H186.723H184.453V189.278H186.723H188.993H197.24V184.067Z" fill="#E6E6E6"/>
<path d="M197.24 194.161H188.993H186.723H184.453V199.371H186.723H188.993H197.24V194.161Z" fill="#FAFAFA"/>
<path opacity="0.1" d="M219.827 47.675H178.36V209.137H219.827V47.675Z" fill="white"/>
<g opacity="0.3">
<path d="M215.823 47.675H202.606L188.137 209.137H201.36L215.823 47.675Z" fill="white"/>
</g>
<path d="M220.31 45.6311H178.144V49.7259H220.31V45.6311Z" fill="#E0E0E0"/>
<path d="M220.31 207.728H178.144V211.823H220.31V207.728Z" fill="#EBEBEB"/>
<path d="M221.951 215.316H176.241V41.6365H221.951V215.316ZM179.722 211.308H218.465V45.6445H179.722V211.308Z" fill="#EBEBEB"/>
<path d="M111.308 47.675H69.8401V209.137H111.308V47.675Z" fill="#FAFAFA"/>
<path opacity="0.1" d="M111.226 47.675H69.7585V209.137H111.226V47.675Z" fill="white"/>
<g opacity="0.3">
<path d="M107.175 47.675H93.9522L79.4895 209.137H92.7067L107.175 47.675Z" fill="white"/>
</g>
<path d="M111.662 45.6311H69.4966V49.7259H111.662V45.6311Z" fill="#E0E0E0"/>
<path d="M111.662 207.728H69.4966V211.823H111.662V207.728Z" fill="#EBEBEB"/>
<path d="M113.298 215.316H67.5876V41.6365H113.298V215.316ZM71.0738 211.308H109.812V45.6445H71.0738V211.308Z" fill="#EBEBEB"/>
<path d="M66.1384 47.675H24.6709V209.137H66.1384V47.675Z" fill="#FAFAFA"/>
<path d="M59.8878 116.052H27.7905V146.967H59.8878V116.052Z" fill="#E6E6E6"/>
<path d="M33.9539 119.906H29.845V124.622H33.9539V119.906Z" fill="#FAFAFA"/>
<path d="M41.9156 119.906H37.8066V124.622H41.9156V119.906Z" fill="#FAFAFA"/>
<path d="M49.8775 119.906H45.7686V124.622H49.8775V119.906Z" fill="#FAFAFA"/>
<path d="M57.8333 119.906H53.7244V124.622H57.8333V119.906Z" fill="#FAFAFA"/>
<path d="M33.9539 128.476H29.845V133.192H33.9539V128.476Z" fill="#FAFAFA"/>
<path d="M41.9156 128.476H37.8066V133.192H41.9156V128.476Z" fill="#FAFAFA"/>
<path d="M49.8775 128.476H45.7686V133.192H49.8775V128.476Z" fill="#FAFAFA"/>
<path d="M57.8333 128.476H53.7244V133.192H57.8333V128.476Z" fill="#E6E6E6"/>
<path d="M33.9539 137.04H29.845V141.756H33.9539V137.04Z" fill="#E6E6E6"/>
<path d="M41.9156 137.04H37.8066V141.756H41.9156V137.04Z" fill="#E6E6E6"/>
<path d="M49.8775 137.04H45.7686V141.756H49.8775V137.04Z" fill="#FAFAFA"/>
<path d="M57.8333 137.04H53.7244V141.756H57.8333V137.04Z" fill="#E6E6E6"/>
<path d="M59.8878 146.579H27.7905V177.494H59.8878V146.579Z" fill="#E6E6E6"/>
<path d="M33.9539 150.427H29.845V155.143H33.9539V150.427Z" fill="#FAFAFA"/>
<path d="M41.9156 150.427H37.8066V155.143H41.9156V150.427Z" fill="#FAFAFA"/>
<path d="M49.8775 150.427H45.7686V155.143H49.8775V150.427Z" fill="#FAFAFA"/>
<path d="M57.8333 150.427H53.7244V155.143H57.8333V150.427Z" fill="#FAFAFA"/>
<path d="M33.9539 158.997H29.845V163.713H33.9539V158.997Z" fill="#FAFAFA"/>
<path d="M41.9156 158.997H37.8066V163.713H41.9156V158.997Z" fill="#FAFAFA"/>
<path d="M49.8775 158.997H45.7686V163.713H49.8775V158.997Z" fill="#FAFAFA"/>
<path d="M57.8333 158.997H53.7244V163.713H57.8333V158.997Z" fill="#E6E6E6"/>
<path d="M33.9539 167.568H29.845V172.284H33.9539V167.568Z" fill="#E6E6E6"/>
<path d="M41.9156 167.568H37.8066V172.284H41.9156V167.568Z" fill="#E6E6E6"/>
<path d="M49.8775 167.568H45.7686V172.284H49.8775V167.568Z" fill="#FAFAFA"/>
<path d="M57.8333 167.568H53.7244V172.284H57.8333V167.568Z" fill="#E6E6E6"/>
<path d="M59.8878 177.1H27.7905V208.015H59.8878V177.1Z" fill="#E6E6E6"/>
<path d="M33.9539 180.955H29.845V185.671H33.9539V180.955Z" fill="#FAFAFA"/>
<path d="M41.9156 180.955H37.8066V185.671H41.9156V180.955Z" fill="#FAFAFA"/>
<path d="M49.8775 180.955H45.7686V185.671H49.8775V180.955Z" fill="#FAFAFA"/>
<path d="M57.8333 180.955H53.7244V185.671H57.8333V180.955Z" fill="#FAFAFA"/>
<path d="M33.9539 189.525H29.845V194.241H33.9539V189.525Z" fill="#FAFAFA"/>
<path d="M41.9156 189.525H37.8066V194.241H41.9156V189.525Z" fill="#FAFAFA"/>
<path d="M49.8775 189.525H45.7686V194.241H49.8775V189.525Z" fill="#FAFAFA"/>
<path d="M57.8333 189.525H53.7244V194.241H57.8333V189.525Z" fill="#E6E6E6"/>
<path d="M33.9539 198.095H29.845V202.812H33.9539V198.095Z" fill="#E6E6E6"/>
<path d="M41.9156 198.095H37.8066V202.812H41.9156V198.095Z" fill="#E6E6E6"/>
<path d="M49.8775 198.095H45.7686V202.812H49.8775V198.095Z" fill="#FAFAFA"/>
<path d="M57.8333 198.095H53.7244V202.812H57.8333V198.095Z" fill="#E6E6E6"/>
<path opacity="0.1" d="M65.5913 47.675H24.1238V209.137H65.5913V47.675Z" fill="white"/>
<g opacity="0.3">
<path d="M62.0005 47.675H48.7833L34.3206 209.137H47.5378L62.0005 47.675Z" fill="white"/>
</g>
<path d="M66.4935 45.6311H24.3276V49.7259H66.4935V45.6311Z" fill="#E0E0E0"/>
<path d="M66.4935 207.728H24.3276V211.823H66.4935V207.728Z" fill="#EBEBEB"/>
<path d="M68.129 215.316H22.4187V41.6365H68.129V215.316ZM25.9049 211.308H64.6428V45.6445H25.9049V211.308Z" fill="#EBEBEB"/>
<path d="M141.729 236.879L141.263 236.946C141.234 236.672 138.406 209.498 144.243 187.294C150.063 165.25 146.047 151.155 145.989 151.021L146.437 150.848C146.478 150.988 150.511 165.216 144.691 187.447C138.883 209.545 141.7 236.612 141.729 236.879Z" fill="#E0E0E0"/>
<path d="M146.839 154.047C145.822 152.658 144.442 151.681 142.904 151.262L143.015 150.734C144.651 151.18 146.119 152.22 147.199 153.7L146.839 154.047Z" fill="#E0E0E0"/>
<path d="M148.835 156.296L147.492 157.167L147.724 157.638L149.067 156.767L148.835 156.296Z" fill="#E0E0E0"/>
<path d="M146.332 168.824C145.161 165.76 142.993 163.344 140.291 162.09L140.466 161.596C143.28 162.9 145.54 165.414 146.763 168.603L146.332 168.824Z" fill="#E0E0E0"/>
<path d="M145.075 185.797H144.604C144.588 184.705 144.362 183.629 143.941 182.649C143.521 181.668 142.916 180.807 142.171 180.126L142.462 179.705C143.262 180.437 143.911 181.362 144.363 182.415C144.815 183.469 145.058 184.624 145.075 185.797Z" fill="#E0E0E0"/>
<path d="M144.028 190.14L143.585 189.946C143.827 189.257 144.189 188.632 144.65 188.111C145.11 187.589 145.659 187.181 146.262 186.913L146.425 187.421C145.884 187.66 145.392 188.025 144.979 188.493C144.567 188.961 144.243 189.521 144.028 190.14Z" fill="#E0E0E0"/>
<path d="M140.978 217.681L140.617 217.34C141.199 216.545 141.624 213.533 141.857 211.916C141.909 211.529 141.956 211.201 141.996 210.961L142.456 211.061C142.421 211.295 142.375 211.622 142.316 212.003C141.973 214.428 141.583 216.846 140.978 217.681Z" fill="#E0E0E0"/>
<path d="M140.71 226.332C140.382 225.273 139.773 224.36 138.967 223.722C138.162 223.084 137.201 222.754 136.223 222.778V222.237C137.305 222.207 138.367 222.571 139.258 223.277C140.149 223.982 140.822 224.993 141.182 226.165L140.71 226.332Z" fill="#E0E0E0"/>
<path d="M144.302 231.982L140.99 236.236L141.341 236.596L144.653 232.343L144.302 231.982Z" fill="#E0E0E0"/>
<path d="M146.664 204.241C147.415 207.027 142.183 212.337 142.183 212.337C142.183 212.337 135.251 211.342 134.5 208.55C133.75 205.757 135.507 201.202 138.865 200.013C142.223 198.824 145.89 201.456 146.664 204.241Z" fill="#F0F0F0"/>
<path d="M152.449 170.414C151.786 173.373 146.827 175.477 146.827 175.477C146.827 175.477 143.37 170.888 144.033 167.929C144.697 164.969 147.438 161.703 149.76 162.391C152.082 163.079 153.113 167.454 152.449 170.414Z" fill="#EBEBEB"/>
<path d="M132.562 214.648C135.67 216.045 137.579 222.357 137.579 222.357C137.579 222.357 132.451 225.53 129.338 224.141C126.224 222.751 122.936 218.797 123.82 216.212C124.705 213.626 129.448 213.259 132.562 214.648Z" fill="#F5F5F5"/>
<path d="M139.383 179.892C140.011 180.5 140.731 180.969 141.508 181.275C141.899 181.419 142.317 181.437 142.717 181.329C143.117 181.221 143.483 180.99 143.777 180.661C144.447 179.779 144.266 178.416 143.847 177.354C143.015 175.25 139.948 171.683 137.591 172.678C134.192 174.181 137.864 178.603 139.383 179.892Z" fill="#E6E6E6"/>
<path d="M146.344 185.256C145.896 185.891 145.424 186.686 145.669 187.454C145.807 187.78 146.036 188.044 146.32 188.203C146.603 188.363 146.925 188.41 147.234 188.336C147.849 188.171 148.424 187.849 148.916 187.394C150.115 186.432 152.577 184.428 151.006 182.551C149.434 180.674 147.281 183.914 146.344 185.256Z" fill="#EBEBEB"/>
<path d="M136.299 158.536C136.04 158.553 135.792 158.662 135.59 158.849C135.389 159.036 135.243 159.291 135.175 159.578C135.076 160.246 135.571 160.861 136.048 161.282C137.241 162.337 140.821 165.183 141.624 162.437C142.381 159.846 137.882 158.316 136.299 158.536Z" fill="#E0E0E0"/>
<path d="M142.904 149.505C142.165 149.585 141.426 149.278 140.687 149.331C139.948 149.385 139.121 150.066 139.29 150.901C139.459 151.736 140.274 151.923 140.955 151.977C142.124 152.057 143.298 151.962 144.447 151.696C144.718 151.668 144.97 151.522 145.151 151.289C145.453 150.781 144.976 150.1 144.464 149.953C143.937 149.875 143.418 149.734 142.916 149.532L142.904 149.505Z" fill="#E6E6E6"/>
<path d="M150.156 155.343C150.901 155.343 151.617 155.003 152.362 155.003C153.107 155.003 153.962 155.617 153.846 156.459C153.73 157.301 152.921 157.561 152.24 157.661C151.081 157.838 149.907 157.838 148.748 157.661C148.473 157.654 148.211 157.528 148.014 157.307C147.688 156.82 148.125 156.112 148.596 155.891C149.12 155.775 149.631 155.593 150.121 155.35L150.156 155.343Z" fill="#F0F0F0"/>
<path d="M149.394 218.109C149.562 217.908 149.787 217.78 150.028 217.748C150.187 217.769 150.335 217.85 150.448 217.978C150.562 218.106 150.636 218.275 150.657 218.456C150.691 218.82 150.651 219.188 150.54 219.532C150.034 221.462 144.388 235.457 143.085 232.945C142.317 231.455 144.208 226.539 144.767 225.143C145.841 222.437 147.421 220.036 149.394 218.109Z" fill="#F0F0F0"/>
<path d="M146.018 150.033C146.383 148.848 147.006 147.79 147.828 146.96C148.719 146.219 150.156 146.165 150.796 147.187C151.524 148.329 150.796 150.066 149.685 150.674C148.573 151.282 147.275 151.095 146.053 150.901C146.053 150.694 146.053 150.487 146.024 150.28L146.018 150.033Z" fill="#E6E6E6"/>
<path d="M149.964 255.543C143.916 256.726 137.737 256.726 131.689 255.543L124.583 231.495H157.076L149.964 255.543Z" fill="#F0F0F0"/>
<path d="M145.843 75.4707C152.507 75.4707 157.908 69.2709 157.908 61.623C157.908 53.9752 152.507 47.7754 145.843 47.7754C139.18 47.7754 133.779 53.9752 133.779 61.623C133.779 69.2709 139.18 75.4707 145.843 75.4707Z" fill="#E0E0E0"/>
<path d="M156.947 63.2678C158.014 55.7188 153.548 48.6057 146.971 47.3803C140.394 46.1549 134.197 51.2813 133.129 58.8303C132.061 66.3793 136.528 73.4924 143.105 74.7178C149.682 75.9432 155.879 70.8168 156.947 63.2678Z" fill="#EBEBEB"/>
<path opacity="0.8" d="M154.713 61.1353C154.713 63.3337 154.145 65.4828 153.081 67.3107C152.017 69.1387 150.504 70.5634 148.735 71.4047C146.965 72.246 145.018 72.4661 143.139 72.0372C141.261 71.6083 139.535 70.5497 138.181 68.9952C136.826 67.4406 135.904 65.46 135.53 63.3038C135.156 61.1476 135.348 58.9127 136.081 56.8816C136.814 54.8505 138.055 53.1145 139.648 51.8931C141.241 50.6717 143.113 50.0198 145.028 50.0198C147.597 50.0198 150.06 51.1909 151.876 53.2754C153.693 55.36 154.713 58.1873 154.713 61.1353Z" fill="white"/>
<path d="M144.505 62.1841C144.322 61.9721 144.219 61.6854 144.22 61.3868C144.22 61.0882 144.324 60.802 144.508 60.5909C144.692 60.3798 144.941 60.2609 145.201 60.2603C145.461 60.2596 145.711 60.3773 145.896 60.5876C145.988 60.6922 146.061 60.8167 146.111 60.9539C146.161 61.091 146.187 61.2382 146.187 61.3868C146.187 61.5355 146.162 61.6827 146.112 61.8201C146.063 61.9575 145.99 62.0823 145.899 62.1874C145.807 62.2925 145.698 62.3759 145.579 62.4326C145.459 62.4893 145.331 62.5184 145.201 62.5181C145.072 62.5178 144.944 62.4881 144.824 62.4308C144.705 62.3735 144.596 62.2896 144.505 62.1841Z" fill="#E0E0E0"/>
<path d="M145.029 61.0017L150.744 60.8013L150.761 61.4826L145.582 61.663L145.023 72.0036L144.435 71.9636L145.029 61.0017Z" fill="#E0E0E0"/>
<path d="M145.5 285.243C207.822 285.243 258.344 281.857 258.344 277.681C258.344 273.505 207.822 270.119 145.5 270.119C83.178 270.119 32.656 273.505 32.656 277.681C32.656 281.857 83.178 285.243 145.5 285.243Z" fill="#F5F5F5"/>
<path d="M250.464 242.424L253.42 188.409C253.68 183.659 253.089 178.898 251.684 174.42C250.279 169.941 248.09 165.841 245.251 162.371C242.412 158.902 238.983 156.137 235.177 154.247C231.371 152.357 227.268 151.382 223.121 151.382C215.367 151.383 207.907 154.79 202.272 160.904C196.637 167.018 193.254 175.375 192.817 184.261L189.732 247.347H245.895C247.059 247.346 248.179 246.837 249.028 245.923C249.876 245.008 250.39 243.757 250.464 242.424Z" fill="#5E88C6"/>
<path opacity="0.1" d="M250.568 240.48L253.42 188.423C253.68 183.672 253.089 178.911 251.684 174.433C250.279 169.955 248.09 165.854 245.251 162.385C242.412 158.915 238.983 156.15 235.177 154.26C231.371 152.37 227.268 151.395 223.121 151.396C215.367 151.397 207.907 154.804 202.272 160.918C196.637 167.031 193.254 175.389 192.817 184.274L189.732 247.347H244.201C245.823 247.341 247.382 246.629 248.564 245.354C249.746 244.079 250.462 242.337 250.568 240.48Z" fill="black"/>
<path d="M241.35 247.347L244.574 188.409C244.833 183.659 244.242 178.898 242.836 174.421C241.431 169.943 239.241 165.843 236.402 162.374C233.564 158.904 230.136 156.139 226.33 154.249C222.524 152.358 218.422 151.383 214.275 151.382C206.52 151.382 199.06 154.788 193.424 160.902C187.789 167.016 184.406 175.375 183.97 184.261L180.868 247.347H241.35Z" fill="#5E88C6"/>
<path d="M242.316 257.494H243.09C243.298 257.481 243.496 257.383 243.648 257.218C243.799 257.053 243.894 256.831 243.916 256.592L245.08 247.354H240.366L241.53 256.592C241.551 256.823 241.641 257.038 241.784 257.202C241.927 257.366 242.115 257.469 242.316 257.494Z" fill="#5E88C6"/>
<path opacity="0.7" d="M242.316 257.494H243.09C243.298 257.481 243.496 257.383 243.648 257.218C243.799 257.053 243.894 256.831 243.916 256.592L245.08 247.354H240.366L241.53 256.592C241.551 256.823 241.641 257.038 241.784 257.202C241.927 257.366 242.115 257.469 242.316 257.494Z" fill="white"/>
<path d="M166.277 257.494H166.976C167.174 257.471 167.358 257.367 167.496 257.202C167.633 257.036 167.715 256.82 167.726 256.592L168.78 247.354H164.496L165.538 256.592C165.549 256.818 165.629 257.033 165.764 257.198C165.9 257.363 166.081 257.468 166.277 257.494Z" fill="#5E88C6"/>
<path opacity="0.5" d="M166.277 257.494H166.976C167.174 257.471 167.358 257.367 167.496 257.202C167.633 257.036 167.715 256.82 167.726 256.592L168.78 247.354H164.496L165.538 256.592C165.549 256.818 165.629 257.033 165.764 257.198C165.9 257.363 166.081 257.468 166.277 257.494Z" fill="white"/>
<path d="M188.166 257.494H188.871C189.069 257.471 189.253 257.367 189.391 257.202C189.528 257.036 189.61 256.82 189.621 256.592L190.657 247.354H186.38L187.404 256.592C187.416 256.822 187.499 257.04 187.639 257.206C187.779 257.371 187.966 257.474 188.166 257.494Z" fill="#5E88C6"/>
<path opacity="0.7" d="M188.166 257.494H188.871C189.069 257.471 189.253 257.367 189.391 257.202C189.528 257.036 189.61 256.82 189.621 256.592L190.657 247.354H186.38L187.404 256.592C187.416 256.822 187.499 257.04 187.639 257.206C187.779 257.371 187.966 257.474 188.166 257.494Z" fill="white"/>
<path d="M218.745 257.494H219.519C219.728 257.48 219.926 257.382 220.078 257.217C220.23 257.052 220.327 256.831 220.351 256.592L221.515 247.354H216.795L217.959 256.592C217.979 256.823 218.069 257.039 218.212 257.204C218.355 257.368 218.543 257.471 218.745 257.494Z" fill="#5E88C6"/>
<path opacity="0.5" d="M218.745 257.494H219.519C219.728 257.48 219.926 257.382 220.078 257.217C220.23 257.052 220.327 256.831 220.351 256.592L221.515 247.354H216.795L217.959 256.592C217.979 256.823 218.069 257.039 218.212 257.204C218.355 257.368 218.543 257.471 218.745 257.494Z" fill="white"/>
<path d="M193.119 225.116H172.423L171.055 202.217L170.759 197.3L170.625 195.036C170.587 194.442 170.519 193.851 170.421 193.266C170.421 193.139 170.375 192.998 170.351 192.871C170.339 192.776 170.317 192.681 170.287 192.591C169.73 190.257 168.643 188.134 167.139 186.439C165.403 184.47 163.107 183.285 160.673 183.099H180.14C180.35 183.099 180.565 183.099 180.781 183.099C183.42 183.112 185.95 184.311 187.829 186.439C189.335 188.134 190.423 190.256 190.983 192.591C191.013 192.681 191.035 192.776 191.047 192.871C191.184 193.584 191.275 194.308 191.321 195.036L191.455 197.3L193.119 225.116Z" fill="#5E88C6"/>
<path opacity="0.1" d="M193.119 225.116H172.423L171.055 202.217L170.759 197.3L170.625 195.036C170.587 194.442 170.519 193.851 170.421 193.266C170.421 193.139 170.375 192.998 170.351 192.871C170.339 192.776 170.317 192.681 170.287 192.591C169.73 190.257 168.643 188.134 167.139 186.439C165.403 184.47 163.107 183.285 160.673 183.099H180.14C180.35 183.099 180.565 183.099 180.781 183.099C183.42 183.112 185.95 184.311 187.829 186.439C189.335 188.134 190.423 190.256 190.983 192.591C191.013 192.681 191.035 192.776 191.047 192.871C191.184 193.584 191.275 194.308 191.321 195.036L191.455 197.3L193.119 225.116Z" fill="black"/>
<g opacity="0.1">
<path d="M209.52 212.892H217.831C219.856 212.892 221.492 214.361 221.492 216.171V221.809C221.492 223.626 219.856 225.089 217.831 225.089H209.52V212.892Z" fill="black"/>
</g>
<path d="M175.583 225.089H212.191C213.933 225.089 215.346 223.468 215.346 221.469V216.506C215.346 214.506 213.933 212.885 212.191 212.885H175.583C173.841 212.885 172.429 214.506 172.429 216.506V221.469C172.429 223.468 173.841 225.089 175.583 225.089Z" fill="#5E88C6"/>
<path d="M261.9 196.572C261.905 199.766 260.925 202.859 259.135 205.304C257.345 207.749 254.858 209.389 252.116 209.932L249.992 242.484C249.806 245.25 248.054 247.367 245.959 247.367H223.133C225.228 247.367 226.974 245.25 227.16 242.484L228.324 225.116L229.308 209.912C231.102 209.559 232.799 208.731 234.267 207.496C235.735 206.26 236.932 204.649 237.764 202.792C237.879 202.555 237.982 202.312 238.073 202.063C238.745 200.336 239.09 198.464 239.085 196.572C239.084 195.646 239.002 194.722 238.841 193.814C238.777 193.453 238.695 193.092 238.608 192.738C238.194 191.147 237.531 189.656 236.653 188.336C235.551 186.69 234.135 185.355 232.514 184.436C230.892 183.516 229.109 183.036 227.3 183.032H250.126C251.955 183.024 253.76 183.514 255.393 184.462C256.989 185.373 258.383 186.692 259.467 188.316C261.051 190.684 261.907 193.587 261.9 196.572Z" fill="#5E88C6"/>
<path opacity="0.1" d="M261.9 196.572C261.905 199.766 260.925 202.859 259.135 205.304C257.345 207.749 254.858 209.389 252.116 209.932L249.992 242.484C249.806 245.25 248.054 247.367 245.959 247.367H223.133C225.228 247.367 226.974 245.25 227.16 242.484L228.324 225.116L229.308 209.912C231.102 209.559 232.799 208.731 234.267 207.496C235.735 206.26 236.932 204.649 237.764 202.792C237.879 202.555 237.982 202.312 238.073 202.063C238.745 200.336 239.09 198.464 239.085 196.572C239.084 195.646 239.002 194.722 238.841 193.814C238.777 193.453 238.695 193.092 238.608 192.738C238.194 191.147 237.531 189.656 236.653 188.336C235.551 186.69 234.135 185.355 232.514 184.436C230.892 183.516 229.109 183.036 227.3 183.032H250.126C251.955 183.024 253.76 183.514 255.393 184.462C256.989 185.373 258.383 186.692 259.467 188.316C261.051 190.684 261.907 193.587 261.9 196.572Z" fill="black"/>
<path d="M239.091 196.579C239.091 203.259 235.256 208.823 230.222 209.939L228.278 242.484C228.109 245.249 226.532 247.374 224.623 247.374H163.664C161.767 247.374 160.172 245.249 160.009 242.484L158.059 209.879C153.124 208.69 149.393 203.199 149.393 196.599C149.382 193.828 150.067 191.112 151.366 188.777C152.35 186.996 153.704 185.524 155.307 184.495C156.765 183.553 158.411 183.059 160.085 183.059C162.725 183.077 165.255 184.275 167.139 186.399C168.643 188.092 169.729 190.212 170.287 192.544C170.317 192.639 170.339 192.738 170.351 192.838C170.489 193.549 170.58 194.27 170.625 194.996L170.764 197.26L172.423 225.116H215.864L217.662 195.056C217.918 190.807 219.722 187.267 222.225 185.59C223.807 184.138 225.738 183.277 227.76 183.125C227.972 183.101 228.186 183.09 228.4 183.092C230.025 183.082 231.626 183.541 233.056 184.428C233.1 184.451 233.143 184.477 233.184 184.508C234.66 185.449 235.927 186.768 236.886 188.363C238.33 190.781 239.099 193.647 239.091 196.579Z" fill="#5E88C6"/>
<path opacity="0.1" d="M214.857 247.354H163.641C161.744 247.354 160.149 245.229 159.986 242.464L158.036 209.859C153.101 208.67 149.37 203.179 149.37 196.579C149.359 193.808 150.044 191.092 151.343 188.757C152.326 186.976 153.681 185.504 155.283 184.475C156.742 183.533 158.388 183.039 160.062 183.039C162.702 183.057 165.232 184.255 167.115 186.379C168.62 188.072 169.706 190.192 170.264 192.524C170.294 192.619 170.316 192.718 170.328 192.818C170.466 193.529 170.557 194.25 170.602 194.976L170.741 197.24L172.423 225.116H215.864L214.857 247.354Z" fill="white"/>
<path d="M208.216 154.789C207.204 155.457 206.278 156.011 205.306 156.579C204.334 157.147 203.38 157.668 202.396 158.189C200.441 159.211 198.462 160.193 196.425 161.041C194.372 161.918 192.282 162.676 190.163 163.313C187.958 163.993 185.708 164.455 183.435 164.695L182.952 164.749H182.725C180.67 164.475 178.848 164.081 177.021 163.613C175.194 163.146 173.383 162.685 171.591 162.157C169.798 161.629 168.017 161.088 166.237 160.5C164.456 159.913 162.692 159.305 160.929 158.617L161.738 153.981C165.398 154.248 169.053 154.649 172.673 155.083L178.08 155.704C179.861 155.905 181.683 156.078 183.278 156.145H182.573C184.4 155.771 186.201 155.249 187.963 154.582C189.784 153.914 191.606 153.152 193.428 152.257C195.249 151.362 197.053 150.44 198.846 149.458C199.766 148.977 200.656 148.47 201.529 147.969C202.402 147.468 203.333 146.933 204.131 146.459L208.216 154.789Z" fill="#263238"/>
<path opacity="0.1" d="M208.216 154.789C207.204 155.457 206.278 156.011 205.306 156.579C204.334 157.147 203.38 157.668 202.396 158.189C200.441 159.211 198.462 160.193 196.425 161.041C194.372 161.918 192.282 162.676 190.163 163.313C187.958 163.993 185.708 164.455 183.435 164.695L182.952 164.749H182.725C180.67 164.475 178.848 164.081 177.021 163.613C175.194 163.146 173.383 162.685 171.591 162.157C169.798 161.629 168.017 161.088 166.237 160.5C164.456 159.913 162.692 159.305 160.929 158.617L161.738 153.981C165.398 154.248 169.053 154.649 172.673 155.083L178.08 155.704C179.861 155.905 181.683 156.078 183.278 156.145H182.573C184.4 155.771 186.201 155.249 187.963 154.582C189.784 153.914 191.606 153.152 193.428 152.257C195.249 151.362 197.053 150.44 198.846 149.458C199.766 148.977 200.656 148.47 201.529 147.969C202.402 147.468 203.333 146.933 204.131 146.459L208.216 154.789Z" fill="black"/>
<path d="M160.999 151.436C160.138 150.743 159.187 150.21 158.182 149.859L156.674 156.613L161.191 158.79L161.703 158.069C162.05 157.587 162.308 157.029 162.461 156.429C162.614 155.829 162.659 155.199 162.594 154.578C162.528 153.958 162.352 153.359 162.078 152.818C161.804 152.278 161.437 151.808 160.999 151.436Z" fill="#FFC3BD"/>
<path d="M156.674 156.613L158.182 149.859L153.968 147.22L152.699 151.977L156.674 156.613Z" fill="#FFC3BD"/>
<path opacity="0.2" d="M194.044 161.656H194.207H194.277C196.5 161.382 203.036 160.119 207.762 154.769C207.058 153.206 206.092 151.997 204.91 151.723C201.651 151.015 197.659 153.693 194.044 161.656Z" fill="black"/>
<path d="M197.88 196.572C203.455 179.291 199.789 163.399 200.487 154.602C200.659 152.433 201.441 150.388 202.716 148.775C203.991 147.162 205.689 146.07 207.553 145.664C211.359 144.822 216.067 143.874 220.555 143.179C221.809 142.98 223.085 143.095 224.297 143.516C225.508 143.937 226.626 144.654 227.574 145.617C228.521 146.58 229.276 147.767 229.786 149.097C230.297 150.426 230.55 151.867 230.53 153.319C230.14 179.371 222.865 196.572 222.865 196.572L211.109 196.512L197.88 196.572Z" fill="#5E88C6"/>
<path opacity="0.8" d="M197.88 196.572C203.455 179.291 199.789 163.399 200.487 154.602C200.659 152.433 201.441 150.388 202.716 148.775C203.991 147.162 205.689 146.07 207.553 145.664C211.359 144.822 216.067 143.874 220.555 143.179C221.809 142.98 223.085 143.095 224.297 143.516C225.508 143.937 226.626 144.654 227.574 145.617C228.521 146.58 229.276 147.767 229.786 149.097C230.297 150.426 230.55 151.867 230.53 153.319C230.14 179.371 222.865 196.572 222.865 196.572L211.109 196.512L197.88 196.572Z" fill="white"/>
<path d="M153.275 255.537L151.785 266.779H156.517L159.625 255.537H153.275Z" fill="#FFC3BD"/>
<path d="M151.18 264.274L157.507 264.1C157.556 264.094 157.606 264.099 157.654 264.116C157.701 264.133 157.745 264.162 157.782 264.2C157.82 264.237 157.85 264.284 157.87 264.336C157.891 264.388 157.902 264.444 157.902 264.501V269.845C157.874 270.141 157.753 270.415 157.561 270.616C157.369 270.816 157.12 270.929 156.861 270.934C154.661 270.934 153.613 270.84 150.831 270.934C147.869 270.923 144.911 270.7 141.973 270.266C139.721 269.825 140.332 267.4 141.35 267.36C145.948 267.166 148.52 266.064 150.173 264.688C150.461 264.429 150.815 264.284 151.18 264.274Z" fill="#263238"/>
<path opacity="0.2" d="M152.676 260.046L153.275 255.537H159.625L158.1 261.161L152.676 260.046Z" fill="black"/>
<path d="M194.97 192.524C194.97 192.524 156.471 192.965 155.871 206.96C155.021 227.08 152.059 257.728 152.059 257.728L159.317 260.019C159.317 260.019 169.676 229.605 170.078 213.887C180.909 211.415 208.746 213.887 212.017 205.724C213.615 201.569 214.047 196.946 213.251 192.498L194.97 192.524Z" fill="#5E88C6"/>
<path opacity="0.6" d="M194.97 192.524C194.97 192.524 156.471 192.965 155.871 206.96C155.021 227.08 152.059 257.728 152.059 257.728L159.317 260.019C159.317 260.019 169.676 229.605 170.078 213.887C180.909 211.415 208.746 213.887 212.017 205.724C213.615 201.569 214.047 196.946 213.251 192.498L194.97 192.524Z" fill="black"/>
<path d="M187.148 259.885L189.715 267.514H194.906L193.119 259.491L187.148 259.885Z" fill="#FFC3BD"/>
<path opacity="0.2" d="M193.602 261.656L192.595 255.784L186.036 256.719L187.718 261.823L193.602 261.656Z" fill="black"/>
<path d="M188.306 264.989H194.935C195.042 264.98 195.148 265.019 195.23 265.099C195.312 265.18 195.363 265.293 195.372 265.416L195.692 271.114C195.686 271.423 195.574 271.716 195.381 271.931C195.189 272.146 194.93 272.265 194.662 272.263C192.334 272.217 191.251 272.07 188.335 272.07C186.548 272.07 182.928 272.27 180.455 272.27C177.981 272.27 178.051 269.598 179.093 269.391C183.807 268.309 185.629 266.819 187.288 265.383C187.583 265.132 187.939 264.994 188.306 264.989Z" fill="#263238"/>
<path d="M205.324 192.524C205.324 192.524 170.404 195.243 171.265 209.224C172.202 224.535 186.187 260.039 186.187 260.039H193.224C193.224 260.039 188.568 227.828 186.426 212.224C196.273 212.224 219.094 213.927 222.376 205.744C223.968 201.587 224.395 196.965 223.598 192.518L205.324 192.524Z" fill="#5E88C6"/>
<path opacity="0.5" d="M205.324 192.524C205.324 192.524 170.404 195.243 171.265 209.224C172.202 224.535 186.187 260.039 186.187 260.039H193.224C193.224 260.039 188.568 227.828 186.426 212.224C196.273 212.224 219.094 213.927 222.376 205.744C223.968 201.587 224.395 196.965 223.598 192.518L205.324 192.524Z" fill="black"/>
<path d="M210.614 135.885C211.417 139.452 211.667 143.901 207.326 145.738C206.121 147.942 205.533 150.267 210.172 149.438C213.864 148.89 217.224 146.709 219.536 143.359C216.76 140.567 217.266 132.003 217.97 127.174L210.614 135.885Z" fill="#FFC3BD"/>
<path d="M210.102 142.377C206.115 143.159 202.838 146.699 201.081 150.874C199.323 155.049 198.898 159.806 198.933 164.448C198.968 169.091 199.428 173.713 199.317 178.349C199.195 183.693 198.072 187.481 196.466 192.518C196.466 193.713 198.043 194.388 199.376 194.702C202.158 187.735 203.985 181.068 203.793 173.413C203.647 167.855 203.583 161.522 204.375 156.045C205.166 150.567 210.876 143.413 210.602 142.424L210.102 142.377Z" fill="#263238"/>
<path opacity="0.3" d="M214.001 138.503C213.583 138.859 213.107 139.115 212.601 139.255C212.095 139.395 211.57 139.417 211.056 139.318C211.066 138.45 211.011 137.583 210.893 136.726L215.712 132.184C215.818 132.774 215.886 133.372 215.916 133.974C215.968 134.855 215.819 135.736 215.483 136.531C215.147 137.325 214.636 138.005 214.001 138.503Z" fill="black"/>
<path d="M206.796 114.789C201.704 118.096 201.651 127.441 203.223 132.825C203.619 134.238 204.346 135.498 205.325 136.469C206.303 137.439 207.495 138.082 208.77 138.328C210.046 138.573 211.355 138.412 212.556 137.861C213.757 137.31 214.802 136.39 215.579 135.203C218.07 131.589 217.709 127.942 217.586 121.663C217.464 115.384 211.895 111.489 206.796 114.789Z" fill="#FFC3BD"/>
<path opacity="0.2" d="M208.437 131.596C206.796 132.404 204.998 133.453 203.339 133.226C203.785 134.58 204.54 135.771 205.524 136.676C206.508 137.581 207.686 138.167 208.934 138.372C210.183 138.576 211.456 138.393 212.622 137.84C213.787 137.288 214.802 136.386 215.561 135.23C217.616 132.264 218.25 130.26 217.668 124.863C214.479 129.151 211.947 129.859 208.437 131.596Z" fill="black"/>
<path d="M213.361 116.9C212.832 117.886 212.597 119.043 212.69 120.196C212.784 121.349 213.201 122.435 213.879 123.293C214.339 123.847 214.903 124.275 215.346 124.843C216.036 125.733 216.395 126.898 216.347 128.089C216.45 127.323 216.783 126.622 217.287 126.107C217.791 125.591 218.436 125.293 219.111 125.263C218.421 127.717 217.73 130.167 217.039 132.611C218.406 131.879 219.588 130.759 220.472 129.356C221.356 127.953 221.913 126.315 222.091 124.595C222.533 119.853 217.435 109.692 213.361 116.9Z" fill="#263238"/>
<path d="M201.477 117.227C201.087 117.724 200.809 118.323 200.668 118.971C200.6 119.292 200.619 119.629 200.723 119.937C200.827 120.246 201.011 120.51 201.25 120.694C201.691 120.898 202.178 120.926 202.635 120.774L207.291 119.846C209.956 119.311 212.622 118.784 215.253 118.056C216.417 117.735 217.761 117.221 218.227 115.938C219.734 111.763 213.297 111.222 211.144 111.336C207.477 111.556 203.77 113.974 201.477 117.227Z" fill="#263238"/>
<path d="M218.413 124.194C216.888 124.589 216.236 127.107 216.277 128.723C216.277 130.56 217.441 131.756 218.791 130.647C219.794 129.792 220.476 128.531 220.7 127.12C220.974 125.39 219.944 123.8 218.413 124.194Z" fill="#FFC3BD"/>
<path d="M207.64 130.574C207.409 130.751 207.147 130.867 206.872 130.914C206.598 130.962 206.317 130.939 206.051 130.848C206.633 129.338 206.563 129.679 206.744 127.114L207.64 130.574Z" fill="#ED847E"/>
<path d="M210.323 122.244C209.886 121.683 208.693 121.469 208.047 121.576C207.982 121.586 207.916 121.566 207.863 121.521C207.81 121.476 207.774 121.41 207.762 121.335C207.753 121.255 207.771 121.174 207.812 121.109C207.853 121.043 207.914 120.998 207.983 120.981C208.798 120.841 210.154 121.122 210.707 121.823C210.755 121.879 210.782 121.955 210.782 122.033C210.782 122.112 210.755 122.188 210.707 122.244C210.675 122.283 210.635 122.312 210.591 122.331C210.544 122.347 210.493 122.348 210.446 122.333C210.398 122.317 210.356 122.286 210.323 122.244Z" fill="#263238"/>
<path d="M202.792 123.493C202.737 123.45 202.699 123.384 202.686 123.309C202.673 123.234 202.686 123.156 202.722 123.092C202.926 122.671 203.212 122.31 203.559 122.037C203.905 121.765 204.302 121.588 204.718 121.523C204.75 121.522 204.782 121.528 204.811 121.541C204.841 121.555 204.868 121.575 204.891 121.6C204.914 121.626 204.932 121.656 204.944 121.69C204.956 121.724 204.963 121.76 204.963 121.796C204.966 121.878 204.942 121.957 204.895 122.018C204.848 122.079 204.783 122.117 204.713 122.124C204.384 122.184 204.072 122.329 203.8 122.547C203.528 122.766 203.303 123.053 203.141 123.386C203.12 123.43 203.09 123.467 203.053 123.493C203.017 123.52 202.975 123.536 202.932 123.54C202.882 123.545 202.832 123.528 202.792 123.493Z" fill="#263238"/>
<path d="M207.192 133.293C207.752 134.11 208.267 134.967 208.734 135.858L209.095 135.684C210.736 134.869 211.202 133.733 211.225 132.725C211.205 131.922 210.989 131.142 210.602 130.474C210.02 131.629 208.548 132.551 207.745 132.999C207.401 133.192 207.192 133.293 207.192 133.293Z" fill="#2E353A"/>
<path d="M207.733 132.999L207.972 133.373C208.037 133.473 208.13 133.545 208.236 133.578C208.341 133.611 208.453 133.602 208.554 133.553C209.764 132.885 210.567 132.217 210.882 131.462C210.91 131.391 210.925 131.314 210.925 131.235C210.925 131.157 210.91 131.079 210.882 131.008C210.804 130.823 210.715 130.644 210.614 130.474C210.003 131.629 208.536 132.551 207.733 132.999Z" fill="white"/>
<path d="M209.083 135.684C210.725 134.869 211.19 133.734 211.214 132.725C210.59 133.055 210.036 133.536 209.59 134.134C209.282 134.576 209.105 135.119 209.083 135.684Z" fill="#DE5753"/>
<path d="M204.66 125.584C204.375 125.644 204.218 126.112 204.299 126.613C204.381 127.114 204.689 127.474 204.974 127.408C205.26 127.341 205.417 126.887 205.335 126.386C205.254 125.885 204.945 125.584 204.66 125.584Z" fill="#263238"/>
<path d="M209.654 124.662C209.369 124.722 209.211 125.183 209.293 125.691C209.374 126.199 209.683 126.553 209.968 126.486C210.253 126.419 210.41 125.958 210.329 125.457C210.247 124.956 209.939 124.602 209.654 124.662Z" fill="#263238"/>
<path opacity="0.9" d="M202.46 128.296L206.133 127.347L206.197 129.138L202.78 130.073L202.46 128.296Z" fill="white"/>
<g opacity="0.8">
<path opacity="0.9" d="M207.25 127.067L207.686 128.71L212.401 127.548L212.121 125.651L207.25 127.067Z" fill="white"/>
</g>
<path d="M206.156 128.009L206.133 127.347L207.25 127.067L207.413 127.688L206.156 128.009Z" fill="#263238"/>
<path d="M204.817 195.804C204.817 195.804 211.446 198.75 212.965 199.325C214.712 200.109 216.549 200.593 218.419 200.761C219.367 200.834 220.317 200.674 221.207 200.293C222.097 199.912 222.907 199.318 223.581 198.55C225.164 196.612 225.659 193.673 226.072 190.914C227.283 182.814 228.497 174.713 229.715 166.613C230.297 162.605 231.828 156.593 231.7 154.328C231.461 150.12 229.128 145.15 223.185 142.418C220.857 141.355 218.593 141.75 216.649 144.422C215.485 146.011 212.098 149.846 211.266 156.599C210.602 162.01 209.566 169.017 209.631 174.515C209.706 181.743 207.192 190.854 204.817 195.804Z" fill="#263238"/>
<path d="M231.374 152.103C232.049 159.144 228.656 176.893 228.004 177.962C225.222 188.256 217.581 182.705 216.475 182.23C214.548 181.415 212.587 179.819 210.754 178.757C207.198 176.753 203.828 175.096 200.522 172.578L202.385 168.356C206.01 169.772 216.271 172.818 217.965 173.292C218.698 173.513 221.556 175.23 221.527 172.965C221.928 172.21 222.487 157.508 223.715 152.311C223.855 151.727 224.099 151.184 224.431 150.714L224.541 150.554C224.99 149.909 225.584 149.418 226.258 149.134C226.933 148.85 227.663 148.785 228.368 148.945C229.073 149.105 229.726 149.484 230.257 150.041C230.787 150.598 231.173 151.311 231.374 152.103Z" fill="#263238"/>
<path opacity="0.1" d="M231.374 152.103C232.049 159.144 228.656 176.893 228.004 177.962C225.222 188.256 217.581 182.705 216.475 182.23C214.548 181.415 212.587 179.819 210.754 178.757C207.198 176.753 203.828 175.096 200.522 172.578L202.385 168.356C206.01 169.772 216.271 172.818 217.965 173.292C218.698 173.513 221.556 175.23 221.527 172.965C221.928 172.21 222.487 157.508 223.715 152.311C223.855 151.727 224.099 151.184 224.431 150.714L224.541 150.554C224.99 149.909 225.584 149.418 226.258 149.134C226.933 148.85 227.663 148.785 228.368 148.945C229.073 149.105 229.726 149.484 230.257 150.041C230.787 150.598 231.173 151.311 231.374 152.103Z" fill="white"/>
<path d="M200.93 178.69H183.703L181.735 152.892H198.963L200.93 178.69Z" fill="#263238"/>
<path opacity="0.5" d="M200.93 178.69H183.703L181.735 152.892H198.963L200.93 178.69Z" fill="white"/>
<path d="M200.318 178.563H183.091L181.124 152.765H198.351L200.318 178.563Z" fill="#5E88C6"/>
<path opacity="0.8" d="M200.318 178.563H183.091L181.124 152.765H198.351L200.318 178.563Z" fill="white"/>
<path d="M193.486 154.375H186.24L185.995 151.148H193.235L193.486 154.375Z" fill="#5E88C6"/>
<path d="M185.995 151.148L186.705 150.868H194.207L194.312 152.237L193.753 152.979L193.719 154.101L193.486 154.375L193.235 151.148H185.995Z" fill="#5E88C6"/>
<path opacity="0.5" d="M185.995 151.148L186.705 150.868H194.207L194.312 152.237L193.753 152.979L193.719 154.101L193.486 154.375L193.235 151.148H185.995Z" fill="black"/>
<path d="M203.758 169.752L204.148 172.164C203.217 174.949 197.88 174.214 197.88 174.214V167.087L202.588 168.343C202.88 168.425 203.146 168.601 203.353 168.851C203.56 169.101 203.701 169.413 203.758 169.752Z" fill="#FFC3BD"/>
<path d="M197.868 167.087L197.892 174.228L193.166 174.361L192.083 168.082L197.868 167.087Z" fill="#FFC3BD"/>
<path d="M215.864 225.116L217.662 195.056C217.918 190.808 219.722 187.267 222.225 185.59C223.807 184.138 225.739 183.277 227.76 183.126C227.973 183.101 228.186 183.09 228.4 183.092C230.025 183.082 231.626 183.541 233.056 184.428C233.101 184.451 233.143 184.478 233.184 184.508C234.66 185.449 235.927 186.768 236.886 188.363C238.337 190.788 239.108 193.664 239.097 196.606C239.097 203.286 235.262 208.85 230.228 209.966L228.278 242.484C228.109 245.25 226.532 247.374 224.623 247.374H214.857L215.864 225.116Z" fill="#5E88C6"/>
<path opacity="0.1" d="M215.864 225.116L217.662 195.056C217.918 190.808 219.722 187.267 222.225 185.59C223.807 184.138 225.739 183.277 227.76 183.126C227.973 183.101 228.186 183.09 228.4 183.092C230.025 183.082 231.626 183.541 233.056 184.428C233.101 184.451 233.143 184.478 233.184 184.508C234.66 185.449 235.927 186.768 236.886 188.363C238.337 190.788 239.108 193.664 239.097 196.606C239.097 203.286 235.262 208.85 230.228 209.966L228.278 242.484C228.109 245.25 226.532 247.374 224.623 247.374H214.857L215.864 225.116Z" fill="white"/>
<path d="M127.05 85.2366V113.166C127.05 113.874 126.805 114.554 126.369 115.055C125.932 115.556 125.34 115.838 124.722 115.838H99.8012L90.8966 123.74C90.644 123.959 90.3431 124.093 90.0278 124.126C89.7125 124.159 89.3954 124.091 89.1123 123.928C88.8291 123.766 88.5911 123.516 88.4251 123.206C88.2591 122.897 88.1717 122.54 88.1728 122.177V115.838H86.7819C86.1644 115.838 85.5723 115.556 85.1357 115.055C84.6991 114.554 84.4539 113.874 84.4539 113.166V85.2299C84.4554 84.882 84.5169 84.5379 84.635 84.2175C84.7532 83.8971 84.9254 83.6068 85.1419 83.3633C85.3584 83.1197 85.6148 82.9279 85.8963 82.7989C86.1778 82.6698 86.4788 82.6061 86.7819 82.6114H124.763C125.37 82.6114 125.952 82.888 126.381 83.3803C126.809 83.8726 127.05 84.5404 127.05 85.2366Z" stroke="#5E88C6" stroke-miterlimit="10"/>
<path d="M103.712 78.677H98.9575V79.345H103.712V78.677Z" fill="#5E88C6"/>
<path d="M81.4799 86.5461H80.8979V83.2529C80.8995 82.0369 81.3214 80.8714 82.0711 80.0122C82.8208 79.153 83.8369 78.6704 84.8963 78.6704H95.5062V79.3384H84.8847C83.9801 79.3402 83.1129 79.7529 82.4727 80.4865C81.8325 81.22 81.4714 82.2146 81.4683 83.2529L81.4799 86.5461Z" fill="#5E88C6"/>
<path d="M115.102 103.072C114.849 103.074 114.599 103.016 114.366 102.901C114.134 102.786 113.925 102.617 113.752 102.405C113.579 102.193 113.447 101.942 113.363 101.669C113.278 101.395 113.244 101.104 113.263 100.814C113.886 92.6716 119.508 91.9234 120.212 82.6649C120.416 79.9929 119.566 78.9909 117.942 78.9909C116.318 78.9909 115.317 79.9996 115.114 82.6649L114.997 84.188C114.945 84.8761 114.669 85.5165 114.225 85.9828C113.781 86.4491 113.201 86.7073 112.599 86.7063C112.266 86.7059 111.937 86.6261 111.632 86.4718C111.327 86.3176 111.054 86.0923 110.829 85.8103C110.604 85.5283 110.433 85.1957 110.326 84.8336C110.219 84.4715 110.178 84.0879 110.207 83.707L110.26 83.039C110.714 77.0805 113.525 73.687 118.489 73.687C123.454 73.687 125.741 77.0938 125.287 83.039C124.548 92.6916 118.408 94.1879 117.884 100.995C117.887 101.028 117.887 101.062 117.884 101.095C117.857 101.635 117.652 102.143 117.31 102.515C116.969 102.888 116.516 103.097 116.045 103.099L115.102 103.072ZM117.622 108.737C117.57 109.437 117.29 110.09 116.838 110.565C116.387 111.04 115.796 111.303 115.183 111.302C114.844 111.303 114.508 111.222 114.197 111.065C113.886 110.909 113.607 110.68 113.378 110.393C113.149 110.105 112.974 109.766 112.865 109.397C112.756 109.028 112.715 108.637 112.745 108.249C112.797 107.548 113.078 106.894 113.531 106.419C113.984 105.944 114.576 105.682 115.189 105.684C115.528 105.686 115.863 105.767 116.173 105.925C116.482 106.082 116.76 106.312 116.989 106.598C117.217 106.885 117.392 107.223 117.501 107.592C117.61 107.96 117.651 108.35 117.622 108.737Z" fill="#5E88C6"/>
<path d="M108.543 96.5326H95.1569C94.8482 96.5326 94.5521 96.3918 94.3338 96.1413C94.1156 95.8907 93.9929 95.5509 93.9929 95.1966C93.9929 94.8423 94.1156 94.5024 94.3338 94.2519C94.5521 94.0014 94.8482 93.8606 95.1569 93.8606H108.543C108.852 93.8606 109.148 94.0014 109.366 94.2519C109.584 94.5024 109.707 94.8423 109.707 95.1966C109.707 95.5509 109.584 95.8907 109.366 96.1413C109.148 96.3918 108.852 96.5326 108.543 96.5326Z" fill="#5E88C6"/>
<path d="M106.692 101.823H95.1801C94.8714 101.823 94.5753 101.682 94.357 101.432C94.1388 101.181 94.0161 100.841 94.0161 100.487C94.0161 100.133 94.1388 99.793 94.357 99.5424C94.5753 99.2919 94.8714 99.1511 95.1801 99.1511H106.692C107.001 99.1511 107.297 99.2919 107.515 99.5424C107.733 99.793 107.856 100.133 107.856 100.487C107.856 100.841 107.733 101.181 107.515 101.432C107.297 101.682 107.001 101.823 106.692 101.823Z" fill="#5E88C6"/>
<path d="M104.841 107.107H95.1801C94.8714 107.107 94.5753 106.966 94.357 106.716C94.1388 106.465 94.0161 106.125 94.0161 105.771C94.0161 105.417 94.1388 105.077 94.357 104.826C94.5753 104.576 94.8714 104.435 95.1801 104.435H104.841C105.15 104.435 105.446 104.576 105.664 104.826C105.883 105.077 106.005 105.417 106.005 105.771C106.005 106.125 105.883 106.465 105.664 106.716C105.446 106.966 105.15 107.107 104.841 107.107Z" fill="#5E88C6"/>
<path d="M77.4525 216.105H68.9495C66.8776 216.105 65.2014 217.608 65.2014 219.445V225.216C65.2014 227.073 66.8776 228.556 68.9495 228.556H77.4525V216.105Z" fill="#5E88C6"/>
<path d="M37.9347 243.286L34.9782 189.271C34.7182 184.522 35.3088 179.761 36.7136 175.284C38.1184 170.806 40.3076 166.707 43.146 163.238C45.9845 159.769 49.4121 157.005 53.2175 155.115C57.0228 153.225 61.1251 152.25 65.2713 152.25C73.0266 152.25 80.488 155.656 86.1244 161.77C91.7608 167.884 95.1447 176.242 95.5818 185.129L98.6781 248.215H42.486C41.3241 248.209 40.2075 247.697 39.3625 246.782C38.5174 245.866 38.0071 244.617 37.9347 243.286Z" fill="#5E88C6"/>
<path opacity="0.1" d="M37.83 241.328L34.9782 189.271C34.7182 184.522 35.3088 179.761 36.7136 175.284C38.1184 170.806 40.3076 166.707 43.146 163.238C45.9845 159.769 49.4121 157.005 53.2175 155.115C57.0228 153.225 61.1251 152.25 65.2713 152.25C73.0266 152.25 80.488 155.656 86.1244 161.77C91.7608 167.884 95.1447 176.242 95.5818 185.129L98.6781 248.215H44.232C42.6014 248.219 41.0311 247.508 39.8414 246.229C38.6516 244.949 37.9323 243.196 37.83 241.328Z" fill="black"/>
<path d="M47.0489 248.215L43.8246 189.271C43.5646 184.521 44.1554 179.76 45.5605 175.282C46.9657 170.804 49.1554 166.704 51.9945 163.235C54.8336 159.767 58.2619 157.002 62.0679 155.113C65.8739 153.223 69.9768 152.249 74.1235 152.25C81.8778 152.252 89.3377 155.659 94.9729 161.773C100.608 167.886 103.991 176.243 104.428 185.129L107.53 248.215H47.0489Z" fill="#5E88C6"/>
<path d="M46.0828 258.362H45.3088C45.0993 258.347 44.9013 258.247 44.7492 258.081C44.5971 257.915 44.5006 257.693 44.4765 257.454L43.3125 248.215H48.0325L46.8685 257.454C46.8483 257.686 46.7592 257.903 46.6161 258.068C46.473 258.233 46.2847 258.337 46.0828 258.362Z" fill="#5E88C6"/>
<path opacity="0.7" d="M46.0828 258.362H45.3088C45.0993 258.347 44.9013 258.247 44.7492 258.081C44.5971 257.915 44.5006 257.693 44.4765 257.454L43.3125 248.215H48.0325L46.8685 257.454C46.8483 257.686 46.7592 257.903 46.6161 258.068C46.473 258.233 46.2847 258.337 46.0828 258.362Z" fill="white"/>
<path d="M122.121 258.362H121.417C121.218 258.337 121.034 258.232 120.896 258.066C120.759 257.9 120.677 257.683 120.666 257.454L119.63 248.215H123.908L122.872 257.454C122.861 257.683 122.779 257.9 122.642 258.066C122.504 258.232 122.32 258.337 122.121 258.362Z" fill="#5E88C6"/>
<path opacity="0.5" d="M122.121 258.362H121.417C121.218 258.337 121.034 258.232 120.896 258.066C120.759 257.9 120.677 257.683 120.666 257.454L119.63 248.215H123.908L122.872 257.454C122.861 257.683 122.779 257.9 122.642 258.066C122.504 258.232 122.32 258.337 122.121 258.362Z" fill="white"/>
<path d="M100.232 258.362H99.5221C99.3235 258.337 99.139 258.232 99.0016 258.066C98.8641 257.9 98.7825 257.683 98.7713 257.454L97.7295 248.215H102.013L100.977 257.454C100.965 257.681 100.884 257.897 100.748 258.063C100.612 258.229 100.429 258.335 100.232 258.362Z" fill="#5E88C6"/>
<path opacity="0.7" d="M100.232 258.362H99.5221C99.3235 258.337 99.139 258.232 99.0016 258.066C98.8641 257.9 98.7825 257.683 98.7713 257.454L97.7295 248.215H102.013L100.977 257.454C100.965 257.681 100.884 257.897 100.748 258.063C100.612 258.229 100.429 258.335 100.232 258.362Z" fill="white"/>
<path d="M69.6536 258.362H68.8796C68.6697 258.348 68.4711 258.249 68.3188 258.083C68.1664 257.916 68.0703 257.694 68.0473 257.454L66.8833 248.215H71.6033L70.4393 257.454C70.4191 257.686 70.33 257.903 70.1869 258.068C70.0438 258.233 69.8555 258.337 69.6536 258.362Z" fill="#5E88C6"/>
<path opacity="0.5" d="M69.6536 258.362H68.8796C68.6697 258.348 68.4711 258.249 68.3188 258.083C68.1664 257.916 68.0703 257.694 68.0473 257.454L66.8833 248.215H71.6033L70.4393 257.454C70.4191 257.686 70.33 257.903 70.1869 258.068C70.0438 258.233 69.8555 258.337 69.6536 258.362Z" fill="white"/>
<path d="M95.2793 225.951H115.975L117.343 203.072L117.634 198.155L117.774 195.891C117.809 195.297 117.875 194.706 117.971 194.121C117.971 193.994 118.024 193.86 118.047 193.733C118.06 193.635 118.081 193.539 118.111 193.446C118.669 191.114 119.755 188.994 121.26 187.3C122.994 185.333 125.287 184.148 127.72 183.96H108.252C108.037 183.96 107.827 183.96 107.612 183.96C104.971 183.976 102.44 185.174 100.558 187.3C99.0537 188.994 97.9673 191.114 97.4094 193.446C97.3792 193.539 97.3578 193.635 97.3454 193.733C97.2087 194.444 97.1173 195.165 97.0718 195.891L96.938 198.155L95.2793 225.951Z" fill="#5E88C6"/>
<path opacity="0.1" d="M95.2793 225.951H115.975L117.343 203.072L117.634 198.155L117.774 195.891C117.809 195.297 117.875 194.706 117.971 194.121C117.971 193.994 118.024 193.86 118.047 193.733C118.06 193.635 118.081 193.539 118.111 193.446C118.669 191.114 119.755 188.994 121.26 187.3C122.994 185.333 125.287 184.148 127.72 183.96H108.252C108.037 183.96 107.827 183.96 107.612 183.96C104.971 183.976 102.44 185.174 100.558 187.3C99.0537 188.994 97.9673 191.114 97.4094 193.446C97.3792 193.539 97.3578 193.635 97.3454 193.733C97.2087 194.444 97.1173 195.165 97.0718 195.891L96.938 198.155L95.2793 225.951Z" fill="black"/>
<g opacity="0.1">
<path d="M78.8785 213.76H70.5617C68.5422 213.76 66.9067 215.23 66.9067 217.04V222.684C66.9067 224.495 68.5422 225.964 70.5617 225.964H78.8785V213.76Z" fill="black"/>
</g>
<path d="M112.815 213.753H76.2072C74.465 213.753 73.0527 215.374 73.0527 217.374V222.337C73.0527 224.337 74.465 225.958 76.2072 225.958H112.815C114.557 225.958 115.969 224.337 115.969 222.337V217.374C115.969 215.374 114.557 213.753 112.815 213.753Z" fill="#5E88C6"/>
<path d="M26.481 197.441C26.476 200.635 27.4554 203.728 29.2458 206.173C31.0363 208.618 33.5224 210.257 36.2644 210.801L38.412 243.326C38.5982 246.091 40.3442 248.215 42.4394 248.215H65.2713C63.1761 248.215 61.4301 246.091 61.2438 243.326L60.0798 225.958L59.0788 210.787C57.2875 210.428 55.593 209.597 54.128 208.361C52.6629 207.124 51.4671 205.515 50.634 203.66C50.5234 203.419 50.4245 203.172 50.3313 202.925C49.6561 201.201 49.3089 199.331 49.3128 197.441C49.313 196.512 49.3969 195.585 49.5631 194.675C49.6271 194.315 49.7086 193.954 49.7901 193.606C50.2077 192.014 50.8721 190.52 51.7514 189.198C52.8392 187.577 54.2318 186.26 55.8254 185.343C57.4507 184.405 59.2443 183.916 61.0634 183.914H38.2723C37.0882 183.913 35.9109 184.118 34.7803 184.522C32.4519 185.346 30.404 186.98 28.9196 189.198C27.336 191.561 26.4785 194.459 26.481 197.441Z" fill="#5E88C6"/>
<path opacity="0.1" d="M26.481 197.441C26.476 200.635 27.4554 203.728 29.2458 206.173C31.0363 208.618 33.5224 210.257 36.2644 210.801L38.412 243.326C38.5982 246.091 40.3442 248.215 42.4394 248.215H65.2713C63.1761 248.215 61.4301 246.091 61.2438 243.326L60.0798 225.958L59.0788 210.787C57.2875 210.428 55.593 209.597 54.128 208.361C52.6629 207.124 51.4671 205.515 50.634 203.66C50.5234 203.419 50.4245 203.172 50.3313 202.925C49.6561 201.201 49.3089 199.331 49.3128 197.441C49.313 196.512 49.3969 195.585 49.5631 194.675C49.6271 194.315 49.7086 193.954 49.7901 193.606C50.2077 192.014 50.8721 190.52 51.7514 189.198C52.8392 187.577 54.2318 186.26 55.8254 185.343C57.4507 184.405 59.2443 183.916 61.0634 183.914H38.2723C37.0882 183.913 35.9109 184.118 34.7803 184.522C32.4519 185.346 30.404 186.98 28.9196 189.198C27.336 191.561 26.4785 194.459 26.481 197.441Z" fill="black"/>
<path d="M49.3071 197.441C49.3071 204.121 53.1424 209.692 58.1767 210.801L60.1206 243.352C60.2894 246.125 61.8666 248.242 63.7756 248.242H124.734C126.632 248.242 128.226 246.125 128.389 243.352L130.339 210.754C135.268 209.565 138.999 204.074 138.999 197.468C139.012 194.697 138.329 191.981 137.032 189.645C136.046 187.865 134.69 186.393 133.086 185.363C131.627 184.428 129.985 183.936 128.314 183.934C125.673 183.948 123.141 185.146 121.26 187.274C119.754 188.967 118.666 191.087 118.105 193.419C118.08 193.513 118.06 193.609 118.047 193.707C117.908 194.417 117.816 195.138 117.774 195.864L117.634 198.129L115.975 225.944H72.5347L70.7363 195.884C70.4744 191.636 68.676 188.095 66.1734 186.419C64.5892 184.971 62.6587 184.112 60.6386 183.954C60.4233 183.954 60.2137 183.954 59.9984 183.954C58.3733 183.943 56.7721 184.403 55.3424 185.29C55.2956 185.309 55.2508 185.333 55.2085 185.363C53.7362 186.31 52.4704 187.628 51.507 189.218C50.061 191.638 49.2934 194.507 49.3071 197.441Z" fill="#5E88C6"/>
<path opacity="0.1" d="M73.5357 248.215H124.752C126.649 248.215 128.244 246.098 128.407 243.326L130.356 210.727C135.286 209.538 139.017 204.047 139.017 197.441C139.03 194.67 138.347 191.954 137.049 189.618C136.063 187.838 134.707 186.367 133.103 185.337C131.645 184.401 130.002 183.909 128.331 183.907C125.69 183.921 123.158 185.119 121.277 187.247C119.772 188.94 118.684 191.061 118.123 193.393C118.097 193.487 118.078 193.583 118.065 193.68C117.925 194.39 117.834 195.111 117.791 195.837L117.651 198.102L115.993 225.918H72.5347L73.5357 248.215Z" fill="white"/>
<path d="M89.1216 259.712L94.086 261.288L98.5442 247.895L93.5797 246.318L89.1216 259.712Z" fill="#FFC3BD"/>
<path d="M96.3093 259.511C95.9175 258.929 95.3514 258.534 94.7204 258.402L89.6279 257.26C89.5091 257.221 89.3814 257.236 89.2725 257.304C89.1637 257.371 89.0823 257.485 89.0459 257.621L87.4687 262.965C87.4236 263.11 87.4039 263.264 87.4108 263.418C87.4177 263.572 87.451 263.723 87.5089 263.862C87.5668 264.001 87.648 264.125 87.748 264.228C87.848 264.331 87.9647 264.41 88.0914 264.461H88.1264C90.012 265.316 91.2866 265.022 94.2315 265.677C96.0532 266.078 99.8653 267.467 102.414 267.347C104.964 267.227 104.958 264.334 103.887 264.121C100.104 263.453 97.1939 260.834 96.3093 259.511Z" fill="#263238"/>
<g opacity="0.2">
<path d="M98.5441 247.902L96.2452 254.809L91.2808 253.219L93.5738 246.318L98.5441 247.902Z" fill="black"/>
</g>
<path d="M81.9748 197.06C81.9748 197.06 111.866 196.873 110.935 208.363C110.307 216.125 107.059 224.281 104.533 232.157C100.861 243.573 97.6771 253.533 97.6771 253.533L90.8677 250.827C90.8677 250.827 96.9845 217.815 101.105 214.435H75.8288C67.4655 214.435 63.8513 203.894 71.9935 191.603C76.9696 191.623 81.9748 197.06 81.9748 197.06Z" fill="#5E88C6"/>
<path opacity="0.6" d="M81.9748 197.06C81.9748 197.06 111.866 196.873 110.935 208.363C111.395 215.504 97.6713 253.519 97.6713 253.519L90.8619 250.814C90.8619 250.814 96.9787 217.801 101.099 214.421H75.8288C67.4655 214.421 63.8513 203.88 71.9935 191.589C76.9696 191.623 81.9748 197.06 81.9748 197.06Z" fill="black"/>
<path d="M103.055 176.198C99.3765 180.053 92.1538 170.928 90.9898 169.846C88.4989 167.508 81.1773 159.665 81.5614 156.94C82.7254 148.924 94.1792 160.28 97.4908 168.109L103.055 176.198Z" fill="#263238"/>
<path d="M70.8643 152.077C69.0194 152.524 67.0231 151.763 65.7252 153.333C64.4274 154.902 63.8861 157.107 63.6999 159.258C63.536 162.263 63.6727 165.28 64.1073 168.249C64.4953 171.87 64.9007 175.488 65.3237 179.104C65.586 182.083 65.4862 185.088 65.0268 188.035C64.9784 188.348 65.0218 188.671 65.1503 188.953C65.2788 189.234 65.4851 189.459 65.7369 189.592C65.7369 189.592 80.0483 190.153 84.2096 189.972C86.4212 189.879 84.9021 183.199 85.5831 179.284C85.7344 178.416 87.2127 174.849 87.4338 173.94C88.4582 169.632 87.7772 166.666 86.8518 162.337C86.1593 159.191 85.8741 154.655 84.4773 154.321C81.963 153.727 75.9975 150.821 70.8643 152.077Z" fill="#5E88C6"/>
<path opacity="0.8" d="M70.8643 152.077C69.0194 152.524 67.0231 151.763 65.7252 153.333C64.4274 154.902 63.8861 157.107 63.6999 159.258C63.536 162.263 63.6727 165.28 64.1073 168.249C64.4953 171.87 64.9007 175.488 65.3237 179.104C65.586 182.083 65.4862 185.088 65.0268 188.035C64.9784 188.348 65.0218 188.671 65.1503 188.953C65.2788 189.234 65.4851 189.459 65.7369 189.592C65.7369 189.592 80.0483 190.153 84.2096 189.972C86.4212 189.879 84.9021 183.199 85.5831 179.284C85.7344 178.416 87.2127 174.849 87.4338 173.94C88.4582 169.632 87.7772 166.666 86.8518 162.337C86.1593 159.191 85.8741 154.655 84.4773 154.321C81.963 153.727 75.9975 150.821 70.8643 152.077Z" fill="white"/>
<path d="M68.8214 155.163C68.6293 154.829 63.5834 149.966 62.6813 155.584C61.4067 163.406 64.0432 171.101 64.0432 171.101C64.0432 171.101 64.6252 179.565 66.7902 180.413C68.9552 181.262 70.969 181.469 71.6906 180.019C72.1573 178.889 72.4036 177.656 72.4123 176.405C72.4123 176.405 72.1679 160.988 68.8214 155.163Z" fill="#263238"/>
<path d="M72.3077 141.342C72.8257 144.943 73.2622 151.522 71.0215 153.84C71.0215 153.84 76.4981 157.134 80.0949 162.878C80.8935 162.194 81.4841 161.239 81.7829 160.148C82.0817 159.056 82.0734 157.885 81.7594 156.8C81.5791 156.115 81.2799 155.479 80.8798 154.93C80.4797 154.381 79.987 153.931 79.4314 153.607C77.3071 152.271 77.5108 149.745 78.0928 147.381L72.3077 141.342Z" fill="#E8BFBF"/>
<path opacity="0.2" d="M73.0234 147.454L75.0663 148.356C75.9409 148.744 76.8767 148.917 77.8133 148.864C77.6676 149.598 77.6676 150.361 77.8133 151.095C77.0809 151.325 76.3061 151.306 75.583 151.04C74.8598 150.775 74.2193 150.274 73.7393 149.599C73.4091 148.929 73.1679 148.206 73.0234 147.454Z" fill="black"/>
<path d="M123.733 248.195H129.297L123.471 232.183L119.7 239.531L123.733 248.195Z" fill="#FFC3BD"/>
<path d="M128.837 246.679L122.313 244.976C122.201 244.943 122.083 244.96 121.982 245.024C121.88 245.087 121.803 245.191 121.766 245.316L119.944 251.074C119.908 251.22 119.897 251.372 119.912 251.522C119.926 251.672 119.967 251.817 120.031 251.949C120.094 252.082 120.18 252.198 120.283 252.292C120.386 252.386 120.505 252.456 120.631 252.497C122.918 253.045 124.042 253.165 126.911 253.92C128.657 254.381 133.15 255.73 135.589 256.365C138.027 257 138.667 254.261 137.695 253.74C133.342 251.429 130.985 249.217 129.722 247.334C129.501 247.005 129.189 246.774 128.837 246.679Z" fill="#263238"/>
<g opacity="0.2">
<path d="M123.471 232.183L125.951 239.004L120.945 242.21L119.7 239.538L123.471 232.183Z" fill="black"/>
</g>
<path d="M64.9162 189.665L64.3342 191.843C64.2585 192.01 64.4273 192.184 64.6717 192.197L86.2057 192.945C86.4036 192.945 86.5607 192.852 86.5782 192.711L86.8285 190.52C86.8285 190.373 86.6771 190.24 86.4734 190.226L65.2886 189.492C65.2187 189.479 65.147 189.488 65.0814 189.519C65.0158 189.55 64.9587 189.6 64.9162 189.665Z" fill="#263238"/>
<path d="M91.8512 207.534C84.7683 211.001 77.0859 214.461 72.9071 214.461C64.538 214.461 57.1058 207.528 65.0269 191.749C70.0088 191.749 78.6631 191.91 78.6631 191.91C78.6631 191.91 94.9591 186.566 106.82 188.142C109.631 188.519 112.265 189.908 114.345 192.11C116.425 194.313 117.843 197.215 118.396 200.4C121.399 217.768 126.026 236.552 126.026 236.552L120.072 241.228C120.072 241.228 110.79 218.83 105.447 201.068C102.618 202.09 97.421 204.809 91.8512 207.534Z" fill="#5E88C6"/>
<path opacity="0.5" d="M118.396 200.4C117.846 197.212 116.428 194.307 114.348 192.102C112.268 189.897 109.633 188.506 106.82 188.129C94.9825 186.579 78.6632 191.896 78.6632 191.896C78.6632 191.896 70.0089 191.716 65.0269 191.736C56.9779 207.447 64.5381 214.448 72.9072 214.448C77.086 214.448 84.7684 210.988 91.8513 207.521C97.4211 204.795 102.618 202.077 105.447 201.035C110.79 218.817 120.072 241.221 120.072 241.221L126.026 236.545C126.026 236.545 121.399 217.768 118.396 200.4Z" fill="black"/>
<path d="M110.935 208.416C110.746 210.648 110.454 212.866 110.062 215.063C110.033 214.989 110.01 214.922 109.986 214.849C109.963 214.775 109.986 214.815 109.986 214.795C109.967 214.722 109.942 214.65 109.911 214.582C108.328 210.066 106.779 205.437 105.47 201.075H105.511C108.898 202.725 111.208 205.076 110.935 208.416Z" fill="#5E88C6"/>
<path opacity="0.6" d="M110.935 208.416C110.746 210.648 110.454 212.866 110.062 215.063C110.033 214.989 110.01 214.922 109.986 214.849C109.963 214.775 109.986 214.815 109.986 214.795C109.967 214.722 109.942 214.65 109.911 214.582C108.328 210.066 106.779 205.437 105.47 201.075H105.511C108.898 202.725 111.208 205.076 110.935 208.416Z" fill="black"/>
<path d="M68.4898 137.882C70.2358 143.527 70.876 145.958 74.1468 148.076C79.0764 151.269 84.7218 147.555 84.4773 141.396C84.2562 135.885 81.4335 127.575 75.9627 126.907C74.7557 126.751 73.5341 126.952 72.414 127.491C71.294 128.03 70.3128 128.89 69.5637 129.987C68.8147 131.084 68.3228 132.383 68.1348 133.761C67.9469 135.138 68.0691 136.547 68.4898 137.855V137.882Z" fill="#E8BFBF"/>
<path d="M77.3303 137.147C77.4526 137.635 77.761 137.922 78.0287 137.815C78.2965 137.708 78.4012 137.281 78.2965 136.807C78.1917 136.332 77.8716 136.032 77.5981 136.139C77.3245 136.245 77.2139 136.68 77.3303 137.147Z" fill="#263238"/>
<path d="M81.8989 135.49C82.0211 135.985 82.3296 136.272 82.5973 136.158C82.865 136.045 82.9698 135.624 82.865 135.15C82.7603 134.676 82.4344 134.375 82.1725 134.482C81.9106 134.589 81.7825 135.03 81.8989 135.49Z" fill="#263238"/>
<path d="M82.062 134.555L82.9583 133.887C82.9583 133.887 82.6731 134.936 82.062 134.555Z" fill="#263238"/>
<path d="M80.2637 136.559C80.8934 137.508 81.6336 138.353 82.4636 139.071C82.297 139.307 82.087 139.499 81.8486 139.632C81.6102 139.764 81.3492 139.835 81.0843 139.839L80.2637 136.559Z" fill="#ED847E"/>
<path d="M65.2771 141.616C65.6346 142.632 65.9055 143.686 66.0861 144.762C66.1356 145.845 65.8323 146.91 65.2351 147.749C64.638 148.589 63.7898 149.144 62.856 149.305C63.6692 149.554 64.5324 149.472 65.2992 149.074C66.0661 148.676 66.6895 147.986 67.0638 147.12C66.6189 148.48 65.7383 149.594 64.602 150.233C65.4141 150.244 66.2174 150.038 66.9493 149.634C67.6811 149.23 68.3218 148.637 68.8215 147.902C68.5479 148.717 68.2395 149.525 67.995 150.34C69.377 149.38 70.5118 148.015 71.2833 146.386C71.5918 145.718 71.8246 144.849 71.4172 144.261C71.0098 143.674 70.3638 143.714 69.7701 143.7C69.1765 143.687 68.4606 143.527 68.2453 142.892C68.0299 142.257 68.4257 141.623 68.8564 141.189C69.2871 140.754 69.805 140.354 69.9622 139.719C70.0367 139.26 70.0087 138.786 69.8807 138.343C69.613 137.114 69.3491 135.882 69.0892 134.649C69.0185 134.213 68.8826 133.795 68.6876 133.413C67.5236 131.409 66.2257 134.348 65.7776 135.344C64.9387 137.291 64.7604 139.526 65.2771 141.616Z" fill="#263238"/>
<path d="M68.1463 143.413C68.8055 144.396 69.7758 145.042 70.8468 145.21C72.2727 145.41 72.7732 143.874 72.2029 142.478C71.6849 141.195 70.323 139.559 68.9786 139.993C67.6342 140.427 67.3432 142.184 68.1463 143.413Z" fill="#E8BFBF"/>
<path d="M77.4061 133.112C77.3966 133.175 77.371 133.232 77.3326 133.277C77.2941 133.323 77.2447 133.354 77.1907 133.366C76.0267 133.62 75.3516 135.23 75.3516 135.243C75.3224 135.316 75.2695 135.373 75.2042 135.402C75.139 135.43 75.0666 135.429 75.0024 135.397C74.9404 135.363 74.8922 135.303 74.8683 135.23C74.8444 135.156 74.8465 135.075 74.8744 135.003C74.9267 134.943 75.6484 133.092 77.0918 132.772C77.1594 132.76 77.2285 132.778 77.2848 132.823C77.3411 132.867 77.3803 132.935 77.3944 133.012C77.4069 133.043 77.4109 133.078 77.4061 133.112Z" fill="#263238"/>
<path d="M80.5138 131.776C80.4749 131.769 80.4352 131.772 80.3971 131.783C80.3591 131.795 80.3235 131.815 80.2927 131.843C80.2286 131.923 80.0133 132.064 80.1355 132.137C80.8456 132.551 81.8291 133.233 82.5857 133.092C82.7138 133.092 83.0164 132.939 82.9524 132.832C82.9086 132.778 82.8535 132.738 82.7923 132.716C82.7311 132.693 82.666 132.69 82.6032 132.705C82.0212 132.798 81.2006 132.15 80.6418 131.816C80.6008 131.797 80.5578 131.783 80.5138 131.776Z" fill="#263238"/>
<path d="M77.4875 136.205L78.3897 135.537C78.3897 135.537 78.1045 136.599 77.4875 136.205Z" fill="#263238"/>
<path d="M77.406 124.435C75.4214 124.021 75.1653 123.867 73.1516 124.014C71.1176 124.087 69.151 124.868 67.512 126.252C65.9809 127.705 64.9007 129.687 64.4332 131.903C63.9757 134.111 63.9242 136.405 64.2819 138.637C64.3462 139.703 64.7477 140.706 65.411 141.456C65.4786 140.255 65.6561 139.066 65.9406 137.909C66.2374 136.74 66.8485 135.709 67.6866 134.963C68.0565 134.733 68.3752 134.408 68.6178 134.014C68.7437 133.624 68.8145 133.214 68.8273 132.798C69.0098 131.863 69.4971 131.043 70.1892 130.507C70.8766 129.983 71.6125 129.549 72.3833 129.211C74.8336 128.002 77.5049 127.307 79.7631 125.678C79.0243 125.155 78.2327 124.738 77.406 124.435Z" fill="#263238"/>
<path d="M67.2502 133.373C67.7831 134.116 68.5126 134.639 69.3279 134.863C70.294 135.116 72.7093 135.05 72.8548 134.762C73.0003 134.475 72.139 131.362 71.1612 131.175C71.8357 131.923 72.6413 132.496 73.5241 132.859C74.523 133.088 75.5516 133.088 76.5505 132.859C77.0627 132.725 75.9161 130.293 75.0839 129.599C77.5923 130.2 80.2462 130.888 82.0679 132.939C83.8895 134.989 84.6753 138.236 84.5821 141.262C85.009 140.867 85.3519 140.366 85.5848 139.797C85.8178 139.227 85.9347 138.604 85.9266 137.975C86.366 139.54 86.527 141.19 86.4 142.828C86.273 144.465 85.8607 146.057 85.1874 147.508C87.853 144.996 88.8482 140.607 88.1498 136.733C87.4514 132.859 85.2398 129.485 82.5568 127.007C80.2288 124.889 77.4585 123.306 74.5077 123.226C70.6374 123.092 63.4672 128.142 67.2502 133.373Z" fill="#263238"/>
<path d="M70.3871 151.235C70.3871 151.015 70.4337 150.721 70.457 150.413C70.5078 149.708 70.3288 149.006 69.9547 148.443C69.5805 147.881 69.0378 147.497 68.4316 147.367C68.2516 147.33 68.0835 147.239 67.9444 147.103C67.8053 146.967 67.7003 146.791 67.6401 146.593C67.192 145.096 67.0174 144.642 66.5867 143.172C65.4227 142.845 64.0201 143.346 62.8037 143.493C62.4664 145.169 62.4426 146.909 62.7338 148.597C62.7805 148.974 62.9085 149.332 63.1063 149.639C64.2108 150.677 65.4324 151.54 66.738 152.204C67.7856 152.571 69.2581 151.349 70.3871 151.235Z" fill="#E8BFBF"/>
<path d="M66.8602 152.237C66.8602 152.237 63.6534 175.984 66.9592 179.625C68.8973 181.749 70.5734 180.574 71.6152 179.244C71.9971 178.749 72.2844 178.167 72.4588 177.537C72.6332 176.907 72.6908 176.241 72.6279 175.584L70.3755 151.255C70.3755 151.255 68.1639 149.752 66.8602 152.237Z" fill="#E8BFBF"/>
<path d="M101.315 173.68C102.631 172.361 103.576 170.621 104.027 168.683C104.13 168 104.169 167.306 104.143 166.613C104.114 162.311 103.055 154.422 103.055 154.422L100.011 153.266C100.011 153.266 99.0622 159.278 98.8469 162.564C98.8062 163.232 98.7421 163.974 98.6723 164.782C98.5384 166.252 98.3755 167.868 98.23 169.211L101.315 173.68Z" fill="#E8BFBF"/>
<path d="M103.055 176.198C103.992 175.216 104.149 174.027 104.632 171.522C105.092 169.131 104.574 166.178 104.143 166.626C104.089 166.682 104.049 166.753 104.027 166.833C103.288 168.837 100.413 167.08 99.5977 166.078C99.2468 165.695 98.938 165.264 98.6782 164.796C98.5713 164.617 98.5141 164.405 98.5141 164.188C98.5141 163.971 98.5713 163.759 98.6782 163.58C97.7935 163.159 97.0835 167.154 97.5142 168.136L97.7353 168.877C98.0859 170.08 98.6265 171.199 99.33 172.177L100.93 174.388L103.055 176.198Z" fill="#263238"/>
<path d="M99.9294 153.767L99.5686 147.661C100.51 148.176 101.483 148.611 102.479 148.964C103.957 149.545 105.971 148.523 105.505 149.632C104.763 151.282 103.935 152.879 103.026 154.415L99.9294 153.767Z" fill="#E8BFBF"/>
<path d="M99.5686 147.662L101.85 141.549L104.83 143.64C105.65 145.684 105.552 149.652 105.552 149.652C105.552 149.652 101.408 149.839 99.5686 147.662Z" fill="#E8BFBF"/>
<path d="M79.9144 142.952C79.9901 143.386 80.2636 143.693 80.4964 143.62C80.7292 143.546 80.8747 143.159 80.7932 142.725C80.7118 142.291 80.444 141.983 80.2112 142.057C79.9784 142.13 79.8329 142.544 79.9144 142.952Z" fill="#263238"/>
<path d="M72.5346 225.951L70.7362 195.891C70.4743 191.643 68.6759 188.102 66.1733 186.426C64.5891 184.978 62.6587 184.118 60.6385 183.961C60.4232 183.961 60.2137 183.961 59.9983 183.961C58.3732 183.95 56.772 184.41 55.3423 185.297C55.2956 185.316 55.2507 185.34 55.2085 185.37C53.7361 186.316 52.4704 187.634 51.5069 189.224C50.0534 191.648 49.2816 194.525 49.2953 197.468C49.2953 204.148 53.1307 209.719 58.165 210.828L60.1089 243.379C60.2777 246.151 61.8549 248.269 63.7639 248.269H73.524L72.5346 225.951Z" fill="#5E88C6"/>
<path opacity="0.1" d="M72.5346 225.951L70.7362 195.891C70.4743 191.643 68.6759 188.102 66.1733 186.426C64.5891 184.978 62.6587 184.118 60.6385 183.961C60.4232 183.961 60.2137 183.961 59.9983 183.961C58.3732 183.95 56.772 184.41 55.3423 185.297C55.2956 185.316 55.2507 185.34 55.2085 185.37C53.7361 186.316 52.4704 187.634 51.5069 189.224C50.0534 191.648 49.2816 194.525 49.2953 197.468C49.2953 204.148 53.1307 209.719 58.165 210.828L60.1089 243.379C60.2777 246.151 61.8549 248.269 63.7639 248.269H73.524L72.5346 225.951Z" fill="white"/>
<path d="M142.101 280.874C152.882 280.874 161.621 278.308 161.621 275.143C161.621 271.977 152.882 269.411 142.101 269.411C131.32 269.411 122.581 271.977 122.581 275.143C122.581 278.308 131.32 280.874 142.101 280.874Z" fill="#263238"/>
<path opacity="0.3" d="M142.101 278.964C152.882 278.964 161.621 276.825 161.621 274.187C161.621 271.55 152.882 269.411 142.101 269.411C131.32 269.411 122.581 271.55 122.581 274.187C122.581 276.825 131.32 278.964 142.101 278.964Z" fill="white"/>
<path d="M143.713 274.181H140.489L136.764 228.075H147.438L143.713 274.181Z" fill="#263238"/>
<path d="M147.438 228.075C147.438 229.411 145.052 230.507 142.101 230.507C139.15 230.507 136.764 229.418 136.764 228.075C136.764 226.733 139.156 225.644 142.101 225.644C145.046 225.644 147.438 226.733 147.438 228.075Z" fill="#263238"/>
<path opacity="0.7" d="M147.438 228.075C147.438 229.411 145.052 230.507 142.101 230.507C139.15 230.507 136.764 229.418 136.764 228.075C136.764 226.733 139.156 225.644 142.101 225.644C145.046 225.644 147.438 226.733 147.438 228.075Z" fill="white"/>
<path opacity="0.7" d="M76.824 228.797C76.8386 228.521 76.9012 228.251 77.0081 228.003C77.1151 227.755 77.2642 227.535 77.4467 227.354C81.9572 232.564 110.574 236.579 145.203 236.579C179.832 236.579 208.449 232.571 212.965 227.354C213.148 227.535 213.297 227.755 213.404 228.003C213.511 228.251 213.574 228.521 213.588 228.797C213.588 234.682 182.969 239.485 145.203 239.485C107.437 239.485 76.824 234.682 76.824 228.797Z" fill="white"/>
<path opacity="0.7" d="M77.47 230.126C81.9805 224.916 110.597 220.908 145.226 220.908C179.855 220.908 208.472 224.916 212.989 230.126C208.472 235.337 179.855 239.351 145.226 239.351C110.597 239.351 81.9805 235.337 77.47 230.126Z" fill="white"/>
<path opacity="0.7" d="M76.824 228.59C76.824 222.698 107.437 217.902 145.203 217.902C182.969 217.902 213.588 222.671 213.588 228.59C213.574 228.865 213.512 229.134 213.405 229.381C213.298 229.628 213.148 229.847 212.965 230.026C208.449 224.815 179.832 220.807 145.203 220.807C110.574 220.807 81.9572 224.815 77.4467 230.026C77.2639 229.847 77.1145 229.628 77.0075 229.381C76.9004 229.134 76.838 228.865 76.824 228.59Z" fill="white"/>
<path d="M171.603 223.399L142.992 222.778C142.914 222.769 142.84 222.742 142.772 222.7C142.704 222.657 142.644 222.599 142.595 222.529C142.547 222.46 142.511 222.38 142.491 222.294C142.47 222.208 142.464 222.118 142.474 222.03C142.467 221.941 142.476 221.852 142.501 221.767C142.525 221.682 142.564 221.604 142.615 221.537C142.666 221.47 142.728 221.415 142.798 221.376C142.867 221.336 142.943 221.314 143.021 221.309L171.632 221.93C171.709 221.938 171.785 221.964 171.854 222.007C171.922 222.049 171.983 222.107 172.032 222.177C172.081 222.246 172.117 222.327 172.138 222.413C172.159 222.499 172.165 222.589 172.156 222.678C172.162 222.767 172.152 222.857 172.128 222.942C172.103 223.027 172.064 223.106 172.012 223.173C171.961 223.241 171.898 223.295 171.828 223.334C171.757 223.373 171.681 223.395 171.603 223.399Z" fill="#263238"/>
<path opacity="0.2" d="M171.603 223.399L142.992 222.778C142.914 222.769 142.84 222.742 142.772 222.7C142.704 222.657 142.644 222.599 142.595 222.529C142.547 222.46 142.511 222.38 142.491 222.294C142.47 222.208 142.464 222.118 142.474 222.03C142.467 221.941 142.476 221.852 142.501 221.767C142.525 221.682 142.564 221.604 142.615 221.537C142.666 221.47 142.728 221.415 142.798 221.376C142.867 221.336 142.943 221.314 143.021 221.309L171.632 221.93C171.709 221.938 171.785 221.964 171.854 222.007C171.922 222.049 171.983 222.107 172.032 222.177C172.081 222.246 172.117 222.327 172.138 222.413C172.159 222.499 172.165 222.589 172.156 222.678C172.162 222.767 172.152 222.857 172.128 222.942C172.103 223.027 172.064 223.106 172.012 223.173C171.961 223.241 171.898 223.295 171.828 223.334C171.757 223.373 171.681 223.395 171.603 223.399Z" fill="white"/>
<path d="M185.495 221.001L171.818 223.373C171.669 223.373 171.525 223.307 171.416 223.189C171.308 223.071 171.244 222.909 171.236 222.738C171.212 222.558 171.247 222.375 171.334 222.223C171.421 222.071 171.554 221.962 171.707 221.916L185.384 219.545C185.534 219.545 185.678 219.61 185.786 219.729C185.894 219.847 185.959 220.008 185.966 220.18C185.99 220.359 185.955 220.543 185.868 220.694C185.781 220.846 185.648 220.955 185.495 221.001Z" fill="#263238"/>
<path d="M185.373 219.545H156.459L143.021 221.308L170.852 221.91L185.373 219.545Z" fill="#263238"/>
<path opacity="0.6" d="M185.373 219.545H156.459L143.021 221.308L170.852 221.91L185.373 219.545Z" fill="white"/>
<path opacity="0.5" d="M185.495 221.001L171.818 223.373C171.669 223.373 171.525 223.307 171.416 223.189C171.308 223.071 171.244 222.909 171.236 222.738C171.212 222.558 171.247 222.375 171.334 222.223C171.421 222.071 171.554 221.962 171.707 221.916L185.384 219.545C185.534 219.545 185.678 219.61 185.786 219.729C185.894 219.847 185.959 220.008 185.966 220.18C185.99 220.359 185.955 220.543 185.868 220.694C185.781 220.846 185.648 220.955 185.495 221.001Z" fill="white"/>
<path d="M170.852 221.91L144.173 221.335C143.67 221.262 143.208 220.979 142.875 220.541C142.541 220.103 142.359 219.539 142.363 218.957L141.56 200.467C141.502 199.178 142.229 198.142 143.166 198.162L169.845 198.744C170.349 198.814 170.813 199.096 171.147 199.535C171.481 199.974 171.662 200.539 171.655 201.122L172.464 219.605C172.516 220.894 171.795 221.93 170.852 221.91Z" fill="#5E88C6"/>
<path opacity="0.2" d="M170.852 221.91L144.173 221.335C143.67 221.262 143.208 220.979 142.875 220.541C142.541 220.103 142.359 219.539 142.363 218.957L141.56 200.467C141.502 199.178 142.229 198.142 143.166 198.162L169.845 198.744C170.349 198.814 170.813 199.096 171.147 199.535C171.481 199.974 171.662 200.539 171.655 201.122L172.464 219.605C172.516 220.894 171.795 221.93 170.852 221.91Z" fill="white"/>
<path d="M170.072 221.816L143.393 221.235C142.889 221.163 142.426 220.881 142.091 220.443C141.756 220.004 141.574 219.44 141.577 218.857L140.774 200.4C140.716 199.111 141.444 198.075 142.386 198.096L169.059 198.67C169.563 198.742 170.027 199.024 170.362 199.462C170.696 199.901 170.879 200.465 170.875 201.048L171.69 219.512C171.737 220.801 171.009 221.836 170.072 221.816Z" fill="#5E88C6"/>
<path opacity="0.6" d="M170.072 221.816L143.393 221.235C142.889 221.163 142.426 220.881 142.091 220.443C141.756 220.004 141.574 219.44 141.577 218.857L140.774 200.4C140.716 199.111 141.444 198.075 142.386 198.096L169.059 198.67C169.563 198.742 170.027 199.024 170.362 199.462C170.696 199.901 170.879 200.465 170.875 201.048L171.69 219.512C171.737 220.801 171.009 221.836 170.072 221.816Z" fill="white"/>
<path d="M152.694 209.638C152.772 210.518 153.128 211.335 153.696 211.933C154.263 212.531 155.002 212.87 155.772 212.885C156.135 212.892 156.494 212.811 156.827 212.646C157.16 212.482 157.458 212.238 157.702 211.931C157.947 211.624 158.132 211.261 158.244 210.865C158.357 210.47 158.395 210.052 158.356 209.638C158.272 208.763 157.913 207.954 157.346 207.36C156.78 206.766 156.045 206.429 155.278 206.412C154.917 206.405 154.559 206.486 154.228 206.649C153.896 206.813 153.599 207.055 153.355 207.36C153.111 207.664 152.925 208.025 152.812 208.418C152.698 208.811 152.657 209.227 152.694 209.638Z" fill="white"/>
</g>
<defs>
<clipPath id="clip0_56_1487">
<rect width="291" height="334" fill="white"/>
</clipPath>
</defs>
</svg>
