<svg width="218" height="26" viewBox="0 0 218 26" fill="none" xmlns="http://www.w3.org/2000/svg">
<path d="M4.89732 0.962169C9.4576 -1.31006 12.5704 1.10422 16.8009 1.48901C26.1137 2.33436 38.3947 1.57298 47.9195 1.63341C55.1288 1.67921 62.4544 1.84136 69.6202 1.97142C69.9877 1.97782 70.207 2.22692 70.3737 2.23007C71.9426 2.25938 74.5736 2.03369 76.13 2.06663C79.404 2.13532 85.1007 2.09651 88.0993 2.33005C89.3727 2.42893 90.6788 2.47016 91.1737 3.06318C91.639 3.09338 91.893 2.55756 92.0145 2.52841C92.0159 2.52893 92.0173 2.52946 92.0186 2.52999C92.4099 2.43954 93.3981 2.81522 93.6162 2.79183C93.6488 2.78816 93.448 2.40007 93.9771 2.5173C94.0242 2.52737 93.9807 2.79125 94.4261 2.795C94.5421 2.79591 96.032 2.39127 96.4577 2.36655C97.8747 2.28601 101.258 2.60368 102.953 2.59823C103.212 2.59823 103.361 2.44388 103.634 2.44113C103.776 2.43953 103.988 2.60708 104.031 2.60616C104.222 2.6002 105.054 1.8393 104.755 3.34088C105.625 3.24567 105.369 2.74925 105.388 2.42685C106.332 2.38029 106.787 3.08748 107.033 2.33798C111.674 2.42843 116.315 2.51888 120.955 2.60934C120.957 2.48715 120.958 2.36496 120.959 2.24277C122.327 2.73082 122.796 1.90529 123.577 2.6141C124.059 2.45805 124.54 2.30201 125.022 2.14597C137.396 2.62678 149.742 2.05528 161.977 2.05711C162.494 2.05711 162.623 2.31711 163.474 2.31894C164.415 2.32076 165.737 2.01859 166.976 2.0222C168.063 2.02494 169.667 2.27091 170.879 2.30942C171.152 2.31766 171.35 2.15299 171.381 2.15391C171.562 2.16034 171.571 2.42104 171.747 2.42843C171.957 2.43668 172.211 2.24356 172.454 2.25546C173.361 2.29847 174.35 2.23191 174.465 2.23642C175.018 2.2611 175.14 2.51607 175.186 2.51888C175.801 2.55 175.57 2.31987 175.724 2.33322C176.519 2.40374 177.081 2.97821 178.17 2.42685C178.141 2.64002 178.111 2.85318 178.081 3.06635C178.915 3.1863 178.364 2.61987 178.535 2.5173C178.604 2.47929 180.398 2.54847 180.536 2.55856C181.018 2.59518 181.031 2.87846 181.073 2.88228C181.174 2.89144 182.386 2.56993 183.008 2.81722C183.743 3.11026 182.878 3.68651 183.06 3.79472C183.091 3.81304 183.861 3.75398 183.964 3.93437C184.078 4.12844 183.413 4.12433 183.423 4.20572C183.43 4.26159 184.535 4.66165 184.323 4.93092C184.153 5.20099 182.654 4.85471 182.336 4.9817C182.283 5.00272 182.382 5.33604 182.336 5.34827C182.149 5.39313 178.694 5.40315 178.536 5.34827C178.716 5.19645 178.896 5.04464 179.076 4.89283C178.837 4.8775 178.597 4.86216 178.358 4.84682C178.698 4.72516 179.039 4.6035 179.379 4.48184C178.873 3.23183 177.351 4.49901 177.288 5.12293C177.261 5.41143 178.192 6.15372 177.325 6.58602C177.457 6.66007 177.589 6.73413 177.72 6.80818C177.992 6.68652 178.263 6.56486 178.535 6.4432C178.354 6.3665 178.173 6.28981 177.992 6.21311C178.059 6.12636 178.125 6.03961 178.192 5.95286C178.699 5.81375 179.207 5.67463 179.714 5.53552C179.975 5.59963 179.92 5.85574 180.1 5.90525C182.335 6.52895 180.877 5.73529 182.341 5.84971C182.55 5.98724 182.759 6.12477 182.968 6.2623C182.894 5.69351 183.542 6.05064 184.327 5.80528C184.233 5.98936 184.139 6.17344 184.046 6.35751C185.182 6.25951 187.485 7.18756 186.863 6.17185C187.123 6.2586 187.384 6.34535 187.644 6.43209C187.864 6.266 188.084 6.09991 188.303 5.93382C188.607 5.95286 188.911 5.9719 189.215 5.99095C189.216 6.08087 189.218 6.17079 189.219 6.26071C188.977 6.26124 188.734 6.26177 188.492 6.2623C188.674 6.5363 188.856 6.8103 189.038 7.0843C189.217 7.03881 189.395 6.99332 189.574 6.94783C188.824 6.68868 189.813 6.2654 190.052 5.90367C190.685 5.76999 191.089 6.23955 191.301 6.26071C191.4 6.27079 192.574 5.44237 192.114 6.35275C192.718 6.2422 193.322 6.13165 193.926 6.0211C194.162 6.09092 194.398 6.16074 194.634 6.23056C194.122 6.6546 195.607 7.16553 194.513 7.34137C193.696 7.47325 193.494 7.07679 193.107 7.07954C192.757 7.08148 192.572 7.3485 192.192 7.36041C189.634 7.43551 187.55 7.38652 185.12 7.26837C184.64 7.24463 184.203 7.37555 183.881 7.35724C183.517 7.33612 183.973 7.0012 183.509 7.08271C183.022 7.16888 182.917 7.44219 182.788 7.44769C182.708 7.45079 182.455 7.2049 182.221 7.2049C181.262 7.20495 179.856 7.44272 179.72 7.44134C179.566 7.43859 176.852 7.21672 176.723 7.17633C176.654 7.15435 176.796 6.24633 176.199 7.21442C176.012 7.2324 175.825 7.25039 175.639 7.26837C175.669 7.08694 175.699 6.90551 175.73 6.72408C174.624 7.41188 175.004 7.02709 173.939 7.08112C171.388 7.21115 167.625 7.05827 164.835 7.12238C164.212 7.13706 163.974 7.3543 163.237 7.36993C162.552 7.38367 160.764 6.73545 161.153 7.63335C159.63 6.85585 159.385 8.1966 158.622 7.36041C158.529 7.48207 158.437 7.60373 158.345 7.72539C157.517 7.20336 157.261 7.66216 156.357 7.72539C155.968 7.75287 156.417 7.19762 155.631 7.81584C155.48 7.76982 155.33 7.7238 155.18 7.67778C155.215 7.54343 155.25 7.40907 155.285 7.27472C154.411 7.38462 154.355 7.31461 154.455 7.81743C154.033 7.72592 153.611 7.63441 153.19 7.5429C153.137 7.70793 153.085 7.87297 153.033 8.038C153.235 8.35279 162.808 7.87808 164.141 7.72698C165.705 8.10053 168.846 7.63351 170.109 7.72222C170.614 7.75794 170.838 8.13118 171.573 8.17606C172.309 8.2209 173.234 7.8819 173.626 7.86979C174.93 7.82766 181.111 7.90213 176.907 8.36648C177.028 8.54844 177.149 8.7304 177.27 8.91237C178.94 8.29146 178.335 8.6737 179.721 8.73781C180.305 8.76517 181.692 8.35884 181.615 9.18531C180.531 9.33917 179.38 9.07501 178.438 9.08692C178.345 9.08821 177.229 9.46556 176.655 9.36303C176.137 9.26945 176.494 8.48158 175.367 9.36621C174.53 8.50207 174.046 9.28605 173.825 9.36938C173.443 9.51388 173.401 9.0874 173.019 9.03773C172.603 8.98287 172.317 9.26597 172.26 9.26782C171.69 9.27423 168.718 9.31283 168.582 9.14087C168.701 9.06523 168.821 8.98959 168.94 8.91395C168.169 8.79222 168.33 9.22832 168.127 9.28052C167.976 9.27893 167.825 9.27734 167.674 9.27576C167.734 9.18531 167.794 9.09485 167.853 9.0044C166.942 9.02364 167.639 9.33795 166.346 9.32971C165.524 9.32417 164.676 8.97887 164.596 9.0044C164.572 9.01173 164.831 9.24454 164.496 9.27576C163.942 9.32704 162.984 9.32111 162.876 9.0044C162.605 9.04923 162.628 9.35915 162.592 9.36621C162.434 9.39643 159.722 9.50181 159.236 9.52013C157.89 9.57051 156.391 9.50443 154.933 9.55663C154.783 9.56185 154.879 9.36298 154.728 9.36938C154.487 9.37957 153.248 9.69169 153.063 9.71373C152.602 9.76774 151.387 9.64394 151.196 9.73436C151.168 9.74718 151.568 10.016 151.101 10.0993C150.582 10.1915 150.861 9.83001 150.833 9.8264C149.777 9.70277 149.11 9.95396 148.389 10.0025C148.155 10.0181 147.724 9.74602 147.394 9.8264C147.356 9.83553 147.432 10.087 147.394 10.0993C146.896 10.2312 146.43 9.76459 146.214 9.73436C145.687 9.66048 145.974 10.0049 145.947 10.0073C145.595 10.0183 145.122 9.89406 144.588 9.9105C142.205 9.98377 140.261 10.0048 137.728 9.98191C137.41 9.97916 137.032 9.73627 136.983 9.73595C136.833 9.73778 136.876 10.0232 136.441 10.0168C135.525 10.0022 134.675 10.016 133.767 10.0105C133.584 10.0093 133.506 9.74483 133.367 9.73912C132.9 9.72264 131.306 10.4152 131.28 9.55346C130.352 10.3163 129.736 9.65882 128.989 9.66613C127.221 9.68261 124.452 9.83804 122.689 9.73912C122.318 9.71792 122.144 9.49713 121.937 9.48522C121.567 9.46331 119.45 9.58665 119.339 9.55187C119.122 9.48501 119.252 8.51267 118.134 9.35986C117.479 9.42022 117.556 9.02116 117.421 8.99964C116.365 8.83936 115.337 9.73 115.529 8.91395C114.299 9.13554 113.502 9.58651 113 8.8235C113.007 9.19586 112.428 9.41922 111.731 9.27734C112.445 8.65184 112.356 8.25208 114.083 8.36648C114.11 8.36832 114.058 8.63759 114.085 8.63942C114.332 8.65761 114.846 8.52167 115.266 8.53628C115.686 8.55093 115.453 8.73501 115.621 8.73146C115.775 8.7278 115.77 8.47012 115.993 8.46646C116.716 8.45637 117.356 8.38534 117.767 8.38077C118.026 8.3781 118.316 8.60451 118.517 8.60451C119.294 8.60266 120.941 8.42586 121.931 8.45059C122.137 8.45636 122.05 8.71041 122.501 8.73146C122.554 8.73392 122.746 8.46901 123.141 8.41409C123.535 8.35916 123.842 8.4907 124.095 8.46328C124.307 8.44039 124.219 8.20506 124.653 8.19034C125.016 8.17844 129.12 8.34797 129.343 8.38553C129.663 8.43965 129.816 8.77017 130.011 8.72988C130.046 8.72124 130.104 8.40203 130.223 8.37918C132.191 8.00193 136.546 8.43743 138.795 8.43472C143.495 8.43014 147.83 8.24232 152.572 8.16813C152.656 8.11258 152.741 8.05704 152.826 8.0015C152.346 7.99939 151.867 7.99727 151.388 7.99516C151.385 7.84493 151.382 7.69471 151.379 7.54449C150.731 7.5207 150.816 7.87598 150.835 8.09037C150.595 7.99939 150.355 7.90841 150.115 7.81743C149.908 8.34094 148.309 7.99276 147.485 7.99357C146.949 7.99357 146.311 8.19314 146.028 8.17765C145.431 8.14562 145.446 7.82258 145.399 7.81743C145.32 7.8101 144.486 8.09501 143.884 8.08402C142.995 8.06833 142.899 7.57232 141.681 7.99357C140.121 7.73623 138.393 7.86574 136.712 7.90788C137.032 7.44939 135.525 7.88334 134.845 7.87614C130.7 7.83126 125.605 7.63538 121.405 7.45404C120.865 7.43115 120.458 7.16104 120.157 7.16999C119.994 7.17457 119.923 7.49299 119.696 7.45086C119.656 7.44276 119.629 7.145 119.207 7.10016C118.158 6.98751 115.545 7.48442 114.884 6.91291C111.297 7.00125 107.71 7.08959 104.123 7.17792C104.033 7.05626 103.943 6.9346 103.853 6.81294C103.172 7.43466 100.478 7.06932 99.1646 7.09858C96.8528 7.15078 93.9029 7.3441 91.8773 7.36517C91.4371 7.36975 91.0764 7.19338 90.6598 7.19696C90.4805 7.19879 90.2576 7.42746 90.071 7.42865C87.9765 7.44605 85.1407 7.21051 83.0298 7.21601C78.2375 7.22791 73.7242 7.19324 68.8685 7.20331C52.5111 7.23903 36.2479 7.5753 20.03 7.43975C19.8126 7.43792 19.8235 7.175 19.655 7.17316C18.6603 7.16034 16.439 7.37707 15.3157 7.36517C14.4206 7.35601 13 6.954 12.6919 7.35882C15.8717 7.97155 19.2312 7.92545 22.5415 8.09672C22.7768 8.10878 22.806 8.35873 22.835 8.36331C23.3709 8.45016 23.0325 8.10594 23.8097 8.09037C24.0694 8.08515 26.4685 8.88308 26.1831 8.08878C26.7576 8.40653 30.8077 8.56535 31.5893 8.46011C31.8267 8.42805 31.6586 8.19273 31.7057 8.18082C31.9103 8.12885 32.0027 8.45331 32.1856 8.4617C32.673 8.48184 33.9126 8.21866 34.1482 8.22049C34.6901 8.22331 36.3149 8.48744 37.0305 8.4252C37.6864 8.36841 37.5636 8.02947 38.1307 7.99833C38.5777 7.97467 38.0908 8.25977 39.0887 8.34585C39.5833 8.38798 41.3135 8.18403 41.734 8.18399C42.1544 8.18399 42.622 8.38681 43.2018 8.37124C44.037 8.34926 45.8538 8.23633 46.7037 8.1713C46.7544 8.16764 46.8781 7.90397 47.0031 7.90947C47.262 7.92052 47.1843 8.24615 47.3798 8.27921C47.5754 8.31217 50.964 8.27239 51.5395 8.27603C51.9362 8.27786 52.2101 8.0839 52.4293 8.08561C52.6013 8.08744 52.6197 8.35868 52.7952 8.36172C52.8496 8.36172 53.312 8.12613 53.774 8.13163C54.2105 8.13715 55.8681 8.36119 56.0601 8.36331C56.1851 8.36423 56.0481 8.17148 56.4177 8.17606C56.7545 8.18078 56.9758 8.43106 57.1678 8.43472C57.6133 8.44286 58.1113 8.22945 58.584 8.22843C59.9429 8.22568 59.873 8.53572 59.9545 8.5458C60.1805 8.5738 60.2711 8.28982 60.3453 8.28397C60.6587 8.26016 61.4266 8.20771 61.7058 8.19669C62.0537 8.18295 62.2011 8.45285 62.5707 8.45376C62.8462 8.45358 63.4025 8.19046 64.031 8.17765C65.4478 8.14742 67.1327 8.09775 68.5242 8.10782C68.9391 8.11057 69.0027 8.3569 69.1296 8.36331C69.7961 8.39712 70.1693 8.12168 70.3595 8.12528C71.7166 8.15001 74.1373 8.58216 75.3965 8.6188C75.9093 8.63344 78.1542 8.43391 79.4207 8.46963C79.5656 8.47333 79.4299 8.66647 79.5912 8.63625C79.9768 8.56378 79.941 8.1705 80.1367 8.18241C80.2311 8.18936 80.4464 8.41107 80.7213 8.43313C82.1472 8.54762 83.1278 8.37521 83.7783 8.38711C90.0254 8.5016 96.3958 8.60462 102.23 8.63942C102.88 8.64309 103.687 8.40911 104.669 8.63625C104.699 8.75844 104.729 8.88063 104.76 9.00282C104.794 8.88274 104.828 8.76267 104.863 8.6426C105.975 8.57757 106.395 8.42302 107.531 8.57595C107.629 8.58877 107.928 9.14657 108.113 8.45376C109.238 8.95566 108.62 8.44969 109.456 8.40298C110.291 8.35629 111.103 8.51097 111.912 8.5458C112.356 8.794 110.494 9.36645 110.372 9.36462C110.177 9.36241 109.973 9.01795 109.785 8.99964C109.227 8.94487 108.688 9.21822 108.563 8.91078C107.842 9.23584 108.739 9.07342 108.649 9.36621C108.168 9.24508 107.687 9.12395 107.205 9.00282C106.96 9.99864 104.301 8.69999 104.486 9.45825C104.275 9.30644 104.063 9.15463 103.852 9.00282C102.924 9.95409 102.379 9.28426 101.141 9.00123C101.231 9.12289 101.32 9.24455 101.409 9.36621C101.384 9.41698 100.292 9.61152 100.682 9.09327C99.5629 9.77613 99.6101 8.64027 98.6066 9.46142C98.0105 9.56675 98.369 9.0898 97.3018 9.09803C96.6695 9.10261 95.8845 9.35198 95.1779 9.36938C95.0151 9.37259 94.9444 9.09644 94.7995 9.09644C94.6548 9.09655 94.5841 9.36732 94.4087 9.37414C94.0463 9.3888 93.5765 9.19873 93.35 9.21704C93.1471 9.23267 92.8571 9.47148 92.3679 9.50903C90.6598 9.64177 91.1757 9.30073 90.906 9.18531C90.6161 9.06259 90.4077 9.51194 89.8299 9.45983C89.7719 9.45434 89.9218 9.17432 89.7334 9.18531C89.5814 9.19392 89.5049 9.4983 89.0016 9.55505C88.8011 9.57795 85.6893 9.64315 85.2153 9.64867C84.4887 9.65691 82.8703 9.39929 82.1184 9.40112C81.8286 9.40117 81.519 9.64554 81.2111 9.64391C80.1911 9.63841 78.558 9.61773 77.2643 9.60583C76.0994 9.59477 74.0544 9.05538 73.4165 9.54235C71.7807 9.60553 71.3834 9.18939 71.2601 9.18372C70.9268 9.16815 70.7724 9.44384 70.352 9.45666C64.9075 9.61692 57.7379 9.43468 52.5815 9.45666C40.6199 9.50978 28.593 9.66043 16.5897 9.5487C16.5575 9.67089 16.5254 9.79308 16.4932 9.91526C17.9119 9.99403 19.5791 10.2063 20.9797 10.2549C22.8495 10.3189 25.6232 9.81006 26.9947 10.6452C26.4385 10.7185 25.5323 10.3982 25.5485 10.8277C26.5429 10.8584 27.5372 10.8891 28.5315 10.9197C28.5018 10.7214 28.4722 10.523 28.4425 10.3247C29.4807 10.267 30.5425 10.3102 31.5843 10.2818C31.7653 10.2772 31.6371 10.0971 31.7947 10.0962C31.971 10.0955 31.8515 10.2788 31.8845 10.2802C32.3302 10.2821 32.4647 10.0967 32.519 10.0993C32.6586 10.1067 32.5501 10.2832 32.9523 10.3326C33.6985 10.425 34.2328 9.95613 34.0575 10.7373C34.2984 10.7373 34.5393 10.7373 34.7802 10.7373C34.8425 10.5246 34.9049 10.312 34.9673 10.0993C36.449 10.9578 37.1322 9.45191 37.9511 10.6468C38.2211 10.4643 38.4911 10.2818 38.7611 10.0993C38.9132 10.312 39.0654 10.5246 39.2176 10.7373C39.2473 10.5548 39.2769 10.3723 39.3066 10.1898C40.7613 10.3244 42.3103 10.1053 43.7016 10.1263C44.6708 10.141 44.903 10.213 45.7615 10.1993C47.6711 10.1682 45.7747 10.5303 47.3615 10.9213C47.2789 10.6976 47.1963 10.4738 47.1137 10.2501C47.3765 10.1681 47.6393 10.0861 47.9021 10.0041C48.085 10.1866 48.268 10.3691 48.4509 10.5516C49.2625 9.60505 49.7882 10.3691 49.8987 10.3691C49.988 10.3675 50.2946 9.79763 51.2551 10.2802C50.8568 9.50118 51.9878 10.2757 52.0784 10.2802C52.1645 10.2834 53.2656 10.1095 53.7125 10.1168C54.064 10.1223 54.8139 10.29 55.3374 10.2818C55.7996 10.2745 55.7528 10.01 55.7865 10.0073C56.3554 9.98532 55.9989 10.1908 56.4102 10.2009C56.8215 10.211 57.1405 9.98557 57.2293 10.0057C57.274 10.0164 57.1247 10.2628 57.3291 10.2866C57.8782 10.3515 58.871 10.1358 59.4996 10.1422C59.7224 10.1442 60.0032 10.3532 60.2514 10.3596C60.6318 10.3687 60.8096 10.0911 61.0306 10.0993C61.1075 10.103 61.5982 10.5318 62.2081 10.4659C62.3242 10.4527 62.665 9.54527 63.1179 10.8309C63.1528 10.65 63.1878 10.4691 63.2227 10.2882C65.2683 9.84031 65.8375 11.3099 66.747 10.0057C68.2323 10.1514 67.2127 10.6594 67.3757 10.7373C67.4811 10.7865 67.9653 10.6468 68.0186 10.6547C68.1128 10.6703 68.0966 10.8334 68.1998 10.8325C70.0932 10.8022 69.2526 10.4944 69.8522 10.2993C71.2781 9.83495 72.3906 10.8658 69.9105 10.5564C69.9105 10.6473 69.9105 10.7383 69.9105 10.8293C70.5212 10.7423 72.0714 10.7836 71.5537 11.2451C71.1461 11.6086 67.4683 11.3713 69.5512 11.8814C70.0241 11.9968 70.269 11.6554 71.088 12.2956C71.6296 12.3303 71.7076 11.5009 72.441 11.8338C72.3204 11.5444 72.1999 11.2551 72.0793 10.9658C73.0794 10.5886 74.3132 11.0945 75.0814 10.9324C75.3424 10.8772 76.2827 9.49774 76.0635 10.8769C76.5023 10.7909 78.5693 11.045 78.9533 10.9213C79.0457 10.8915 79.166 10.1572 80.5026 10.4135C80.5955 10.5056 80.6883 10.5976 80.7812 10.6897C79.5587 10.957 81.7176 11.229 81.1313 11.9258C80.932 11.6126 79.9626 11.4216 79.8065 11.2641C79.5402 10.993 80.3336 10.6436 79.3225 10.7388C78.6852 11.9034 80.5074 11.3675 80.229 12.4733C81.5563 11.9571 81.689 12.4496 81.9895 12.4701C83.274 12.5535 84.0824 12.4363 85.2943 12.5653C85.5896 12.3382 83.3956 12.0103 83.1238 12.1083C84.124 11.3033 82.4025 11.2668 81.676 11.7449C81.615 11.5016 81.554 11.2583 81.493 11.015C82.4388 11.1468 83.3613 11.2146 84.298 11.015C84.359 11.1059 84.42 11.1969 84.481 11.2879C84.2708 11.4249 84.0608 11.5619 83.8506 11.6989C84.6296 11.9232 84.1624 11.2137 85.2003 11.8354C85.2325 11.5614 85.2646 11.2874 85.2968 11.0134C86.2919 11.1044 87.2871 11.1953 88.2822 11.2863C88.8004 10.7369 90.7152 10.9415 90.3646 11.6529C91.1375 11.7031 90.1833 11.3245 90.9076 11.1514C91.2229 11.0763 91.839 11.0552 91.9912 11.2466C91.9257 11.924 91.0037 12.0081 90.7247 12.4733C90.8939 12.6234 95.1818 12.1397 94.7995 12.9319C95.1419 13.0271 94.9845 12.619 95.602 12.5145C97.3323 12.2233 100.012 13.0299 101.406 12.0179C99.7697 11.4546 99.2858 12.0512 98.032 12.075C97.2311 12.0906 92.3483 12.1866 93.439 11.4704C93.2597 11.5614 93.0803 11.6524 92.901 11.7433C92.7197 11.5302 92.5384 11.317 92.3571 11.1038C92.868 11.0731 93.3789 11.0425 93.8898 11.0118C94.0117 11.2244 94.1337 11.4371 94.2557 11.6497C94.3119 11.4979 94.3682 11.3461 94.4245 11.1943C94.6396 11.1641 94.8547 11.134 95.0698 11.1038C95.0093 11.2863 94.949 11.4688 94.8885 11.6513C95.22 11.6825 95.5516 11.7137 95.8831 11.7449C95.7938 11.5011 95.7046 11.2572 95.6153 11.0134C97.1767 10.9521 96.6479 11.1048 97.5139 11.5608C98.1604 11.6075 97.0683 11.1388 98.4361 11.0197C100.027 10.8815 98.9832 11.6266 101.043 11.4672C101.073 11.3456 101.103 11.2239 101.132 11.1022C101.585 11.2239 102.038 11.3456 102.491 11.4672C102.431 11.3159 102.371 11.1647 102.311 11.0134C103.246 11.072 104.535 10.7833 104.844 11.3768C103.897 11.091 103.906 12.1273 104.153 12.3178C104.661 12.7087 112.175 12.345 113.632 12.3194C115.494 12.2864 116.902 12.6183 118.603 12.1083C117.451 11.69 113.397 12.0327 112.628 11.7433C112.552 11.7149 112.574 10.765 112.084 11.8338C110.508 11.6525 108.624 11.9553 106.655 11.9242C106.715 11.6508 106.775 11.3773 106.835 11.1038C108.046 11.6854 109.166 10.408 109.008 11.4704C109.249 11.4704 109.49 11.4704 109.731 11.4704C109.731 11.2874 109.731 11.1044 109.731 10.9213C110.094 10.9213 110.457 10.9213 110.82 10.9213C110.82 11.1044 110.82 11.2874 110.82 11.4704C111.121 11.4704 111.422 11.4704 111.723 11.4704C111.754 11.2879 111.785 11.1054 111.817 10.9229C112.717 11.302 115.788 10.2885 114.438 11.3784C114.861 11.3784 115.284 11.3784 115.707 11.3784C115.706 11.2445 115.704 11.1107 115.703 10.9769C115.885 10.9589 116.066 10.9409 116.248 10.9229C116.188 11.0441 116.129 11.1652 116.069 11.2863C116.902 11.0693 117.692 11.707 118.239 11.2879C117.878 11.1964 117.517 11.1049 117.156 11.0134C117.849 11.1872 119.124 10.827 119.238 10.8261C119.586 10.8243 119.769 11.0948 120.146 11.1086C120.486 11.1203 120.439 10.9124 120.503 10.9197C122.338 11.1314 121.638 12.2568 122.495 10.9245C122.586 11.1065 122.678 11.2884 122.769 11.4704C122.89 11.3186 123.012 11.1668 123.133 11.015C123.675 11.0292 124.217 11.0435 124.759 11.0578C124.578 10.8304 124.397 10.6029 124.217 10.3755C125.029 10.2739 125.408 10.73 125.487 10.7404C125.709 10.767 125.811 10.4807 125.88 10.4802C129.19 10.5049 127.18 10.757 128.834 11.8322C129.424 11.4102 128.827 10.9872 128.743 10.5579C129.527 10.7593 129.772 10.6405 130.6 10.6643C130.815 10.6707 131.047 10.9023 131.183 10.9055C131.301 10.9082 131.669 10.6621 131.951 10.6611C132.422 10.6593 133.05 10.806 133.694 10.8023C134.231 10.7987 135.872 10.6248 137.018 10.623C137.506 10.623 137.393 10.8289 137.519 10.8293C137.572 10.8293 137.952 10.5827 138.266 10.5817C140.822 10.5763 143.442 10.7323 146.011 10.7277C147.821 10.725 149.661 10.5267 151.474 10.5468C151.86 10.5514 151.656 10.7324 151.824 10.7388C151.882 10.7405 151.952 10.4246 152.549 10.5516C152.764 10.5974 152.516 10.8183 152.728 10.8293C152.831 10.8345 152.875 10.5576 153.478 10.4945C154.574 10.3791 155.163 10.7483 155.261 10.7373C155.446 10.716 155.392 10.4868 155.636 10.4786C156.832 10.4383 157.83 10.3995 158.897 10.3802C159.395 10.3711 162.831 10.3247 163.019 10.3659C163.441 10.4575 163.049 10.936 163.59 10.9197C163.741 10.7986 163.893 10.6775 164.045 10.5564C163.804 10.4643 163.563 10.3723 163.322 10.2802C163.985 10.4341 164.737 10.2165 165.228 10.2247C165.319 10.2266 166.154 10.4436 166.579 10.4199C166.398 10.5098 166.217 10.5997 166.036 10.6897C166.1 10.7664 166.164 10.8431 166.228 10.9197C167.08 10.8035 167.981 10.8065 168.854 10.823C169.169 10.8286 169.062 11.0149 169.381 11.0213C171.238 11.0606 170.769 10.2858 172.555 11.7402C171.952 11.6083 169.752 11.7933 169.432 11.7449C169.209 11.711 168.345 10.4822 168.662 11.7433C166.879 11.7378 168.427 11.0422 166.762 11.1943C166.796 11.3482 166.829 11.5021 166.862 11.6561C166.281 11.7531 165.852 11.8309 165.498 11.5593C165.38 12.306 163.405 11.8691 162.322 11.9195C160.756 11.9909 158.988 12.1731 157.437 12.2051C156.902 12.216 156.6 11.9233 156.533 11.9242C156.435 11.9263 156.16 12.1827 155.964 12.1845C155.234 12.1918 153.012 11.7585 152.46 12.4701C156.804 12.4701 161.149 12.4701 165.494 12.4701C164.948 12.1203 169.343 12.0862 169.566 12.1036C169.772 12.1192 169.598 12.3648 169.66 12.3797C170.116 12.485 170.506 12.1289 170.651 12.1289C170.761 12.129 170.985 12.2961 171.378 12.2924C171.45 12.2919 171.47 12.1152 171.547 12.1147C172.06 12.1147 172.566 12.1172 173.081 12.1162C173.112 12.118 173.242 12.376 173.372 12.3765C173.502 12.3765 173.631 12.1186 173.664 12.1178C174.075 12.1197 174.78 12.2874 175.172 12.2892C175.307 12.2891 175.213 12.1002 175.365 12.102C175.833 12.1065 175.679 12.4765 176.257 12.3813C176.451 12.3492 176.438 12.0662 176.809 12.1036C177.072 12.1301 177.043 12.6343 177.085 12.6526C177.143 12.6747 178.049 12.2766 178.346 12.6066C177.698 13.4778 179.055 12.652 178.989 12.2845C179.349 12.377 179.708 12.4696 180.067 12.5622C180.19 12.4691 180.312 12.376 180.435 12.2829C181.884 12.7023 182.769 12.4505 184.194 12.5796C184.263 12.586 185.465 12.793 185.409 12.924C184.689 13.1492 183.972 13.1595 183.512 12.7431C182.754 13.5371 182.741 12.9043 181.518 13.0097C181.109 13.0454 181.08 13.2608 181.033 13.2635C179.44 13.3707 176.89 13.4634 175.817 12.8335C175.516 13.0039 176.597 13.0714 176.177 13.1969C175.948 13.2656 170.43 13.4668 172.193 12.7415C172.01 12.7616 171.827 12.7817 171.644 12.8018C171.461 13.4869 170.551 13.3302 170.654 12.6478C170.568 12.7875 170.482 12.9271 170.396 13.0668C170.225 13.1849 170.024 13.2482 169.741 13.2858C168.659 13.4286 162.22 13.1909 161.878 13.2889C161.87 13.4508 161.862 13.6127 161.854 13.7745C164.699 13.9577 167.458 13.5555 170.56 14.0189C170.47 13.8671 170.38 13.7153 170.29 13.5635C171.528 13.7761 172.765 13.9887 174.003 14.2014C172.693 14.4762 170.609 14.7069 169.234 14.4807C168.989 14.4403 169.169 14.2286 169.112 14.203C168.966 14.1364 168.808 14.5037 168.281 14.5394C167.754 14.5751 166.429 14.3147 166.307 14.322C166.073 14.3371 165.442 14.7574 165.043 14.752C164.52 14.7447 164.871 14.4846 164.766 14.4791C164.331 14.4535 163.941 14.5824 163.601 14.5632C163.095 14.5346 162.045 14.0772 161.691 14.7489C162.052 14.7795 162.414 14.8102 162.775 14.8409C160.816 15.0818 159.285 14.2231 157.355 14.8853C156.917 15.6986 158.511 15.5887 157.163 15.9358C157.408 15.9242 157.653 15.9126 157.897 15.9009C157.955 15.7306 158.012 15.5603 158.07 15.3899C158.491 15.5116 158.913 15.6333 159.335 15.7549C159.214 15.6031 159.094 15.4513 158.974 15.2995C160.468 15.185 161.978 15.0293 162.5 15.8454C162.53 15.6481 162.561 15.4508 162.592 15.2535C163.98 15.4934 166.063 14.6571 165.674 15.7549C165.74 15.6967 165.805 15.6386 165.871 15.5804C166.71 15.8048 166.351 15.3508 166.667 15.2995C166.757 15.2851 168.387 15.5195 167.665 15.8454C169.255 16.0945 168.765 15.0684 169.203 15.0234C170.221 15.5317 172.053 14.7692 171.283 15.5724C171.435 15.6026 171.586 15.6327 171.738 15.6629C172.236 15.0309 172.727 15.746 173.267 15.985C173.45 15.9993 173.633 16.0136 173.816 16.0279C173.939 15.8152 174.061 15.6026 174.184 15.3899C175.905 16.402 175.36 13.6342 176.146 15.9596C176.024 16.0987 175.901 16.2379 175.779 16.377C175.488 16.4431 175.198 16.5092 174.907 16.5753C176.079 16.6367 177.251 16.6981 178.422 16.7594C179.91 17.4112 180.756 16.704 182.408 17.2196C182.563 17.1577 182.718 17.0958 182.872 17.0339C182.715 17.5606 182.114 17.4832 183.232 17.7195C183.328 18.0918 182.573 18.14 182.229 17.8544C182.146 17.7847 182.851 17.4994 182.058 17.4894C181.519 17.4822 182.498 17.9296 180.882 17.7639C180.942 17.8549 181.002 17.9459 181.062 18.0368C180.887 18.0342 180.711 18.0316 180.536 18.0289C180.38 17.8184 180.225 17.6079 180.069 17.3973C179.668 17.7014 179.444 18.1275 178.529 18.0368C178.777 17.905 178.44 17.4822 177.987 17.4894C177.987 17.6417 177.987 17.794 177.987 17.9464C176.891 18.0444 177.27 17.5974 176.358 17.9464C176.267 17.8253 176.176 17.7041 176.085 17.583C175.588 18.0822 173.76 18.4217 174.094 17.6734C173.581 18.4007 172.504 18.0725 172.104 17.491C172.073 17.6422 172.042 17.7935 172.011 17.9448C171.798 17.9755 171.585 18.0062 171.372 18.0368C171.253 17.9453 171.134 17.8538 171.015 17.7623C170.864 17.8538 170.713 17.9453 170.562 18.0368C170.471 17.885 170.38 17.7332 170.288 17.5814C170.046 17.7634 169.803 17.9453 169.56 18.1273C169.411 18.0062 169.263 17.885 169.114 17.7639C169.099 18.0806 167.627 18.1511 167.216 17.9432C167.093 18.0353 166.971 18.1273 166.848 18.2193C166.788 18.0686 166.728 17.9178 166.668 17.7671C166.577 17.8877 166.486 18.0083 166.395 18.1289C166.185 18.0083 165.975 17.8877 165.764 17.7671C164.907 18.5061 164.88 17.8577 164.684 17.8623C164.321 17.8708 163.086 18.3336 162.88 18.3098C162.673 18.2858 162.574 18.0205 162.407 17.9956C159.662 17.5789 160.791 18.2907 160.24 18.4034C159.943 18.4648 159.733 18.2173 159.47 18.2447C159.021 18.2905 156.754 18.618 156.623 18.5859C156.434 18.5396 156.881 17.3727 156.263 17.6734C156.243 18.3 154.923 17.6676 155.54 18.5415C154.996 18.4648 154.453 18.3881 153.909 18.3114C153.971 19.0541 153.3 18.5764 152.57 18.6176C151.536 18.6754 149.206 19.1638 149.291 18.4018C149.043 18.5769 148.796 18.752 148.548 18.9271C146.852 18.6872 145.189 18.9385 143.506 18.9477C138.511 18.9761 133.091 18.8107 128.119 18.6605C127.88 18.6531 127.915 18.4041 127.743 18.3986C126.839 18.3712 124.489 18.5472 123.222 18.4923C122.816 18.4749 122.619 18.2321 122.49 18.2209C122.054 18.1815 122.157 18.5014 121.956 18.4923C121.638 18.4776 119.961 18.1806 119.383 18.1495C119.096 18.1341 118.758 18.3883 118.423 18.3098C118.394 18.3034 118.447 18.0414 118.423 18.0368C117.812 18.0048 118.18 18.2312 117.973 18.2193C116.5 18.1342 114.926 18.129 113.328 18.0749C112.931 18.0612 112.324 17.8765 111.983 17.8591C111.853 17.853 112.086 18.0517 111.637 18.0353C111.483 18.0296 111.431 17.7711 111.257 17.7544C110.509 17.6839 110.258 18.5145 109.615 17.8464C108.374 17.8904 106.214 18.1037 105.081 18.1082C104.814 18.109 104.683 17.9564 104.428 17.9591C104.247 17.9609 103.928 18.1974 103.645 18.2003C103.363 18.203 102.917 17.9778 102.373 17.9861C101.801 17.9943 101.089 18.1281 100.96 18.1273C100.804 18.1273 100.732 17.8428 100.576 17.8464C100.105 17.8556 98.8435 18.1352 98.2365 18.1654C97.5844 18.1974 97.1929 18.0595 96.97 18.0622C96.7636 18.066 96.523 18.3061 96.4286 18.3082C96.282 18.3119 96.2473 18.0313 96.0611 18.0337C95.7568 18.0382 95.443 18.2147 94.9866 18.2193C86.7681 18.3063 78.7103 18.1522 70.7146 17.948C69.8233 17.9251 69.3196 18.1218 68.0061 18.0321C67.4735 17.9955 67.6979 17.706 67.2834 17.7607C67.0986 17.7855 67.1453 18.0131 66.9117 18.0241C65.8789 18.0718 64.6756 17.8602 64.2281 17.8639C64.0506 17.865 63.8477 18.1235 63.4838 18.1273C60.7716 18.1566 57.5627 18.084 54.6439 18.1289C53.0984 18.1527 50.7586 18.2844 48.9848 18.3018C44.0839 18.3504 38.8116 18.2905 34.3419 18.3161C27.5928 18.3537 20.8761 18.5928 14.1414 18.3098C17.2922 18.9353 21.5826 18.8831 25.0903 18.9509C35.2221 19.145 46.0099 18.7816 56.3936 18.7954C60.0063 18.7999 64.5615 18.7855 68.5167 18.9302C68.6961 18.9367 69.0678 18.7378 69.4556 18.7589C69.5379 18.7638 70.5593 19.1265 70.9034 19.1302C70.5773 18.4854 71.9253 19.0601 72.3421 19.0445C72.8676 19.0242 73.9636 18.702 75.1936 18.8842C76.3097 19.0491 76.0019 19.2971 76.0635 19.3127C76.4582 19.4132 76.596 19.0135 76.8984 18.9731C78.1341 18.8119 84.4901 19.0441 86.2639 19.0588C86.7223 19.0624 86.7353 19.3165 86.8386 19.3174C87.1121 19.3191 87.5014 19.0682 87.9396 19.0699C88.7296 19.0736 89.6395 19.3134 90.0744 19.3143C91.1144 19.317 93.0878 19.0341 94.4394 19.0286C94.8195 19.027 94.7963 19.2914 94.9683 19.2905C95.7259 19.2858 97.6988 18.9743 98.639 18.9715C100.166 18.9669 101.737 19.1379 103.29 19.0508C103.389 19.1688 103.487 19.2868 103.585 19.4047C103.741 19.2809 103.896 19.1572 104.051 19.0334C106.676 19.1277 109.349 18.8621 111.96 18.8795C112.26 18.8813 113.75 19.107 113.998 19.108C114.204 19.108 114.408 18.8158 114.714 18.8588C115.143 18.9186 114.739 19.475 115.44 19.3159C115.628 19.2728 115.446 19.0346 115.824 18.9604C115.949 18.9357 118.376 18.8392 118.506 18.8557C118.723 18.8834 118.917 19.3937 118.973 19.4047C119.265 19.4623 119.253 19.0707 119.448 19.035C120.026 18.9281 120.78 19.1915 120.874 19.1857C122.008 19.1134 124.128 18.8008 125.319 18.9858C125.483 19.0116 125.463 19.3032 125.492 19.3127C125.679 19.3731 125.795 19.0411 125.972 19.0334C126.927 18.9958 128.422 19.2194 129.383 19.2762C129.493 19.2824 129.727 19.1227 129.924 19.1381C131.04 19.2279 130.678 19.4842 130.741 19.4952C130.892 19.5224 131.156 19.2397 131.556 19.2222C132.587 19.1755 134.564 19.2161 135.67 19.2381C136.498 19.2555 136.485 19.5792 136.539 19.5856C136.655 19.5973 136.978 19.3388 137.523 19.3095C138.572 19.2518 138.453 19.5061 138.884 19.4952C138.92 19.4952 138.857 19.2463 139.335 19.2206C140.259 19.1713 142.335 19.4159 143.324 19.4031C143.705 19.3986 143.794 19.1586 144.184 19.154C144.801 19.1458 146.195 19.4054 146.305 19.4047C146.336 19.4047 146.405 19.1286 146.586 19.1286C146.785 19.1286 146.981 19.2708 147.13 19.2698C147.976 19.266 149.433 18.7842 149.028 19.7697C149.3 19.5264 149.571 19.2831 149.842 19.0397C151.614 19.0883 153.335 18.9908 155.091 18.9414C155.486 18.9304 155.815 19.117 156.149 19.108C156.482 19.0988 157.952 18.7901 158.198 18.7843C158.636 18.7742 161.128 18.7416 161.438 18.7636C162.043 18.8058 162.63 19.213 162.876 19.1334C163.074 19.0693 162.891 18.8398 163.268 18.7747C163.92 18.6622 165.029 18.957 165.228 18.9525C165.313 18.9506 165.154 18.7717 165.951 18.7589C166.38 18.7515 166.611 18.9486 166.767 18.9477C166.815 18.9467 166.742 18.6271 167.592 18.67C168.179 18.7002 168.43 18.9468 168.491 18.9477C168.584 18.9493 168.807 18.6862 169.178 18.6954C170.046 18.7184 171.633 19.02 172.457 19.0429C172.617 19.0475 172.562 18.7296 173.198 18.7589C173.653 18.7799 173.573 19.0328 173.744 19.0429C174.014 19.0585 174.416 18.7488 175.012 18.7589C175.762 18.7717 181.332 19.0929 181.62 19.1762C181.814 19.2321 182.039 19.2356 182.135 19.373C182.052 19.5047 181.97 19.6364 181.888 19.7681C181.035 19.3059 181.379 19.8342 181.152 19.8681C180.824 19.9166 179.589 19.8492 179.29 19.9665C179.183 20.0088 179.427 20.29 178.855 20.4346C178.241 20.5892 177.967 20.0887 177.723 20.7726C176.851 20.0133 176.014 20.8192 177.024 21.0344C177.587 21.1544 183.113 21.4255 184.242 21.4676C185.157 21.5015 186.871 21.298 187.996 21.3502C188.657 21.3814 190.286 21.4167 190.217 21.7803C190.804 21.8261 190.183 21.4641 190.306 21.4137C190.564 21.3085 192.396 21.5585 192.743 21.5486C194.453 21.5009 196.611 21.0945 198.273 21.5533C198.195 21.6507 198.118 21.748 198.041 21.8453C197.667 22.0239 195.935 21.7686 195.74 22.2357C198.273 22.2357 200.806 22.2357 203.339 22.2357C203.292 21.8382 206.433 21.8435 206.582 22.023C206.527 22.2156 206.472 22.4081 206.417 22.6007C204.641 21.87 204.8 22.8358 203.608 22.323C203.123 22.3157 203.269 22.6339 203.03 22.6943C200.65 23.2949 202.992 22.0415 201.17 22.3261C201.719 22.7876 200.226 22.9562 199.558 23.0148C199.405 23.0277 197.406 22.9107 197.169 22.918C195.836 22.9593 193.546 23.212 192.221 22.9593C191.178 22.9291 190.603 23.2578 189.656 23.3338C188.936 23.3915 189.143 23.1605 188.804 23.1577C188.094 23.1512 187.86 23.8545 187.405 22.8736C186.924 22.9958 186.442 23.118 185.961 23.2402C185.961 23.0878 185.961 22.9355 185.961 22.7832C185.658 22.7832 185.356 22.7832 185.054 22.7832C184.965 22.935 184.876 23.0868 184.787 23.2386C183.827 23.0307 184.227 22.6638 184.048 22.2325C183.841 22.2029 183.633 22.1733 183.426 22.1436C183.266 22.4748 183.105 22.8059 182.945 23.137C182.019 23.11 181.093 23.0831 180.167 23.0561C180.107 22.9043 180.047 22.7525 179.987 22.6007C179.985 22.7525 179.983 22.9043 179.982 23.0561C178.414 23.0873 176.846 23.1185 175.278 23.1497C174.861 23.3933 177.373 23.5778 177.563 23.5925C178.621 23.673 181.432 23.4289 181.435 23.9701C182.093 23.5663 184.073 23.6665 184.689 24.151C183.754 24.1219 182.819 24.0928 181.884 24.0638C181.914 24.2452 181.945 24.4266 181.975 24.608C180.81 23.8763 180.639 23.9166 179.442 24.608C179.441 24.3647 179.44 24.1214 179.439 23.8781C178.603 24.7242 177.127 23.289 177.085 24.3335C176.64 24.2489 176.196 24.1643 175.751 24.0796C174.791 24.207 176.282 25.0103 172.523 24.6953C172.264 24.6733 172.318 24.4073 171.928 24.4256C171.816 24.4311 171.173 24.8181 169.942 24.7778C169.75 24.7714 169.736 24.5406 169.537 24.5113C169.076 24.4417 168.16 24.8982 168.576 24.1542C166.754 23.9372 167.509 24.5478 166.944 24.7905C166.567 24.9516 166.643 24.5114 166.317 24.6112C165.913 24.735 166.209 25.1788 164.594 24.9746C164.775 24.9445 164.956 24.9143 165.137 24.8842C165.046 24.7636 164.955 24.643 164.864 24.5224C163.942 24.8117 164.029 24.3889 163.594 25.0667C162.924 24.7644 162.344 24.7403 161.427 24.7953C159.646 24.9025 160.559 25.6329 158.526 24.6493C158.197 24.7874 157.868 24.9254 157.538 25.0635C156.997 24.7732 157.435 24.41 156.627 24.3367C157.259 25.0538 155.554 24.7923 155.266 25.4316C155.236 25.2793 155.206 25.127 155.176 24.9746C154.995 24.9746 154.815 24.9746 154.634 24.9746C154.634 25.0968 154.633 25.219 154.633 25.3412C154.392 25.2497 154.152 25.1582 153.912 25.0667C153.731 25.1878 153.55 25.3089 153.369 25.43C153.072 25.1746 152.775 24.9191 152.478 24.6636C152.291 24.6461 152.105 24.6287 151.918 24.6112C151.977 24.7932 152.036 24.9751 152.095 25.1571C151.856 25.0963 151.616 25.0354 151.376 24.9746C151.655 25.2732 151.48 25.6233 150.733 25.6141C150.117 25.6068 150.811 24.9836 149.487 25.2428C149.394 25.2613 149.231 25.7057 147.979 25.7744C146.478 25.8567 147.207 25.5348 146.939 25.5237C146.887 25.5218 146.428 25.7455 145.999 25.7776C145.755 25.7958 145.521 25.6152 145.488 25.6157C145.338 25.624 145.294 25.8794 145.086 25.8887C144.557 25.9106 143.847 25.7854 143.329 25.7982C143.093 25.8037 142.872 25.9551 142.766 25.9569C142.603 25.9586 142.397 25.7275 142.232 25.7284C141.623 25.7332 140.699 26.5002 140.416 25.4348C139.831 26.4145 138.605 25.23 138.695 25.8871C137.131 25.6391 132.96 26.4452 133.082 25.3412C132.197 26.2851 132.276 25.6015 131.905 25.6157C131.49 25.6313 131.705 25.8144 131.375 25.8061C130.605 25.7869 129.87 25.7082 129.103 25.7046C129.224 25.5533 129.344 25.402 129.464 25.2507C128.66 25.2022 128.937 25.5542 128.116 25.6221C126.607 25.7457 127.243 25.4648 127.02 25.0682C127.08 25.4511 125.3 25.3916 125.119 25.3412C125.011 25.3105 125.484 24.817 124.395 24.9762C124.454 25.128 124.514 25.2798 124.573 25.4316C124.077 25.224 122.728 25.4875 122.499 25.4364C122.394 25.4126 121.832 24.1883 121.318 25.1571C121.256 25.0053 121.194 24.8535 121.131 24.7017C120.56 24.8842 119.989 25.0667 119.418 25.2491C119.326 24.9757 119.235 24.7022 119.144 24.4287C118.963 24.4287 118.781 24.4287 118.6 24.4287C118.72 24.6715 118.841 24.9143 118.961 25.1571C117.842 25.0472 116.474 25.4301 116.243 24.6112C116.003 24.763 115.764 24.9148 115.524 25.0667C115.368 24.7942 115.212 24.5218 115.056 24.2494C113.945 24.3181 113.927 24.5002 113.168 24.7905C113.198 24.5779 113.227 24.3653 113.257 24.1526C112.697 24.4512 111.675 24.7292 110.867 24.7667C110.483 24.7841 109.823 24.491 109.733 24.5176C109.641 24.5456 108.74 25.6968 108.642 24.7001C107.316 25.1415 106.732 24.6907 106.194 24.7017C105.845 24.7091 105.685 24.9483 105.29 24.973C104.725 25.0087 104.156 24.8931 103.83 24.9096C103.643 24.9196 103.608 25.153 103.48 25.1603C102.872 25.1959 103.228 24.9575 102.587 24.973C102.528 24.9757 102.059 25.2603 101.531 25.2238C101.235 25.2035 100.471 24.8834 100.404 24.8842C100.105 24.8897 100.344 25.5297 99.3218 24.7905C99.3515 24.9122 99.3811 25.0339 99.4108 25.1555C98.1461 25.4642 97.9465 24.9217 97.691 24.8842C97.6584 24.8811 97.3505 25.0908 97.1663 25.0619C96.8551 25.0125 96.7296 24.7254 96.6607 24.7128C96.4179 24.6688 95.6001 24.7951 95.0656 24.5176C95.178 25.3346 93.3051 25.6251 92.8902 24.7001C92.5586 24.8826 92.2271 25.0651 91.8956 25.2476C91.7456 25.0952 91.5956 24.9429 91.4457 24.7905C91.3545 24.9423 91.2633 25.0942 91.1721 25.246C90.6889 24.9117 90.2057 24.5774 89.7226 24.2431C89.6918 24.5779 89.661 24.9127 89.6303 25.2476C89.495 25.2095 89.3597 25.1714 89.2245 25.1333C89.1188 24.8672 89.0132 24.6012 88.9076 24.3351C88.7385 24.3859 88.5695 24.4367 88.4003 24.4874C88.3585 24.68 88.3166 24.8725 88.2748 25.0651C87.3657 25.287 87.8328 23.4506 86.101 25.0651C85.8315 24.9133 85.5621 24.7614 85.2926 24.6096C84.9883 25.3485 84.418 24.9011 83.9579 24.9841C83.6336 25.0427 83.6513 25.3362 83.2095 25.3428C82.7674 25.3492 82.7832 25.0685 82.7488 25.0667C82.3884 25.0494 82.1167 25.2969 81.8523 25.2476C81.8124 25.2402 81.7127 24.9069 81.3758 24.8858C81.0388 24.8647 80.8356 25.2192 80.3338 25.1523C80.0766 25.1185 80.0023 24.8376 79.7741 24.8128C78.687 24.6919 77.5923 26.114 76.777 24.4271C76.5932 24.6409 75.2602 25.389 74.6897 25.3459C73.8024 25.2772 74.1443 24.9463 73.7915 24.8858C73.7408 24.8766 73.4706 24.9884 72.7263 24.9683C72.5931 24.9646 72.624 25.1515 72.6049 25.1539C71.737 25.1503 70.0519 25.0028 69.0988 24.9762C69.0137 24.9735 68.5678 25.4942 67.8123 24.7937C66.6927 25.3111 64.5837 24.1995 63.1071 24.9794C62.9024 24.9959 62.6539 24.8096 62.5632 24.8159C61.7823 24.8736 62.0685 25.4392 60.3038 24.6112C60.4466 24.8996 60.0338 25.16 59.4505 25.1381C58.5736 25.1051 59.1965 24.5673 58.4917 24.6112C58.4917 24.763 58.4917 24.9148 58.4917 25.0667C56.8703 24.6583 56.5477 25.3074 54.9208 25.311C54.3356 25.3119 53.4711 24.9755 53.3316 24.9746C53.2776 24.9756 52.6376 25.3416 52.5765 25.3444C52.2323 25.3553 52.0379 25.1866 51.7407 25.1857C50.7588 25.1821 49.587 25.6582 49.7989 24.7937C49.5289 24.9762 49.259 25.1587 48.989 25.3412C47.9689 24.418 47.2061 25.6904 46.9923 24.7937C46.8099 24.9788 46.6275 25.164 46.4451 25.3491C42.07 25.2555 37.695 25.1619 33.3199 25.0682C33.1459 25.3567 31.2381 25.2544 31.1402 25.2095C30.691 25.0061 31.1655 24.377 30.2488 24.5208C30.1473 24.7964 30.0459 25.0719 29.9444 25.3475C28.7921 25.4373 29.3464 25.163 28.8916 24.9762C28.7016 25.0102 28.7629 25.2241 28.5057 25.2396C27.1106 25.3248 24.25 25.3349 22.7244 25.3523C22.4168 25.3559 22.4632 25.156 22.3677 25.1555C22.105 25.1573 21.5867 25.4093 21.0595 25.4094C17.8001 25.4076 13.1815 25.2655 9.90025 25.054C9.67739 25.0393 9.6498 24.8009 9.49941 24.789C9.291 24.7735 8.82547 24.9662 8.60627 24.9461C8.39979 24.9277 8.26753 24.7466 8.0466 24.7255C7.03559 24.6266 5.67629 24.9325 4.59461 24.3986C4.50364 24.3535 3.37035 23.3936 3.34471 23.3306C3.19433 22.9569 4.20142 22.3699 2.5472 21.8231C4.02567 21.3459 3.56381 20.5024 1.64325 20.0902C2.60652 19.9839 3.5698 19.8776 4.53307 19.7713C4.53446 19.6713 4.53585 19.5713 4.53723 19.4714C3.66035 18.9759 2.79036 18.811 1.45697 18.7652C1.49855 18.6726 1.54013 18.5801 1.58171 18.4875C2.75941 18.025 4.18009 17.9395 5.07694 17.3085C3.76162 16.8414 2.4463 16.3743 1.13098 15.9073C1.19668 15.8343 1.26237 15.7613 1.32807 15.6883C1.9586 15.4987 3.33585 15.3874 3.85947 15.2106C5.85934 14.5366 2.10916 14.7062 2.72517 14.295C4.83661 14.3098 6.94805 14.3246 9.05949 14.3394C9.13353 14.0366 1.01072 13.2002 1.09439 12.286C1.75801 12.2247 2.42163 12.1633 3.08525 12.102C2.78948 11.8698 2.4937 11.6375 2.19793 11.4053C2.27943 11.3318 2.36092 11.2583 2.44242 11.1848C3.56204 11.0044 4.68165 10.824 5.80127 10.6436C2.39725 10.8249 0.815364 10.6933 0 8.86476C0.092308 8.81821 0.184616 8.77166 0.276924 8.72512C1.01435 9.86905 4.49524 9.49905 6.34514 9.271C5.9681 8.93591 4.33925 9.19477 3.99503 8.9933C3.89748 8.93553 4.23764 8.70295 4.01166 8.58388C3.42102 8.27433 0.904096 7.87604 1.26986 7.49688C1.5054 7.25326 5.55517 6.91901 6.34514 6.94465C4.49347 6.50687 2.58559 6.38022 0.728485 5.84813C1.90071 5.10628 2.93888 4.19842 5.07861 4.15812C5.7308 3.76887 1.20114 3.22964 1.09605 3.01716C1.87998 2.78918 2.6639 2.5612 3.44783 2.33322C2.78476 2.39405 2.1217 2.45488 1.45863 2.51571C1.45669 2.43954 1.45475 2.36337 1.45281 2.2872C3.17045 1.93367 4.74186 1.28477 6.70772 1.32874C6.6443 0.925748 5.46805 0.965833 4.89732 0.962169ZM193.014 23.8829C193.054 24.217 192.333 24.1622 191.928 24.1558C191.989 24.2166 192.049 24.2775 192.111 24.3383C191.244 24.2751 189.632 24.1469 189.572 24.7953C188.955 24.8759 189.228 24.312 189.029 24.2478C188.951 24.2222 188.144 24.5504 187.499 24.151C187.346 24.1526 187.193 24.1542 187.039 24.1558C187.01 24.3684 186.98 24.5811 186.95 24.7937C186.737 24.5356 186.523 24.2775 186.309 24.0193C188.543 23.9738 190.777 23.9283 193.011 23.8829C193.012 23.8829 193.013 23.8829 193.014 23.8829ZM170.747 24.1574C169.933 24.0374 168.687 23.848 168.939 24.4303C169.453 24.3996 169.967 24.369 170.48 24.3383C170.569 24.278 170.658 24.2177 170.747 24.1574ZM89.8174 23.6988C89.138 23.1254 88.5123 23.6214 87.4615 23.5179C87.4628 23.639 87.4642 23.7601 87.4656 23.8813C87.8953 23.5904 89.0313 23.7839 89.8174 23.6988ZM213.201 21.6914C213.351 21.7364 213.5 21.7813 213.65 21.8263C213.041 22.4775 212.932 22.0186 212.244 22.0818C212.202 22.0857 212.217 22.2348 212.202 22.2357C212.034 22.2457 211.878 22.0663 211.726 22.0691C211.432 22.0746 211.193 22.2564 210.673 22.25C210.271 22.2444 210.267 21.9586 210.126 21.9659C210.005 21.973 208.812 22.7593 208.044 22.4198C206.584 21.7732 212.755 21.6309 213.201 21.6914ZM217.529 22.2293C217.385 22.232 217.24 22.2346 217.096 22.2373C217.53 21.7979 216.654 21.8647 216.011 21.8739C216.031 21.4526 217.391 21.6328 218 21.5073C217.843 21.748 217.686 21.9887 217.529 22.2293ZM199.266 21.3264C199.831 21.2835 199.737 21.8093 199.713 21.9659C199.533 21.9659 199.353 21.9659 199.173 21.9659C199.204 21.7527 199.235 21.5396 199.266 21.3264ZM203.516 21.1439C203.34 21.5011 202.113 21.6573 201.532 21.6866C201.506 21.6867 201.666 21.4907 201.255 21.5089C201.131 21.5146 199.916 22.2279 200.184 21.4185C201.294 21.3269 202.404 21.2354 203.514 21.1439C203.515 21.1439 203.515 21.1439 203.516 21.1439ZM204.755 21.355C204.524 21.4671 204.293 21.5793 204.061 21.6914C203.942 21.5237 203.823 21.356 203.703 21.1884C203.966 21.146 204.229 21.1037 204.492 21.0614C204.58 21.1593 204.667 21.2571 204.755 21.355ZM30.8176 20.8789C30.8714 21.0582 30.9251 21.2375 30.9789 21.4169C31.1873 21.5268 32.2002 20.746 31.8795 20.5949C31.5256 20.6896 31.1716 20.7842 30.8176 20.8789ZM26.5398 20.5028C26.3291 20.4124 26.1185 20.3219 25.9078 20.2315C25.6655 20.5356 25.4232 20.8398 25.181 21.1439C26.2334 21.349 27.3532 21.5854 27.1727 20.6885C27.4135 20.6885 27.6544 20.6885 27.8953 20.6885C27.6925 21.0593 27.7198 21.1815 28.3502 21.4169C28.4881 20.9008 29.14 21.1637 29.8862 21.0503C29.3434 21.0201 28.8007 20.99 28.2579 20.9598C28.2579 20.8689 28.2579 20.7779 28.2579 20.6869C29.4677 20.7198 27.9641 20.1427 27.176 20.5044C27.1139 20.3833 27.0518 20.2622 26.9897 20.141C26.8397 20.2616 26.6898 20.3822 26.5398 20.5028ZM113.985 20.6869C113.836 20.5954 113.686 20.5039 113.536 20.4124C112.954 21.6042 114.138 20.4736 114.98 21.4169C114.702 20.7003 115.986 20.7303 116.059 20.6821C115.912 20.4409 115.764 20.1997 115.616 19.9585C115.073 20.2013 114.529 20.4441 113.985 20.6869ZM109.734 19.8649C110.254 20.4593 107.7 20.4957 106.843 20.3648C106.634 20.3326 106.263 20.0062 106.113 20.0474C106.021 20.168 105.93 20.2886 105.839 20.4092C105.731 19.9924 104.058 20.461 103.398 20.6853C103.336 20.5335 103.274 20.3817 103.212 20.2299C102.972 20.2902 102.731 20.3505 102.491 20.4108C102.521 20.2595 102.551 20.1082 102.582 19.9569C102.4 20.1389 102.218 20.3209 102.036 20.5028C101.322 20.7052 101.762 19.8805 101.226 20.1378C100.63 20.4236 101.607 20.9147 101.589 21.2344C102.073 21.1519 103.173 20.9674 103.664 20.9583C103.946 20.9533 103.626 21.526 104.841 20.8678C105.108 21.0212 105.374 21.1746 105.64 21.328C106.129 21.0842 106.618 20.8403 107.107 20.5965C107.198 20.8086 107.29 21.0207 107.381 21.2328C107.433 21.266 108.564 20.7844 108.504 20.625C108.962 21.0305 109.902 21.1028 110.893 21.1233C110.988 21.008 111.083 20.8927 111.179 20.7774C110.221 21.0264 110.874 20.6553 110.588 20.4346C110.423 20.3073 109.919 20.0572 109.734 19.8649ZM37.4929 20.414C35.884 20.9314 36.8801 20.5045 35.1411 20.5044C35.2625 20.7784 35.3839 21.0524 35.5053 21.3264C36.3603 20.8258 37.7672 21.1587 37.4945 20.414C37.494 20.414 37.4934 20.414 37.4929 20.414ZM20.4758 21.3248C21.396 21.1591 20.9342 20.7329 22.1007 20.5965C22.1013 20.5965 22.1018 20.5965 22.1024 20.5965C21.4992 20.5658 20.896 20.5351 20.2928 20.5044C20.3538 20.7779 20.4148 21.0514 20.4758 21.3248ZM74.273 20.9932C75.1554 21.1122 74.9817 20.899 75.7824 21.3248C76.9745 20.8083 75.9654 20.8813 75.9654 20.4124C75.6929 20.5499 75.4204 20.6874 75.1479 20.825C74.4873 20.3864 75.1138 20.1657 75.1138 20.1236C75.1133 20.1236 75.1127 20.1236 75.1121 20.1236C75.1122 19.9828 75.1336 19.9532 74.8801 19.8681C74.6777 20.2431 74.4754 20.6181 74.273 20.9932ZM78.0494 20.414C77.7468 20.7254 77.6107 21.1252 78.4061 21.3248C78.4067 21.3248 78.4072 21.3248 78.4078 21.3248C78.4716 20.6289 79.2342 21.1906 79.582 21.1439C79.6732 21.0683 79.7644 20.9926 79.8556 20.917C79.2535 20.7493 78.6514 20.5816 78.0494 20.414ZM91.355 19.7745C91.3584 20.5433 90.6908 20.6164 91.6303 21.3248C91.8127 21.3111 91.9951 21.2973 92.1775 21.2836C92.2972 21.1148 92.417 20.9461 92.5367 20.7774C94.8504 22.1685 95.5402 19.7997 91.6303 20.6853C91.6297 20.6858 91.6292 20.6864 91.6286 20.6869C91.5374 20.3828 91.4462 20.0786 91.355 19.7745ZM87.2802 19.8395C87.2508 20.2431 87.2214 20.6467 87.192 21.0503C86.6811 20.0767 86.021 21.0057 85.019 20.3188C84.9284 20.4415 84.8377 20.5642 84.7471 20.6869C84.3727 20.4169 80.6946 20.3391 81.4914 20.9598C81.8393 21.2309 82.597 20.8627 82.6623 20.871C82.8833 20.9014 83.1715 21.2482 83.5446 21.228C83.7602 21.2159 84.2147 20.8084 84.6548 20.8091C85.6386 20.8109 87.4343 21.9051 88.728 20.8694C88.8211 20.9911 88.9143 21.1127 89.0074 21.2344C89.9673 21.1601 89.6469 20.7746 90.5401 21.2344C91.1571 19.3174 86.9496 21.3289 87.8257 19.7745C87.8252 19.7745 87.8246 19.7745 87.824 19.7745C87.6427 19.7961 87.4615 19.8178 87.2802 19.8395ZM60.8493 20.414C60.7913 20.0697 59.6779 20.6009 59.9395 19.776C59.5761 20.0633 59.2127 20.3505 58.8493 20.6377C58.8521 20.7144 58.8548 20.7911 58.8576 20.8678C59.2188 20.8075 59.58 20.7472 59.9412 20.6869C59.9426 20.8086 59.944 20.9302 59.9453 21.0519C60.4836 20.6118 62.7298 20.8035 62.6614 21.2344C62.7814 21.0524 62.9014 20.8705 63.0214 20.6885C64.0959 21.184 65.0202 20.6572 66.1907 21.1407C66.2813 20.99 66.372 20.8392 66.4626 20.6885C66.5217 20.8102 66.5807 20.9318 66.6398 21.0535C67.0661 21.0688 67.4924 21.0842 67.9188 21.0995C69.3081 20.6096 66.6086 19.9754 66.2813 20.0474C66.2379 20.0575 66.2446 20.3724 65.9728 20.4219C65.4901 20.5087 62.7882 20.1951 61.9528 20.4029C61.9456 20.1939 61.9384 19.985 61.9312 19.776C61.5706 19.9887 61.2099 20.2013 60.8493 20.414ZM96.5176 20.5965C96.5786 20.8091 96.6396 21.0217 96.7006 21.2344C97.753 21.022 98.4158 21.2076 98.1459 20.5044C98.1454 20.5044 98.1448 20.5044 98.1442 20.5044C97.602 20.5351 97.0598 20.5658 96.5176 20.5965ZM174.732 20.7774C174.705 20.3547 174.202 20.1966 173.552 20.4997C173.583 20.6224 173.614 20.7451 173.646 20.8678C173.984 20.5079 174.407 21.1352 175.453 21.0519C175.453 20.8392 175.453 20.6266 175.453 20.414C175.213 20.5351 174.973 20.6562 174.732 20.7774ZM95.6095 20.5044C95.2887 20.2537 94.3884 21.0143 94.9808 21.0519C95.4338 21.0803 95.7816 20.639 95.6095 20.5044ZM16.8558 20.9138C17.0936 20.9583 17.3315 21.0027 17.5693 21.0471C17.6932 20.8662 17.8171 20.6853 17.941 20.5044C17.9405 20.5044 17.9399 20.5044 17.9394 20.5044C17.5782 20.6409 17.217 20.7774 16.8558 20.9138ZM71.2568 21.0281C72.0635 21.0016 72.8701 20.9752 73.6768 20.9487C73.6848 20.8308 73.6929 20.7128 73.7009 20.5949C72.8928 21.0253 72.5679 20.5614 72.3795 20.533C72.3803 20.533 72.3811 20.533 72.382 20.533C71.777 20.4396 71.2006 20.3709 70.6281 20.2299C70.8377 20.496 71.0473 20.762 71.2568 21.0281ZM68.4917 20.2838C68.6276 21.1173 68.8051 21.2143 70.0443 20.6282C69.9953 20.5256 69.9462 20.423 69.8971 20.3203C69.255 20.3817 68.8804 20.5741 68.9932 20.1394C68.826 20.1876 68.6589 20.2357 68.4917 20.2838ZM81.1238 20.5504C80.9751 20.2851 79.7948 20.5516 79.8589 20.6853C79.8843 20.7384 81.4137 21.0707 81.1238 20.5504ZM183.693 20.5933C183.421 20.5325 183.149 20.4716 182.877 20.4108C183.239 20.3203 183.601 20.2299 183.962 20.1394C183.873 20.2907 183.783 20.442 183.693 20.5933ZM186.678 19.4079C186.872 19.5141 186.242 20.2635 187.401 20.4568C186.558 20.4727 185.714 20.4885 184.871 20.5044C185.266 20.3833 185.662 20.2622 186.057 20.141C185.988 19.9257 185.919 19.7105 185.85 19.4952C186.126 19.4661 186.402 19.437 186.678 19.4079ZM187.584 19.9569C187.13 19.3874 189.522 19.3446 189.745 19.4142C189.794 19.4308 190.03 19.8626 190.117 19.9554C189.756 19.9559 189.395 19.9564 189.034 19.9569C189.154 20.0929 189.275 20.2288 189.396 20.3648C188.973 20.4113 188.551 20.4579 188.128 20.5044C188.309 20.3679 188.489 20.2315 188.67 20.095C188.308 20.049 187.946 20.003 187.584 19.9569ZM177.987 20.095C178.29 20.1093 178.592 20.1236 178.895 20.1378C178.834 19.9252 178.774 19.7126 178.713 19.4999C178.532 19.4999 178.351 19.4999 178.17 19.4999C178.109 19.6983 178.048 19.8966 177.987 20.095ZM184.15 19.8205C183.709 20.8443 182.509 18.606 183.912 19.4349C184.053 19.5191 184.191 19.7216 184.15 19.8205ZM190.641 19.5364C191.581 18.79 191.369 20.438 190.481 19.9554C190.437 19.9297 190.571 19.5915 190.641 19.5364ZM197.691 19.5126C197.768 19.5182 197.901 20.0518 198.628 19.5444C198.748 19.6052 198.868 19.666 198.988 19.7269C198.707 19.9748 196.304 20.1223 196.636 19.5936C197.004 19.5853 197.311 19.4961 197.691 19.5126ZM195.365 17.5386C195.004 17.5534 194.643 17.5682 194.283 17.583C194.402 17.7501 194.521 17.9173 194.639 18.0844C194.462 18.1299 194.285 18.1754 194.107 18.2209C193.804 17.9326 193.501 17.6444 193.197 17.3561C193.981 17.3101 194.765 17.264 195.549 17.218C195.488 17.3249 195.426 17.4317 195.365 17.5386ZM185.776 17.126C186.47 17.3357 187.32 17.1125 188.447 17.1482C188.448 17.1487 188.448 17.1493 188.449 17.1498C188.505 17.1522 188.605 17.3818 188.786 17.391C188.94 17.3983 191.984 17.1462 191.746 17.5354C190.569 17.8843 190.129 17.3538 189.846 18.2193C189.789 18.0368 189.731 17.8544 189.674 17.6719C188.541 17.3559 188.218 17.9876 187.582 18.2193C187.585 18.0818 187.587 17.9443 187.59 17.8067C187.165 17.793 186.741 17.7792 186.316 17.7655C186.376 17.8559 186.436 17.9464 186.496 18.0368C186.345 18.0368 186.195 18.0368 186.045 18.0368C185.679 17.6293 185.215 17.5343 185.776 17.126ZM197 17.7655C197.334 16.7223 200.583 17.4369 202.066 17.218C201.287 17.8461 200.08 17.4133 199.231 17.4069C197.588 17.395 198.724 17.7794 198.445 17.948C198.307 18.0313 197.375 17.3625 197 17.7655ZM183.241 17.3085C184.06 17.3927 184.519 17.1526 185.227 17.5354C185.168 17.6116 185.109 17.6877 185.049 17.7639C184.807 17.6942 182.829 17.4742 183.241 17.3085ZM204.241 17.491C202.659 17.1164 203.44 18.0609 202.617 17.3529C203.158 17.3079 203.7 17.263 204.241 17.218C204.241 17.309 204.241 17.4 204.241 17.491ZM93.7991 16.5801C93.1326 16.5562 92.3881 16.3659 91.9895 16.7594C92.4425 16.8202 92.8954 16.8811 93.3484 16.9419C93.4986 16.8213 93.6489 16.7007 93.7991 16.5801ZM112.808 12.7351C112.656 12.6408 112.054 12.9192 111.99 12.9192C111.873 12.9192 111.905 12.7821 111.903 12.7462C111.132 12.7711 111.843 13.1964 111.273 13.2889C111.175 13.3042 109.835 13.0939 109.289 13.1112C108.451 13.1378 107.613 13.1102 107.299 13.1176C106.77 13.1295 105.788 13.4486 104.918 13.4651C104.56 13.4713 104.435 13.2159 104.074 13.2223C101.761 13.2653 97.2058 13.6161 95.153 13.454C94.6458 13.4137 94.1621 13.0792 93.8939 13.1064C93.6824 13.2286 93.4709 13.3508 93.2594 13.473C92.6089 12.3731 92.3913 13.3514 91.6902 13.454C91.2447 13.5188 91.0365 13.1929 90.9766 13.1937C90.5799 13.2001 90.3842 13.3553 90.0727 13.381C89.723 13.4094 89.2206 13.2624 89.0956 13.2889C89.0188 13.3067 89.2639 13.7399 87.9072 13.7317C86.5245 13.7231 85.1595 13.6773 83.7533 13.6571C84.2224 14.9648 84.6262 14.0698 85.2003 14.0221C85.3543 14.0092 85.2567 14.2169 85.3908 14.2077C85.7695 14.183 86.4944 13.979 86.8078 14.0284C87.1463 14.0818 87.0306 14.563 87.4598 14.3855C87.4815 14.3763 87.4128 14.1776 87.5138 14.1443C88.5285 13.8155 88.8606 14.1612 90.1434 14.1712C90.9933 14.1785 96.155 13.9813 96.3322 14.1109C97.2562 14.807 91.8172 14.8117 91.1812 14.7568C90.9586 14.7375 91.192 14.518 90.9891 14.4759C90.9031 14.4591 90.1299 14.8775 89.3658 14.9123C88.4418 14.9544 86.5849 14.669 85.7043 14.679C78.1345 14.766 70.6696 14.5132 63.1071 14.5077C62.9459 14.5077 62.7335 14.7584 62.2081 14.7584C52.4024 14.7538 42.2394 14.5561 32.3086 14.6743C30.1436 14.6999 27.9963 14.9357 25.8113 14.7489C25.5402 14.9319 25.2691 15.1149 24.998 15.2979C25.6915 15.1524 26.9621 15.5664 27.0779 15.5724C27.1195 15.5743 27.3824 15.3679 27.8063 15.3788C28.4024 15.3935 28.6639 15.5724 28.7128 15.5724C28.8644 15.573 28.7651 15.3827 28.9099 15.3836C29.9897 15.3918 30.8253 15.3378 31.8163 15.336C32.9359 15.3342 33.5034 15.6887 34.3186 15.2995C34.4109 15.4513 34.5033 15.6031 34.5956 15.7549C35.2047 15.0984 38.8319 15.1711 40.3012 15.2059C40.7648 15.2169 40.6834 15.4836 40.8392 15.4836C40.9387 15.4832 40.8995 15.1341 42.1124 15.2027C42.723 15.2375 42.8832 15.4918 43.1894 15.4836C43.3557 15.4787 43.3287 15.2265 43.5677 15.2265C44.9501 15.2265 46.0788 15.3083 47.4322 15.355C47.8127 15.3679 47.8169 15.5784 47.9021 15.5756C48.2156 15.5662 48.7609 15.2097 49.5578 15.2106C50.8695 15.2125 53.4839 15.2137 54.5565 15.3868C54.7142 15.4124 54.8447 15.665 54.9607 15.6613C55.1363 15.6548 55.2051 15.3914 55.236 15.3899C55.823 15.3854 55.4698 15.6304 55.863 15.5709C56.0749 15.5388 56.2959 15.2383 56.7886 15.2043C57.439 15.1594 57.311 15.5161 57.5828 15.4804C57.6115 15.4748 57.62 15.2268 57.8871 15.2186C58.8999 15.1893 60.3691 15.132 61.3275 15.1329C61.6028 15.1329 61.8076 15.2999 62.1915 15.3027C62.9651 15.3082 67.3627 15.2017 67.7233 15.2979C67.7614 15.308 67.3703 15.6739 67.9936 15.6629C68.1746 15.5106 68.3556 15.3582 68.5366 15.2059C68.8393 15.4497 69.1421 15.6936 69.4448 15.9374C69.4339 15.0949 71.2147 14.9648 71.1969 15.8263C71.3918 15.8612 71.5867 15.8962 71.7816 15.9311C72.1874 15.3358 72.4575 15.5556 73.2419 15.2059C73.3641 15.3884 73.4864 15.5709 73.6086 15.7533C73.6394 15.6317 73.6701 15.51 73.7009 15.3884C74.1194 16.0477 74.8059 15.3857 74.8893 15.382C75.2098 15.3674 75.4507 15.535 75.6011 15.5296C76.1627 15.5122 77.3785 15.2813 78.0344 15.3884C78.0652 15.3939 78.0349 15.6757 78.2215 15.7105C78.5581 15.7734 78.591 15.3607 79.0398 15.8454C79.1304 15.7237 79.2211 15.6021 79.3117 15.4804C79.4079 15.5433 79.5041 15.6063 79.6003 15.6692C80.168 15.637 80.7357 15.6047 81.3034 15.5724C80.7871 16.0496 81.3813 16.3161 81.9429 15.9406C82.133 15.8133 81.9644 15.5228 82.0278 15.4788C82.1147 15.4193 84.6626 15.5672 84.8311 15.7549C84.9517 15.6634 85.0723 15.5719 85.1928 15.4804C85.2538 15.6634 85.3148 15.8464 85.3758 16.0295C85.4423 15.9655 85.5089 15.9014 85.5754 15.8374C86.2384 16.1598 87.9595 15.4204 88.2714 15.4788C88.4381 15.51 88.2882 16.29 89.0872 16.2104C89.115 15.9961 89.1427 15.7819 89.1704 15.5677C89.3534 15.537 89.5363 15.5063 89.7193 15.4756C90.0626 15.4947 90.5623 15.866 90.5783 16.1199C90.6856 15.9676 90.7929 15.8152 90.9001 15.6629C91.1882 16.1592 92.7246 15.9833 93.3426 15.6692C93.5233 15.8189 93.704 15.9686 93.8848 16.1183C94.1276 15.9364 94.3704 15.7544 94.6133 15.5724C95.1758 15.5176 94.5815 15.8201 94.7014 15.8454C94.9551 15.8976 96.2477 15.3866 96.1625 16.0231C96.3388 16.0247 96.5151 16.0263 96.6914 16.0279C96.7821 15.8459 96.8727 15.6639 96.9634 15.482C97.266 16.1093 97.7896 15.8879 98.8636 16.1167C98.9537 15.9723 99.0438 15.8279 99.1339 15.6835C99.466 15.8888 99.798 16.094 100.13 16.2992C100.198 16.0601 100.266 15.821 100.335 15.582C100.479 15.5476 100.624 15.5132 100.768 15.4788C101.061 16.0144 101.588 15.4356 101.857 15.6565C102.248 15.9789 101.945 16.3631 101.219 16.4373C101.273 16.8273 103.437 16.6482 103.936 16.6198C103.903 16.5436 103.87 16.4674 103.837 16.3913C103.327 16.4516 102.817 16.5119 102.306 16.5722C101.879 15.5913 103.265 15.8543 103.901 15.728C103.959 15.7158 104.288 15.3442 104.929 15.3788C105.178 15.3926 106.146 15.9358 106.331 15.966C107.823 16.214 106.726 15.4379 108.186 16.1183C107.881 15.5972 108.72 16.0302 109.594 15.9295C109.742 15.9123 111.003 15.4898 111.088 15.4788C111.619 15.411 111.041 15.8717 111.809 15.7518C111.901 15.6306 111.994 15.5095 112.086 15.3884C112.265 15.3884 112.444 15.3884 112.622 15.3884C113.707 16.4679 113.96 15.6729 114.346 15.5709C114.501 15.5296 114.301 15.8113 114.705 15.7518C114.857 15.7296 115.026 15.4953 115.435 15.4788C116.716 15.4276 117.151 16.4307 118.328 15.3868C118.509 15.5381 118.69 15.6893 118.87 15.8406C118.992 15.6592 119.114 15.4778 119.236 15.2963C120.169 15.8228 119.832 15.2836 120.169 15.29C121.059 15.3065 122.88 15.4097 123.039 15.8438C123.807 14.8466 124.726 15.9716 125.028 15.9327C125.208 15.8115 125.388 15.6904 125.568 15.5693C125.78 15.6909 125.991 15.8126 126.203 15.9342C126.1 14.955 127.195 15.918 127.3 15.9327C127.422 15.9473 129.106 15.6575 129.734 15.6629C130.36 15.6684 131.451 15.9337 131.547 15.9342C131.658 15.9342 132.724 15.6681 133.557 15.6708C134.287 15.6737 138.607 16.0518 138.335 15.6153C138.052 15.4944 137.65 15.3896 137.302 15.3328C136.222 15.1588 129.884 14.9359 128.264 14.8663C125.016 14.728 121.628 14.7536 118.365 14.6584C118.173 14.6529 118.143 14.3991 117.979 14.3934C117.729 14.3861 117.094 14.6401 116.848 14.6346C115.927 14.6126 114.808 14.5712 114.315 14.5648C113.213 14.5519 112.458 14.3991 111.625 14.3744C111.364 14.367 110.045 14.6817 109.141 14.5489C108.977 14.4775 108.813 14.4061 108.649 14.3347C109.115 14.2513 110.336 14.0357 110.904 14.011C111.748 13.9753 112.188 14.1812 112.499 14.1776C112.76 14.1748 114.094 13.9404 114.701 13.9348C114.889 13.933 114.928 14.1991 115.089 14.1982C115.964 14.1918 117.117 14.1847 117.876 13.9237C117.566 14.0089 119.501 14.1722 119.602 14.1712C119.776 14.1712 119.965 13.9221 120.32 13.9221C121.003 13.9222 120.916 14.4432 121.769 13.9221C121.981 14.0739 122.192 14.2257 122.403 14.3775C122.416 13.6835 125.085 14.6275 125.844 13.784C125.864 13.6888 122.396 13.4185 122.109 13.4048C120.392 13.3215 117.85 13.4916 116.183 13.3699C115.682 13.3333 114.104 12.9113 113.985 12.9192C113.794 12.9311 113.967 13.1724 113.884 13.181C112.187 13.3605 113.034 12.8754 112.808 12.7351ZM187.582 16.669C187.067 16.6404 186.551 16.6118 186.036 16.5833C186.073 16.4309 186.11 16.2786 186.148 16.1263C186.384 16.1855 186.62 16.2447 186.856 16.304C187.038 16.213 187.22 16.122 187.401 16.031C187.462 16.2437 187.522 16.4563 187.582 16.669ZM188.853 16.031C189.3 15.9543 189.322 16.2756 189.425 16.2913C189.733 16.3389 190 16.209 190.298 16.2135C189.954 16.9766 189.221 16.6269 188.853 16.031ZM179.618 15.7565C179.719 15.793 180.392 16.6145 181.157 15.8501C181.73 16.0929 182.303 16.3357 182.876 16.5785C181.903 16.2076 180.556 16.5932 180.08 16.5785C179.899 16.5729 179.864 16.3208 179.72 16.3167C178.886 16.2965 178.076 16.8679 177.991 16.0326C178.779 16.2753 179.489 15.7116 179.618 15.7565ZM184.648 16.0533C184.781 16.2278 184.914 16.4024 185.048 16.5769C184.566 16.5769 184.084 16.5769 183.602 16.5769C183.733 16.4003 183.863 16.2236 183.993 16.0469C184.211 16.049 184.43 16.0511 184.648 16.0533ZM147.584 15.4756C147.881 15.4778 148.178 15.4799 148.475 15.482C148.459 15.3548 148.119 15.3553 147.994 15.2693C147.994 15.2693 147.995 15.2693 147.996 15.2693C147.856 15.1723 147.916 15.0085 147.662 14.9361C147.636 15.116 147.61 15.2958 147.584 15.4756ZM24.6379 14.752C24.1398 14.7429 19.54 14.7419 19.9319 15.2059C20.1294 15.4376 21.7026 15.2355 22.1664 15.2392C22.7917 15.2439 24.4803 15.7456 24.6379 14.752ZM16.4915 14.6616C16.4119 15.1239 19.2866 15.1974 19.5676 15.117C19.508 15.0511 19.416 14.9043 19.3365 14.871C18.9487 14.7117 17.1113 14.7879 16.4915 14.6616ZM130.943 14.1411C131.174 14.3749 131.406 14.6087 131.638 14.8425C131.577 14.5383 131.516 14.2342 131.455 13.93C131.284 14.0004 131.113 14.0707 130.943 14.1411ZM108.463 14.4759C104.602 14.4611 100.742 14.4463 96.881 14.4315C97.2206 14.3051 97.5602 14.1786 97.8997 14.0522C101.226 14.0971 104.774 14.2251 107.986 14.03C108.145 14.1786 108.304 14.3273 108.463 14.4759ZM178.53 14.387C177.541 14.3825 176.715 14.6059 175.639 14.2506C176.664 13.9062 177.172 14.439 178.169 13.9316C178.169 13.9316 178.17 13.9316 178.17 13.9316C178.29 14.0834 178.41 14.2352 178.53 14.387ZM156.446 14.295C156.747 14.0824 157.048 13.8697 157.349 13.6571C156.987 13.6571 156.625 13.6571 156.263 13.6571C156.324 13.8697 156.385 14.0824 156.446 14.295ZM74.7878 13.2937C73.7532 13.7578 71.1064 12.9178 70.2655 13.4762C70.2112 13.5128 70.7111 13.7485 69.903 14.2046C70.5134 14.1112 70.9444 14.0159 70.9899 13.6571C71.1711 13.7788 71.3525 13.9004 71.5337 14.0221C71.8345 13.93 72.1353 13.838 72.436 13.746C72.4034 14.1031 72.4272 14.0841 72.8893 13.8396C73.0999 13.93 73.3106 14.0205 73.5213 14.1109C73.6106 13.9597 73.6998 13.8084 73.7891 13.6571C73.9715 13.8687 74.1538 14.0803 74.3363 14.2918C75.0472 14.0623 74.6142 13.6523 74.7878 13.2937ZM78.4094 13.381C78.2412 13.3023 73.4443 13.5589 75.6244 14.2712C76.191 14.2485 76.7576 14.2257 77.3242 14.203C76.8549 13.0233 78.399 14.0783 78.5259 14.103C79.1327 14.2182 79.906 13.9377 80.3463 13.9522C80.7249 13.9651 80.9498 14.1767 81.2161 14.1712C82.1233 14.1529 83.5561 14.1452 83.7533 13.6571C83.0482 13.6469 82.3319 13.6417 81.5986 13.6539C80.8232 13.6667 80.1414 13.206 78.6847 13.838C78.3245 13.7701 78.4529 13.4011 78.4094 13.381ZM158.254 13.7063C158.218 14.1966 160.049 14.0793 160.06 13.8856C160.064 13.772 159.468 13.7747 159.383 13.7317C159.382 13.7317 159.382 13.7317 159.381 13.7317C159.346 13.7129 159.526 13.5252 159.246 13.473C158.915 13.5508 158.585 13.6285 158.254 13.7063ZM31.7922 13.6555C31.5448 13.3804 25.8914 13.4793 25.7248 13.6111C25.6796 13.6477 25.7427 13.7683 25.7248 13.838C27.0437 13.4498 28.9187 13.9093 30.1706 13.9396C30.5196 13.9477 30.4153 13.7528 30.435 13.7491C30.4359 13.7491 30.4367 13.7491 30.4375 13.7491C30.6356 13.7486 31.5296 14.2249 31.7922 13.6555ZM68.4551 13.6999C68.6955 13.7766 68.9358 13.8533 69.1761 13.93C69.2371 13.7782 69.2981 13.6264 69.3591 13.4746C69.3586 13.4746 69.358 13.4746 69.3574 13.4746C69.0567 13.5497 68.7559 13.6248 68.4551 13.6999ZM60.1283 13.2001C60.1868 13.3069 60.2453 13.4138 60.3038 13.5206C60.9089 13.5354 61.514 13.5502 62.1192 13.5651C62.0582 13.6254 61.9972 13.6857 61.9362 13.746C62.8512 13.9072 63.2301 13.5316 63.7175 13.5857C63.7169 13.5857 63.7164 13.5857 63.7158 13.5857C63.7683 13.592 63.8318 13.8146 64.0269 13.8221C64.4742 13.8395 65.7563 13.9224 65.9113 13.6984C66.2391 13.2204 63.6589 13.4473 63.1778 13.4254C62.9604 13.4153 62.6988 13.2205 62.5666 13.2159C62.4217 13.2117 62.2243 13.4748 61.8713 13.4667C61.7681 13.4639 60.6231 13.1544 60.1283 13.2001ZM49.4472 13.519C49.6338 13.7599 50.0234 13.5273 50.1665 13.5666C50.2007 13.5759 49.9348 13.7776 50.2572 13.838C50.3483 13.7005 50.4396 13.5629 50.5308 13.4254C50.1695 13.4566 49.8084 13.4878 49.4472 13.519ZM161.33 13.4746C161.278 13.4229 160.295 13.4418 160.248 13.4746C159.659 13.9142 161.695 13.8666 161.33 13.4746ZM186.135 12.9716C185.682 12.3326 191.047 12.9608 191.567 12.9271C191.541 13.3287 190.265 12.925 190.933 13.4762C190.295 13.173 188.532 13.334 188.117 13.2461C187.865 13.1929 187.802 12.8461 187.764 12.8351C187.614 12.796 186.294 13.1968 186.135 12.9716ZM195.999 13.2001C195.489 13.1239 194.98 13.0477 194.47 12.9716C195.071 12.9261 195.673 12.8806 196.274 12.8351C196.183 12.9568 196.091 13.0784 195.999 13.2001ZM196.64 13.0176C196.624 12.6283 198.354 12.9249 198.809 12.8351C198.296 13.4972 197.441 12.873 196.64 13.0176ZM167.85 12.4701C167.053 12.2128 166.71 13.3993 167.68 12.8827C167.709 12.8656 167.883 12.4838 167.85 12.4701ZM74.5417 11.6243C74.4058 11.617 72.7152 11.2323 72.6173 11.4228C72.3079 12.0305 73.4173 11.7868 73.7891 12.0163C74.3888 12.3881 73.5068 12.6945 74.9708 12.4701C74.9109 12.5918 74.851 12.7134 74.7911 12.8351C75.6479 12.8754 75.3675 12.0326 75.5213 11.9242C75.5683 11.8913 76.104 11.9621 76.2007 11.9084C77.4081 11.2294 74.6677 11.63 74.5417 11.6243ZM148.115 12.3797C146.528 12.0225 147.211 12.5466 145.582 12.5145C145.528 12.782 147.909 12.6141 148.115 12.3797ZM89.9962 12.1051C88.3547 12.2104 87.0049 11.8606 85.4739 12.3305C85.5736 13.054 90.422 12.292 89.9962 12.1051ZM12.8716 11.372C19.2582 12.6606 26.6249 12.2364 33.4247 12.2162C34.1657 12.2144 34.2368 12.5013 34.5049 12.4701C34.6806 12.4499 34.6499 12.2189 34.8833 12.2178C43.321 12.1803 51.4003 11.878 59.483 12.0163C59.9921 12.0254 62.469 12.5216 62.9982 11.7735C63.3984 11.2059 61.619 11.6484 61.3225 11.6434C61.0996 11.6397 61.0902 11.373 60.9416 11.372C60.784 11.3711 60.9142 11.5533 60.7312 11.5561C59.9558 11.5689 59.1097 11.4977 58.4085 11.5132C51.5326 11.6625 44.8432 11.6198 38.0035 11.5942C37.1755 11.5914 37.3458 11.3777 37.3041 11.3768C37.3035 11.3773 37.303 11.3778 37.3024 11.3784C32.8634 11.3582 27.7937 11.8376 23.092 11.6545C19.7811 11.5074 16.4702 11.3604 13.1593 11.2133C13.0634 11.2662 12.9675 11.3191 12.8716 11.372ZM78.0469 12.3781C77.6338 11.5721 77.5414 12.3847 76.0593 12.0559C75.9388 12.1935 75.8182 12.331 75.6976 12.4685C76.4815 12.4384 77.2654 12.4082 78.0494 12.3781C78.0485 12.3781 78.0477 12.3781 78.0469 12.3781ZM68.2581 12.0845C68.0076 10.996 64.6934 11.7653 63.2011 11.5577C62.9275 12.1043 65.097 11.8588 65.6086 11.9163C65.864 11.9447 67.2322 12.5069 68.2722 12.1956C68.2675 12.1586 68.2628 12.1215 68.2581 12.0845ZM180.522 11.372C180.281 11.4037 180.04 11.4355 179.799 11.4672C180.402 11.5878 181.006 11.7084 181.609 11.829C180.646 11.7513 179.684 11.6735 178.721 11.5958C178.9 11.3699 179.08 11.144 179.259 10.9182C179.68 11.0694 180.101 11.2207 180.522 11.372ZM177.399 11.4878C179.085 11.4028 177.325 12.0074 176.904 11.7386C176.652 11.5774 177.226 11.497 177.399 11.4878ZM173.014 11.0991C173.8 10.7025 175.389 10.6752 174.824 11.4672C173.974 11.0963 173.426 11.4045 172.194 11.1911C172.374 11.0393 172.554 10.8875 172.734 10.7357C172.735 10.7357 172.736 10.7357 172.737 10.7357C172.829 10.8568 172.921 10.9779 173.014 11.0991ZM178.169 11.0086C179.273 11.4636 176.076 11.308 177.081 11.0086C177.128 10.9949 178.125 10.9912 178.169 11.0086ZM19.9319 10.5532C19.7989 10.812 20.6481 10.8071 20.9306 10.8245C22.1554 10.9014 23.726 10.7888 24.9997 10.8245C24.9038 10.7394 24.8079 10.6542 24.7119 10.5691C23.1186 10.5638 21.5252 10.5585 19.9319 10.5532ZM28.9839 10.8261C29.859 10.8261 30.7341 10.8261 31.6093 10.8261C31.6908 10.8261 32.0734 10.604 31.7889 10.55C30.8539 10.642 29.9189 10.7341 28.9839 10.8261ZM83.5712 10.8261C82.9002 10.6812 84.8324 9.93835 84.7454 10.7341C84.354 10.7648 83.9626 10.7954 83.5712 10.8261ZM89.8149 10.5088C89.3941 10.5844 88.9733 10.66 88.5525 10.7357C88.552 10.6442 88.5514 10.5527 88.5509 10.4611C88.9722 10.477 89.3935 10.4929 89.8149 10.5088ZM16.4915 10.3707C16.9373 10.6838 18.0006 10.6356 18.6637 10.642C18.207 10.373 17.1183 10.5053 16.4915 10.3707ZM73.518 10.5056C73.5723 10.719 70.9033 10.6653 71.8273 10.2898C72.3909 10.3617 72.9544 10.4336 73.518 10.5056ZM68.0967 10.1898C68.6692 10.1431 69.1126 10.2164 68.9949 10.5516C68.6913 10.5373 68.3878 10.523 68.0843 10.5088C68.0884 10.4024 68.0926 10.2961 68.0967 10.1898ZM170.021 10.4611C169.056 10.4913 168.091 10.5214 167.127 10.5516C167.162 10.4601 167.198 10.3686 167.234 10.2771C168.164 10.2474 169.094 10.2178 170.024 10.1882C170.023 10.2792 170.022 10.3702 170.021 10.4611ZM15.946 9.5487C15.2835 9.60847 14.621 9.66824 13.9585 9.72801C14.6215 9.78937 15.2846 9.85073 15.9477 9.91209C15.9477 9.79043 15.9477 9.66877 15.9477 9.54711C15.9471 9.54764 15.9466 9.54817 15.946 9.5487ZM183.236 9.27576C180.289 8.849 184.049 8.39787 184.826 9.02503C184.827 9.0245 184.828 9.02397 184.829 9.02345C184.897 9.07887 184.753 9.34692 184.866 9.45507C184.566 9.33394 184.267 9.21281 183.967 9.09168C183.693 9.24243 183.419 9.39319 183.146 9.54394C183.056 9.48469 182.966 9.42545 182.876 9.36621C182.996 9.33606 183.116 9.30591 183.236 9.27576ZM195.129 9.03773C197.801 9.08722 195.067 9.75752 193.745 9.22815C193.754 9.10565 194.883 9.03315 195.129 9.03773ZM188.126 9.18213C187.705 9.24296 187.284 9.30379 186.863 9.36462C186.809 9.28792 186.756 9.21122 186.702 9.13453C187.025 9.05836 187.348 8.98219 187.671 8.90602C187.823 8.99806 187.975 9.09009 188.126 9.18213ZM174.278 7.99833C173.601 7.91407 172.736 8.76691 174.912 8.54263C174.911 8.45112 174.91 8.35961 174.909 8.2681C174.822 8.28271 174.568 8.36855 174.554 8.36172C174.514 8.33883 174.561 8.03325 174.278 7.99833ZM200.077 6.62728C200.153 6.59245 200.195 5.6272 200.986 6.62569C201.225 6.56486 201.465 6.50403 201.704 6.4432C201.766 6.65584 201.828 6.86848 201.889 7.08112C200.963 6.91626 200.865 7.34649 200.798 7.35565C200.49 7.39591 200.718 7.17462 200.52 7.17157C200.007 7.16425 198.842 7.31284 199.37 6.68123C199.561 6.45501 200.001 6.66208 200.077 6.62728ZM198.267 6.07822C198.379 6.15879 198.017 6.44116 198.102 6.52096C198.176 6.59055 199.292 6.87863 198.99 7.35565C198.807 7.33555 198.624 7.31545 198.441 7.29535C198.379 7.1647 198.316 7.03405 198.254 6.90339C198.077 7.024 197.9 7.1446 197.722 7.2652C197.423 6.94281 196.787 6.52516 197.543 6.2623C197.265 6.28981 196.987 6.31731 196.709 6.34482C196.565 6.49927 196.422 6.65373 196.278 6.80818C196.353 6.5728 196.428 6.33741 196.504 6.10203C197.092 6.09409 197.679 6.08616 198.267 6.07822ZM206.877 6.16867C206.843 6.29033 206.81 6.41199 206.776 6.53365C207.796 6.30748 209.384 6.22148 208.482 6.98432C207.1 7.0478 205.719 7.11127 204.337 7.17475C204.245 7.08324 204.153 6.99173 204.061 6.90022C205.092 7.25279 204.774 5.7525 205.671 6.18296C205.822 6.25593 205.383 6.78058 206.333 6.44479C206.3 6.3226 206.266 6.20041 206.232 6.07822C206.447 6.10837 206.662 6.13852 206.877 6.16867ZM215.647 6.35116C213.9 6.17531 215.824 5.73134 216.146 6.10044C216.146 6.10044 216.145 6.10044 216.145 6.10044C217.029 7.11046 215.128 6.62245 215.012 6.62887C214.858 6.63781 214.499 7.36088 213.661 6.30673C214.323 6.32154 214.985 6.33635 215.647 6.35116ZM209.944 6.17026C210.091 6.14645 210.01 6.33008 210.073 6.32736C210.074 6.32736 210.074 6.32736 210.075 6.32736C211.01 6.28798 213.233 6.12357 213.474 6.71614C212.782 6.7656 209.686 6.89364 209.498 6.49081C209.647 6.38396 209.796 6.27711 209.944 6.17026ZM203.365 6.61141C202.791 6.22775 204.084 6.17667 204.422 6.35434C204.486 6.39283 203.96 7.00884 203.365 6.61141ZM159.338 5.62121C158.075 5.85201 159.734 6.08235 159.16 6.4432C159.401 6.41252 159.642 6.38184 159.883 6.35116C159.702 6.10784 159.52 5.86453 159.338 5.62121ZM101.763 4.89283C101.468 4.85019 101.608 5.07049 101.582 5.07374C101.389 5.0676 101.206 4.88814 101.132 4.90712C99.7602 5.26939 100.673 5.45441 100.686 5.49743C100.715 5.71537 100.355 5.97038 100.854 6.21945C101.158 6.14223 101.461 6.065 101.764 5.98777C101.915 6.1089 102.065 6.23003 102.216 6.35116C102.818 6.09128 102.03 6.01999 101.941 5.67516C101.906 5.53961 102.473 5.37733 101.763 4.89283ZM157.075 4.89125C156.87 5.27409 156.368 5.75703 156.861 6.1417C156.862 6.1417 156.862 6.1417 156.863 6.1417C156.954 6.21207 157.325 6.25077 157.439 6.34958C158.252 5.83955 157.941 5.31247 157.075 4.89125ZM107.202 4.20731C107.691 4.2967 108.18 4.3861 108.669 4.47549C108.661 4.70506 108.652 4.93462 108.644 5.16419C108.382 5.1023 108.121 5.04041 107.859 4.97853C107.767 5.08326 107.676 5.18799 107.584 5.29272C107.909 5.55456 108.234 5.81639 108.558 6.07822C108.95 5.98671 109.341 5.8952 109.733 5.8037C109.553 5.68256 109.373 5.56143 109.193 5.4403C110.15 5.30658 109.941 5.86482 110.733 6.07822C111.004 5.86558 111.275 5.65294 111.546 5.4403C111.939 5.654 112.331 5.8677 112.724 6.0814C113.383 5.98157 113.441 5.81881 112.998 5.57519C113.325 5.29678 113.684 5.73467 114.079 5.62121C114.112 5.61205 114.051 5.34984 114.079 5.34668C116.121 5.16991 116.013 5.85849 116.339 5.8878C116.569 5.90792 117.488 5.44323 117.502 5.28479C117.52 5.07128 115.609 4.22932 118.602 4.20731C117.055 3.62493 115.296 4.21775 116.433 5.07215C115.943 4.98617 113.784 5.19935 113.646 5.17371C113.445 5.13501 113.516 4.81085 113.264 4.80238C113.116 4.7978 112.722 5.53878 111.546 4.89125C111.396 5.01291 111.246 5.13457 111.096 5.25623C110.955 5.15625 110.814 5.05628 110.673 4.95631C110.963 4.59979 111.253 4.24328 111.543 3.88676C110.394 4.27414 109.442 3.54641 108.742 4.1597C108.138 4.08832 107.844 4.01776 108.104 3.70427C107.922 3.70427 107.74 3.70427 107.559 3.70427C107.44 3.87195 107.321 4.03963 107.202 4.20731ZM153.364 5.43872C152.763 5.08278 152.547 5.85068 152.641 5.89415C153.168 6.1331 153.677 5.62389 153.364 5.43872ZM102.854 5.30066C103.517 5.49849 104.18 5.69632 104.843 5.89415C104.843 5.65136 104.843 5.40857 104.843 5.16578C104.18 5.21074 103.517 5.2557 102.854 5.30066ZM159.522 5.07532C159.583 5.25728 159.644 5.43925 159.705 5.62121C160.432 4.95656 161.153 5.91018 161.512 5.71324C161.59 5.67022 161.432 5.34893 161.284 5.28003C161.191 5.23698 159.651 5.01396 159.522 5.07532ZM189.757 5.1626C189.487 5.28479 189.216 5.40698 188.945 5.52917C188.96 5.32446 188.975 5.11976 188.99 4.91505C189.124 4.87697 189.258 4.83888 189.391 4.8008C189.513 4.9214 189.635 5.042 189.757 5.1626ZM186.678 5.48791C186.196 5.47151 185.713 5.45511 185.231 5.43872C187.071 5.25097 185.561 5.15934 186.678 4.89283C186.678 5.09119 186.678 5.28955 186.678 5.48791ZM181.794 5.07374C181.853 4.95155 181.912 4.82936 181.972 4.70717C182.454 4.70717 182.937 4.70717 183.419 4.70717C183.114 4.28295 182.809 3.85873 182.504 3.43451C182.327 3.43345 182.15 3.43239 181.973 3.43133C181.913 3.9788 181.854 4.52627 181.794 5.07374ZM88.7263 3.98039C88.4346 3.97306 87.4196 4.34378 87.4631 4.48025C87.8847 4.64793 88.3064 4.81561 88.728 4.98329C88.7299 4.73997 88.7319 4.49665 88.7338 4.25333C88.7934 4.37446 88.853 4.49559 88.9126 4.61672C89.1524 4.52574 89.3922 4.43476 89.6319 4.34378C89.7528 4.55642 89.8737 4.76906 89.9945 4.9817C90.116 4.73891 90.2373 4.49612 90.3588 4.25333C89.201 3.82288 89.2409 4.25311 88.9999 4.24857C88.8777 4.24651 88.8004 4.09586 88.7571 4.02006C88.7468 4.00683 88.7366 3.99361 88.7263 3.98039ZM103.312 3.75188C101.929 3.69143 101.139 4.33202 100.139 3.79631C100.781 4.93745 104.923 3.75875 106.383 4.71035C106.535 4.52733 106.686 4.34431 106.838 4.16129C106.043 4.32427 105.492 3.94732 105.104 3.89311C104.796 3.85006 104.828 4.04185 104.805 4.0391C104.803 4.0391 104.802 4.0391 104.801 4.0391C104.08 3.96034 103.857 3.77572 103.312 3.75188ZM160.549 4.18033C160.178 3.89117 159.528 3.92009 159.521 4.34219C159.883 4.46438 160.244 4.58657 160.606 4.70876C160.532 4.60068 160.613 4.22979 160.549 4.18033ZM181.232 3.8947C180.942 3.75731 180.258 3.8777 180.553 4.24222C180.606 4.30692 181.288 4.05069 180.888 4.70876C181.553 4.69858 181.397 3.97366 181.232 3.8947ZM126.934 4.61672C127.178 4.60455 127.422 4.59239 127.666 4.58022C127.723 4.4099 127.78 4.23958 127.837 4.06925C127.536 4.25174 127.235 4.43423 126.934 4.61672ZM163.685 3.88835C164.009 4.72191 164.563 3.91073 165.172 4.59609C165.396 4.60138 165.621 4.60667 165.846 4.61196C165.847 4.61196 165.847 4.61196 165.848 4.61196C165.854 4.38451 165.86 4.15706 165.866 3.92961C165.139 3.91585 164.412 3.9021 163.685 3.88835ZM111.724 4.20572C111.875 4.31151 112.025 4.4173 112.175 4.5231C112.443 4.39985 112.71 4.2766 112.978 4.15336C112.833 4.06502 112.688 3.97668 112.543 3.88835C112.27 3.99414 111.997 4.09993 111.724 4.20572ZM167.636 3.81694C166.85 3.71253 166.554 4.43716 167.56 4.43899C167.984 4.43899 168.46 3.92604 167.636 3.81694ZM73.7042 4.25015C73.9737 4.31204 74.2431 4.37393 74.5126 4.43582C74.6043 4.28348 74.6961 4.13114 74.7878 3.9788C74.4266 4.06925 74.0654 4.1597 73.7042 4.25015ZM184.961 3.97721C184.93 4.12955 184.898 4.28189 184.866 4.43423C184.626 4.40355 184.386 4.37287 184.145 4.34219C184.206 4.19091 184.266 4.03963 184.327 3.88835C184.538 3.91797 184.75 3.94759 184.961 3.97721ZM75.5171 4.34378C75.7325 4.37287 75.9479 4.40196 76.1633 4.43106C76.308 4.357 76.4527 4.28295 76.5974 4.2089C76.3959 4.13537 76.1943 4.06185 75.9928 3.98832C75.8342 4.10681 75.6757 4.22529 75.5171 4.34378ZM175.09 3.88676C174.787 3.70359 173.579 4.27429 174.668 4.41995C175.361 4.51242 175.135 3.91463 175.09 3.88676ZM176.721 3.70427C175.568 3.35532 176.433 5.1264 177.808 3.9788C176.423 4.13614 176.789 3.72534 176.721 3.70427ZM186.854 2.79024C186.883 2.79115 186.907 3.04581 187.138 3.05524C187.972 3.08822 189.072 3.18884 189.668 3.20441C191.101 3.24196 195.491 2.7816 196.004 3.51861C196.111 3.67339 195.865 4.13589 195.908 4.1597C196.036 4.22612 196.77 4.00171 196.634 4.34219C195.914 4.33955 195.194 4.3369 194.473 4.33426C194.65 4.09411 194.827 3.85397 195.004 3.61382C193.209 3.74202 193.803 3.72722 193.286 4.25015C192.983 4.04756 192.679 3.84497 192.375 3.64238C191.714 3.84603 191.052 4.04968 190.391 4.25333C190.541 4.10152 190.691 3.94971 190.841 3.7979C189.844 3.51674 190.121 3.70111 189.576 4.06925C189.575 3.91744 189.574 3.76563 189.572 3.61382C188.61 3.98384 188.423 3.52887 188.213 3.52337C187.782 3.51443 187.232 5.31061 185.587 3.52337C184.894 4.38294 184.91 2.63425 184.502 3.52337C183.328 2.55545 185.561 2.90576 186.617 2.93782C186.617 2.93782 186.618 2.93782 186.619 2.93782C186.698 2.94056 186.572 2.77757 186.854 2.79024ZM180.825 3.68047C181.535 2.89144 178.728 2.81758 179.657 3.95658C179.796 3.99361 179.934 4.03064 180.072 4.06766C180.324 3.9386 180.575 3.80953 180.826 3.68047C180.826 3.68047 180.825 3.68047 180.825 3.68047ZM154.45 3.1568C151.85 3.48103 153.328 3.93492 154.209 3.49163C154.384 3.40371 154.48 3.28317 154.45 3.1568ZM101.337 3.1457C101.299 3.24038 101.261 3.33506 101.223 3.42974C102.095 3.34113 103.781 3.70636 103.758 3.06794C102.951 3.09386 102.144 3.11978 101.337 3.1457ZM108.234 2.72835C108.047 2.68984 107.282 2.59895 107.374 2.83784C107.706 3.00711 108.037 3.17638 108.369 3.34564C108.523 3.23985 108.678 3.13406 108.832 3.02827C108.616 2.99229 108.285 2.73842 108.234 2.72835Z" fill="#AFCFFF"/>
</svg>
