<svg width="302" height="339" viewBox="0 0 302 339" fill="none" xmlns="http://www.w3.org/2000/svg">
<g clip-path="url(#clip0_56_1361)">
<path d="M302 259.267H0V259.437H302V259.267Z" fill="#E6E6E6"/>
<path d="M64.0179 267.308H31.1965V267.478H64.0179V267.308Z" fill="#E6E6E6"/>
<path d="M151.604 263.627H139.246V263.796H151.604V263.627Z" fill="#E6E6E6"/>
<path d="M109.493 263.627H91.4094V263.796H109.493V263.627Z" fill="#E6E6E6"/>
<path d="M259.062 265.579H220.804V265.749H259.062V265.579Z" fill="#E6E6E6"/>
<path d="M144.489 265.579H135.858V265.749H144.489V265.579Z" fill="#E6E6E6"/>
<path d="M77.9161 267.308H69.8647V267.478H77.9161V267.308Z" fill="#E6E6E6"/>
<path d="M269.136 265.579H263.996V265.749H269.136V265.579Z" fill="#E6E6E6"/>
<path d="M143.148 229.028H26.5217C25.608 229.027 24.7323 228.618 24.0869 227.892C23.4414 227.166 23.0789 226.183 23.0789 225.157V41.1275C23.0868 40.1078 23.4529 39.1328 24.0975 38.4143C24.7421 37.6958 25.6132 37.2918 26.5217 37.29H143.148C144.063 37.29 144.94 37.6979 145.587 38.4239C146.234 39.15 146.597 40.1347 146.597 41.1614V225.157C146.597 226.184 146.234 227.169 145.587 227.895C144.94 228.621 144.063 229.028 143.148 229.028ZM26.5217 37.4256C25.6481 37.4274 24.8108 37.8182 24.1936 38.5123C23.5765 39.2063 23.2299 40.1469 23.2299 41.1275V225.157C23.2299 226.138 23.5765 227.078 24.1936 227.772C24.8108 228.466 25.6481 228.857 26.5217 228.859H143.148C144.022 228.857 144.86 228.467 145.478 227.773C146.096 227.079 146.444 226.138 146.446 225.157V41.1275C146.444 40.1463 146.096 39.2057 145.478 38.5119C144.86 37.818 144.022 37.4274 143.148 37.4256H26.5217Z" fill="#E6E6E6"/>
<path d="M273.799 229.028H157.167C156.253 229.027 155.376 228.618 154.73 227.893C154.083 227.167 153.72 226.183 153.718 225.157V41.1275C153.728 40.1072 154.095 39.1322 154.741 38.4139C155.386 37.6956 156.258 37.2918 157.167 37.29H273.799C274.707 37.2936 275.576 37.6984 276.22 38.4167C276.863 39.135 277.228 40.109 277.236 41.1275V225.157C277.236 226.181 276.874 227.164 276.23 227.89C275.586 228.615 274.712 229.025 273.799 229.028ZM157.167 37.4256C156.293 37.4274 155.455 37.818 154.837 38.5119C154.219 39.2057 153.871 40.1463 153.869 41.1275V225.157C153.871 226.138 154.219 227.079 154.837 227.773C155.455 228.467 156.293 228.857 157.167 228.859H273.799C274.673 228.857 275.511 228.467 276.129 227.773C276.748 227.079 277.096 226.138 277.097 225.157V41.1275C277.096 40.1463 276.748 39.2057 276.129 38.5119C275.511 37.818 274.673 37.4274 273.799 37.4256H157.167Z" fill="#E6E6E6"/>
<path d="M248.945 58.0098H114.319V145.851H248.945V58.0098Z" fill="#E6E6E6"/>
<path d="M250.763 58.0098H116.137V145.851H250.763V58.0098Z" fill="#F5F5F5"/>
<path d="M247.495 141.729V62.1321L119.405 62.1321V141.729H247.495Z" fill="white"/>
<path d="M247.501 141.729V62.1321H246.124V141.729H247.501Z" fill="#E6E6E6"/>
<path d="M249.416 116.989H117.49V122.521H249.416V116.989Z" fill="#F5F5F5"/>
<path d="M152.812 200.763H130.706V255.782H152.812V200.763Z" fill="#E6E6E6"/>
<path d="M232.262 255.782H134.946V259.267H232.262V255.782Z" fill="#E6E6E6"/>
<path d="M152.806 255.782H236.508V200.763H152.806V255.782Z" fill="#F5F5F5"/>
<path d="M161.504 225.577H227.823V207.536H161.504V225.577Z" fill="#E6E6E6"/>
<path d="M161.504 249.002H227.823V230.961H161.504V249.002Z" fill="#E6E6E6"/>
<path d="M204.605 215.319H184.721C184.184 215.319 183.749 215.808 183.749 216.411V216.702C183.749 217.305 184.184 217.794 184.721 217.794H204.605C205.142 217.794 205.577 217.305 205.577 216.702V216.411C205.577 215.808 205.142 215.319 204.605 215.319Z" fill="#F5F5F5"/>
<path d="M204.605 238.751H184.721C184.184 238.751 183.749 239.24 183.749 239.843V240.134C183.749 240.737 184.184 241.226 184.721 241.226H204.605C205.142 241.226 205.577 240.737 205.577 240.134V239.843C205.577 239.24 205.142 238.751 204.605 238.751Z" fill="#F5F5F5"/>
<path d="M86.6015 259.267H39.5077L33.0146 83.8889H80.1085L86.6015 259.267Z" fill="#E6E6E6"/>
<path d="M93.4207 259.267H40.7157L34.2227 83.8889H86.9277L93.4207 259.267Z" fill="#F5F5F5"/>
<path d="M45.9221 253.165L39.8821 89.991H81.7151L87.7612 253.165H45.9221Z" fill="white"/>
<path d="M172.098 192.274C172.702 173.751 173.306 148.089 172.031 138.8L169.948 136.99C169.948 136.99 170.401 138.719 170.642 167.1C170.884 195.481 171.18 188.057 170.926 192.274H172.098Z" fill="#E0E0E0"/>
<path d="M175.975 130.915C179.829 125.05 187.941 120.881 196.342 120.901C199.64 120.901 186.521 127.722 181.212 135.241C177.087 141.078 172.539 150.902 171.053 156.354C171.765 144.882 172.14 136.773 175.975 130.915Z" fill="#E0E0E0"/>
<path d="M168.244 146.19C164.705 140.088 156.823 135.39 148.439 134.861C145.147 134.651 157.886 142.319 162.796 150.163C166.607 156.265 170.648 166.368 171.856 171.914C171.723 160.415 171.79 152.299 168.244 146.19Z" fill="#E0E0E0"/>
<path d="M169.827 121.125C166.601 114.006 159.075 107.137 150.891 104.344C147.672 103.246 161.002 115.775 164.813 125.362C167.773 132.82 171.361 142.19 172.303 148.109C172.653 136.434 173.046 128.25 169.827 121.125Z" fill="#E0E0E0"/>
<path d="M171.319 200.763C173.28 200.762 175.166 199.919 176.591 198.406C178.015 196.893 178.869 194.825 178.977 192.627L179.654 179.406H162.983L163.666 192.627C163.773 194.824 164.625 196.892 166.049 198.405C167.472 199.919 169.358 200.762 171.319 200.763Z" fill="#F0F0F0"/>
<path d="M161.908 182.423H180.735L181.273 176.938H161.365L161.908 182.423Z" fill="#EBEBEB"/>
<path d="M241.944 91.6384H254.411V53.6704H241.944V91.6384Z" fill="#E6E6E6"/>
<path d="M241.944 53.6772H235.765V88.5942H241.944V53.6772Z" fill="#F5F5F5"/>
<path d="M223.299 91.6384H235.765V53.6704H223.299V91.6384Z" fill="#E6E6E6"/>
<path d="M223.299 53.6772H217.12V88.5942H223.299V53.6772Z" fill="#F5F5F5"/>
<path d="M204.653 91.6384H217.12V53.6704H204.653V91.6384Z" fill="#E6E6E6"/>
<path d="M204.653 53.6772H198.474V88.5942H204.653V53.6772Z" fill="#F5F5F5"/>
<path d="M186.002 91.6384H198.468V53.6704H186.002V91.6384Z" fill="#E6E6E6"/>
<path d="M186.002 53.6772H179.823V88.5942H186.002V53.6772Z" fill="#F5F5F5"/>
<path d="M167.362 91.6384H179.829V53.6704H167.362V91.6384Z" fill="#E6E6E6"/>
<path d="M167.356 53.6772H161.177V88.5942H167.356V53.6772Z" fill="#F5F5F5"/>
<path d="M148.711 91.6384H161.177V53.6704H148.711V91.6384Z" fill="#E6E6E6"/>
<path d="M148.711 53.6772H142.532V88.5942H148.711V53.6772Z" fill="#F5F5F5"/>
<path d="M130.065 91.6384H142.532V53.6704H130.065V91.6384Z" fill="#E6E6E6"/>
<path d="M130.065 53.6772H123.886V88.5942H130.065V53.6772Z" fill="#F5F5F5"/>
<path d="M111.42 91.6384H123.886V53.6704H111.42V91.6384Z" fill="#E6E6E6"/>
<path d="M151 289.886C215.678 289.886 268.11 286.45 268.11 282.211C268.11 277.972 215.678 274.536 151 274.536C86.3221 274.536 33.8904 277.972 33.8904 282.211C33.8904 286.45 86.3221 289.886 151 289.886Z" fill="#F5F5F5"/>
<path d="M212.862 148.841L215.429 153.248L219.246 152.36L216.365 146.882L212.862 148.841Z" fill="#9F5B53"/>
<path d="M220.14 111.07C220.683 111.809 221.136 112.467 221.602 113.185C222.067 113.904 222.514 114.595 222.954 115.314C223.836 116.745 224.676 118.216 225.461 119.728C226.246 121.24 227.007 122.786 227.672 124.406C228.028 125.199 228.33 126.04 228.656 126.86C228.982 127.681 229.26 128.542 229.496 129.43L229.689 130.108L229.786 130.44C229.84 130.637 229.894 130.847 229.931 131.044C230.064 131.747 230.108 132.469 230.064 133.186C229.984 134.31 229.766 135.417 229.417 136.474C228.826 138.237 228.069 139.923 227.158 141.505C225.462 144.442 223.494 147.169 221.287 149.641L218.648 147.322C220.099 144.542 221.426 141.682 222.622 138.753C223.172 137.415 223.611 136.024 223.933 134.596C224.053 134.06 224.108 133.508 224.096 132.956C224.095 132.839 224.073 132.723 224.03 132.617L223.933 132.359L223.734 131.844C222.603 128.991 221.27 126.246 219.747 123.633C218.986 122.277 218.183 120.969 217.374 119.647C216.564 118.324 215.682 117.002 214.885 115.802L220.14 111.07Z" fill="#9F5B53"/>
<path d="M218.648 107.734C222.81 108.805 227.581 121.531 227.581 121.531L219.252 127.959C217.173 124.614 215.327 121.094 213.731 117.43C211.261 111.606 214.42 106.643 218.648 107.734Z" fill="#5E88C6"/>
<path opacity="0.8" d="M218.648 107.734C222.81 108.805 227.581 121.531 227.581 121.531L219.252 127.959C217.173 124.614 215.327 121.094 213.731 117.43C211.261 111.606 214.42 106.643 218.648 107.734Z" fill="white"/>
<path d="M215.688 115.85L219.639 127.654L219.246 127.959C219.246 127.959 217.537 125.247 215.688 121.633V115.85Z" fill="#5E88C6"/>
<path opacity="0.6" d="M215.688 115.85L219.639 127.654L219.246 127.959C219.246 127.959 217.537 125.247 215.688 121.633V115.85Z" fill="white"/>
<path d="M205.143 277.736H200.703L200.262 266.203H204.702L205.143 277.736Z" fill="#9F5B53"/>
<path d="M231.785 277.736H227.346L225.117 266.203H229.55L231.785 277.736Z" fill="#9F5B53"/>
<path d="M200.262 266.21L200.492 272.149H204.931L204.702 266.21H200.262Z" fill="#8A4743"/>
<path d="M229.556 266.21H225.117L226.265 272.149H230.704L229.556 266.21Z" fill="#8A4743"/>
<path d="M201.966 151.045C201.966 151.045 207.003 189.108 209.763 203.366C212.783 218.96 224.199 271.003 224.199 271.003H232.329C232.329 271.003 224.803 220.241 223.075 204.756C221.203 187.975 217.283 151.018 217.283 151.018L201.966 151.045Z" fill="#5E88C6"/>
<path opacity="0.5" d="M201.966 151.045C201.966 151.045 207.003 189.108 209.763 203.366C212.783 218.96 224.199 271.003 224.199 271.003H232.329C232.329 271.003 224.803 220.241 223.075 204.756C221.203 187.975 217.283 151.018 217.283 151.018L201.966 151.045Z" fill="black"/>
<path opacity="0.4" d="M205.149 164.605C210.971 165.886 210.355 190.26 209.654 202.796C207.975 193.935 205.517 176.883 203.838 164.781C204.244 164.556 204.707 164.494 205.149 164.605Z" fill="black"/>
<path d="M193.546 151.045C193.546 151.045 192.942 188.28 193.419 203.474C193.92 219.272 198.855 271.003 198.855 271.003H206.369C206.369 271.003 206.646 220.194 206.973 204.681C207.335 187.765 209.153 151.045 209.153 151.045H193.546Z" fill="#5E88C6"/>
<path opacity="0.5" d="M193.546 151.045C193.546 151.045 192.942 188.28 193.419 203.474C193.92 219.272 198.855 271.003 198.855 271.003H206.369C206.369 271.003 206.646 220.194 206.973 204.681C207.335 187.765 209.153 151.045 209.153 151.045H193.546Z" fill="black"/>
<path d="M219.608 146.258L216.365 146.882L219.246 152.36C219.246 152.36 221.505 151.14 221.916 148.773L219.608 146.258Z" fill="#9F5B53"/>
<path d="M198.173 89.2247C198.173 89.6248 197.985 89.9502 197.75 89.9502C197.514 89.9502 197.327 89.6248 197.327 89.2247C197.327 88.8247 197.514 88.4993 197.75 88.4993C197.985 88.4993 198.173 88.8179 198.173 89.2247Z" fill="#263238"/>
<path d="M198.015 89.9502C197.588 91.1781 197.013 92.3347 196.306 93.3877C196.55 93.5839 196.83 93.7177 197.125 93.7798C197.421 93.8418 197.724 93.8307 198.015 93.747V89.9502Z" fill="#892B29"/>
<path d="M199.441 87.001C199.397 87.0016 199.354 86.9848 199.32 86.9535C199.11 86.7723 198.865 86.65 198.604 86.597C198.344 86.5439 198.075 86.5615 197.822 86.6484C197.797 86.6593 197.77 86.6643 197.743 86.6634C197.715 86.6624 197.689 86.6554 197.664 86.6428C197.639 86.6302 197.617 86.6122 197.599 86.5899C197.58 86.5676 197.566 86.5414 197.556 86.5128C197.546 86.4844 197.54 86.4538 197.54 86.4229C197.54 86.392 197.545 86.3614 197.556 86.333C197.567 86.3045 197.583 86.2787 197.602 86.2572C197.622 86.2357 197.645 86.2189 197.671 86.2077C197.989 86.0925 198.327 86.0657 198.657 86.1295C198.986 86.1932 199.296 86.3457 199.562 86.5738C199.585 86.5907 199.605 86.6129 199.62 86.6388C199.635 86.6648 199.645 86.694 199.65 86.7246C199.654 86.7552 199.653 86.7865 199.646 86.8166C199.639 86.8467 199.627 86.8748 199.61 86.8993C199.592 86.9313 199.567 86.9575 199.537 86.9753C199.508 86.9932 199.475 87.002 199.441 87.001Z" fill="#263238"/>
<path d="M209.727 93.8555C209.087 97.5031 208.452 104.175 210.724 106.609C210.724 106.609 209.836 110.304 203.802 110.304C197.158 110.304 200.637 106.609 200.637 106.609C204.261 105.639 204.164 102.622 203.53 99.7948L209.727 93.8555Z" fill="#9F5B53"/>
<path d="M211.593 107.876C212.07 106.71 212.59 105.368 211.509 104.947C210.301 104.486 203.796 104.019 201.549 104.88C201.252 104.972 200.975 105.129 200.733 105.343C200.491 105.556 200.29 105.821 200.14 106.122C199.99 106.424 199.895 106.755 199.86 107.098C199.825 107.441 199.851 107.789 199.936 108.121L211.593 107.876Z" fill="#5E88C6"/>
<path d="M225.564 277.98C225.376 278.008 225.186 277.994 225.003 277.938C224.82 277.882 224.65 277.785 224.501 277.654C224.447 277.573 224.418 277.474 224.418 277.373C224.418 277.272 224.447 277.173 224.501 277.092C224.534 277.022 224.58 276.96 224.637 276.913C224.693 276.865 224.758 276.831 224.827 276.814C225.479 276.651 226.699 277.587 226.754 277.627C226.77 277.641 226.783 277.66 226.791 277.681C226.798 277.703 226.8 277.727 226.796 277.749C226.793 277.771 226.783 277.792 226.769 277.807C226.755 277.823 226.737 277.834 226.717 277.837C226.338 277.929 225.952 277.977 225.564 277.98ZM225.014 277.031H224.881C224.84 277.04 224.802 277.06 224.768 277.088C224.735 277.116 224.708 277.152 224.688 277.193C224.591 277.383 224.652 277.465 224.688 277.492C224.875 277.776 225.781 277.776 226.446 277.654C226.015 277.334 225.526 277.125 225.014 277.044V277.031Z" fill="#5E88C6"/>
<path d="M226.699 277.858H226.651C226.192 277.573 225.304 276.502 225.395 275.932C225.41 275.844 225.452 275.765 225.514 275.708C225.576 275.651 225.653 275.62 225.733 275.62C225.812 275.611 225.893 275.619 225.97 275.645C226.046 275.67 226.118 275.713 226.18 275.77C226.693 276.244 226.784 277.681 226.784 277.742C226.786 277.764 226.783 277.786 226.774 277.805C226.766 277.824 226.752 277.84 226.736 277.851C226.724 277.856 226.712 277.859 226.699 277.858ZM225.805 275.824H225.757C225.618 275.824 225.606 275.919 225.6 275.946C225.546 276.278 226.113 277.098 226.566 277.485C226.535 276.919 226.354 276.376 226.047 275.925C225.978 275.866 225.892 275.835 225.805 275.837V275.824Z" fill="#5E88C6"/>
<path d="M198.921 277.98C198.354 277.98 197.804 277.892 197.617 277.607C197.57 277.531 197.545 277.441 197.545 277.349C197.545 277.257 197.57 277.167 197.617 277.092C197.652 277.022 197.699 276.961 197.756 276.913C197.814 276.865 197.879 276.831 197.949 276.814C198.68 276.59 200.238 277.58 200.305 277.62C200.322 277.633 200.336 277.652 200.345 277.673C200.354 277.695 200.356 277.719 200.353 277.742C200.35 277.767 200.341 277.789 200.325 277.806C200.31 277.824 200.29 277.835 200.268 277.837C199.824 277.932 199.373 277.979 198.921 277.98ZM198.215 277.017C198.149 277.006 198.082 277.006 198.015 277.017C197.973 277.026 197.933 277.046 197.897 277.074C197.862 277.102 197.832 277.138 197.81 277.18C197.738 277.329 197.762 277.397 197.81 277.437C198.015 277.749 199.133 277.77 199.966 277.641C199.423 277.312 198.828 277.104 198.215 277.031V277.017Z" fill="#5E88C6"/>
<path d="M200.262 277.858H200.22C199.682 277.593 198.625 276.502 198.704 275.953C198.704 275.817 198.807 275.654 199.096 275.62C199.204 275.602 199.314 275.611 199.419 275.646C199.523 275.681 199.619 275.742 199.7 275.824C200.268 276.339 200.383 277.682 200.389 277.743C200.391 277.763 200.389 277.784 200.381 277.803C200.374 277.823 200.362 277.839 200.347 277.851C200.334 277.859 200.32 277.864 200.305 277.865C200.291 277.866 200.276 277.864 200.262 277.858ZM199.181 275.824H199.115C198.927 275.824 198.915 275.932 198.909 275.959C198.861 276.298 199.586 277.146 200.117 277.512C200.065 276.943 199.854 276.406 199.513 275.98C199.421 275.89 199.303 275.84 199.181 275.837V275.824Z" fill="#5E88C6"/>
<path d="M227.032 277.159H232.015C232.103 277.16 232.19 277.195 232.259 277.258C232.328 277.32 232.376 277.408 232.395 277.505L233.271 281.933C233.291 282.04 233.289 282.152 233.265 282.259C233.242 282.366 233.197 282.465 233.134 282.55C233.071 282.635 232.992 282.702 232.903 282.748C232.814 282.794 232.717 282.816 232.619 282.814C230.879 282.78 230.033 282.665 227.841 282.665C226.494 282.665 223.716 282.828 221.849 282.828C219.983 282.828 219.747 280.794 220.508 280.57C223.927 279.729 225.213 278.57 226.313 277.471C226.509 277.269 226.765 277.158 227.032 277.159Z" fill="#263238"/>
<path d="M200.733 277.159H205.565C205.654 277.16 205.74 277.195 205.81 277.258C205.879 277.32 205.927 277.408 205.946 277.505L206.822 281.933C206.843 282.039 206.842 282.15 206.819 282.257C206.797 282.363 206.753 282.462 206.691 282.547C206.63 282.632 206.552 282.7 206.464 282.746C206.375 282.792 206.279 282.815 206.181 282.814C204.436 282.78 201.911 282.665 199.713 282.665C197.146 282.665 194.923 282.827 191.909 282.827C190.097 282.827 189.584 280.794 190.345 280.57C193.818 279.715 196.65 279.627 199.652 277.553C199.972 277.309 200.347 277.172 200.733 277.159Z" fill="#263238"/>
<path d="M194.397 117.925C192.64 120.84 190.822 123.559 188.859 126.257C186.898 128.983 184.801 131.582 182.577 134.041L181.707 134.963L181.484 135.193L181.333 135.349L181.109 135.566C180.823 135.82 180.518 136.047 180.197 136.244C179.178 136.846 178.056 137.197 176.906 137.275C175.151 137.397 173.389 137.235 171.675 136.793C168.57 136.021 165.558 134.833 162.706 133.254L163.811 129.729C166.641 130.361 169.504 130.798 172.382 131.037C173.646 131.153 174.918 131.093 176.169 130.861C176.528 130.802 176.87 130.654 177.171 130.427V130.379L177.214 130.325L177.395 130.101L178.108 129.22C179.998 126.8 181.828 124.23 183.604 121.593C185.38 118.955 187.155 116.27 188.853 113.633L194.397 117.925Z" fill="#9F5B53"/>
<path d="M196.445 118.704C195.827 122.91 194.208 126.851 191.758 130.108C191.661 127.721 191.625 125.579 191.631 123.66L196.445 118.704Z" fill="#BED3FC"/>
<path d="M210.107 88.3703C209.842 93.3062 209.908 96.208 207.691 98.7437C204.351 102.554 198.927 100.29 197.876 95.3537C196.934 90.9196 197.532 83.5972 201.839 81.631C202.786 81.1941 203.817 81.0364 204.834 81.173C205.851 81.3095 206.819 81.7357 207.648 82.4111C208.477 83.0865 209.138 83.9886 209.568 85.0317C209.999 86.0747 210.184 87.224 210.107 88.3703Z" fill="#9F5B53"/>
<path d="M201.567 85.0889C201.603 90.8926 203.282 98.0116 208.283 97.5166C211.605 97.1912 214.13 90.3909 214.474 87.5094C215 83.1024 215.078 82.2616 212.868 81.7531C213.834 81.1633 214.185 78.3631 211.926 77.6851C208.785 76.7563 202.866 75.8477 204.726 73.6985C201.017 74.4511 200.087 76.1189 200.764 78.1462C198.595 77.9563 197.26 76.6817 197.327 74.7562C193.733 76.3902 191.402 85.6313 201.567 85.0889Z" fill="#263238"/>
<path d="M204.152 89.8079C203.907 91.0047 203.317 92.0773 202.473 92.8589C201.356 93.8759 200.462 92.9673 200.486 91.5029C200.486 90.1808 201.126 88.0586 202.382 87.6111C203.639 87.1636 204.46 88.3637 204.152 89.8079Z" fill="#9F5B53"/>
<path d="M216.232 82.7634C215.641 82.3408 214.965 82.0899 214.266 82.0331C213.567 81.9763 212.867 82.1154 212.228 82.438C212.228 82.438 214.74 78.6479 216.232 82.7634Z" fill="#263238"/>
<path d="M222.876 267.64C222.84 267.64 223.716 271.146 223.716 271.146H232.86L232.691 268.02L222.876 267.64Z" fill="#5E88C6"/>
<path d="M197.393 267.64C197.357 267.64 197.816 271.146 197.816 271.146H206.961L207.208 268.02L197.393 267.64Z" fill="#5E88C6"/>
<path d="M200.401 264.942C200.383 264.942 200.365 264.934 200.352 264.92C200.339 264.907 200.33 264.888 200.329 264.867C199 250.548 195.877 215.902 195.497 203.474C195.092 190.789 195.461 162.327 195.581 153.906C195.581 153.858 195.618 153.831 195.66 153.824C195.679 153.826 195.696 153.835 195.71 153.85C195.723 153.865 195.731 153.885 195.732 153.906C195.612 162.327 195.243 190.789 195.648 203.468C196.04 215.895 199.163 250.528 200.48 264.847C200.48 264.87 200.473 264.892 200.459 264.91C200.446 264.927 200.428 264.939 200.407 264.942H200.401Z" fill="#5E88C6"/>
<path opacity="0.3" d="M200.401 264.942C200.383 264.942 200.365 264.934 200.352 264.92C200.339 264.907 200.33 264.888 200.329 264.867C199 250.548 195.877 215.902 195.497 203.474C195.092 190.789 195.461 162.327 195.581 153.906C195.581 153.858 195.618 153.831 195.66 153.824C195.679 153.826 195.696 153.835 195.71 153.85C195.723 153.865 195.731 153.885 195.732 153.906C195.612 162.327 195.243 190.789 195.648 203.468C196.04 215.895 199.163 250.528 200.48 264.847C200.48 264.87 200.473 264.892 200.459 264.91C200.446 264.927 200.428 264.939 200.407 264.942H200.401Z" fill="black"/>
<path d="M198.493 112.026C199.097 116.772 190.798 128.793 190.798 128.793L182.48 122.365C182.48 122.365 184.788 115.728 188.671 111.375C193.105 106.446 197.852 106.893 198.493 112.026Z" fill="#5E88C6"/>
<path opacity="0.8" d="M198.493 112.026C199.097 116.772 190.798 128.793 190.798 128.793L182.48 122.365C182.48 122.365 184.788 115.728 188.671 111.375C193.105 106.446 197.852 106.893 198.493 112.026Z" fill="white"/>
<path d="M193.812 107.992C193.812 107.992 189.088 113.978 193.546 151.045H217.283C217.446 146.977 215.157 127.003 218.666 107.734C216.043 107.167 213.39 106.791 210.724 106.609C207.364 106.392 203.996 106.392 200.637 106.609C198.333 106.869 196.051 107.332 193.812 107.992Z" fill="#5E88C6"/>
<path opacity="0.8" d="M193.812 107.992C193.812 107.992 189.088 113.978 193.546 151.045H217.283C217.446 146.977 215.157 127.003 218.666 107.734C216.043 107.167 213.39 106.791 210.724 106.609C207.364 106.392 203.996 106.392 200.637 106.609C198.333 106.869 196.051 107.332 193.812 107.992Z" fill="white"/>
<path d="M123.976 80.7801C125.872 71.4064 120.639 62.0826 112.289 59.9547C103.938 57.8268 95.632 63.7006 93.7364 73.0742C91.8407 82.4478 97.0734 91.7716 105.424 93.8996C113.774 96.0275 122.081 90.1537 123.976 80.7801Z" fill="#5E88C6"/>
<path opacity="0.2" d="M123.976 80.7801C125.872 71.4064 120.639 62.0826 112.289 59.9547C103.938 57.8268 95.632 63.7006 93.7364 73.0742C91.8407 82.4478 97.0734 91.7716 105.424 93.8996C113.774 96.0275 122.081 90.1537 123.976 80.7801Z" fill="white"/>
<path d="M107.264 99.4964C103.254 99.1487 99.4291 97.4568 96.2855 94.6401C93.1419 91.8234 90.8244 88.0117 89.6335 83.699L90.2074 83.4956C91.3633 87.679 93.612 91.3763 96.6618 94.1083C99.7117 96.8404 103.422 98.4813 107.313 98.8184L107.264 99.4964Z" fill="#5E88C6"/>
<path opacity="0.2" d="M107.264 99.4964C103.254 99.1487 99.4291 97.4568 96.2855 94.6401C93.1419 91.8234 90.8244 88.0117 89.6335 83.699L90.2074 83.4956C91.3633 87.679 93.612 91.3763 96.6618 94.1083C99.7117 96.8404 103.422 98.4813 107.313 98.8184L107.264 99.4964Z" fill="white"/>
<path d="M90.1228 70.6611L89.5188 70.4713C90.2974 67.5511 91.5934 64.8375 93.3293 62.4933C95.0651 60.1492 97.2049 58.2228 99.6202 56.8298C102.036 55.4368 104.677 54.6059 107.385 54.3869C110.094 54.1678 112.814 54.5653 115.382 55.5553L115.189 56.1994C112.696 55.24 110.056 54.8558 107.427 55.0697C104.799 55.2837 102.236 56.0914 99.8919 57.4445C97.5482 58.7976 95.4722 60.6681 93.7883 62.9439C92.1044 65.2197 90.8474 67.8538 90.0926 70.6883L90.1228 70.6611Z" fill="#5E88C6"/>
<path opacity="0.2" d="M90.1228 70.6611L89.5188 70.4713C90.2974 67.5511 91.5934 64.8375 93.3293 62.4933C95.0651 60.1492 97.2049 58.2228 99.6202 56.8298C102.036 55.4368 104.677 54.6059 107.385 54.3869C110.094 54.1678 112.814 54.5653 115.382 55.5553L115.189 56.1994C112.696 55.24 110.056 54.8558 107.427 55.0697C104.799 55.2837 102.236 56.0914 99.8919 57.4445C97.5482 58.7976 95.4722 60.6681 93.7883 62.9439C92.1044 65.2197 90.8474 67.8538 90.0926 70.6883L90.1228 70.6611Z" fill="white"/>
<path d="M127.529 70.3695C126.116 65.3004 123.111 60.98 119.073 58.213L119.387 57.6299C123.546 60.4874 126.641 64.9417 128.096 70.1661L127.529 70.3695Z" fill="#5E88C6"/>
<path opacity="0.2" d="M127.529 70.3695C126.116 65.3004 123.111 60.98 119.073 58.213L119.387 57.6299C123.546 60.4874 126.641 64.9417 128.096 70.1661L127.529 70.3695Z" fill="white"/>
<path d="M123.983 128.823C125.879 119.449 120.646 110.125 112.296 107.997C103.945 105.869 95.6389 111.743 93.7432 121.117C91.8475 130.49 97.0802 139.814 105.431 141.942C113.781 144.07 122.087 138.196 123.983 128.823Z" fill="#5E88C6"/>
<path opacity="0.6" d="M123.983 128.823C125.879 119.449 120.646 110.125 112.296 107.997C103.945 105.869 95.6389 111.743 93.7432 121.117C91.8475 130.49 97.0802 139.814 105.431 141.942C113.781 144.07 122.087 138.196 123.983 128.823Z" fill="white"/>
<path d="M123.978 176.864C125.874 167.49 120.641 158.166 112.291 156.038C103.94 153.91 95.634 159.784 93.7383 169.158C91.8426 178.531 97.0754 187.855 105.426 189.983C113.776 192.111 122.083 186.237 123.978 176.864Z" fill="#5E88C6"/>
<path opacity="0.6" d="M123.978 176.864C125.874 167.49 120.641 158.166 112.291 156.038C103.94 153.91 95.634 159.784 93.7383 169.158C91.8426 178.531 97.0754 187.855 105.426 189.983C113.776 192.111 122.083 186.237 123.978 176.864Z" fill="white"/>
<path d="M123.979 224.913C125.875 215.539 120.642 206.215 112.292 204.087C103.941 201.959 95.6349 207.833 93.7393 217.207C91.8436 226.58 97.0763 235.904 105.427 238.032C113.777 240.16 122.084 234.286 123.979 224.913Z" fill="#5E88C6"/>
<path opacity="0.6" d="M123.979 224.913C125.875 215.539 120.642 206.215 112.292 204.087C103.941 201.959 95.6349 207.833 93.7393 217.207C91.8436 226.58 97.0763 235.904 105.427 238.032C113.777 240.16 122.084 234.286 123.979 224.913Z" fill="white"/>
<path d="M81.1787 80.7744C83.0744 71.4008 77.8417 62.077 69.4911 59.9491C61.1406 57.8212 52.8344 63.695 50.9387 73.0686C49.0431 82.4422 54.2758 91.766 62.6263 93.8939C70.9769 96.0219 79.283 90.1481 81.1787 80.7744Z" fill="#5E88C6"/>
<path opacity="0.6" d="M81.1787 80.7744C83.0744 71.4008 77.8417 62.077 69.4911 59.9491C61.1406 57.8212 52.8344 63.695 50.9387 73.0686C49.0431 82.4422 54.2758 91.766 62.6263 93.8939C70.9769 96.0219 79.283 90.1481 81.1787 80.7744Z" fill="white"/>
<path d="M81.1858 128.824C83.0814 119.45 77.8487 110.126 69.4982 107.998C61.1477 105.87 52.8415 111.744 50.9458 121.118C49.0502 130.492 54.2829 139.815 62.6334 141.943C70.9839 144.071 79.2901 138.197 81.1858 128.824Z" fill="#5E88C6"/>
<path opacity="0.6" d="M81.1858 128.824C83.0814 119.45 77.8487 110.126 69.4982 107.998C61.1477 105.87 52.8415 111.744 50.9458 121.118C49.0502 130.492 54.2829 139.815 62.6334 141.943C70.9839 144.071 79.2901 138.197 81.1858 128.824Z" fill="white"/>
<path d="M81.1807 176.865C83.0763 167.491 77.8436 158.167 69.4931 156.039C61.1425 153.912 52.8364 159.785 50.9407 169.159C49.045 178.533 54.2777 187.856 62.6283 189.984C70.9788 192.112 79.285 186.238 81.1807 176.865Z" fill="#5E88C6"/>
<path opacity="0.6" d="M81.1807 176.865C83.0763 167.491 77.8436 158.167 69.4931 156.039C61.1425 153.912 52.8364 159.785 50.9407 169.159C49.045 178.533 54.2777 187.856 62.6283 189.984C70.9788 192.112 79.285 186.238 81.1807 176.865Z" fill="white"/>
<path d="M81.1816 224.907C83.0773 215.534 77.8446 206.21 69.4941 204.082C61.1435 201.954 52.8373 207.828 50.9417 217.201C49.046 226.575 54.2787 235.899 62.6293 238.027C70.9798 240.155 79.286 234.281 81.1816 224.907Z" fill="#5E88C6"/>
<path opacity="0.6" d="M81.1816 224.907C83.0773 215.534 77.8446 206.21 69.4941 204.082C61.1435 201.954 52.8373 207.828 50.9417 217.201C49.046 226.575 54.2787 235.899 62.6293 238.027C70.9798 240.155 79.286 234.281 81.1816 224.907Z" fill="white"/>
<path d="M164.409 130.095L161.153 126.311L157.68 131.342C157.68 131.342 160.326 134.203 163.473 133.376L164.409 130.095Z" fill="#9F5B53"/>
<path d="M156.677 124.237L155.192 129.511L157.68 131.342L161.153 126.311L156.677 124.237Z" fill="#9F5B53"/>
<path d="M112.344 124.521C112.613 123.623 113.052 122.802 113.632 122.112C114.211 121.423 114.916 120.883 115.699 120.528C116.481 120.174 117.323 120.014 118.166 120.06C119.009 120.105 119.834 120.355 120.582 120.792L116.958 118.677C115.617 117.916 114.58 116.616 114.054 115.035C113.528 113.455 113.551 111.71 114.12 110.148C114.441 109.324 114.91 108.584 115.497 107.972C116.084 107.36 116.776 106.889 117.531 106.589C118.286 106.289 119.088 106.166 119.887 106.228C120.686 106.29 121.466 106.535 122.177 106.948L118.553 104.839C117.21 104.078 116.172 102.777 115.646 101.195C115.12 99.6125 115.144 97.8658 115.714 96.3031C116.035 95.4724 116.506 94.7251 117.096 94.1082C117.687 93.4913 118.384 93.0181 119.145 92.7182C119.907 92.4183 120.715 92.2983 121.519 92.3657C122.324 92.4331 123.107 92.6864 123.82 93.1097L106.612 83.0075C105.346 82.2971 104.347 81.1039 103.793 79.6415C103.24 78.1792 103.168 76.5434 103.592 75.0274C103.863 74.13 104.303 73.3088 104.883 72.6202C105.463 71.9316 106.168 71.3917 106.951 71.0376C107.734 70.6834 108.576 70.5234 109.419 70.5684C110.263 70.6134 111.087 70.8625 111.837 71.2984L148.077 92.5673L144.356 75.4274C143.989 73.7055 144.219 71.8916 144.997 70.352C145.776 68.8124 147.046 67.6617 148.551 67.1325C150.056 66.6032 151.684 66.7346 153.106 67.5003C154.528 68.266 155.638 69.6089 156.212 71.2577L168.099 105.917C169.117 108.879 171.06 111.325 173.565 112.799L175.637 114.012C175.955 114.198 176.236 114.453 176.466 114.761C176.696 115.069 176.869 115.426 176.975 115.809C177.082 116.193 177.12 116.596 177.087 116.997C177.055 117.397 176.952 117.786 176.785 118.141L162.289 149.228C161.953 149.946 161.377 150.486 160.688 150.729C159.998 150.971 159.251 150.897 158.61 150.523L153.525 147.54C151.598 146.43 149.44 145.928 147.279 146.089C142.056 146.416 136.851 145.151 132.216 142.427L115.304 132.501C114.048 131.78 113.062 130.582 112.52 129.121C111.978 127.659 111.916 126.03 112.344 124.521Z" fill="#5E88C6"/>
<path d="M159.903 151.872C159.318 151.873 158.742 151.714 158.224 151.411L153.138 148.428C151.356 147.404 149.362 146.935 147.364 147.072C141.977 147.411 136.61 146.108 131.829 143.302L114.917 133.376C113.468 132.544 112.329 131.162 111.702 129.477C111.075 127.791 111.001 125.91 111.492 124.169C111.803 123.13 112.311 122.179 112.981 121.383C113.652 120.587 114.469 119.964 115.376 119.558C115.622 119.444 115.874 119.349 116.131 119.274C114.719 118.324 113.658 116.836 113.141 115.081C112.625 113.326 112.687 111.422 113.316 109.714C113.681 108.757 114.221 107.896 114.9 107.188C115.58 106.479 116.384 105.937 117.26 105.598C117.424 105.537 117.587 105.476 117.75 105.429C116.337 104.48 115.275 102.992 114.758 101.237C114.241 99.4817 114.304 97.5766 114.935 95.8691C115.301 94.9134 115.841 94.0541 116.52 93.3465C117.199 92.639 118.003 92.0987 118.879 91.7605C119.03 91.6994 119.187 91.6452 119.338 91.5978L106.195 83.8821C104.746 83.05 103.607 81.6684 102.98 79.9827C102.353 78.297 102.279 76.4163 102.771 74.6749C103.083 73.6388 103.592 72.6907 104.261 71.8957C104.931 71.1007 105.745 70.4774 106.649 70.0685C107.553 69.6597 108.525 69.4749 109.499 69.5269C110.472 69.5788 111.424 69.8663 112.29 70.3696L146.772 90.6282L143.516 75.6647C143.099 73.6927 143.364 71.6161 144.257 69.8548C145.151 68.0935 146.607 66.7786 148.331 66.176C150.056 65.5733 151.919 65.7278 153.546 66.6082C155.172 67.4885 156.441 69.0292 157.094 70.9187L168.981 105.578C169.92 108.311 171.713 110.566 174.024 111.924L176.09 113.138C176.513 113.385 176.888 113.724 177.194 114.134C177.5 114.545 177.731 115.019 177.874 115.53C178.016 116.04 178.068 116.578 178.025 117.111C177.982 117.644 177.846 118.162 177.624 118.636L163.128 149.729C162.816 150.383 162.35 150.927 161.781 151.305C161.213 151.683 160.563 151.879 159.903 151.872ZM148.046 145.031C150.109 145.018 152.144 145.565 153.978 146.624L159.063 149.607C159.275 149.733 159.507 149.811 159.745 149.836C159.983 149.861 160.224 149.832 160.452 149.752C160.681 149.672 160.893 149.542 161.077 149.37C161.26 149.197 161.411 148.985 161.522 148.746L176.018 117.653C176.129 117.416 176.197 117.156 176.218 116.889C176.239 116.621 176.213 116.352 176.141 116.096C176.069 115.84 175.953 115.603 175.799 115.398C175.645 115.193 175.457 115.024 175.244 114.901L173.179 113.687C170.485 112.102 168.399 109.47 167.308 106.283L155.415 71.6239C154.938 70.1964 153.991 69.0284 152.771 68.3596C151.55 67.6908 150.148 67.5719 148.851 68.0275C147.555 68.483 146.463 69.4783 145.8 70.8091C145.137 72.1399 144.953 73.7051 145.286 75.1834L149.019 92.33C149.06 92.5191 149.052 92.7177 148.995 92.9017C148.938 93.0858 148.835 93.2475 148.699 93.3673C148.562 93.4897 148.397 93.5646 148.223 93.5826C148.049 93.6007 147.874 93.5612 147.72 93.469L111.48 72.2002C110.849 71.8316 110.153 71.6207 109.442 71.5821C108.731 71.5435 108.021 71.678 107.361 71.9764C106.692 72.2689 106.09 72.7249 105.598 73.3112C105.106 73.8976 104.736 74.5997 104.516 75.3664C104.155 76.6523 104.214 78.0402 104.681 79.2822C105.147 80.5243 105.993 81.5395 107.065 82.1464L124.279 92.2486C124.492 92.3736 124.652 92.5885 124.724 92.8459C124.796 93.1034 124.774 93.3824 124.663 93.6216C124.607 93.74 124.532 93.8451 124.441 93.9308C124.349 94.0165 124.244 94.0812 124.13 94.1212C123.901 94.2019 123.652 94.1771 123.439 94.0521C122.839 93.702 122.18 93.4943 121.505 93.4418C120.829 93.3894 120.152 93.4932 119.513 93.747C118.873 93.9948 118.285 94.3899 117.788 94.9071C117.291 95.4242 116.895 96.0521 116.626 96.7505C116.146 98.0755 116.127 99.5552 116.575 100.895C117.023 102.234 117.904 103.335 119.042 103.978L122.666 106.093C122.861 106.229 123.003 106.442 123.063 106.69C123.124 106.938 123.098 107.203 122.992 107.431C122.885 107.658 122.706 107.832 122.49 107.918C122.274 108.003 122.037 107.993 121.827 107.89C121.227 107.541 120.569 107.334 119.895 107.282C119.221 107.229 118.544 107.333 117.907 107.585C117.266 107.834 116.678 108.231 116.181 108.749C115.684 109.267 115.288 109.896 115.02 110.595C114.541 111.919 114.523 113.398 114.971 114.736C115.419 116.073 116.298 117.173 117.436 117.816L121.06 119.931C121.273 120.056 121.433 120.271 121.505 120.529C121.577 120.786 121.555 121.065 121.443 121.304C121.332 121.543 121.14 121.723 120.911 121.804C120.682 121.885 120.433 121.86 120.22 121.735C119.588 121.369 118.892 121.16 118.181 121.123C117.471 121.085 116.761 121.22 116.101 121.518C115.435 121.814 114.835 122.271 114.344 122.857C113.853 123.443 113.484 124.143 113.262 124.908C112.9 126.194 112.958 127.582 113.425 128.825C113.892 130.067 114.738 131.082 115.811 131.688L132.723 141.614C137.204 144.214 142.225 145.415 147.261 145.092C147.527 145.092 147.787 145.044 148.046 145.044V145.031Z" fill="#5E88C6"/>
<path d="M125.106 124.46C124.959 124.462 124.814 124.422 124.684 124.345L120.196 121.694C120.09 121.632 119.997 121.548 119.92 121.445C119.844 121.343 119.786 121.224 119.751 121.097C119.715 120.969 119.702 120.835 119.713 120.702C119.723 120.569 119.757 120.44 119.812 120.321C119.867 120.203 119.943 120.098 120.034 120.012C120.125 119.926 120.231 119.861 120.344 119.822C120.458 119.782 120.577 119.767 120.696 119.779C120.815 119.791 120.93 119.829 121.035 119.891L125.547 122.542C125.727 122.647 125.87 122.816 125.954 123.024C126.037 123.231 126.057 123.463 126.009 123.684C125.961 123.905 125.848 124.102 125.689 124.242C125.53 124.383 125.333 124.46 125.131 124.46H125.106Z" fill="#5E88C6"/>
<path d="M126.725 110.616C126.578 110.618 126.432 110.578 126.302 110.5L121.791 107.849C121.677 107.793 121.574 107.712 121.489 107.609C121.405 107.507 121.34 107.386 121.299 107.254C121.257 107.123 121.241 106.983 121.25 106.844C121.259 106.704 121.293 106.569 121.351 106.445C121.409 106.321 121.489 106.212 121.586 106.125C121.683 106.037 121.794 105.973 121.914 105.936C122.034 105.9 122.16 105.891 122.283 105.911C122.406 105.931 122.524 105.979 122.63 106.053L127.142 108.697C127.322 108.802 127.465 108.972 127.548 109.179C127.632 109.386 127.651 109.619 127.603 109.839C127.555 110.06 127.443 110.257 127.284 110.398C127.124 110.538 126.928 110.615 126.725 110.616Z" fill="#5E88C6"/>
<path d="M128.338 96.7777C128.193 96.7758 128.05 96.7363 127.921 96.6624L123.409 94.0115C123.304 93.9496 123.21 93.865 123.134 93.7625C123.057 93.66 123 93.5416 122.964 93.4141C122.929 93.2867 122.916 93.1525 122.926 93.0195C122.937 92.8864 122.971 92.7569 123.026 92.6385C123.081 92.5201 123.156 92.415 123.247 92.3293C123.339 92.2436 123.444 92.1789 123.558 92.1389C123.671 92.0989 123.791 92.0844 123.909 92.0963C124.028 92.1082 124.143 92.1461 124.249 92.208L128.761 94.859C128.941 94.9644 129.084 95.1347 129.168 95.3425C129.251 95.5503 129.27 95.7836 129.221 96.0049C129.172 96.2262 129.059 96.4227 128.899 96.5629C128.738 96.703 128.541 96.7787 128.338 96.7777Z" fill="#5E88C6"/>
<path opacity="0.3" d="M159.903 151.872C159.318 151.873 158.742 151.714 158.224 151.411L153.138 148.428C151.356 147.404 149.362 146.935 147.364 147.072C141.977 147.411 136.61 146.108 131.829 143.302L114.917 133.376C113.468 132.544 112.329 131.162 111.702 129.477C111.075 127.791 111.001 125.91 111.492 124.169C111.803 123.13 112.311 122.179 112.981 121.383C113.652 120.587 114.469 119.964 115.376 119.558C115.622 119.444 115.874 119.349 116.131 119.274C114.719 118.324 113.658 116.836 113.141 115.081C112.625 113.326 112.687 111.422 113.316 109.714C113.681 108.757 114.221 107.896 114.9 107.188C115.58 106.479 116.384 105.937 117.26 105.598C117.424 105.537 117.587 105.476 117.75 105.429C116.337 104.48 115.275 102.992 114.758 101.237C114.241 99.4817 114.304 97.5766 114.935 95.8691C115.301 94.9134 115.841 94.0541 116.52 93.3465C117.199 92.639 118.003 92.0987 118.879 91.7605C119.03 91.6994 119.187 91.6452 119.338 91.5978L106.195 83.8821C104.746 83.05 103.607 81.6684 102.98 79.9827C102.353 78.297 102.279 76.4163 102.771 74.6749C103.083 73.6388 103.592 72.6907 104.261 71.8957C104.931 71.1007 105.745 70.4774 106.649 70.0685C107.553 69.6597 108.525 69.4749 109.499 69.5269C110.472 69.5788 111.424 69.8663 112.29 70.3696L146.772 90.6282L143.516 75.6647C143.099 73.6927 143.364 71.6161 144.257 69.8548C145.151 68.0935 146.607 66.7786 148.331 66.176C150.056 65.5733 151.919 65.7278 153.546 66.6082C155.172 67.4885 156.441 69.0292 157.094 70.9187L168.981 105.578C169.92 108.311 171.713 110.566 174.024 111.924L176.09 113.138C176.513 113.385 176.888 113.724 177.194 114.134C177.5 114.545 177.731 115.019 177.874 115.53C178.016 116.04 178.068 116.578 178.025 117.111C177.982 117.644 177.846 118.162 177.624 118.636L163.128 149.729C162.816 150.383 162.35 150.927 161.781 151.305C161.213 151.683 160.563 151.879 159.903 151.872ZM148.046 145.031C150.109 145.018 152.144 145.565 153.978 146.624L159.063 149.607C159.275 149.733 159.507 149.811 159.745 149.836C159.983 149.861 160.224 149.832 160.452 149.752C160.681 149.672 160.893 149.542 161.077 149.37C161.26 149.197 161.411 148.985 161.522 148.746L176.018 117.653C176.129 117.416 176.197 117.156 176.218 116.889C176.239 116.621 176.213 116.352 176.141 116.096C176.069 115.84 175.953 115.603 175.799 115.398C175.645 115.193 175.457 115.024 175.244 114.901L173.179 113.687C170.485 112.102 168.399 109.47 167.308 106.283L155.415 71.6239C154.938 70.1964 153.991 69.0284 152.771 68.3596C151.55 67.6908 150.148 67.5719 148.851 68.0275C147.555 68.483 146.463 69.4783 145.8 70.8091C145.137 72.1399 144.953 73.7051 145.286 75.1834L149.019 92.33C149.06 92.5191 149.052 92.7177 148.995 92.9017C148.938 93.0858 148.835 93.2475 148.699 93.3673C148.562 93.4897 148.397 93.5646 148.223 93.5826C148.049 93.6007 147.874 93.5612 147.72 93.469L111.48 72.2002C110.849 71.8316 110.153 71.6207 109.442 71.5821C108.731 71.5435 108.021 71.678 107.361 71.9764C106.692 72.2689 106.09 72.7249 105.598 73.3112C105.106 73.8976 104.736 74.5997 104.516 75.3664C104.155 76.6523 104.214 78.0402 104.681 79.2822C105.147 80.5243 105.993 81.5395 107.065 82.1464L124.279 92.2486C124.492 92.3736 124.652 92.5885 124.724 92.8459C124.796 93.1034 124.774 93.3824 124.663 93.6216C124.607 93.74 124.532 93.8451 124.441 93.9308C124.349 94.0165 124.244 94.0812 124.13 94.1212C123.901 94.2019 123.652 94.1771 123.439 94.0521C122.839 93.702 122.18 93.4943 121.505 93.4418C120.829 93.3894 120.152 93.4932 119.513 93.747C118.873 93.9948 118.285 94.3899 117.788 94.9071C117.291 95.4242 116.895 96.0521 116.626 96.7505C116.146 98.0755 116.127 99.5552 116.575 100.895C117.023 102.234 117.904 103.335 119.042 103.978L122.666 106.093C122.861 106.229 123.003 106.442 123.063 106.69C123.124 106.938 123.098 107.203 122.992 107.431C122.885 107.658 122.706 107.832 122.49 107.918C122.274 108.003 122.037 107.993 121.827 107.89C121.227 107.541 120.569 107.334 119.895 107.282C119.221 107.229 118.544 107.333 117.907 107.585C117.266 107.834 116.678 108.231 116.181 108.749C115.684 109.267 115.288 109.896 115.02 110.595C114.541 111.919 114.523 113.398 114.971 114.736C115.419 116.073 116.298 117.173 117.436 117.816L121.06 119.931C121.273 120.056 121.433 120.271 121.505 120.529C121.577 120.786 121.555 121.065 121.443 121.304C121.332 121.543 121.14 121.723 120.911 121.804C120.682 121.885 120.433 121.86 120.22 121.735C119.588 121.369 118.892 121.16 118.181 121.123C117.471 121.085 116.761 121.22 116.101 121.518C115.435 121.814 114.835 122.271 114.344 122.857C113.853 123.443 113.484 124.143 113.262 124.908C112.9 126.194 112.958 127.582 113.425 128.825C113.892 130.067 114.738 131.082 115.811 131.688L132.723 141.614C137.204 144.214 142.225 145.415 147.261 145.092C147.527 145.092 147.787 145.044 148.046 145.044V145.031Z" fill="black"/>
</g>
<defs>
<clipPath id="clip0_56_1361">
<rect width="302" height="339" fill="white"/>
</clipPath>
</defs>
</svg>
