<svg width="400" height="400" viewBox="0 0 400 400" fill="none" xmlns="http://www.w3.org/2000/svg">
<g clip-path="url(#clip0_66_1713)">
<rect width="400" height="400" fill="white"/>
<path d="M400 305.92H0V306.12H400V305.92Z" fill="#EBEBEB"/>
<path d="M189.6 270.24H35.128C33.9179 270.238 32.758 269.756 31.9031 268.899C31.0482 268.043 30.568 266.882 30.568 265.672V48.528C30.5785 47.3248 31.0633 46.1744 31.9171 45.3266C32.7709 44.4788 33.9248 44.0021 35.128 44H189.6C190.811 44 191.973 44.4813 192.83 45.3379C193.687 46.1946 194.168 47.3565 194.168 48.568V265.672C194.168 266.884 193.687 268.045 192.83 268.902C191.973 269.759 190.811 270.24 189.6 270.24ZM35.128 44.16C33.9709 44.1621 32.862 44.6233 32.0445 45.4422C31.2271 46.2611 30.768 47.3709 30.768 48.528V265.672C30.768 266.829 31.2271 267.939 32.0445 268.758C32.862 269.577 33.9709 270.038 35.128 270.04H189.6C190.758 270.038 191.868 269.577 192.686 268.758C193.505 267.94 193.966 266.83 193.968 265.672V48.528C193.966 47.3702 193.505 46.2604 192.686 45.4417C191.868 44.623 190.758 44.1621 189.6 44.16H35.128Z" fill="#EBEBEB"/>
<path d="M362.648 270.24H208.168C206.957 270.238 205.797 269.756 204.94 268.9C204.084 268.044 203.602 266.883 203.6 265.672V48.528C203.613 47.3241 204.099 46.1737 204.954 45.3261C205.809 44.4785 206.964 44.002 208.168 44H362.648C363.85 44.0042 365.002 44.4818 365.854 45.3294C366.706 46.177 367.19 47.3262 367.2 48.528V265.672C367.2 266.881 366.721 268.04 365.868 268.896C365.015 269.753 363.857 270.236 362.648 270.24ZM208.168 44.16C207.01 44.1621 205.9 44.623 205.082 45.4417C204.263 46.2604 203.802 47.3702 203.8 48.528V265.672C203.802 266.83 204.263 267.94 205.082 268.758C205.9 269.577 207.01 270.038 208.168 270.04H362.648C363.806 270.038 364.916 269.577 365.734 268.758C366.553 267.94 367.014 266.83 367.016 265.672V48.528C367.014 47.3702 366.553 46.2604 365.734 45.4417C364.916 44.623 363.806 44.1621 362.648 44.16H208.168Z" fill="#EBEBEB"/>
<path d="M359.92 313.536H334.664V313.736H359.92V313.536Z" fill="#EBEBEB"/>
<path d="M268.272 311.368H241.544V311.568H268.272V311.368Z" fill="#EBEBEB"/>
<path d="M367.216 320.968H317.272V321.168H367.216V320.968Z" fill="#EBEBEB"/>
<path d="M57.352 319.624H41.968V319.824H57.352V319.624Z" fill="#EBEBEB"/>
<path d="M88.712 319.624H64.48V319.824H88.712V319.624Z" fill="#EBEBEB"/>
<path d="M195.312 316.248H151.664V316.448H195.312V316.248Z" fill="#EBEBEB"/>
<path d="M217.808 94.5039L172.224 140.096V291.928H332.216V94.5039H217.808Z" fill="white"/>
<path d="M332.216 292.36H172.216C172.101 292.36 171.991 292.314 171.91 292.233C171.829 292.152 171.784 292.043 171.784 291.928V140.096C171.784 140.039 171.795 139.983 171.817 139.931C171.839 139.879 171.871 139.832 171.912 139.792L217.512 94.192C217.594 94.1129 217.702 94.0672 217.816 94.064H332.216C332.273 94.064 332.329 94.0751 332.381 94.0968C332.434 94.1186 332.481 94.1504 332.521 94.1905C332.562 94.2306 332.593 94.2782 332.615 94.3306C332.637 94.3831 332.648 94.4392 332.648 94.496V291.928C332.648 291.985 332.637 292.041 332.615 292.093C332.593 292.146 332.562 292.193 332.521 292.233C332.481 292.274 332.434 292.305 332.381 292.327C332.329 292.349 332.273 292.36 332.216 292.36ZM172.656 291.504H331.784V94.936H217.992L172.656 140.272V291.504Z" fill="#E0E0E0"/>
<path d="M172.224 140.096L220.056 146.264L217.808 94.5039L172.224 140.096Z" fill="#E6E6E6"/>
<path d="M172.224 140.096H217.808V94.5039L172.224 140.096Z" fill="white"/>
<path d="M217.808 140.52H172.208C172.123 140.52 172.039 140.496 171.968 140.449C171.897 140.402 171.841 140.335 171.808 140.256C171.775 140.178 171.766 140.092 171.784 140.009C171.801 139.926 171.843 139.85 171.904 139.792L217.504 94.192C217.565 94.1327 217.642 94.0922 217.726 94.0751C217.81 94.0581 217.896 94.0654 217.976 94.096C218.054 94.13 218.12 94.1859 218.167 94.2569C218.214 94.3279 218.239 94.4109 218.24 94.496V140.096C218.238 140.209 218.192 140.317 218.111 140.396C218.03 140.476 217.921 140.52 217.808 140.52ZM173.264 139.664H217.384V95.544L173.264 139.664Z" fill="#E0E0E0"/>
<path d="M261.472 205.752L288.672 178.552C289.28 177.944 289.762 177.223 290.091 176.429C290.42 175.634 290.589 174.783 290.589 173.924C290.589 173.064 290.42 172.213 290.091 171.419C289.762 170.625 289.28 169.904 288.672 169.296C288.064 168.688 287.343 168.206 286.549 167.877C285.755 167.548 284.903 167.379 284.044 167.379C283.184 167.379 282.333 167.548 281.539 167.877C280.745 168.206 280.024 168.688 279.416 169.296L252.216 196.496L225.016 169.296C223.789 168.068 222.124 167.379 220.388 167.379C218.652 167.379 216.987 168.068 215.76 169.296C214.533 170.523 213.843 172.188 213.843 173.924C213.843 175.66 214.533 177.324 215.76 178.552L242.96 205.752L215.76 232.952C214.533 234.179 213.843 235.844 213.843 237.58C213.843 239.316 214.533 240.98 215.76 242.208C216.987 243.435 218.652 244.125 220.388 244.125C222.124 244.125 223.789 243.435 225.016 242.208L252.216 215.008L279.416 242.208C280.643 243.435 282.308 244.125 284.044 244.125C285.78 244.125 287.445 243.435 288.672 242.208C289.899 240.98 290.589 239.316 290.589 237.58C290.589 235.844 289.899 234.179 288.672 232.952L261.472 205.752Z" fill="#F0F0F0"/>
<path d="M178.4 183.2C176.865 184.733 174.785 185.594 172.616 185.594C170.447 185.594 168.367 184.733 166.832 183.2L140.584 156.944L152.152 145.376L178.4 171.664C179.923 173.197 180.778 175.271 180.778 177.432C180.778 179.593 179.923 181.667 178.4 183.2Z" fill="#F0F0F0"/>
<path d="M140.58 156.995L152.148 145.427L153.217 146.496C154.326 147.604 154.949 149.108 154.949 150.676C154.949 152.244 154.326 153.748 153.217 154.857L150.01 158.064C148.901 159.173 147.398 159.796 145.83 159.796C144.262 159.796 142.758 159.173 141.649 158.064L140.58 156.995Z" fill="#E0E0E0"/>
<path d="M67.768 72.5681C59.8301 80.514 54.4262 90.6349 52.2392 101.651C50.0522 112.668 51.1804 124.086 55.4812 134.461C59.7819 144.837 67.0621 153.704 76.4016 159.943C85.7411 166.182 96.7205 169.511 107.952 169.511C119.184 169.511 130.163 166.182 139.502 159.943C148.842 153.704 156.122 144.837 160.423 134.461C164.724 124.086 165.852 112.668 163.665 101.651C161.478 90.6349 156.074 80.514 148.136 72.5681C142.861 67.2876 136.597 63.0986 129.702 60.2405C122.807 57.3825 115.416 55.9114 107.952 55.9114C100.488 55.9114 93.0973 57.3825 86.2023 60.2405C79.3073 63.0986 73.0431 67.2876 67.768 72.5681ZM144.856 149.656C137.558 156.954 128.26 161.924 118.137 163.937C108.014 165.951 97.5218 164.917 87.9865 160.968C78.4512 157.018 70.3012 150.329 64.5672 141.748C58.8332 133.166 55.7727 123.077 55.7727 112.756C55.7727 102.435 58.8332 92.3459 64.5672 83.7643C70.3012 75.1827 78.4512 68.4941 87.9865 64.5444C97.5218 60.5947 108.014 59.5612 118.137 61.5747C128.26 63.5881 137.558 68.5581 144.856 75.8561C149.702 80.7018 153.546 86.4546 156.168 92.7859C158.791 99.1172 160.141 105.903 160.141 112.756C160.141 119.609 158.791 126.395 156.168 132.726C153.546 139.058 149.702 144.81 144.856 149.656Z" fill="#E0E0E0"/>
<path d="M137.808 144.52C137.432 144.519 137.065 144.407 136.753 144.198C136.44 143.988 136.197 143.691 136.053 143.344C135.91 142.997 135.872 142.615 135.945 142.246C136.018 141.877 136.199 141.538 136.464 141.272C144.013 133.702 148.252 123.447 148.252 112.756C148.252 102.065 144.013 91.8102 136.464 84.24C136.27 84.0677 136.113 83.8575 136.004 83.6224C135.894 83.3873 135.833 83.1322 135.826 82.8729C135.818 82.6135 135.863 82.3553 135.959 82.1142C136.055 81.873 136.199 81.654 136.382 81.4705C136.566 81.287 136.785 81.143 137.026 81.0472C137.267 80.9515 137.525 80.906 137.785 80.9137C138.044 80.9213 138.299 80.9819 138.534 81.0916C138.769 81.2014 138.98 81.3581 139.152 81.552C147.414 89.8336 152.054 101.054 152.054 112.752C152.054 124.45 147.414 135.67 139.152 143.952C138.976 144.13 138.767 144.272 138.536 144.37C138.306 144.467 138.058 144.518 137.808 144.52Z" fill="#E0E0E0"/>
<path d="M66.8641 124.424C66.436 124.425 66.0204 124.28 65.6848 124.014C65.3493 123.748 65.1136 123.377 65.0161 122.96C63.6323 117.1 63.4578 111.019 64.5031 105.09C65.5485 99.16 67.7918 93.5057 71.0961 88.4721C71.374 88.0477 71.8091 87.7512 72.3057 87.6477C72.8023 87.5442 73.3197 87.6422 73.7441 87.9201C74.1684 88.198 74.465 88.6332 74.5685 89.1298C74.672 89.6264 74.574 90.1438 74.2961 90.5681C71.2708 95.1662 69.214 100.332 68.2512 105.752C67.2884 111.171 67.4398 116.729 68.6961 122.088C68.7554 122.331 68.766 122.583 68.7273 122.83C68.6885 123.077 68.601 123.313 68.4701 123.526C68.3391 123.739 68.1672 123.924 67.9643 124.07C67.7614 124.216 67.5315 124.32 67.2881 124.376C67.1487 124.406 67.0066 124.422 66.8641 124.424Z" fill="#E0E0E0"/>
<path d="M78.096 144.52C77.5915 144.519 77.1082 144.317 76.752 143.96C73.3251 140.546 70.4867 136.589 68.352 132.248C68.2417 132.024 68.1766 131.781 68.1603 131.532C68.144 131.283 68.1769 131.033 68.2572 130.797C68.3374 130.561 68.4634 130.343 68.6279 130.155C68.7924 129.968 68.9923 129.814 69.216 129.704C69.4398 129.594 69.6831 129.529 69.9321 129.512C70.181 129.496 70.4308 129.529 70.667 129.609C70.9032 129.689 71.1213 129.815 71.3089 129.98C71.4964 130.144 71.6497 130.344 71.76 130.568C73.7173 134.532 76.3117 138.148 79.44 141.272C79.7957 141.629 79.9954 142.112 79.9954 142.616C79.9954 143.12 79.7957 143.603 79.44 143.96C79.0825 144.315 78.6 144.516 78.096 144.52Z" fill="#E0E0E0"/>
<path d="M168.826 256.324L176.305 263.802L158.938 281.169C158.05 282.057 156.845 282.556 155.589 282.556C154.333 282.556 153.128 282.057 152.24 281.169L151.454 280.383C150.566 279.494 150.067 278.29 150.067 277.034C150.067 275.778 150.566 274.573 151.454 273.685L168.821 256.318L168.826 256.324Z" fill="#F0F0F0"/>
<path d="M168.838 256.34L176.305 263.807L175.948 264.164C175.143 264.969 174.05 265.422 172.911 265.422C171.771 265.422 170.679 264.969 169.873 264.164L168.47 262.761C167.664 261.955 167.212 260.862 167.212 259.723C167.212 258.584 167.664 257.491 168.47 256.685L168.826 256.329L168.838 256.34Z" fill="#E0E0E0"/>
<path d="M227.48 215.76L209.96 233.272C208.016 235.356 206.957 238.114 207.007 240.964C207.057 243.814 208.212 246.533 210.228 248.547C212.245 250.562 214.965 251.714 217.815 251.761C220.665 251.809 223.422 250.747 225.504 248.8L232.592 241.72C234.084 232.733 232.268 223.51 227.48 215.76Z" fill="#F0F0F0"/>
<path d="M234.08 232.656C233.578 225.404 230.937 218.463 226.49 212.712C222.044 206.961 215.992 202.658 209.099 200.347C202.207 198.036 194.784 197.821 187.769 199.729C180.754 201.637 174.463 205.583 169.691 211.067C164.919 216.551 161.88 223.327 160.96 230.538C160.039 237.748 161.277 245.071 164.518 251.578C167.759 258.085 172.857 263.485 179.167 267.094C185.477 270.704 192.716 272.361 199.968 271.856C209.689 271.179 218.743 266.67 225.14 259.319C231.537 251.968 234.753 242.377 234.08 232.656ZM163.752 237.552C163.289 230.894 164.81 224.248 168.124 218.455C171.438 212.661 176.395 207.981 182.369 205.005C188.343 202.029 195.065 200.892 201.686 201.736C208.306 202.581 214.528 205.37 219.563 209.751C224.598 214.132 228.221 219.907 229.974 226.347C231.727 232.787 231.531 239.602 229.41 245.93C227.289 252.259 223.34 257.816 218.061 261.9C212.782 265.983 206.41 268.41 199.752 268.872C190.825 269.492 182.017 266.54 175.266 260.667C168.515 254.793 164.373 246.479 163.752 237.552Z" fill="#E0E0E0"/>
<path d="M178.704 256.728C175.873 254.274 173.554 251.285 171.88 247.932C170.207 244.58 169.212 240.93 168.952 237.192C168.934 237.027 168.949 236.859 168.997 236.7C169.044 236.541 169.124 236.393 169.231 236.266C169.337 236.138 169.468 236.033 169.617 235.958C169.765 235.882 169.926 235.837 170.092 235.826C170.258 235.815 170.425 235.837 170.582 235.892C170.738 235.946 170.883 236.032 171.006 236.144C171.129 236.256 171.228 236.392 171.297 236.543C171.366 236.694 171.404 236.858 171.408 237.024C171.898 243.913 175.098 250.327 180.307 254.863C185.515 259.398 192.309 261.686 199.2 261.224C199.525 261.202 199.845 261.309 200.09 261.523C200.335 261.737 200.486 262.039 200.508 262.364C200.53 262.689 200.423 263.009 200.209 263.254C199.995 263.499 199.693 263.65 199.368 263.672C195.636 263.931 191.89 263.451 188.344 262.26C184.798 261.068 181.522 259.188 178.704 256.728Z" fill="#E0E0E0"/>
<path d="M222.912 228.8C222.73 228.642 222.599 228.433 222.536 228.2C221.573 224.776 219.922 221.584 217.684 218.82C215.446 216.055 212.668 213.775 209.52 212.12C209.245 211.961 209.041 211.703 208.952 211.398C208.863 211.093 208.895 210.765 209.041 210.484C209.188 210.202 209.438 209.987 209.739 209.885C210.039 209.783 210.368 209.801 210.656 209.936C214.102 211.748 217.142 214.243 219.592 217.269C222.042 220.295 223.849 223.788 224.904 227.536C224.948 227.691 224.96 227.854 224.941 228.014C224.921 228.175 224.87 228.33 224.791 228.47C224.711 228.611 224.605 228.734 224.477 228.833C224.35 228.932 224.204 229.005 224.048 229.048C223.853 229.102 223.647 229.108 223.449 229.064C223.251 229.021 223.067 228.93 222.912 228.8Z" fill="#E0E0E0"/>
<path d="M194.712 208.904C194.468 208.687 194.318 208.382 194.296 208.056C194.274 207.732 194.381 207.412 194.594 207.166C194.807 206.92 195.108 206.768 195.432 206.744C198.552 206.527 201.687 206.822 204.712 207.616C204.87 207.657 205.018 207.73 205.147 207.828C205.277 207.927 205.386 208.05 205.468 208.191C205.55 208.332 205.604 208.487 205.626 208.649C205.648 208.81 205.638 208.974 205.596 209.132C205.555 209.289 205.482 209.437 205.384 209.567C205.285 209.697 205.162 209.806 205.021 209.888C204.88 209.97 204.725 210.024 204.563 210.045C204.402 210.067 204.238 210.057 204.08 210.016C201.319 209.285 198.457 209.015 195.608 209.216C195.28 209.232 194.959 209.12 194.712 208.904Z" fill="#E0E0E0"/>
<path d="M200 342.048C285.666 342.048 355.112 337.994 355.112 332.992C355.112 327.991 285.666 323.936 200 323.936C114.334 323.936 44.8879 327.991 44.8879 332.992C44.8879 337.994 114.334 342.048 200 342.048Z" fill="#F5F5F5"/>
<path d="M110.256 116.704C103.808 123.192 114.768 133.264 107.528 137.888C113.44 140.856 134.16 144.624 139.528 132.952C135.616 129.912 138.336 122.44 134.728 115.264C129.328 104.624 103.808 109.336 110.256 116.704Z" fill="#263238"/>
<path d="M110.84 116.536C108.832 116.2 102.04 119.576 107.096 128.64C111.168 135.968 107.776 136.488 107.776 136.488C107.776 136.488 111.776 136.6 109.376 131.152C106.832 125.336 105.64 119.304 110.84 116.536Z" fill="#263238"/>
<path d="M158.4 174.088C158.153 173.635 157.737 173.298 157.244 173.148C156.75 172.999 156.217 173.049 155.76 173.288L155.288 173.536C155.136 173.616 154.848 173.808 154.616 173.944C154.384 174.08 154.112 174.232 153.856 174.36C153.351 174.614 152.83 174.833 152.296 175.016C151.307 175.374 150.267 175.572 149.216 175.6C148.25 175.611 147.29 175.457 146.376 175.144C145.795 174.929 145.236 174.661 144.704 174.344C144.016 172.824 143.36 171.288 142.8 169.704C142.12 167.856 141.52 165.968 140.992 164.056C140.464 162.144 140 160.208 139.616 158.264C139.416 157.296 139.24 156.32 139.08 155.352L138.864 153.904C138.792 153.44 138.728 152.912 138.688 152.544V152.384C138.582 151.323 138.059 150.348 137.234 149.673C136.408 148.998 135.349 148.678 134.288 148.784C133.227 148.89 132.252 149.413 131.577 150.239C130.902 151.064 130.582 152.123 130.688 153.184C130.744 153.864 130.792 154.384 130.864 154.952C130.936 155.52 131.016 156.064 131.096 156.616C131.272 157.72 131.472 158.808 131.696 159.896C132.141 162.058 132.701 164.194 133.376 166.296C133.688 167.352 134.072 168.392 134.432 169.44C134.792 170.488 135.232 171.512 135.688 172.528C136.561 174.581 137.552 176.582 138.656 178.52L138.752 178.696C139.039 179.217 139.469 179.644 139.992 179.928C141.504 180.752 143.138 181.33 144.832 181.64C146.572 181.947 148.355 181.909 150.08 181.528C152.515 180.963 154.751 179.75 156.552 178.016C156.848 177.744 157.128 177.464 157.352 177.168C157.576 176.872 157.848 176.592 158.152 176.176C158.386 175.887 158.534 175.538 158.578 175.168C158.622 174.798 158.56 174.424 158.4 174.088Z" fill="#FF8B7B"/>
<path d="M163.72 166.6H163.488C162.722 166.584 161.963 166.744 161.269 167.069C160.576 167.393 159.966 167.874 159.488 168.472L155.624 173.32V176.632C158.728 177.864 162.664 174.544 162.664 174.544L164.656 174.04C165.326 173.873 165.911 173.463 166.297 172.889C166.682 172.316 166.842 171.62 166.744 170.936L166.456 168.992C166.362 168.332 166.034 167.727 165.532 167.288C165.03 166.849 164.387 166.605 163.72 166.6Z" fill="#FF8B7B"/>
<path d="M138.584 147.904C141.168 150.56 141.328 158.488 141.328 158.488L130.992 166.808C130.992 166.808 126.744 155.048 129.096 150.896C131.088 147.376 135.288 144.52 138.584 147.904Z" fill="#5E88C6"/>
<g opacity="0.2">
<path d="M138.584 147.904C141.168 150.56 141.328 158.488 141.328 158.488L130.992 166.808C130.992 166.808 126.744 155.048 129.096 150.896C131.088 147.376 135.288 144.52 138.584 147.904Z" fill="white"/>
</g>
<path d="M121.48 326.136L127.192 326.76L127.976 311.24L122.264 310.608L121.48 326.136Z" fill="#FF8B7B"/>
<path d="M128.128 323.032H121.416C121.281 323.028 121.149 323.076 121.049 323.167C120.949 323.258 120.888 323.385 120.88 323.52L120.432 329.864C120.432 330.196 120.561 330.515 120.793 330.752C121.025 330.99 121.34 331.128 121.672 331.136C124.504 331.136 124.536 331.136 128.072 331.136H137.6C140.528 331.136 140.536 328.168 139.272 327.896C133.584 326.696 131.368 325.032 129.36 323.448C129.007 323.176 128.573 323.03 128.128 323.032Z" fill="#263238"/>
<path opacity="0.2" d="M127.976 311.248L127.568 319.248H121.824L122.264 310.616L127.976 311.248Z" fill="black"/>
<path d="M131.056 187.416C131.056 187.416 136 228.8 136 247.2C132.104 272.8 128.8 317.728 128.8 317.728L120.896 317.52C120.896 317.52 117.304 268.592 120.632 247.464C116.368 228.536 111.104 184.856 111.104 184.856L131.056 187.416Z" fill="#263238"/>
<path opacity="0.2" d="M115.816 198.936C114.874 199.351 113.96 199.826 113.08 200.36C114.168 208.528 115.6 218.808 117.12 228.296C119.712 220.488 118.312 203.32 115.816 198.936Z" fill="black"/>
<path d="M59.624 311.728L64.336 315.016L72.464 301.768L67.752 298.48L59.624 311.728Z" fill="#FF8B7B"/>
<path d="M65.528 313.28L61.528 307.896C61.4518 307.786 61.3354 307.71 61.2038 307.684C61.0721 307.659 60.9358 307.686 60.824 307.76L55.464 311.2C55.1966 311.397 55.0173 311.691 54.9649 312.019C54.9125 312.347 54.9912 312.682 55.184 312.952C56.856 315.232 56.888 315.248 58.992 318.08C60.296 319.816 62.896 323.312 64.688 325.72C66.48 328.128 68.824 326.304 68.28 325.12C65.88 319.848 65.88 317.12 65.928 314.528C65.9361 314.079 65.7955 313.641 65.528 313.28Z" fill="#263238"/>
<path opacity="0.2" d="M72.456 301.768L68.272 308.6L63.224 305.848L67.752 298.48L72.456 301.768Z" fill="black"/>
<path d="M88.5281 317.28C84.4401 317.28 75.9281 317.28 75.7841 311.264C75.6721 306.544 81.5121 304.584 86.5521 304.344C87.1105 304.317 87.6687 304.4 88.1949 304.589C88.7211 304.778 89.2049 305.069 89.6187 305.445C90.0325 305.821 90.3682 306.274 90.6066 306.78C90.8449 307.286 90.9814 307.834 91.0081 308.392V308.712C96.7201 308.44 100.416 307.192 101.768 305.064C104.816 300.264 98.9761 287.872 93.3361 275.896C86.6961 261.808 79.1761 245.848 79.0321 230.56C79.0268 230.001 79.1316 229.447 79.3407 228.928C79.5497 228.41 79.8588 227.938 80.2503 227.539C80.6418 227.14 81.108 226.822 81.6224 226.603C82.1367 226.384 82.6891 226.269 83.2481 226.264C84.3693 226.266 85.4446 226.71 86.2412 227.499C87.0377 228.288 87.4914 229.359 87.5041 230.48C87.6321 243.904 94.7041 258.968 100.992 272.264C108.192 287.608 114.472 300.864 108.912 309.624C105.688 314.776 99.0081 317.28 88.5281 317.28Z" fill="#5E88C6"/>
<path d="M124.728 186.6C124.728 186.6 111.08 233.896 104.416 251.048C91.504 273.496 70.08 307.848 70.08 307.848L63.24 303.848C63.24 303.848 79.24 264.168 90 245.688C92.888 226.488 103.808 183.88 103.808 183.88L124.728 186.6Z" fill="#263238"/>
<path d="M66.76 317.144C67.0314 317.593 67.4497 317.935 67.944 318.112C68.0887 318.147 68.2402 318.141 68.3816 318.094C68.5229 318.047 68.6484 317.962 68.744 317.848C68.8105 317.787 68.8613 317.711 68.8919 317.626C68.9226 317.541 68.9322 317.45 68.92 317.36C68.824 316.4 66.344 315.152 65.848 314.912C65.8191 314.9 65.7869 314.899 65.7574 314.91C65.7279 314.92 65.7032 314.941 65.688 314.968C65.6687 314.998 65.6584 315.033 65.6584 315.068C65.6584 315.104 65.6687 315.138 65.688 315.168C65.9818 315.859 66.3407 316.521 66.76 317.144ZM68.464 317.144C68.5344 317.232 68.5812 317.337 68.6 317.448C68.6038 317.479 68.6 317.511 68.5889 317.54C68.5777 317.569 68.5596 317.595 68.536 317.616C68.4715 317.69 68.3886 317.745 68.2958 317.775C68.203 317.806 68.1037 317.812 68.008 317.792C67.48 317.688 66.784 316.832 66.112 315.48C66.9833 315.886 67.7787 316.438 68.464 317.112V317.144Z" fill="#5E88C6"/>
<path d="M65.648 315.2L65.696 315.24C66.496 315.68 68.576 316.04 69.032 315.376C69.1086 315.255 69.1458 315.113 69.1386 314.97C69.1315 314.827 69.0803 314.689 68.992 314.576C68.192 313.16 65.792 314.824 65.688 314.896C65.6642 314.915 65.6452 314.94 65.6327 314.967C65.6202 314.995 65.6145 315.026 65.616 315.056C65.6128 315.106 65.6239 315.156 65.648 315.2ZM68.688 314.736C68.7113 314.764 68.7327 314.793 68.752 314.824C68.84 314.976 68.856 315.088 68.808 315.152C68.544 315.536 67.008 315.4 66.112 315.048C66.712 314.688 68.112 313.96 68.688 314.736Z" fill="#5E88C6"/>
<path d="M132 324.352C132.524 324.4 133.049 324.267 133.488 323.976C133.599 323.879 133.681 323.752 133.725 323.611C133.769 323.47 133.773 323.319 133.736 323.176C133.725 323.086 133.693 322.999 133.643 322.923C133.593 322.846 133.526 322.783 133.448 322.736C132.648 322.248 130.144 323.488 129.656 323.744C129.628 323.759 129.607 323.783 129.595 323.813C129.584 323.842 129.583 323.874 129.592 323.904C129.604 323.937 129.624 323.967 129.651 323.991C129.677 324.015 129.709 324.032 129.744 324.04C130.483 324.221 131.239 324.325 132 324.352ZM132.992 322.968C133.106 322.961 133.22 322.986 133.32 323.04C133.36 323.04 133.4 323.096 133.416 323.192C133.437 323.288 133.432 323.387 133.401 323.48C133.37 323.573 133.314 323.656 133.24 323.72C132.848 324.08 131.744 324.128 130.256 323.864C131.097 323.413 132.009 323.11 132.952 322.968H132.992Z" fill="#5E88C6"/>
<path d="M129.744 324.08H129.8C130.6 323.712 132.16 322.248 131.904 321.488C131.851 321.362 131.761 321.255 131.648 321.18C131.534 321.104 131.4 321.064 131.264 321.064C129.664 320.88 129.552 323.776 129.544 323.896C129.544 323.928 129.552 323.959 129.568 323.987C129.583 324.015 129.605 324.039 129.632 324.056C129.666 324.075 129.705 324.084 129.744 324.08ZM131.184 321.36H131.296C131.464 321.36 131.568 321.432 131.592 321.512C131.744 321.952 130.72 323.112 129.896 323.616C129.968 322.92 130.224 321.36 131.2 321.36H131.184Z" fill="#5E88C6"/>
<path d="M103.808 183.92L131.056 187.408C137.2 166.72 139.224 156.728 139.768 151.92C139.912 150.711 139.63 149.491 138.969 148.468C138.309 147.446 137.313 146.686 136.152 146.32C134.552 145.808 132.488 145.2 130.44 144.72C129.744 144.536 129.032 144.368 128.336 144.208C124.257 143.38 120.124 142.846 115.968 142.608C115.352 142.552 114.744 142.52 114.128 142.488C112.92 142.424 111.728 142.408 110.64 142.408C109.824 142.407 109.016 142.576 108.268 142.905C107.52 143.233 106.849 143.714 106.298 144.316C105.746 144.918 105.326 145.628 105.064 146.402C104.802 147.175 104.704 147.995 104.776 148.808C104.992 151.208 105.16 153.44 105.288 155.488C105.592 160.288 105.688 164.128 105.616 167.488C105.453 173.005 104.848 178.5 103.808 183.92Z" fill="#5E88C6"/>
<g opacity="0.3">
<path d="M103.808 183.92L131.056 187.408C137.2 166.72 139.224 156.728 139.768 151.92C139.912 150.711 139.63 149.491 138.969 148.468C138.309 147.446 137.313 146.686 136.152 146.32C134.552 145.808 132.488 145.2 130.44 144.72C129.744 144.536 129.032 144.368 128.336 144.208C124.257 143.38 120.124 142.846 115.968 142.608C115.352 142.552 114.744 142.52 114.128 142.488C112.92 142.424 111.728 142.408 110.64 142.408C109.824 142.407 109.016 142.576 108.268 142.905C107.52 143.233 106.849 143.714 106.298 144.316C105.746 144.918 105.326 145.628 105.064 146.402C104.802 147.175 104.704 147.995 104.776 148.808C104.992 151.208 105.16 153.44 105.288 155.488C105.592 160.288 105.688 164.128 105.616 167.488C105.453 173.005 104.848 178.5 103.808 183.92Z" fill="white"/>
</g>
<path opacity="0.3" d="M105.6 167.456C109.2 162.8 110.504 157.472 109.336 154.536L105.272 155.448C105.6 160.232 105.688 164.088 105.6 167.456Z" fill="#5E88C6"/>
<path d="M130.44 144.672C129.736 144.488 129.032 144.32 128.336 144.16C124.253 143.336 120.118 142.801 115.96 142.56C115.344 142.512 114.736 142.48 114.128 142.448L113.064 142.4L113.864 143.8C113.976 143.992 116.696 148.44 123.464 153.224L124.912 154.232L126.304 153.168C127.644 152.206 128.74 150.943 129.501 149.479C130.263 148.016 130.67 146.394 130.688 144.744L130.44 144.672Z" fill="white"/>
<path d="M118.968 134.336C118.712 137.704 117.92 141.136 115.96 142.576C115.96 142.576 118.456 146.728 124.92 151.264C128.968 148.168 128.336 144.16 128.336 144.16C124.032 142.56 124.336 139.576 126.152 134.816L122.792 133.008C122.502 132.688 122.125 132.461 121.707 132.355C121.289 132.248 120.849 132.267 120.441 132.408C120.034 132.55 119.677 132.808 119.415 133.151C119.153 133.493 118.997 133.906 118.968 134.336Z" fill="#FF8B7B"/>
<path opacity="0.2" d="M122.792 133.008C122.52 132.707 122.17 132.488 121.78 132.373C121.391 132.259 120.978 132.255 120.586 132.361C120.195 132.467 119.84 132.679 119.562 132.974C119.283 133.269 119.091 133.635 119.008 134.032C120.284 136.605 122.343 138.709 124.888 140.04C124.979 138.236 125.405 136.464 126.144 134.816L122.792 133.008Z" fill="black"/>
<path d="M113.736 123.776C115.408 130.28 115.976 133.064 119.952 135.776C125.928 139.888 133.552 136.416 133.848 129.552C134.128 123.368 131.352 113.768 124.408 112.392C122.875 112.079 121.287 112.163 119.796 112.637C118.305 113.112 116.961 113.96 115.891 115.102C114.821 116.243 114.061 117.64 113.683 119.158C113.306 120.677 113.324 122.266 113.736 123.776Z" fill="#FF8B7B"/>
<path d="M130.288 113.736C126.371 117.218 121.724 119.78 116.688 121.232C116.688 121.232 121.656 131.8 112.36 129.136C109.664 120.136 112.36 115.464 114.76 113.264C122.152 110.864 127.352 110.064 130.288 113.736Z" fill="#263238"/>
<path d="M113.424 130.184C113.969 131.362 114.958 132.277 116.176 132.728C117.776 133.304 118.728 131.928 118.384 130.328C118.072 128.896 116.856 126.864 115.184 126.968C114.822 126.999 114.474 127.119 114.17 127.317C113.866 127.515 113.615 127.785 113.441 128.104C113.267 128.422 113.174 128.779 113.171 129.142C113.168 129.505 113.255 129.863 113.424 130.184Z" fill="#FF8B7B"/>
<path d="M103.608 182.272L102.064 184.552C101.944 184.728 102.144 184.952 102.456 184.992L131.032 188.656C131.28 188.656 131.496 188.592 131.536 188.44L132.096 186.04C132.096 185.872 131.936 185.704 131.672 185.664L104.072 182.128C103.989 182.109 103.902 182.112 103.821 182.137C103.739 182.162 103.666 182.209 103.608 182.272Z" fill="#5E88C6"/>
<path d="M106.912 185.832L106.176 185.736C106.032 185.736 105.928 185.624 105.952 185.536L106.704 182.408C106.733 182.355 106.778 182.314 106.833 182.291C106.889 182.267 106.95 182.264 107.008 182.28L107.752 182.376C107.896 182.376 108 182.48 107.976 182.576L107.224 185.696C107.2 185.792 107.064 185.848 106.912 185.832Z" fill="#263238"/>
<path d="M128.92 188.648L128.184 188.56C128.04 188.56 127.936 188.448 127.96 188.352L128.712 185.232C128.712 185.144 128.872 185.08 129.016 185.096L129.76 185.192C129.904 185.192 130.008 185.304 129.984 185.392L129.232 188.52C129.208 188.608 129.072 188.672 128.92 188.648Z" fill="#263238"/>
<path d="M117.92 187.24L117.184 187.144C117.032 187.144 116.928 187.04 116.952 186.944L117.704 183.824C117.704 183.728 117.864 183.672 118.016 183.688L118.752 183.784C118.896 183.784 119 183.896 118.984 183.984L118.224 187.112C118.208 187.2 118.064 187.256 117.92 187.24Z" fill="#263238"/>
<path d="M124.88 123.496C124.976 124.032 125.344 124.416 125.68 124.344C126.016 124.272 126.232 123.792 126.128 123.256C126.024 122.72 125.656 122.336 125.328 122.408C125 122.48 124.8 122.96 124.88 123.496Z" fill="#263238"/>
<path d="M130.928 122.336C131.032 122.872 131.4 123.248 131.728 123.184C132.056 123.12 132.28 122.624 132.176 122.088C132.072 121.552 131.704 121.176 131.376 121.24C131.048 121.304 130.832 121.8 130.928 122.336Z" fill="#263238"/>
<path d="M131.2 121.304L132.416 120.68C132.416 120.68 132 121.816 131.2 121.304Z" fill="#263238"/>
<path d="M129.328 123.536C130.043 124.663 130.907 125.688 131.896 126.584C131.661 126.833 131.375 127.028 131.057 127.153C130.739 127.279 130.397 127.333 130.056 127.312L129.328 123.536Z" fill="#FF5652"/>
<path d="M125.552 129.472C125.528 129.5 125.514 129.535 125.513 129.572C125.512 129.609 125.524 129.645 125.547 129.675C125.569 129.704 125.601 129.724 125.637 129.733C125.673 129.741 125.711 129.736 125.744 129.72C126.349 129.412 127.017 129.251 127.696 129.251C128.375 129.251 129.044 129.412 129.648 129.72C129.684 129.741 129.727 129.746 129.767 129.736C129.808 129.726 129.842 129.7 129.864 129.664C129.886 129.628 129.893 129.584 129.884 129.543C129.875 129.501 129.851 129.464 129.816 129.44C129.164 129.106 128.441 128.932 127.708 128.932C126.975 128.932 126.253 129.106 125.6 129.44C125.6 129.44 125.6 129.456 125.552 129.472Z" fill="#263238"/>
<path d="M122.792 121.848C122.841 121.818 122.88 121.773 122.904 121.72C123.071 121.355 123.322 121.036 123.636 120.787C123.95 120.538 124.319 120.367 124.712 120.288C124.754 120.283 124.795 120.27 124.832 120.249C124.869 120.228 124.901 120.2 124.927 120.167C124.954 120.133 124.973 120.095 124.984 120.054C124.995 120.013 124.998 119.97 124.992 119.928C124.988 119.886 124.976 119.846 124.956 119.809C124.936 119.772 124.909 119.739 124.876 119.713C124.843 119.687 124.805 119.668 124.765 119.657C124.724 119.645 124.682 119.642 124.64 119.648C124.14 119.741 123.669 119.953 123.267 120.264C122.865 120.576 122.543 120.979 122.328 121.44C122.297 121.503 122.288 121.575 122.301 121.644C122.315 121.713 122.351 121.775 122.404 121.822C122.457 121.868 122.523 121.896 122.594 121.901C122.664 121.905 122.733 121.887 122.792 121.848Z" fill="#263238"/>
<path d="M132.728 117.792L132.768 117.752C132.792 117.717 132.81 117.678 132.819 117.637C132.828 117.596 132.829 117.553 132.821 117.511C132.814 117.47 132.798 117.43 132.775 117.394C132.753 117.359 132.723 117.328 132.688 117.304C132.274 117.007 131.796 116.813 131.292 116.737C130.789 116.662 130.274 116.708 129.792 116.872C129.715 116.906 129.654 116.968 129.621 117.045C129.588 117.122 129.586 117.209 129.616 117.288C129.648 117.366 129.71 117.429 129.788 117.462C129.866 117.495 129.953 117.496 130.032 117.464C130.415 117.339 130.823 117.306 131.221 117.37C131.619 117.434 131.996 117.593 132.32 117.832C132.381 117.876 132.456 117.896 132.531 117.888C132.606 117.881 132.676 117.847 132.728 117.792Z" fill="#263238"/>
<path d="M125.176 122.464L126.392 121.848C126.392 121.848 125.92 122.976 125.176 122.464Z" fill="#263238"/>
<path d="M83.288 234.776C82.1661 234.776 81.0896 234.333 80.2926 233.544C79.4956 232.754 79.0425 231.682 79.032 230.56C78.92 219.2 82.704 209.608 89.976 202.824C98.928 194.472 112.888 190.592 129.304 191.888C140.816 192.8 148.2 190 156.744 186.744C158.152 186.216 159.568 185.672 161.024 185.144C162.085 184.758 163.256 184.809 164.279 185.286C165.302 185.763 166.094 186.627 166.48 187.688C166.866 188.749 166.815 189.92 166.338 190.943C165.861 191.966 164.997 192.758 163.936 193.144C162.52 193.656 161.144 194.184 159.776 194.704C151.064 198.016 142.064 201.432 128.632 200.376C114.632 199.264 102.968 202.344 95.784 209.048C90.184 214.232 87.456 221.44 87.544 230.48C87.5492 231.039 87.4444 231.593 87.2353 232.112C87.0263 232.63 86.7172 233.102 86.3257 233.501C85.9342 233.9 85.468 234.218 84.9536 234.437C84.4393 234.655 83.8869 234.771 83.328 234.776H83.288Z" fill="#5E88C6"/>
<path d="M181.716 199.153L164.597 205.425C163.168 205.948 161.59 205.883 160.21 205.243C158.83 204.603 157.761 203.44 157.238 202.012L150.168 182.714C149.645 181.286 149.71 179.708 150.35 178.328C150.99 176.948 152.152 175.878 153.581 175.355L170.7 169.084L181.708 199.131L181.716 199.153Z" fill="#5E88C6"/>
<path opacity="0.7" d="M181.716 199.153L164.597 205.425C163.168 205.948 161.59 205.883 160.21 205.243C158.83 204.603 157.761 203.44 157.238 202.012L150.168 182.714C149.645 181.286 149.71 179.708 150.35 178.328C150.99 176.948 152.152 175.878 153.581 175.355L170.7 169.084L181.708 199.131L181.716 199.153Z" fill="white"/>
<path opacity="0.2" d="M163.072 171.872L170.712 169.08L181.72 199.144L174.08 201.944C173.572 201.452 173.183 200.85 172.944 200.184L163.344 173.952C163.093 173.289 163 172.577 163.072 171.872Z" fill="#5E88C6"/>
<path d="M187.869 176.569L187.118 176.844L188.95 181.847L189.702 181.571L187.869 176.569Z" fill="#5E88C6"/>
<path d="M185.96 173.728L183.264 166.352C182.801 165.101 181.967 164.022 180.873 163.26C179.779 162.498 178.477 162.089 177.144 162.088C176.385 162.086 175.632 162.219 174.92 162.48L170.056 164.264L169.776 163.512L174.648 161.728C175.447 161.435 176.292 161.286 177.144 161.288C178.642 161.292 180.104 161.753 181.332 162.611C182.56 163.469 183.497 164.683 184.016 166.088L186.712 173.464L185.96 173.728Z" fill="#5E88C6"/>
<path d="M181.849 201.308L188.993 198.724C191.327 197.88 192.535 195.303 191.691 192.969L181.994 166.16C181.15 163.826 178.573 162.618 176.239 163.463L169.095 166.047C166.761 166.891 165.553 169.467 166.397 171.802L176.094 198.61C176.938 200.944 179.515 202.152 181.849 201.308Z" fill="#5E88C6"/>
<path d="M177.76 174.296C177.923 174.742 177.95 175.226 177.838 175.688C177.726 176.149 177.479 176.567 177.129 176.888C176.779 177.21 176.342 177.42 175.872 177.492C175.403 177.565 174.922 177.496 174.492 177.295C174.061 177.095 173.7 176.771 173.454 176.365C173.208 175.959 173.087 175.489 173.108 175.014C173.129 174.54 173.291 174.082 173.572 173.699C173.853 173.317 174.241 173.026 174.688 172.864C175.285 172.647 175.944 172.677 176.52 172.945C177.096 173.213 177.542 173.699 177.76 174.296Z" fill="#263238"/>
<path d="M183.736 190.608C183.898 191.054 183.925 191.538 183.813 191.999C183.7 192.46 183.453 192.877 183.104 193.198C182.754 193.519 182.317 193.729 181.848 193.802C181.379 193.874 180.9 193.806 180.469 193.606C180.039 193.406 179.678 193.083 179.431 192.678C179.184 192.272 179.063 191.803 179.083 191.329C179.103 190.855 179.263 190.397 179.543 190.014C179.823 189.631 180.21 189.339 180.656 189.176C180.952 189.068 181.267 189.019 181.582 189.032C181.897 189.045 182.207 189.12 182.493 189.253C182.779 189.386 183.036 189.575 183.249 189.807C183.463 190.039 183.628 190.312 183.736 190.608Z" fill="#263238"/>
<path d="M113.6 188.68L113.536 188.608C112.288 187.36 110.968 186 109.776 184.608C108.584 183.216 107.416 181.824 106.352 180.384C105.309 178.979 104.36 177.507 103.512 175.976C102.905 174.881 102.389 173.739 101.968 172.56C102.448 170.96 102.96 169.36 103.568 167.824C104.264 165.976 105.048 164.16 105.904 162.368C106.76 160.576 107.672 158.816 108.656 157.096C109.136 156.232 109.64 155.376 110.16 154.536L110.96 153.304C111.208 152.904 111.504 152.504 111.712 152.16L111.8 152.032C112.369 151.165 112.579 150.111 112.386 149.093C112.192 148.074 111.611 147.17 110.765 146.572C109.918 145.973 108.873 145.727 107.848 145.884C106.823 146.042 105.9 146.591 105.272 147.416C104.872 147.96 104.568 148.392 104.248 148.864C103.928 149.336 103.64 149.808 103.336 150.28C102.752 151.224 102.184 152.176 101.64 153.144C100.558 155.075 99.5777 157.062 98.704 159.096C98.256 160.104 97.904 161.136 97.448 162.168C96.992 163.2 96.688 164.248 96.368 165.32C95.6889 167.444 95.1307 169.605 94.696 171.792V171.976C94.5718 172.56 94.6134 173.167 94.816 173.728C95.5912 175.779 96.6205 177.725 97.88 179.52C99.066 181.224 100.388 182.829 101.832 184.32C103.239 185.757 104.732 187.106 106.304 188.36C107.875 189.612 109.524 190.764 111.24 191.808C111.657 192.052 112.148 192.135 112.622 192.043C113.096 191.95 113.52 191.688 113.814 191.305C114.109 190.922 114.253 190.445 114.221 189.964C114.189 189.482 113.983 189.028 113.64 188.688L113.6 188.68Z" fill="#FF8B7B"/>
<path d="M122.896 192.656L122.792 192.448C122.46 191.755 121.971 191.148 121.365 190.676C120.758 190.204 120.05 189.88 119.296 189.728L113.224 188.496L110.256 189.976C110.576 193.304 115.328 195.296 115.328 195.296L116.68 196.84C117.136 197.358 117.767 197.689 118.452 197.77C119.137 197.851 119.828 197.677 120.392 197.28L121.992 196.136C122.53 195.757 122.916 195.199 123.081 194.562C123.247 193.925 123.181 193.249 122.896 192.656Z" fill="#FF8B7B"/>
<path d="M108.152 142.92C104.784 144.464 101.2 149.808 101.2 149.808L108.4 163.288C108.4 163.288 116.584 153.856 115.896 149.136C115.336 145.128 112.44 140.952 108.152 142.92Z" fill="#5E88C6"/>
<g opacity="0.3">
<path d="M108.152 142.92C104.784 144.464 101.2 149.808 101.2 149.808L108.4 163.288C108.4 163.288 116.584 153.856 115.896 149.136C115.336 145.128 112.44 140.952 108.152 142.92Z" fill="white"/>
</g>
<path d="M338.632 319.544C331.584 319.544 324.656 318.096 321.296 313.712C305.392 292.912 305.536 251.072 305.672 210.584C305.752 188.784 307.472 168.184 305.048 152.184C303.624 142.752 298.648 136.28 293.624 132.936C286.168 128.008 275.928 130.656 271.552 131.784C271.007 131.936 270.437 131.978 269.875 131.908C269.314 131.837 268.772 131.655 268.282 131.372C267.791 131.09 267.362 130.712 267.019 130.262C266.677 129.811 266.427 129.297 266.286 128.749C266.144 128.201 266.114 127.63 266.195 127.07C266.277 126.51 266.47 125.972 266.762 125.488C267.054 125.003 267.44 124.581 267.897 124.248C268.354 123.914 268.873 123.675 269.424 123.544C274.888 122.128 287.704 118.824 298.312 125.832C305.472 130.56 311.664 139 313.464 150.912C315.984 167.552 314.264 188.456 314.184 210.584C314.048 249.648 313.912 290.04 328.056 308.512C329.2 310 333.656 311.336 341.056 310.952C341.712 310.952 342.352 310.88 342.984 310.824C342.698 310.244 342.55 309.606 342.552 308.96C342.552 307.831 343 306.749 343.798 305.951C344.597 305.152 345.679 304.704 346.808 304.704C356.112 304.704 361.008 305.504 361.952 309.76C362.224 310.984 362.368 314.056 357.872 316.16C354.512 317.736 346.496 319.544 338.632 319.544Z" fill="#5E88C6"/>
<path d="M245.496 323.216L236.816 319.8L241.392 304.752L250.08 308.16L245.496 323.216Z" fill="#FFC3BD"/>
<path d="M236.608 318.88L246.4 322.72C246.524 322.77 246.627 322.861 246.694 322.977C246.761 323.093 246.787 323.228 246.768 323.36L245.808 329.456C245.783 329.603 245.725 329.743 245.639 329.865C245.553 329.987 245.44 330.089 245.31 330.162C245.179 330.234 245.034 330.277 244.885 330.287C244.736 330.296 244.587 330.272 244.448 330.216C241.992 329.2 238.144 327.52 235.032 326.296C233.12 325.544 229.48 324.344 226.832 323.304C224.184 322.264 224.872 319.512 226.032 319.704C231.304 320.552 233.32 319.648 235.424 318.864C235.806 318.718 236.23 318.723 236.608 318.88Z" fill="#263238"/>
<path opacity="0.2" d="M250.08 308.168L241.392 304.752L239.032 312.512L247.72 315.928L250.08 308.168Z" fill="black"/>
<path d="M260.936 191.688C260.936 191.688 253.08 230.52 250.08 249.672C246.704 271.136 237.784 310.344 237.784 310.344L249.328 314.88C249.328 314.88 265.816 274.736 268.112 255.296C275.032 239.496 288.792 193 288.792 193L260.936 191.688Z" fill="#5E88C6"/>
<path d="M237.224 310.408L249.896 315.392L252.064 311.552L237.896 305.68L237.224 310.408Z" fill="#263238"/>
<path d="M234.12 319.048C233.678 318.91 233.295 318.629 233.032 318.248C232.959 318.107 232.921 317.951 232.921 317.792C232.921 317.633 232.959 317.477 233.032 317.336C233.064 317.249 233.121 317.173 233.194 317.116C233.268 317.06 233.356 317.025 233.448 317.016C234.288 316.928 235.848 318.976 236 319.216C236.017 319.242 236.026 319.273 236.026 319.304C236.026 319.335 236.017 319.366 236 319.392C235.983 319.418 235.959 319.439 235.931 319.452C235.902 319.465 235.871 319.469 235.84 319.464C235.253 319.388 234.676 319.249 234.12 319.048ZM233.696 317.376C233.631 317.344 233.56 317.33 233.488 317.336C233.44 317.336 233.384 317.336 233.328 317.472C233.275 317.567 233.247 317.675 233.247 317.784C233.247 317.893 233.275 318.001 233.328 318.096C233.56 318.52 234.36 318.896 235.52 319.088C235.033 318.401 234.412 317.819 233.696 317.376Z" fill="#5E88C6"/>
<path d="M235.824 319.456C235.798 319.447 235.776 319.43 235.76 319.408C235.248 318.8 234.528 316.92 234.96 316.272C235.027 316.172 235.126 316.097 235.241 316.06C235.356 316.024 235.48 316.028 235.592 316.072C235.711 316.102 235.822 316.157 235.919 316.233C236.015 316.309 236.095 316.404 236.152 316.512C236.648 317.4 236.088 319.272 236.064 319.352C236.055 319.38 236.038 319.406 236.015 319.425C235.993 319.445 235.965 319.458 235.936 319.464C235.918 319.473 235.899 319.476 235.879 319.475C235.859 319.474 235.84 319.467 235.824 319.456ZM235.552 316.4H235.488C235.28 316.352 235.232 316.4 235.208 316.472C234.968 316.856 235.36 318.216 235.816 318.96C236.044 318.22 236.044 317.428 235.816 316.688C235.765 316.563 235.672 316.461 235.552 316.4Z" fill="#5E88C6"/>
<path opacity="0.2" d="M277.872 215.2C273.52 220.592 271.8 234.336 271.816 245.792C274.752 237.704 278.12 227.432 281.08 218.104L277.872 215.2Z" fill="black"/>
<path d="M297.736 324.664H288.408L287.168 308.984H296.496L297.736 324.664Z" fill="#FFC3BD"/>
<path d="M287.88 323.88H298.4C298.535 323.879 298.666 323.925 298.771 324.009C298.876 324.094 298.948 324.212 298.976 324.344L300.312 330.36C300.343 330.507 300.341 330.659 300.305 330.805C300.27 330.951 300.202 331.087 300.107 331.203C300.011 331.319 299.891 331.412 299.755 331.475C299.619 331.538 299.47 331.57 299.32 331.568C296.664 331.52 292.48 331.36 289.136 331.36C287.072 331.36 283.248 331.576 280.408 331.576C277.568 331.576 277.208 328.768 278.352 328.512C283.576 327.368 285.128 325.8 286.792 324.296C287.092 324.029 287.479 323.882 287.88 323.88Z" fill="#263238"/>
<path opacity="0.2" d="M296.496 308.984H287.16L287.808 317.072H297.144L296.496 308.984Z" fill="black"/>
<path d="M272.232 192.176C272.232 192.176 277.4 235.448 278.488 251.024C280 272.704 285.848 315.504 285.848 315.504H298.248C298.248 315.504 299.576 271.792 297.336 252.344C300.424 235.376 299.448 193.48 299.448 193.48L272.232 192.176Z" fill="#5E88C6"/>
<path d="M285.352 315.768H298.968L299.584 311.408L284.248 311.12L285.352 315.768Z" fill="#263238"/>
<path d="M285.6 324.944C285.139 324.979 284.68 324.857 284.296 324.6C284.177 324.495 284.084 324.364 284.026 324.217C283.967 324.069 283.945 323.91 283.96 323.752C283.96 323.658 283.986 323.565 284.036 323.485C284.085 323.404 284.156 323.339 284.24 323.296C284.992 322.912 287.176 324.256 287.44 324.408C287.468 324.424 287.49 324.447 287.504 324.476C287.519 324.504 287.524 324.536 287.52 324.568C287.513 324.6 287.497 324.63 287.474 324.653C287.452 324.677 287.423 324.695 287.392 324.704C286.806 324.851 286.204 324.932 285.6 324.944ZM284.592 323.544C284.52 323.54 284.449 323.553 284.384 323.584C284.344 323.584 284.296 323.648 284.288 323.768C284.271 323.876 284.282 323.986 284.32 324.088C284.358 324.19 284.421 324.281 284.504 324.352C284.872 324.664 285.76 324.704 286.904 324.472C286.208 324.019 285.431 323.703 284.616 323.544H284.592Z" fill="#5E88C6"/>
<path d="M287.36 324.704H287.28C286.584 324.32 285.224 322.84 285.368 322.08C285.392 321.962 285.456 321.856 285.55 321.78C285.643 321.705 285.76 321.663 285.88 321.664C286.001 321.647 286.124 321.656 286.242 321.69C286.359 321.725 286.468 321.784 286.56 321.864C287.36 322.512 287.512 324.464 287.52 324.544C287.522 324.573 287.516 324.603 287.503 324.629C287.491 324.656 287.472 324.679 287.448 324.696C287.42 324.706 287.39 324.709 287.36 324.704ZM285.992 321.96H285.92C285.712 321.96 285.696 322.088 285.688 322.128C285.6 322.568 286.488 323.728 287.16 324.224C287.111 323.451 286.833 322.71 286.36 322.096C286.256 322.011 286.126 321.963 285.992 321.96Z" fill="#5E88C6"/>
<path d="M276.512 132.504L269.04 132.408C266.528 132.408 264.032 132.328 261.56 132.288C260.808 132.288 260.072 132.24 259.328 132.208C259.376 132.208 259.408 132.12 259.448 132.08C259.976 131.52 260.504 130.944 261.048 130.392C261.32 130.104 261.587 129.824 261.848 129.552C262.096 129.28 262.416 128.976 262.584 128.752L263.264 127.888C263.8 127.204 264.107 126.369 264.142 125.501C264.176 124.633 263.937 123.776 263.457 123.052C262.977 122.327 262.281 121.773 261.468 121.466C260.655 121.16 259.766 121.117 258.928 121.344L257.448 121.744C256.992 121.88 256.536 122.032 256.08 122.184C255.184 122.496 254.304 122.84 253.432 123.216C251.675 123.992 249.977 124.896 248.352 125.92C246.669 126.996 245.077 128.208 243.592 129.544C242.02 130.973 240.597 132.557 239.344 134.272C239.028 134.7 238.759 135.161 238.544 135.648C237.801 137.351 237.764 139.279 238.442 141.009C239.12 142.738 240.458 144.128 242.16 144.872L242.888 145.192C244.532 145.899 246.234 146.461 247.976 146.872C249.496 147.264 250.936 147.52 252.352 147.76C253.768 148 255.152 148.192 256.528 148.36C257.904 148.528 259.264 148.656 260.624 148.768C263.336 149.008 266.024 149.128 268.704 149.208C271.384 149.288 274.008 149.288 276.792 149.16C278.963 149.067 281.012 148.131 282.502 146.55C283.993 144.969 284.807 142.868 284.771 140.695C284.736 138.523 283.853 136.45 282.312 134.919C280.771 133.387 278.693 132.518 276.52 132.496L276.512 132.504Z" fill="#FFC3BD"/>
<path d="M280.864 147.104C274.408 154.464 258.872 151.712 258.872 151.712L259.728 133.376C265.053 132.204 270.484 131.574 275.936 131.496C285.056 131.48 286.032 141.2 280.864 147.104Z" fill="#263238"/>
<path d="M263.632 141.464C263.248 144.424 262.832 148.408 262.584 153.768C259.216 170.808 257.96 182.88 260.936 191.688C263.288 194.592 293.936 194.032 299.448 193.472C302.648 185.552 302.984 162.816 303.36 143.704C303.407 141.07 302.509 138.507 300.828 136.479C299.148 134.45 296.796 133.091 294.2 132.648C287.303 131.425 280.267 131.188 273.304 131.944C270.86 132.222 268.579 133.311 266.826 135.036C265.073 136.762 263.949 139.025 263.632 141.464Z" fill="#263238"/>
<path opacity="0.2" d="M293.368 153.096C293.472 158.92 297.696 168.224 302.448 172.944C302.736 168.024 302.92 162.688 303.064 157.304L293.368 153.096Z" fill="black"/>
<path d="M320.072 164.416L319.8 163.776C318.682 161.107 317.374 158.522 315.888 156.04C314.464 153.64 312.928 151.376 311.336 149.192C309.744 147.008 308.056 144.92 306.328 142.888C305.448 141.88 304.576 140.872 303.656 139.896L302.272 138.44L300.8 136.952C299.258 135.429 297.184 134.567 295.017 134.548C292.85 134.529 290.761 135.354 289.192 136.849C287.624 138.344 286.699 140.391 286.613 142.556C286.528 144.721 287.289 146.834 288.736 148.448L288.976 148.712L293.672 153.936C295.272 155.712 296.8 157.52 298.32 159.32C299.056 160.224 299.816 161.128 300.504 162.048C301.192 162.968 301.92 163.856 302.608 164.768C303.6 166.152 304.56 167.528 305.416 168.88C305.285 169.563 305.119 170.238 304.92 170.904C304.345 172.842 303.669 174.748 302.896 176.616C302.096 178.592 301.248 180.616 300.368 182.608C299.488 184.6 298.544 186.68 297.704 188.68L297.624 188.856C297.255 189.74 297.199 190.723 297.465 191.644C297.731 192.564 298.303 193.366 299.087 193.917C299.87 194.468 300.818 194.735 301.774 194.675C302.73 194.614 303.636 194.229 304.344 193.584C306.109 191.948 307.783 190.218 309.36 188.4C310.96 186.603 312.461 184.709 313.864 182.72C314.576 181.72 315.256 180.68 315.928 179.6C316.626 178.502 317.264 177.367 317.84 176.2C318.488 174.927 319.049 173.612 319.52 172.264C320.134 170.538 320.479 168.727 320.544 166.896C320.564 166.045 320.404 165.2 320.072 164.416Z" fill="#FFC3BD"/>
<path d="M294.744 132.752C305.536 134.6 312.568 149.208 312.568 149.208L299.56 163.2C299.56 163.2 292.064 155.568 287.56 148.496C282.704 140.8 287.016 131.44 294.744 132.752Z" fill="#263238"/>
<path d="M275.032 109.72C273.224 106.688 272.632 102.52 275.944 98.2719C275.299 98.3528 274.644 98.2447 274.059 97.9607C273.474 97.6767 272.984 97.229 272.648 96.6719C276.275 93.7048 280.835 92.1177 285.52 92.1919C295.2 92.1919 295.92 95.9279 295.592 98.4799C302.216 98.9039 307.048 116.128 290.256 119.176C280.648 109.056 275.032 109.72 275.032 109.72Z" fill="#263238"/>
<path d="M294.984 98.7919C294.984 98.7919 297.68 96.0399 294.328 92.7119C295.079 92.918 295.765 93.3151 296.317 93.8647C296.869 94.4143 297.27 95.0975 297.48 95.8479C297.952 97.7839 296.648 99.3359 294.984 98.7919Z" fill="#263238"/>
<path d="M291.272 117.072C291.016 122.376 290.536 128.408 291.424 132.64C290.048 134.808 286.528 137.304 280.224 137.864C277.984 136.592 275.024 133.48 276.056 131.88C278.736 130.16 279.872 124.952 279.104 121.056L291.272 117.072Z" fill="#FFC3BD"/>
<path opacity="0.2" d="M288.2 118.072L279.088 121.056C279.398 122.715 279.411 124.416 279.128 126.08C281.848 125.992 285.616 123.944 287.032 122.024C287.493 121.484 287.836 120.853 288.037 120.172C288.238 119.492 288.294 118.776 288.2 118.072Z" fill="black"/>
<path d="M293.928 108.672C292.24 115.176 291.584 119.072 287.6 121.8C281.608 125.904 274.072 121.304 273.776 114.432C273.52 108.24 276.32 98.64 283.28 97.272C284.812 96.9647 286.398 97.0542 287.886 97.5322C289.374 98.0102 290.716 98.8607 291.782 100.003C292.849 101.145 293.607 102.541 293.982 104.059C294.357 105.576 294.339 107.164 293.928 108.672Z" fill="#FFC3BD"/>
<path d="M292.584 99.3599C289.728 101.392 286.184 110 293.384 113.456C299.848 107.776 298.176 99.3599 292.584 99.3599Z" fill="#263238"/>
<path d="M294.232 100.392C295.456 94.7279 281.16 91.7999 276.632 98.4159C275.096 102.4 293.368 105.92 294.232 100.392Z" fill="#263238"/>
<path d="M283.568 115.576C282.083 114.904 280.49 114.501 278.864 114.384C278.841 114.384 278.819 114.389 278.798 114.398C278.777 114.406 278.758 114.42 278.742 114.436C278.727 114.452 278.714 114.472 278.706 114.493C278.698 114.515 278.695 114.537 278.696 114.56C278.705 114.612 278.731 114.659 278.77 114.694C278.81 114.729 278.86 114.749 278.912 114.752C280.471 114.865 281.998 115.249 283.424 115.888C283.469 115.908 283.519 115.91 283.565 115.893C283.612 115.877 283.65 115.844 283.672 115.8C283.681 115.779 283.685 115.756 283.685 115.732C283.684 115.709 283.679 115.686 283.669 115.665C283.659 115.644 283.645 115.625 283.628 115.61C283.61 115.595 283.59 115.583 283.568 115.576Z" fill="#263238"/>
<path d="M295.488 115.784C294.329 117.014 292.73 117.736 291.04 117.792C288.8 117.84 288.232 115.704 289.312 113.88C290.288 112.28 292.624 110.232 294.656 111.048C296.688 111.864 296.896 114.256 295.488 115.784Z" fill="#FFC3BD"/>
<path d="M283.584 108.56C283.48 109.096 283.112 109.48 282.784 109.408C282.456 109.336 282.24 108.848 282.344 108.312C282.448 107.776 282.816 107.4 283.144 107.512C283.472 107.624 283.688 108 283.584 108.56Z" fill="#263238"/>
<path d="M277.528 107.384C277.424 107.92 277.056 108.296 276.728 108.232C276.4 108.168 276.176 107.672 276.28 107.136C276.384 106.6 276.752 106.216 277.08 106.288C277.408 106.36 277.6 106.848 277.528 107.384Z" fill="#263238"/>
<path d="M279.4 108C278.44 109.514 277.277 110.89 275.944 112.088C276.744 113.152 278.512 112.944 278.512 112.944L279.4 108Z" fill="#ED847E"/>
<path d="M282.712 105.448C282.769 105.435 282.828 105.438 282.884 105.454C282.94 105.471 282.991 105.502 283.032 105.544C283.289 105.854 283.615 106.1 283.985 106.26C284.355 106.419 284.758 106.489 285.16 106.464C285.245 106.452 285.33 106.474 285.399 106.525C285.468 106.576 285.514 106.652 285.528 106.736C285.535 106.778 285.533 106.82 285.523 106.861C285.513 106.902 285.494 106.94 285.469 106.974C285.443 107.008 285.411 107.036 285.375 107.057C285.338 107.078 285.298 107.091 285.256 107.096C284.748 107.137 284.238 107.056 283.767 106.86C283.297 106.663 282.88 106.358 282.552 105.968C282.522 105.939 282.498 105.904 282.482 105.866C282.465 105.827 282.457 105.786 282.457 105.744C282.457 105.702 282.465 105.661 282.482 105.622C282.498 105.584 282.522 105.549 282.552 105.52C282.599 105.485 282.654 105.46 282.712 105.448Z" fill="#263238"/>
<path d="M275.656 103.672C275.589 103.658 275.53 103.621 275.488 103.568C275.461 103.535 275.441 103.496 275.429 103.455C275.418 103.414 275.414 103.371 275.419 103.328C275.425 103.285 275.438 103.244 275.46 103.207C275.481 103.17 275.51 103.138 275.544 103.112C275.937 102.79 276.401 102.566 276.897 102.459C277.394 102.352 277.909 102.364 278.4 102.496C278.481 102.523 278.548 102.581 278.587 102.658C278.626 102.734 278.633 102.822 278.608 102.904C278.576 102.981 278.517 103.044 278.442 103.081C278.367 103.118 278.281 103.126 278.2 103.104C277.809 103.004 277.4 102.999 277.006 103.088C276.613 103.177 276.246 103.358 275.936 103.616C275.899 103.649 275.853 103.672 275.804 103.682C275.754 103.692 275.703 103.689 275.656 103.672Z" fill="#263238"/>
<path d="M301.48 188.448L294.608 188.4L298.16 196.288C298.16 196.288 304.024 195.032 303.704 191.848L301.48 188.448Z" fill="#FFC3BD"/>
<path d="M291.112 193.816L292.24 196.04C292.543 196.632 293.056 197.09 293.679 197.324C294.302 197.557 294.99 197.55 295.608 197.304L298.16 196.288L294.608 188.4L291.88 190.48C291.38 190.857 291.03 191.398 290.889 192.008C290.749 192.618 290.828 193.258 291.112 193.816Z" fill="#FFC3BD"/>
<path d="M249.168 182.64C248.338 182.631 247.528 182.381 246.839 181.918C246.149 181.456 245.609 180.803 245.285 180.038C244.962 179.274 244.868 178.431 245.017 177.615C245.165 176.798 245.548 176.042 246.12 175.44C249.176 172.288 251.936 169.84 254.368 167.704C260.24 162.528 262.264 160.504 262.072 156.624C261.785 154.23 261.276 151.868 260.552 149.568C258.8 143.128 256.816 135.84 260.216 129.992C262.04 126.848 265.136 124.696 269.424 123.592C270.508 123.335 271.65 123.513 272.604 124.088C273.558 124.663 274.249 125.59 274.528 126.669C274.806 127.747 274.651 128.893 274.094 129.858C273.538 130.823 272.625 131.532 271.552 131.832C268.536 132.632 267.808 133.856 267.552 134.272C265.952 137.032 267.496 142.744 268.744 147.328C269.648 150.218 270.254 153.194 270.552 156.208C270.952 164.408 266.112 168.68 259.976 174.088C257.664 176.136 255.032 178.456 252.2 181.368C251.805 181.771 251.333 182.092 250.813 182.31C250.292 182.529 249.733 182.641 249.168 182.64Z" fill="#5E88C6"/>
<path d="M258.504 121.52L265.16 119.816L263.608 128.328C263.608 128.328 257.616 128.512 257.168 125.352L258.504 121.52Z" fill="#FFC3BD"/>
<path d="M269.832 124.328L269.32 126.552C269.163 127.231 268.757 127.827 268.183 128.222C267.608 128.618 266.907 128.784 266.216 128.688L263.608 128.328L265.16 119.816L268.216 121.136C268.816 121.395 269.307 121.856 269.602 122.439C269.898 123.022 269.979 123.691 269.832 124.328Z" fill="#FFC3BD"/>
<path d="M246.788 168.642L246.607 168.461C245.798 167.652 244.486 167.652 243.677 168.461L220.086 192.06C219.277 192.87 219.278 194.182 220.087 194.991L220.268 195.172C221.077 195.981 222.389 195.98 223.198 195.171L246.789 171.572C247.598 170.763 247.598 169.451 246.788 168.642Z" fill="#263238"/>
<path d="M259.083 180.921L258.902 180.74C258.093 179.931 256.781 179.931 255.972 180.74L232.377 204.335C231.568 205.144 231.568 206.456 232.377 207.265L232.558 207.446C233.368 208.255 234.679 208.255 235.489 207.446L259.083 183.852C259.893 183.042 259.893 181.73 259.083 180.921Z" fill="#263238"/>
<path d="M227.53 177.427L244.155 160.801C244.688 160.268 245.32 159.846 246.016 159.558C246.712 159.269 247.458 159.121 248.211 159.121C248.965 159.121 249.71 159.269 250.406 159.558C251.102 159.846 251.735 160.268 252.267 160.801L266.8 175.333C267.332 175.866 267.755 176.498 268.043 177.194C268.331 177.89 268.48 178.636 268.48 179.389C268.48 180.143 268.331 180.889 268.043 181.585C267.755 182.28 267.332 182.913 266.8 183.445L250.174 200.071L227.53 177.427Z" fill="#5E88C6"/>
<path opacity="0.7" d="M227.53 177.427L244.155 160.801C244.688 160.268 245.32 159.846 246.016 159.558C246.712 159.269 247.458 159.121 248.211 159.121C248.965 159.121 249.71 159.269 250.406 159.558C251.102 159.846 251.735 160.268 252.267 160.801L266.8 175.333C267.332 175.866 267.755 176.498 268.043 177.194C268.331 177.89 268.48 178.636 268.48 179.389C268.48 180.143 268.331 180.889 268.043 181.585C267.755 182.28 267.332 182.913 266.8 183.445L250.174 200.071L227.53 177.427Z" fill="white"/>
<path opacity="0.2" d="M233.264 171.648L227.504 177.4L250.152 200.048L255.904 194.288C255.675 193.618 255.294 193.01 254.792 192.512L235.04 172.8C234.546 172.283 233.938 171.888 233.264 171.648Z" fill="#5E88C6"/>
<path d="M226.533 174.499L226.12 174.912C224.364 176.668 224.364 179.515 226.12 181.27L246.287 201.437C248.042 203.193 250.889 203.193 252.645 201.437L253.058 201.024C254.814 199.268 254.814 196.422 253.058 194.666L232.891 174.499C231.135 172.743 228.289 172.743 226.533 174.499Z" fill="#5E88C6"/>
<path d="M289.216 23.3362H110.784C107.064 23.3362 104.048 26.6456 104.048 30.7279V66.4397C104.048 70.5221 107.064 73.8314 110.784 73.8314H289.216C292.936 73.8314 295.952 70.5221 295.952 66.4397V30.7279C295.952 26.6456 292.936 23.3362 289.216 23.3362Z" fill="white"/>
<path d="M289.216 74.481H110.816C108.873 74.4787 107.011 73.6307 105.637 72.1232C104.263 70.6157 103.49 68.5717 103.488 66.4397V30.7278C103.49 28.5959 104.263 26.5519 105.637 25.0443C107.011 23.5368 108.873 22.6888 110.816 22.6865H289.216C291.159 22.6888 293.022 23.5368 294.395 25.0443C295.769 26.5519 296.542 28.5959 296.544 30.7278V66.4397C296.542 68.5717 295.769 70.6157 294.395 72.1232C293.022 73.6307 291.159 74.4787 289.216 74.481ZM110.816 23.9858C109.187 23.9881 107.626 24.6992 106.474 25.963C105.322 27.2269 104.674 28.9404 104.672 30.7278V66.4397C104.674 68.2271 105.322 69.9406 106.474 71.2045C107.626 72.4684 109.187 73.1794 110.816 73.1818H289.216C290.845 73.1794 292.406 72.4684 293.558 71.2045C294.71 69.9406 295.358 68.2271 295.36 66.4397V30.7278C295.358 28.9404 294.71 27.2269 293.558 25.963C292.406 24.6992 290.845 23.9881 289.216 23.9858H110.816Z" fill="#263238"/>
<path d="M208.536 80.512H202.616L207.584 64.3855L191.464 86.4816H197.384L192.416 102.608L208.536 80.512Z" fill="#5E88C6"/>
<path d="M116.007 46.204H114.699L114.507 40.252H116.187L116.007 46.204ZM115.359 49.168C115.071 49.168 114.831 49.072 114.639 48.88C114.447 48.68 114.351 48.436 114.351 48.148C114.351 47.868 114.447 47.636 114.639 47.452C114.831 47.26 115.071 47.164 115.359 47.164C115.639 47.164 115.875 47.26 116.067 47.452C116.267 47.644 116.367 47.876 116.367 48.148C116.367 48.436 116.267 48.68 116.067 48.88C115.875 49.072 115.639 49.168 115.359 49.168ZM121.381 51.868C120.621 51.868 119.949 51.72 119.365 51.424C118.781 51.128 118.329 50.688 118.009 50.104C117.697 49.528 117.569 48.836 117.625 48.028C117.673 47.26 117.945 46.328 118.441 45.232L119.605 45.76C119.389 46.248 119.225 46.672 119.113 47.032C119.009 47.384 118.957 47.744 118.957 48.112C118.957 48.776 119.161 49.272 119.569 49.6C119.985 49.928 120.589 50.092 121.381 50.092C122.029 50.092 122.609 49.976 123.121 49.744C123.633 49.52 124.001 49.236 124.225 48.892C124.233 48.868 123.981 48.792 123.469 48.664L122.833 48.484C122.201 48.3 121.753 48.08 121.489 47.824C121.225 47.568 121.093 47.208 121.093 46.744C121.093 46.096 121.257 45.476 121.585 44.884C121.913 44.292 122.345 43.812 122.881 43.444C123.417 43.076 123.985 42.892 124.585 42.892C124.825 42.892 125.069 42.928 125.317 43C125.565 43.064 125.737 43.144 125.833 43.24L125.329 44.788C125.249 44.756 125.133 44.728 124.981 44.704C124.829 44.68 124.693 44.668 124.573 44.668C124.245 44.668 123.929 44.74 123.625 44.884C123.329 45.02 123.077 45.204 122.869 45.436C122.661 45.66 122.521 45.904 122.449 46.168C122.441 46.2 122.437 46.24 122.437 46.288C122.437 46.424 122.529 46.544 122.713 46.648C122.905 46.744 123.261 46.852 123.781 46.972C124.509 47.14 125.001 47.352 125.257 47.608C125.521 47.856 125.653 48.148 125.653 48.484C125.653 49.068 125.465 49.62 125.089 50.14C124.713 50.66 124.197 51.076 123.541 51.388C122.893 51.708 122.173 51.868 121.381 51.868ZM133.244 49C132.892 49 132.576 48.936 132.296 48.808C132.024 48.672 131.776 48.472 131.552 48.208C130.968 48.776 130.244 49.06 129.38 49.06C128.404 49.06 127.488 48.74 126.632 48.1L127.28 46.84C127.536 46.976 127.816 47.1 128.12 47.212C128.424 47.316 128.784 47.368 129.2 47.368C129.832 47.368 130.38 47.22 130.844 46.924L129.2 43.168L130.436 42.496L132.08 46.384C132.208 46.704 132.356 46.924 132.524 47.044C132.692 47.156 132.932 47.212 133.244 47.212H133.4L133.496 48.112L133.4 49H133.244ZM133.304 47.212H133.52C134.144 47.212 134.656 46.836 135.056 46.084C135.456 45.34 135.84 44.784 136.208 44.416C136.576 44.04 136.988 43.852 137.444 43.852C137.876 43.852 138.256 43.992 138.584 44.272C138.912 44.544 139.16 44.9 139.328 45.34C139.504 45.772 139.592 46.228 139.592 46.708C139.592 47.172 139.504 47.604 139.328 48.004C139.152 48.396 138.896 48.692 138.56 48.892C138.384 49.004 138.168 49.06 137.912 49.06C137.296 49.06 136.48 48.74 135.464 48.1C134.968 48.7 134.312 49 133.496 49H133.268L133.304 47.212ZM136.232 46.684C136.608 46.916 136.948 47.1 137.252 47.236C137.556 47.364 137.788 47.428 137.948 47.428C138.028 47.428 138.084 47.416 138.116 47.392C138.196 47.336 138.256 47.256 138.296 47.152C138.344 47.04 138.368 46.912 138.368 46.768C138.368 46.448 138.28 46.152 138.104 45.88C137.928 45.6 137.696 45.46 137.408 45.46C137.048 45.46 136.656 45.868 136.232 46.684ZM140.462 50.956C141.582 50.716 142.442 50.436 143.042 50.116C143.65 49.804 144.046 49.424 144.23 48.976C144.014 49.008 143.774 49.024 143.51 49.024C142.926 49.024 142.398 48.924 141.926 48.724C141.462 48.516 141.134 48.208 140.942 47.8C140.798 47.488 140.726 47.144 140.726 46.768C140.726 46.296 140.826 45.828 141.026 45.364C141.226 44.892 141.502 44.508 141.854 44.212C142.206 43.908 142.59 43.756 143.006 43.756C143.486 43.756 143.922 43.964 144.314 44.38C144.706 44.796 145.014 45.34 145.238 46.012C145.462 46.684 145.574 47.384 145.574 48.112C145.574 49.232 145.17 50.176 144.362 50.944C143.554 51.712 142.438 52.232 141.014 52.504L140.462 50.956ZM142.046 46.792C142.166 46.952 142.39 47.076 142.718 47.164C143.046 47.244 143.414 47.284 143.822 47.284C144.014 47.284 144.158 47.28 144.254 47.272C144.142 46.728 143.958 46.272 143.702 45.904C143.454 45.536 143.174 45.352 142.862 45.352C142.702 45.352 142.55 45.412 142.406 45.532C142.27 45.652 142.158 45.8 142.07 45.976C141.99 46.152 141.95 46.316 141.95 46.468C141.95 46.596 141.982 46.704 142.046 46.792ZM146.834 48.928C146.914 48.4 146.954 47.584 146.954 46.48C146.954 45.376 146.918 44.22 146.846 43.012C146.782 41.796 146.706 40.944 146.618 40.456L148.118 40.108C148.19 40.572 148.254 41.384 148.31 42.544C148.366 43.704 148.394 44.844 148.394 45.964C148.394 47.348 148.346 48.388 148.25 49.084L146.834 48.928ZM155.74 52.468C155.02 52.468 154.376 52.332 153.808 52.06C153.24 51.788 152.792 51.388 152.464 50.86C152.136 50.332 151.972 49.696 151.972 48.952C151.972 48.464 152.056 47.936 152.224 47.368C152.4 46.792 152.596 46.28 152.812 45.832L153.964 46.36C153.756 46.832 153.596 47.248 153.484 47.608C153.372 47.968 153.316 48.336 153.316 48.712C153.316 49.376 153.524 49.868 153.94 50.188C154.356 50.516 154.956 50.68 155.74 50.68C156.172 50.68 156.58 50.632 156.964 50.536C157.356 50.44 157.688 50.32 157.96 50.176C158.24 50.032 158.432 49.888 158.536 49.744C158.392 49.608 158.088 49.412 157.624 49.156C157.16 48.908 156.68 48.692 156.184 48.508L156.556 46.828C157.252 46.964 157.856 47.064 158.368 47.128C158.88 47.184 159.384 47.212 159.88 47.212H160.072L160.168 48.112L160.072 49H159.88C159.76 49 159.58 48.992 159.34 48.976C159.636 49.272 159.784 49.56 159.784 49.84C159.784 50.24 159.604 50.644 159.244 51.052C158.884 51.46 158.392 51.796 157.768 52.06C157.152 52.332 156.476 52.468 155.74 52.468ZM159.917 47.212H160.109C160.509 47.212 160.801 47.208 160.985 47.2C160.745 46.848 160.625 46.484 160.625 46.108C160.625 46.02 160.641 45.888 160.673 45.712C160.777 45.2 160.969 44.728 161.249 44.296C161.145 44.272 161.021 44.24 160.877 44.2L161.537 42.544C163.113 43.024 164.345 43.484 165.233 43.924C166.121 44.356 166.745 44.784 167.105 45.208C167.465 45.632 167.645 46.092 167.645 46.588C167.645 46.892 167.577 47.268 167.441 47.716C167.313 48.132 167.033 48.444 166.601 48.652C166.169 48.86 165.653 48.964 165.053 48.964C164.389 48.964 163.745 48.856 163.121 48.64C162.393 48.88 161.389 49 160.109 49H159.917V47.212ZM161.921 45.868C161.921 46.252 162.273 46.604 162.977 46.924C163.641 46.708 163.973 46.376 163.973 45.928C163.973 45.728 163.917 45.54 163.805 45.364C163.693 45.18 163.545 45.044 163.361 44.956L163.073 44.86C163.049 44.852 163.009 44.848 162.953 44.848C162.697 44.848 162.461 44.952 162.245 45.16C162.029 45.368 161.921 45.604 161.921 45.868ZM164.705 47.38C164.897 47.404 165.077 47.416 165.245 47.416C165.533 47.416 165.769 47.384 165.953 47.32C166.145 47.248 166.265 47.144 166.313 47.008C166.337 46.944 166.349 46.888 166.349 46.84C166.349 46.472 165.929 46.08 165.089 45.664C165.097 45.832 165.089 46.024 165.065 46.24C164.993 46.688 164.873 47.068 164.705 47.38ZM171.387 49C170.507 49 169.871 48.748 169.479 48.244C169.095 47.74 168.903 46.972 168.903 45.94C168.895 44.956 168.863 43.96 168.807 42.952C168.759 41.936 168.687 41.1 168.591 40.444L170.079 40.12C170.159 40.704 170.223 41.496 170.271 42.496C170.319 43.488 170.343 44.408 170.343 45.256V45.712C170.335 46.12 170.355 46.428 170.403 46.636C170.451 46.844 170.547 46.992 170.691 47.08C170.843 47.168 171.075 47.212 171.387 47.212H171.447L171.543 48.112L171.447 49H171.387ZM171.331 47.212H171.403C172.011 47.212 172.451 47.148 172.723 47.02C173.003 46.892 173.163 46.684 173.203 46.396C173.219 46.268 173.227 46.168 173.227 46.096C173.227 45.904 173.207 45.684 173.167 45.436C173.127 45.18 173.103 45.02 173.095 44.956L174.343 44.716C174.447 45.308 174.499 45.968 174.499 46.696C174.531 46.832 174.619 46.952 174.763 47.056C174.915 47.16 175.127 47.212 175.399 47.212H175.471L175.567 48.112L175.471 49H175.399C175.079 49 174.779 48.924 174.499 48.772C174.227 48.62 173.995 48.42 173.803 48.172C173.571 48.46 173.255 48.672 172.855 48.808C172.463 48.936 171.979 49 171.403 49H171.331V47.212ZM172.075 49.96C172.323 50.2 172.567 50.444 172.807 50.692L173.179 51.064L172.075 52.168L170.959 51.064L172.075 49.96ZM180.162 49C179.402 49 178.834 48.724 178.458 48.172C178.17 48.46 177.778 48.672 177.282 48.808C176.794 48.936 176.178 49 175.434 49H175.35V47.212H175.434C176.154 47.212 176.718 47.164 177.126 47.068C177.534 46.964 177.806 46.808 177.942 46.6L177.606 45.052L178.794 44.644C178.97 45.38 179.118 45.98 179.238 46.444C179.318 46.716 179.43 46.912 179.574 47.032C179.718 47.152 179.91 47.212 180.15 47.212H180.21L180.306 48.112L180.21 49H180.162ZM176.622 41.824L177.63 42.832L176.622 43.852L175.938 43.168L175.602 42.832L176.622 41.824ZM178.734 41.824L179.742 42.832L178.734 43.852L178.05 43.168L177.714 42.832L178.734 41.824ZM186.769 49C186.401 48.992 186.081 48.9 185.809 48.724C185.545 48.548 185.341 48.3 185.197 47.98C184.749 48.652 184.217 48.992 183.601 49H183.541C183.197 49 182.897 48.908 182.641 48.724C182.385 48.54 182.205 48.296 182.101 47.992C181.845 48.32 181.549 48.572 181.213 48.748C180.885 48.916 180.533 49 180.157 49H180.121L180.025 48.112L180.121 47.212H180.181C180.429 47.212 180.673 47.16 180.913 47.056C181.153 46.944 181.333 46.808 181.453 46.648C181.621 46.456 181.749 46.24 181.837 46C181.925 45.76 182.005 45.504 182.077 45.232L183.325 45.364C183.317 45.404 183.273 45.564 183.193 45.844C183.113 46.116 183.073 46.364 183.073 46.588C183.073 47.004 183.241 47.212 183.577 47.212H183.601C184.017 47.212 184.337 46.992 184.561 46.552C184.745 46.184 184.877 45.716 184.957 45.148L186.205 45.208C186.173 45.336 186.141 45.52 186.109 45.76C186.085 45.992 186.073 46.184 186.073 46.336C186.073 46.92 186.313 47.212 186.793 47.212H186.805C187.045 47.212 187.229 47.144 187.357 47.008C187.493 46.872 187.561 46.696 187.561 46.48C187.561 46.264 187.477 45.92 187.309 45.448C187.149 44.976 187.013 44.616 186.901 44.368L188.137 43.696C188.289 44.024 188.449 44.476 188.617 45.052C188.785 45.62 188.869 46.12 188.869 46.552C188.869 46.992 188.781 47.4 188.605 47.776C188.437 48.144 188.197 48.44 187.885 48.664C187.573 48.888 187.221 49 186.829 49H186.769ZM183.445 42.484C183.877 42.068 184.197 41.752 184.405 41.536L185.365 42.484L184.405 43.456L183.445 42.484ZM186.673 41.536C186.881 41.752 187.093 41.964 187.309 42.172L187.621 42.484L187.057 43.072C186.801 43.328 186.673 43.456 186.673 43.456L186.349 43.132C185.917 42.7 185.701 42.484 185.701 42.484L186.673 41.536ZM185.533 40.228C185.805 40.516 186.085 40.796 186.373 41.068L185.533 41.932L184.681 41.068L185.533 40.228ZM190.065 48.928C190.145 48.4 190.185 47.584 190.185 46.48C190.185 45.376 190.149 44.22 190.077 43.012C190.013 41.796 189.937 40.944 189.849 40.456L191.349 40.108C191.421 40.572 191.485 41.384 191.541 42.544C191.597 43.704 191.625 44.844 191.625 45.964C191.625 47.348 191.577 48.388 191.481 49.084L190.065 48.928ZM195.107 50.956C196.227 50.716 197.087 50.436 197.687 50.116C198.295 49.804 198.691 49.424 198.875 48.976C198.659 49.008 198.419 49.024 198.155 49.024C197.571 49.024 197.043 48.924 196.571 48.724C196.107 48.516 195.779 48.208 195.587 47.8C195.443 47.488 195.371 47.144 195.371 46.768C195.371 46.296 195.471 45.828 195.671 45.364C195.871 44.892 196.147 44.508 196.499 44.212C196.851 43.908 197.235 43.756 197.651 43.756C198.131 43.756 198.567 43.964 198.959 44.38C199.351 44.796 199.659 45.34 199.883 46.012C200.107 46.684 200.219 47.384 200.219 48.112C200.219 49.232 199.815 50.176 199.007 50.944C198.199 51.712 197.083 52.232 195.659 52.504L195.107 50.956ZM196.691 46.792C196.811 46.952 197.035 47.076 197.363 47.164C197.691 47.244 198.059 47.284 198.467 47.284C198.659 47.284 198.803 47.28 198.899 47.272C198.787 46.728 198.603 46.272 198.347 45.904C198.099 45.536 197.819 45.352 197.507 45.352C197.347 45.352 197.195 45.412 197.051 45.532C196.915 45.652 196.803 45.8 196.715 45.976C196.635 46.152 196.595 46.316 196.595 46.468C196.595 46.596 196.627 46.704 196.691 46.792ZM200.348 50.992C200.876 50.776 201.36 50.524 201.8 50.236C202.24 49.956 202.584 49.676 202.832 49.396C203.088 49.116 203.216 48.876 203.216 48.676C203.216 48.348 203.004 47.456 202.58 46L202.52 45.76L203.864 45.232C204.056 45.784 204.208 46.376 204.32 47.008C204.432 47.632 204.488 48.188 204.488 48.676C204.488 49.46 204.18 50.184 203.564 50.848C202.948 51.52 202.12 52.072 201.08 52.504L200.348 50.992ZM213.51 49C213.118 49 212.778 48.936 212.49 48.808C212.21 48.68 211.974 48.48 211.782 48.208C211.302 48.352 210.838 48.424 210.39 48.424C209.67 48.424 209.078 48.252 208.614 47.908C208.158 47.556 207.93 47.08 207.93 46.48C207.93 45.784 208.186 45.196 208.698 44.716C209.21 44.236 209.898 43.82 210.762 43.468L210.678 42.748L212.07 42.448C212.254 44.16 212.382 45.288 212.454 45.832C212.502 46.232 212.558 46.528 212.622 46.72C212.694 46.912 212.794 47.044 212.922 47.116C213.058 47.18 213.254 47.212 213.51 47.212H213.726L213.822 48.112L213.726 49H213.51ZM209.25 46.144C209.226 46.312 209.31 46.456 209.502 46.576C209.702 46.696 209.966 46.756 210.294 46.756C210.558 46.756 210.858 46.708 211.194 46.612C211.17 46.492 211.142 46.312 211.11 46.072L210.966 45.028C210.51 45.172 210.114 45.352 209.778 45.568C209.442 45.776 209.266 45.968 209.25 46.144ZM222.649 49C221.137 48.992 220.129 48.504 219.625 47.536C218.585 48.064 217.669 48.44 216.877 48.664C216.085 48.88 215.161 48.992 214.105 49H213.565V47.212H214.465C215.369 47.212 216.217 47.12 217.009 46.936C217.801 46.744 218.637 46.424 219.517 45.976C219.301 45.888 219.017 45.756 218.665 45.58C217.961 45.22 217.349 45.04 216.829 45.04C216.525 45.04 216.253 45.124 216.013 45.292C215.781 45.452 215.601 45.636 215.473 45.844L214.465 45.112C215.073 43.92 215.877 43.324 216.877 43.324C217.213 43.324 217.537 43.38 217.849 43.492C218.161 43.604 218.617 43.812 219.217 44.116C219.681 44.356 220.073 44.54 220.393 44.668C220.721 44.796 221.081 44.9 221.473 44.98L221.533 46.588C221.381 46.628 221.165 46.72 220.885 46.864C221.253 47.096 221.685 47.212 222.181 47.212H222.769L222.865 48.112L222.769 49H222.649ZM222.647 47.212H222.935C223.279 47.212 223.527 47.208 223.679 47.2C223.463 46.848 223.355 46.476 223.355 46.084C223.355 46.012 223.363 45.912 223.379 45.784C223.451 45.312 223.599 44.884 223.823 44.5C224.047 44.116 224.319 43.812 224.639 43.588C224.967 43.364 225.311 43.252 225.671 43.252C226.087 43.252 226.455 43.38 226.775 43.636C227.095 43.892 227.339 44.22 227.507 44.62C227.675 45.02 227.759 45.432 227.759 45.856C227.759 45.944 227.751 46.068 227.735 46.228C227.687 46.572 227.587 46.9 227.435 47.212H228.431L228.527 48.112L228.431 49H227.723C226.971 49 226.267 48.884 225.611 48.652C224.915 48.884 224.023 49 222.935 49H222.647V47.212ZM225.647 40.324C226.007 40.7 226.375 41.068 226.751 41.428L225.647 42.544L224.531 41.428L225.647 40.324ZM224.627 45.892C224.643 46.076 224.727 46.26 224.879 46.444C225.039 46.628 225.259 46.784 225.539 46.912C225.987 46.744 226.299 46.456 226.475 46.048L226.487 45.916C226.487 45.668 226.407 45.44 226.247 45.232C226.087 45.016 225.871 44.908 225.599 44.908C225.351 44.908 225.135 45.008 224.951 45.208C224.767 45.408 224.659 45.636 224.627 45.892ZM228.272 47.212H228.44C228.816 47.212 229.12 47.132 229.352 46.972C229.584 46.804 229.768 46.548 229.904 46.204C230.04 45.852 230.148 45.38 230.228 44.788L231.476 45.052C231.428 45.348 231.404 45.62 231.404 45.868C231.404 46.364 231.516 46.74 231.74 46.996C232.34 45.924 233.012 45.088 233.756 44.488C234.5 43.888 235.244 43.588 235.988 43.588C236.444 43.588 236.852 43.688 237.212 43.888C237.58 44.08 237.868 44.352 238.076 44.704C238.284 45.048 238.388 45.44 238.388 45.88C238.388 46.56 238.184 47.156 237.776 47.668C237.368 48.18 236.8 48.572 236.072 48.844C235.344 49.116 234.516 49.252 233.588 49.252C232.116 49.252 231.132 48.78 230.636 47.836C230.396 48.22 230.1 48.512 229.748 48.712C229.396 48.904 228.96 49 228.44 49H228.272V47.212ZM232.916 47.476C233.076 47.492 233.2 47.5 233.288 47.5C234.024 47.516 234.684 47.448 235.268 47.296C235.86 47.144 236.32 46.944 236.648 46.696C236.976 46.44 237.14 46.192 237.14 45.952C237.14 45.76 237.048 45.6 236.864 45.472C236.688 45.336 236.44 45.268 236.12 45.268C235.592 45.268 235.048 45.46 234.488 45.844C233.928 46.228 233.404 46.772 232.916 47.476ZM247.4 49C247.008 49 246.668 48.936 246.38 48.808C246.1 48.68 245.864 48.48 245.672 48.208C245.192 48.352 244.728 48.424 244.28 48.424C243.56 48.424 242.968 48.252 242.504 47.908C242.048 47.556 241.82 47.08 241.82 46.48C241.82 45.784 242.076 45.196 242.588 44.716C243.1 44.236 243.788 43.82 244.652 43.468L244.568 42.748L245.96 42.448C246.144 44.16 246.272 45.288 246.344 45.832C246.392 46.232 246.448 46.528 246.512 46.72C246.584 46.912 246.684 47.044 246.812 47.116C246.948 47.18 247.144 47.212 247.4 47.212H247.616L247.712 48.112L247.616 49H247.4ZM243.14 46.144C243.116 46.312 243.2 46.456 243.392 46.576C243.592 46.696 243.856 46.756 244.184 46.756C244.448 46.756 244.748 46.708 245.084 46.612C245.06 46.492 245.032 46.312 245 46.072L244.856 45.028C244.4 45.172 244.004 45.352 243.668 45.568C243.332 45.776 243.156 45.968 243.14 46.144ZM247.467 47.212H248.103C248.671 47.212 249.083 47.148 249.339 47.02C249.595 46.892 249.723 46.7 249.723 46.444C249.723 46.276 249.639 45.948 249.471 45.46C249.303 44.964 249.171 44.6 249.075 44.368L250.335 43.672C250.487 44.008 250.643 44.46 250.803 45.028C250.971 45.588 251.055 46.08 251.055 46.504C251.055 47.32 250.799 47.94 250.287 48.364C249.783 48.788 249.055 49 248.103 49H247.467V47.212ZM248.199 42.088C248.447 41.848 248.691 41.604 248.931 41.356L249.303 40.984L250.407 42.088L249.303 43.204L248.199 42.088ZM254.907 49C254.027 49 253.391 48.748 252.999 48.244C252.615 47.74 252.423 46.972 252.423 45.94C252.415 44.956 252.383 43.96 252.327 42.952C252.279 41.936 252.207 41.1 252.111 40.444L253.599 40.12C253.679 40.704 253.743 41.496 253.791 42.496C253.839 43.488 253.863 44.408 253.863 45.256V45.712C253.855 46.12 253.875 46.428 253.923 46.636C253.971 46.844 254.067 46.992 254.211 47.08C254.363 47.168 254.595 47.212 254.907 47.212H254.967L255.063 48.112L254.967 49H254.907ZM254.838 47.212H255.126C255.47 47.212 255.718 47.208 255.87 47.2C255.654 46.848 255.546 46.476 255.546 46.084C255.546 46.012 255.554 45.912 255.57 45.784C255.642 45.312 255.79 44.884 256.014 44.5C256.238 44.116 256.51 43.812 256.83 43.588C257.158 43.364 257.502 43.252 257.862 43.252C258.278 43.252 258.646 43.38 258.966 43.636C259.286 43.892 259.53 44.22 259.698 44.62C259.866 45.02 259.95 45.432 259.95 45.856C259.95 45.944 259.942 46.068 259.926 46.228C259.878 46.572 259.778 46.9 259.626 47.212H260.622L260.718 48.112L260.622 49H259.914C259.162 49 258.458 48.884 257.802 48.652C257.106 48.884 256.214 49 255.126 49H254.838V47.212ZM257.838 40.324C258.198 40.7 258.566 41.068 258.942 41.428L257.838 42.544L256.722 41.428L257.838 40.324ZM256.818 45.892C256.834 46.076 256.918 46.26 257.07 46.444C257.23 46.628 257.45 46.784 257.73 46.912C258.178 46.744 258.49 46.456 258.666 46.048L258.678 45.916C258.678 45.668 258.598 45.44 258.438 45.232C258.278 45.016 258.062 44.908 257.79 44.908C257.542 44.908 257.326 45.008 257.142 45.208C256.958 45.408 256.85 45.636 256.818 45.892ZM267.159 49C266.791 48.992 266.471 48.9 266.199 48.724C265.935 48.548 265.731 48.3 265.587 47.98C265.139 48.652 264.607 48.992 263.991 49H263.931C263.587 49 263.287 48.908 263.031 48.724C262.775 48.54 262.595 48.296 262.491 47.992C262.235 48.32 261.939 48.572 261.603 48.748C261.275 48.916 260.923 49 260.547 49H260.511L260.415 48.112L260.511 47.212H260.571C260.819 47.212 261.063 47.16 261.303 47.056C261.543 46.944 261.723 46.808 261.843 46.648C262.011 46.456 262.139 46.24 262.227 46C262.315 45.76 262.395 45.504 262.467 45.232L263.715 45.364C263.707 45.404 263.663 45.564 263.583 45.844C263.503 46.116 263.463 46.364 263.463 46.588C263.463 47.004 263.631 47.212 263.967 47.212H263.991C264.407 47.212 264.727 46.992 264.951 46.552C265.135 46.184 265.267 45.716 265.347 45.148L266.595 45.208C266.563 45.336 266.531 45.52 266.499 45.76C266.475 45.992 266.463 46.184 266.463 46.336C266.463 46.92 266.703 47.212 267.183 47.212H267.195C267.435 47.212 267.619 47.144 267.747 47.008C267.883 46.872 267.951 46.696 267.951 46.48C267.951 46.264 267.867 45.92 267.699 45.448C267.539 44.976 267.403 44.616 267.291 44.368L268.527 43.696C268.679 44.024 268.839 44.476 269.007 45.052C269.175 45.62 269.259 46.12 269.259 46.552C269.259 46.992 269.171 47.4 268.995 47.776C268.827 48.144 268.587 48.44 268.275 48.664C267.963 48.888 267.611 49 267.219 49H267.159ZM273.036 49C272.156 49 271.52 48.748 271.128 48.244C270.744 47.74 270.552 46.972 270.552 45.94C270.544 44.956 270.512 43.96 270.456 42.952C270.408 41.936 270.336 41.1 270.24 40.444L271.728 40.12C271.808 40.704 271.872 41.496 271.92 42.496C271.968 43.488 271.992 44.408 271.992 45.256V45.712C271.984 46.12 272.004 46.428 272.052 46.636C272.1 46.844 272.196 46.992 272.34 47.08C272.492 47.168 272.724 47.212 273.036 47.212H273.096L273.192 48.112L273.096 49H273.036ZM272.991 47.212H273.063C273.783 47.212 274.319 47.176 274.671 47.104C275.023 47.024 275.255 46.908 275.367 46.756C275.479 46.604 275.535 46.384 275.535 46.096C275.535 45.864 275.495 45.484 275.415 44.956L276.651 44.716C276.763 45.3 276.819 45.96 276.819 46.696C276.851 46.832 276.939 46.952 277.083 47.056C277.227 47.16 277.439 47.212 277.719 47.212H277.779L277.875 48.112L277.779 49H277.707C277.387 49 277.091 48.924 276.819 48.772C276.547 48.62 276.315 48.42 276.123 48.172C275.891 48.468 275.539 48.68 275.067 48.808C274.595 48.936 273.927 49 273.063 49H272.979L272.991 47.212ZM273.927 41.848L274.935 42.856L273.927 43.876L272.907 42.856L273.927 41.848ZM276.039 41.848L277.047 42.856L276.039 43.876L275.019 42.856L276.039 41.848ZM277.691 47.212H277.907C278.531 47.212 279.043 46.836 279.443 46.084C279.843 45.34 280.227 44.784 280.595 44.416C280.963 44.04 281.375 43.852 281.831 43.852C282.263 43.852 282.643 43.992 282.971 44.272C283.299 44.544 283.547 44.9 283.715 45.34C283.891 45.772 283.979 46.228 283.979 46.708C283.979 47.172 283.891 47.604 283.715 48.004C283.539 48.396 283.283 48.692 282.947 48.892C282.771 49.004 282.555 49.06 282.299 49.06C281.683 49.06 280.867 48.74 279.851 48.1C279.355 48.7 278.699 49 277.883 49H277.655L277.691 47.212ZM280.619 46.684C280.995 46.916 281.335 47.1 281.639 47.236C281.943 47.364 282.175 47.428 282.335 47.428C282.415 47.428 282.471 47.416 282.503 47.392C282.583 47.336 282.643 47.256 282.683 47.152C282.731 47.04 282.755 46.912 282.755 46.768C282.755 46.448 282.667 46.152 282.491 45.88C282.315 45.6 282.083 45.46 281.795 45.46C281.435 45.46 281.043 45.868 280.619 46.684Z" fill="#5E88C6"/>
</g>
<defs>
<clipPath id="clip0_66_1713">
<rect width="400" height="400" fill="white"/>
</clipPath>
</defs>
</svg>
