<svg width="337" height="337" viewBox="0 0 337 337" fill="none" xmlns="http://www.w3.org/2000/svg">
<path d="M370 274.92H-30V275.12H370V274.92Z" fill="#EBEBEB"/>
<path d="M329.92 287.792H303.424V287.992H329.92V287.792Z" fill="#EBEBEB"/>
<path d="M234.976 289.968H228.024V290.168H234.976V289.968Z" fill="#EBEBEB"/>
<path d="M302.624 280.368H287.272V280.568H302.624V280.368Z" fill="#EBEBEB"/>
<path d="M46.52 281.712H11.968V281.912H46.52V281.712Z" fill="#EBEBEB"/>
<path d="M58.712 281.712H53.6479V281.912H58.712V281.712Z" fill="#EBEBEB"/>
<path d="M150.12 285.088H75.176V285.288H150.12V285.088Z" fill="#EBEBEB"/>
<path d="M159.6 239.24H5.12812C3.91799 239.238 2.75816 238.756 1.90322 237.899C1.04829 237.043 0.568113 235.882 0.568115 234.672V17.528C0.57865 16.3248 1.06347 15.1744 1.91727 14.3266C2.77107 13.4788 3.92489 13.0021 5.12812 13H159.6C160.812 13 161.974 13.4813 162.83 14.3379C163.687 15.1946 164.168 16.3565 164.168 17.568V234.672C164.168 235.884 163.687 237.045 162.83 237.902C161.974 238.759 160.812 239.24 159.6 239.24ZM5.12812 13.16C3.97104 13.1621 2.86207 13.6233 2.04464 14.4422C1.22721 15.2611 0.768113 16.3709 0.768115 17.528V234.672C0.768113 235.829 1.22721 236.939 2.04464 237.758C2.86207 238.577 3.97104 239.038 5.12812 239.04H159.6C160.758 239.038 161.868 238.577 162.686 237.758C163.505 236.94 163.966 235.83 163.968 234.672V17.528C163.966 16.3702 163.505 15.2604 162.686 14.4417C161.868 13.623 160.758 13.1621 159.6 13.16H5.12812Z" fill="#EBEBEB"/>
<path d="M332.648 239.24H178.168C176.957 239.238 175.797 238.756 174.94 237.9C174.084 237.044 173.602 235.883 173.6 234.672V17.528C173.613 16.3241 174.099 15.1737 174.954 14.3261C175.809 13.4785 176.964 13.002 178.168 13H332.648C333.85 13.0042 335.002 13.4818 335.854 14.3294C336.706 15.177 337.19 16.3262 337.2 17.528V234.672C337.2 235.881 336.721 237.04 335.868 237.896C335.015 238.753 333.857 239.236 332.648 239.24ZM178.168 13.16C177.01 13.1621 175.9 13.623 175.082 14.4417C174.263 15.2604 173.802 16.3702 173.8 17.528V234.672C173.802 235.83 174.263 236.94 175.082 237.758C175.9 238.577 177.01 239.038 178.168 239.04H332.648C333.806 239.038 334.916 238.577 335.734 237.758C336.553 236.94 337.014 235.83 337.016 234.672V17.528C337.014 16.3702 336.553 15.2604 335.734 14.4417C334.916 13.623 333.806 13.1621 332.648 13.16H178.168Z" fill="#EBEBEB"/>
<path d="M144.76 197.696H43.624V204.832H144.76V197.696Z" fill="#EBEBEB"/>
<path d="M144.76 197.696H100.784V204.832H144.76V197.696Z" fill="#E0E0E0"/>
<path d="M58.568 204.832H43.624V274.92H58.568V204.832Z" fill="#EBEBEB"/>
<path d="M58.568 212.064L43.624 206.976V204.832H58.568V212.064Z" fill="#E0E0E0"/>
<path d="M144.76 204.832H129.816V274.92H144.76V204.832Z" fill="#E0E0E0"/>
<path d="M115.728 204.832H100.784V274.92H115.728V204.832Z" fill="#EBEBEB"/>
<path d="M115.72 212.064L100.784 206.976V204.832H115.72V212.064Z" fill="#E0E0E0"/>
<path d="M87.6 204.832H72.656V274.92H87.6V204.832Z" fill="#E0E0E0"/>
<path d="M154.264 38.7361H26.8V147.272H154.264V38.7361Z" fill="#EBEBEB"/>
<path d="M154.264 147.264H155.688V38.7279H154.264V147.264Z" fill="#E0E0E0"/>
<path d="M149.472 142.464V43.5281L31.6079 43.5281V142.464H149.472Z" fill="#F5F5F5"/>
<path d="M89.1121 127.448C96.3121 103.448 98.3121 68.048 113.624 72.928C128.936 77.808 108.88 130.152 108.88 130.152L89.1121 127.448Z" fill="white"/>
<path d="M101.48 128.64C94.1519 93.8561 95.9999 47.6801 73.2319 48.7361C50.4639 49.7921 73.2319 130.152 73.2319 130.152L101.48 128.64Z" fill="white"/>
<path d="M117.568 124.736H67.7199C66.7027 124.703 65.7134 125.071 64.9652 125.761C64.217 126.451 63.7697 127.407 63.7199 128.424C62.7039 151.384 66.4639 174.824 73.4639 197.696H111.632C118.632 174.784 122.392 151.384 121.376 128.424C121.337 127.438 120.919 126.504 120.21 125.817C119.501 125.131 118.555 124.743 117.568 124.736Z" fill="#EBEBEB"/>
<path d="M230.96 50.8401H228.152V274.92H230.96V50.8401Z" fill="#E0E0E0"/>
<path d="M296.952 50.8401H294.144V274.92H296.952V50.8401Z" fill="#E0E0E0"/>
<path d="M211.048 50.8401H208.24V274.92H211.048V50.8401Z" fill="#EBEBEB"/>
<path d="M277.04 50.8401H274.232V274.92H277.04V50.8401Z" fill="#EBEBEB"/>
<path d="M296.952 49.304H208.24V52.368H296.952V49.304Z" fill="#EBEBEB"/>
<path d="M296.952 104.176H208.24V107.24H296.952V104.176Z" fill="#EBEBEB"/>
<path d="M296.952 159.048H208.24V162.112H296.952V159.048Z" fill="#EBEBEB"/>
<path d="M296.952 213.92H208.24V216.984H296.952V213.92Z" fill="#EBEBEB"/>
<path d="M296.952 268.792H208.24V271.856H296.952V268.792Z" fill="#EBEBEB"/>
<path d="M296.952 49.304H277.04V52.368H296.952V49.304Z" fill="#E0E0E0"/>
<path d="M296.952 104.176H277.04V107.24H296.952V104.176Z" fill="#E0E0E0"/>
<path d="M296.952 159.048H277.04V162.112H296.952V159.048Z" fill="#E0E0E0"/>
<path d="M296.952 213.92H277.04V216.984H296.952V213.92Z" fill="#E0E0E0"/>
<path d="M296.952 268.792H277.04V271.856H296.952V268.792Z" fill="#E0E0E0"/>
<path d="M244.024 67.968V63.6479H233.36V67.968C233.36 69.3224 232.823 70.6214 231.866 71.5799C230.909 72.5383 229.61 73.0778 228.256 73.08C226.902 73.08 225.603 73.6174 224.644 74.5744C223.686 75.5313 223.146 76.8295 223.144 78.1839V104.2H254.248V78.1839C254.246 76.8295 253.706 75.5313 252.748 74.5744C251.789 73.6174 250.49 73.08 249.136 73.08C247.78 73.08 246.48 72.5414 245.521 71.5827C244.563 70.624 244.024 69.3237 244.024 67.968Z" fill="#F0F0F0"/>
<path d="M266.096 141.208H219.36V159.056H266.096V141.208Z" fill="#F0F0F0"/>
<path d="M266.096 159.048H274.232V141.2H266.096V159.048Z" fill="#E6E6E6"/>
<path d="M266.096 151.112H274.232V149.144H266.096V151.112Z" fill="#EBEBEB"/>
<path d="M266.096 149.144H219.36V151.112H266.096V149.144Z" fill="#F5F5F5"/>
<path d="M253.576 237.24H217.072V268.792H253.576V237.24Z" fill="#F0F0F0"/>
<path d="M253.576 268.8H259.928V237.248H253.576V268.8Z" fill="#E6E6E6"/>
<path d="M253.576 254.76H259.928V251.28H253.576V254.76Z" fill="#EBEBEB"/>
<path d="M253.576 251.28H217.072V254.76H253.576V251.28Z" fill="#F5F5F5"/>
<path d="M253.576 248.84H259.928V247.6H253.576V248.84Z" fill="#EBEBEB"/>
<path d="M253.576 247.6H217.072V248.84H253.576V247.6Z" fill="#F5F5F5"/>
<path d="M225.968 181.84H219.36V213.92H225.968V181.84Z" fill="#F0F0F0"/>
<path d="M225.968 193.272H219.36V202.488H225.968V193.272Z" fill="#FAFAFA"/>
<path d="M225.968 213.928H248.448V181.848H225.968V213.928Z" fill="#E6E6E6"/>
<path d="M236.176 177.696H228.712V213.92H236.176V177.696Z" fill="#EBEBEB"/>
<path d="M236.176 189.208H228.712V194.784H236.176V189.208Z" fill="#FAFAFA"/>
<path d="M236.176 198.52H228.712V204.096H236.176V198.52Z" fill="#FAFAFA"/>
<path d="M236.184 213.92H261.568V177.696H236.184V213.92Z" fill="#E0E0E0"/>
<path d="M244.488 181.84H240.464V213.92H244.488V181.84Z" fill="#F0F0F0"/>
<path d="M243.792 185.904H241.152V209.856H243.792V185.904Z" fill="#FAFAFA"/>
<path d="M244.48 213.928H258.152V181.848H244.48V213.928Z" fill="#E6E6E6"/>
<path d="M255.232 180.152H250.688V213.92H255.232V180.152Z" fill="#EBEBEB"/>
<path d="M255.232 190.88H250.688V196.08H255.232V190.88Z" fill="#FAFAFA"/>
<path d="M255.232 199.568H250.688V204.768H255.232V199.568Z" fill="#FAFAFA"/>
<path d="M255.232 213.92H270.672V180.152H255.232V213.92Z" fill="#E0E0E0"/>
<path d="M253.165 138.293C257.052 134.407 257.052 128.106 253.165 124.219C249.279 120.333 242.978 120.333 239.091 124.219C235.205 128.106 235.205 134.407 239.091 138.293C242.978 142.18 249.279 142.18 253.165 138.293Z" fill="#F5F5F5"/>
<path d="M258.249 141.097C262.009 140.487 264.561 136.944 263.951 133.185C263.341 129.426 259.799 126.873 256.039 127.483C252.28 128.093 249.727 131.635 250.337 135.395C250.948 139.154 254.49 141.707 258.249 141.097Z" fill="#EBEBEB"/>
<path d="M170 311.048C255.666 311.048 325.112 306.994 325.112 301.992C325.112 296.991 255.666 292.936 170 292.936C84.3339 292.936 14.8879 296.991 14.8879 301.992C14.8879 306.994 84.3339 311.048 170 311.048Z" fill="#F5F5F5"/>
<path d="M70.8879 239.952H173.64V293C173.64 293.68 173.506 294.353 173.246 294.981C172.986 295.609 172.605 296.179 172.124 296.66C171.643 297.141 171.073 297.522 170.445 297.782C169.817 298.042 169.144 298.176 168.464 298.176H76.0639C75.3842 298.176 74.7111 298.042 74.0832 297.782C73.4552 297.522 72.8846 297.141 72.404 296.66C71.9233 296.179 71.5421 295.609 71.2819 294.981C71.0218 294.353 70.8879 293.68 70.8879 293V239.952Z" fill="#5E88C6"/>
<path d="M70.888 239.952H143.6L134.656 228.504C133.672 227.248 131.24 226.232 129.216 226.232H63.824C61.808 226.232 60.96 227.248 61.944 228.504L70.888 239.952Z" fill="#5E88C6"/>
<path opacity="0.2" d="M70.888 239.952H143.6L134.656 228.504C133.672 227.248 131.24 226.232 129.216 226.232H63.824C61.808 226.232 60.96 227.248 61.944 228.504L70.888 239.952Z" fill="black"/>
<path d="M173.64 239.952H100.936L109.88 232.488C110.864 231.688 113.296 231.008 115.32 231.008H180.704C182.728 231.008 183.568 231.672 182.584 232.488L173.64 239.952Z" fill="#5E88C6"/>
<path opacity="0.2" d="M100.936 239.952H173.64V293C173.64 293.68 173.506 294.353 173.246 294.981C172.986 295.609 172.605 296.179 172.124 296.66C171.643 297.141 171.073 297.522 170.445 297.782C169.817 298.042 169.144 298.176 168.464 298.176H106.112C105.432 298.176 104.759 298.042 104.131 297.782C103.503 297.522 102.933 297.141 102.452 296.66C101.971 296.179 101.59 295.609 101.33 294.981C101.07 294.353 100.936 293.68 100.936 293V239.952Z" fill="white"/>
<path opacity="0.5" d="M79.9121 239.952V276.336L82.4241 274.352L84.1921 276.336L85.7281 274.128L87.3041 276.336L89.4961 274.68L91.9121 276.336V239.952H79.9121Z" fill="white"/>
<path d="M96.1759 160.584L83.2559 149.736" stroke="#5E88C6" stroke-miterlimit="10"/>
<path d="M102.872 166.208L98.936 162.896" stroke="#5E88C6" stroke-miterlimit="10"/>
<path d="M141.576 188.912L184.2 135.64L127.448 87.9922L89.848 131.136L84.248 141.928C83.9699 142.235 83.7581 142.595 83.6257 142.987C83.4933 143.379 83.4432 143.794 83.4785 144.206C83.5138 144.618 83.6337 145.019 83.8308 145.383C84.0279 145.746 84.2979 146.066 84.624 146.32L135.824 189.312C136.657 189.983 137.712 190.315 138.778 190.24C139.845 190.166 140.844 189.692 141.576 188.912Z" fill="#5E88C6"/>
<path opacity="0.5" d="M112.344 149.624L106.208 159.504L108.68 160.04L109.52 162.328L111.16 162.424L111.92 164.384L113.928 164.968L115.472 167.424L121.608 157.544L112.344 149.624Z" fill="white"/>
<path opacity="0.1" d="M182.344 134.08L144.12 176.72L89.824 131.136L127.448 87.9922L182.344 134.08Z" fill="black"/>
<path d="M182.344 134.08L144.12 176.72L159.944 177.888L197.576 134.744L182.344 134.08Z" fill="#5E88C6"/>
<path opacity="0.3" d="M182.344 134.08L144.12 176.72L159.944 177.888L197.576 134.744L182.344 134.08Z" fill="black"/>
<path d="M112.224 87.3201L73.9919 129.968L89.8239 131.136L127.448 87.9921L112.224 87.3201Z" fill="#5E88C6"/>
<path opacity="0.4" d="M112.224 87.3201L73.9919 129.968L89.8239 131.136L127.448 87.9921L112.224 87.3201Z" fill="black"/>
<path opacity="0.1" d="M170.576 147.208L182.344 134.08L127.448 87.9922L120.424 104.92L170.576 147.208Z" fill="black"/>
<path opacity="0.2" d="M89.824 131.136L127.448 87.9922L120.424 104.92L93.928 134.584L89.824 131.136Z" fill="black"/>
<path d="M195.6 53.8C195.752 54.312 195.6 54.816 195.264 54.912C194.928 55.008 194.536 54.672 194.384 54.16C194.232 53.648 194.384 53.144 194.72 53.04C195.056 52.936 195.456 53.288 195.6 53.8Z" fill="#263238"/>
<path d="M195.656 54.8081C195.505 56.5683 195.112 58.2993 194.488 59.9521C194.916 60.1005 195.371 60.1537 195.821 60.1081C196.272 60.0625 196.707 59.9192 197.096 59.6881L195.656 54.8081Z" fill="#ED847E"/>
<path d="M196.664 50.3842C196.732 50.3451 196.783 50.2825 196.808 50.2082C196.823 50.1694 196.83 50.128 196.828 50.0864C196.827 50.0449 196.816 50.0041 196.798 49.9666C196.781 49.9291 196.755 49.8957 196.724 49.8684C196.692 49.8412 196.655 49.8207 196.616 49.8082C196.147 49.6285 195.642 49.5645 195.144 49.6216C194.645 49.6787 194.168 49.8552 193.752 50.1362C193.698 50.1911 193.665 50.2636 193.66 50.3405C193.655 50.4174 193.678 50.4935 193.725 50.5548C193.772 50.6161 193.839 50.6585 193.915 50.6742C193.99 50.6898 194.069 50.6778 194.136 50.6402C194.468 50.4222 194.848 50.2867 195.243 50.245C195.638 50.2032 196.037 50.2564 196.408 50.4002C196.449 50.4153 196.493 50.4217 196.537 50.419C196.582 50.4162 196.625 50.4044 196.664 50.3842Z" fill="#263238"/>
<path d="M213.392 57.224C213.744 61.464 214.792 69.224 217.296 71.016C217.296 71.016 216.704 76.112 207.696 77.416C197.824 78.872 202.256 73.208 202.256 73.208C207.448 71.128 206.72 67.152 205.232 63.536L209.04 59.168C210.504 57.552 213.2 55.056 213.392 57.224Z" fill="#FFC3BD"/>
<path d="M220.52 73.088C221.32 72.36 219.72 69.448 218.736 69.04C216.16 67.96 205.624 69.04 201.664 72.44C201.335 73.0025 201.137 73.6314 201.083 74.2806C201.029 74.9298 201.121 75.5829 201.352 76.192L220.52 73.088Z" fill="white"/>
<path d="M254.072 286.928C253.812 287.047 253.531 287.112 253.245 287.12C252.959 287.128 252.675 287.079 252.408 286.976C252.303 286.893 252.225 286.779 252.187 286.65C252.148 286.521 252.15 286.384 252.192 286.256C252.213 286.151 252.257 286.053 252.321 285.967C252.384 285.881 252.466 285.811 252.56 285.76C253.424 285.256 255.56 285.92 255.648 285.952C255.677 285.96 255.704 285.976 255.724 285.999C255.744 286.022 255.756 286.05 255.76 286.08C255.764 286.112 255.759 286.144 255.744 286.172C255.73 286.201 255.708 286.224 255.68 286.24C255.169 286.523 254.63 286.754 254.072 286.928ZM252.904 285.952L252.72 286.032C252.665 286.062 252.618 286.103 252.581 286.152C252.543 286.202 252.517 286.259 252.504 286.32C252.448 286.608 252.56 286.696 252.592 286.72C252.976 286.992 254.28 286.6 255.184 286.144C254.447 285.913 253.669 285.847 252.904 285.952Z" fill="#5E88C6"/>
<path d="M255.648 286.248C255.622 286.256 255.594 286.256 255.568 286.248C254.768 286.088 253.096 285.088 253.008 284.336C252.995 284.218 253.024 284.099 253.09 283.999C253.156 283.9 253.254 283.827 253.368 283.792C253.479 283.743 253.599 283.717 253.72 283.717C253.841 283.717 253.961 283.743 254.072 283.792C255 284.176 255.72 285.968 255.744 286.04C255.76 286.064 255.768 286.092 255.768 286.12C255.768 286.148 255.76 286.176 255.744 286.2C255.733 286.215 255.718 286.227 255.702 286.235C255.685 286.244 255.667 286.248 255.648 286.248ZM253.568 284.064C253.544 284.057 253.519 284.057 253.496 284.064C253.312 284.144 253.32 284.24 253.328 284.28C253.376 284.728 254.512 285.536 255.32 285.832C255.08 285.312 254.52 284.304 253.952 284.064C253.828 284.017 253.692 284.017 253.568 284.064Z" fill="#5E88C6"/>
<path d="M207.184 295.52C206.328 295.52 205.504 295.4 205.224 295.016C205.152 294.916 205.114 294.795 205.114 294.672C205.114 294.549 205.152 294.429 205.224 294.328C205.277 294.236 205.349 294.155 205.434 294.09C205.519 294.025 205.616 293.979 205.72 293.952C206.832 293.656 209.168 294.984 209.264 295.04C209.294 295.054 209.318 295.078 209.333 295.107C209.348 295.136 209.354 295.17 209.348 295.202C209.343 295.235 209.327 295.264 209.303 295.287C209.279 295.31 209.249 295.324 209.216 295.328C208.546 295.453 207.866 295.518 207.184 295.52ZM206.128 294.224C206.025 294.22 205.922 294.234 205.824 294.264C205.696 294.293 205.584 294.37 205.512 294.48C205.4 294.68 205.44 294.776 205.512 294.832C205.824 295.264 207.512 295.272 208.712 295.096C207.915 294.641 207.038 294.345 206.128 294.224Z" fill="#5E88C6"/>
<path d="M209.2 295.336H209.136C208.336 294.976 206.736 293.528 206.856 292.776C206.856 292.6 207.016 292.376 207.448 292.336C207.604 292.319 207.762 292.334 207.913 292.381C208.063 292.427 208.201 292.505 208.32 292.608C209.176 293.304 209.352 295.104 209.36 295.176C209.364 295.204 209.361 295.232 209.349 295.258C209.338 295.283 209.319 295.305 209.296 295.32C209.267 295.336 209.233 295.341 209.2 295.336ZM207.6 292.632H207.504C207.216 292.632 207.2 292.776 207.192 292.808C207.12 293.264 208.208 294.408 209.024 294.896C208.954 294.133 208.646 293.411 208.144 292.832C207.994 292.7 207.8 292.628 207.6 292.632Z" fill="#5E88C6"/>
<path d="M216.544 295.176H209.864L209.2 279.72H215.88L216.544 295.176Z" fill="#FFC3BD"/>
<path d="M263.464 284.624L257.312 286.744L250.928 272.176L257.08 270.056L263.464 284.624Z" fill="#FFC3BD"/>
<path d="M255.848 285.216L263.048 283.016C263.175 282.977 263.312 282.983 263.436 283.032C263.56 283.082 263.663 283.172 263.728 283.288L266.728 288.568C266.8 288.697 266.842 288.841 266.851 288.989C266.86 289.136 266.835 289.284 266.779 289.421C266.723 289.558 266.637 289.68 266.527 289.779C266.417 289.878 266.286 289.951 266.144 289.992C263.624 290.72 262.368 290.944 259.216 291.912C257.272 292.504 252.376 294.36 249.616 294.912C246.856 295.464 245.968 292.824 247.04 292.352C251.84 290.232 253.808 287.824 254.952 285.952C255.152 285.606 255.47 285.345 255.848 285.216Z" fill="#263238"/>
<path d="M209.912 294.4H217.2C217.332 294.402 217.46 294.448 217.562 294.53C217.665 294.613 217.738 294.728 217.768 294.856L219.088 300.792C219.121 300.935 219.121 301.084 219.087 301.227C219.054 301.37 218.989 301.504 218.896 301.618C218.804 301.732 218.687 301.824 218.554 301.886C218.42 301.948 218.275 301.979 218.128 301.976C215.496 301.936 211.728 301.776 208.392 301.776C204.528 301.776 202.904 301.992 198.368 301.992C195.632 301.992 194.872 299.224 196.016 298.968C201.24 297.824 203.792 297.704 208.304 294.92C208.783 294.603 209.339 294.423 209.912 294.4Z" fill="#263238"/>
<path d="M229.312 75.272C231.256 77.056 232.936 78.84 234.68 80.704C236.424 82.568 238.04 84.496 239.608 86.552C241.246 88.6407 242.732 90.8436 244.056 93.144C244.779 94.4119 245.405 95.733 245.928 97.096C246.064 97.472 246.2 97.832 246.312 98.24C246.443 98.6527 246.553 99.0719 246.64 99.496L246.776 100.16L246.872 100.896C246.962 101.57 246.962 102.254 246.872 102.928C246.688 104.201 246.218 105.416 245.496 106.48C244.969 107.257 244.352 107.969 243.656 108.6C242.538 109.615 241.315 110.508 240.008 111.264C237.706 112.581 235.298 113.702 232.808 114.616C228.085 116.369 223.219 117.707 218.264 118.616L216.864 113.816C221.208 111.936 225.608 109.904 229.664 107.736C231.638 106.7 233.539 105.529 235.352 104.232C236.107 103.695 236.802 103.078 237.424 102.392C237.613 102.189 237.772 101.96 237.896 101.712C237.96 101.576 237.896 101.592 237.816 101.88C237.76 102.416 237.768 102 237.64 101.712C237.6 101.576 237.528 101.392 237.456 101.216C237.384 101.04 237.296 100.84 237.208 100.648C236.775 99.7755 236.291 98.9287 235.76 98.112C234.524 96.2775 233.189 94.5122 231.76 92.824C230.288 91.08 228.736 89.344 227.144 87.64C225.552 85.936 223.88 84.216 222.344 82.632L229.312 75.272Z" fill="#FFC3BD"/>
<path d="M218.696 113.056L212.4 114.96L216.448 121.616C216.448 121.616 220.168 120.08 220.992 116.92L218.696 113.056Z" fill="#FFC3BD"/>
<path d="M209.856 117.32L212.336 122.808L216.408 121.624L212.36 114.96L209.856 117.32Z" fill="#FFC3BD"/>
<path d="M214.56 77.0802C213.96 83.4802 227.496 93.3842 227.496 93.3842L240.528 84.4642C238.265 80.2905 234.957 76.7759 230.928 74.2642C223.456 69.4802 215.312 69.1282 214.56 77.0802Z" fill="#5E88C6"/>
<g opacity="0.3">
<path d="M214.56 77.0802C213.96 83.4802 227.496 93.3842 227.496 93.3842L240.528 84.4642C238.265 80.2905 234.957 76.7759 230.928 74.2642C223.456 69.4802 215.312 69.1282 214.56 77.0802Z" fill="white"/>
</g>
<path d="M192.4 76.5682C192.4 76.5682 186.552 85.5442 200.44 133.688L235.752 128.472C235.256 123.592 229.352 102.304 229.152 79.0322C229.144 77.9083 228.908 76.7978 228.459 75.7676C228.01 74.7374 227.356 73.8089 226.538 73.0381C225.72 72.2673 224.755 71.6702 223.7 71.2828C222.645 70.8954 221.522 70.7258 220.4 70.7842C219.376 70.8402 218.32 70.9122 217.272 71.0162C212.231 71.4656 207.22 72.2055 202.264 73.2322C198.895 74.0893 195.597 75.2046 192.4 76.5682Z" fill="#5E88C6"/>
<g opacity="0.3">
<path d="M192.4 76.5682C192.4 76.5682 186.552 85.5442 200.44 133.688L235.752 128.472C235.256 123.592 229.352 102.304 229.152 79.0322C229.144 77.9083 228.908 76.7978 228.459 75.7676C228.01 74.7374 227.356 73.8089 226.538 73.0381C225.72 72.2673 224.755 71.6702 223.7 71.2828C222.645 70.8954 221.522 70.7258 220.4 70.7842C219.376 70.8402 218.32 70.9122 217.272 71.0162C212.231 71.4656 207.22 72.2055 202.264 73.2322C198.895 74.0893 195.597 75.2046 192.4 76.5682Z" fill="white"/>
</g>
<path opacity="0.2" d="M191.536 92.0401L191.656 91.9041L199.96 92.6401C201.224 98.0001 196.6 105.312 194.16 108.704C192.985 103.201 192.109 97.638 191.536 92.0401Z" fill="black"/>
<path opacity="0.2" d="M209.2 279.728L209.544 287.696H216.224L215.88 279.728H209.2Z" fill="black"/>
<path opacity="0.2" d="M257.08 270.056L250.928 272.176L254.224 279.688L260.376 277.568L257.08 270.056Z" fill="black"/>
<path d="M212.52 47.656C213.992 54.112 215.176 57.816 212.928 62.056C209.552 68.368 200.864 67.76 197.496 61.872C194.464 56.568 192.56 46.904 198.032 42.552C199.231 41.5892 200.656 40.9482 202.172 40.6897C203.688 40.4312 205.245 40.5637 206.695 41.0747C208.146 41.5857 209.442 42.4583 210.461 43.6099C211.48 44.7615 212.189 46.1541 212.52 47.656Z" fill="#FFC3BD"/>
<path d="M199.552 53.984L197.096 55.488L197.328 47.088C195.744 47.156 194.182 46.7037 192.88 45.8C193.768 44.952 207.592 40.112 211.904 40.952C212.352 40.768 212.896 39.936 212.896 39.936C212.896 39.936 213.064 40.984 212.336 41.384C212.864 41.28 214.184 41.536 214.552 42.312C213.946 42.1466 213.303 42.1831 212.72 42.416C212.72 42.416 217.52 43.144 215.816 49.8C213.904 57.136 214.536 61.352 214.536 61.352C214.536 61.352 210.968 64.112 207.864 63.6C204.552 59.952 199.768 55.568 199.552 53.984Z" fill="#263238"/>
<path d="M194.848 45.1361C190.952 45.1361 189.552 43.2321 188.552 41.6321C191.352 41.3361 197.184 39.5361 201.512 39.2321C205.84 38.9281 210.584 39.7361 209.152 41.6321C207.72 43.5281 194.848 45.1361 194.848 45.1361Z" fill="#263238"/>
<path d="M195.704 43.4001C192.504 42.9521 189.384 39.9361 191.784 37.0481C192.672 39.1681 198.664 38.9201 202.92 38.0321C208.52 36.8641 212.4 38.7521 210.416 42.5681C209.328 44.6561 195.704 43.4001 195.704 43.4001Z" fill="#263238"/>
<path d="M203.008 52.0721C203.466 53.6518 203.393 55.3381 202.8 56.8721C202 58.8801 200.224 58.4721 199.296 56.7361C198.496 55.1361 197.888 52.2321 199.248 50.7841C200.608 49.3361 202.432 50.1761 203.008 52.0721Z" fill="#FFC3BD"/>
<path d="M212.968 131.84C212.968 131.84 218.696 180.6 222.856 199.704C227.408 220.632 249.864 277.688 249.864 277.688L261.064 273.816C261.064 273.816 246.664 230.856 242.84 201.6C239.904 179.136 235.72 128.472 235.72 128.472L212.968 131.84Z" fill="#263238"/>
<path d="M247 274.104C246.944 274.104 249.296 278.904 249.296 278.904L262.376 274.656L260.84 270.752L247 274.104Z" fill="#5E88C6"/>
<path opacity="0.3" d="M216.128 156.856C217.92 170.408 220.216 186.456 222.232 196.704C225.2 181 225.896 161.168 216.128 156.856Z" fill="black"/>
<path d="M200.44 133.688C200.44 133.688 195.688 179.496 196.44 199.848C197.192 221.016 207.08 286.152 207.08 286.152H218.384C218.384 286.152 216.304 222.248 216.784 201.464C217.336 178.8 225.832 129.936 225.832 129.936L200.44 133.688Z" fill="#263238"/>
<path d="M204.88 281.648C204.832 281.648 205.52 286.336 205.52 286.336H219.272L219.648 282.152L204.88 281.648Z" fill="#5E88C6"/>
<path d="M198.248 87.8161C197 89.8001 195.736 91.5841 194.424 93.4161C193.112 95.2481 191.736 97.0161 190.336 98.7761C187.482 102.346 184.39 105.72 181.08 108.872C180.184 109.672 179.36 110.472 178.392 111.2L177.688 111.768L177.336 112.048C177.208 112.152 177.152 112.208 176.888 112.4C176.095 112.965 175.225 113.413 174.304 113.728C172.878 114.215 171.387 114.485 169.88 114.528C168.606 114.571 167.33 114.515 166.064 114.36C161.437 113.753 156.923 112.476 152.664 110.568L154.048 105.768C158.141 106.254 162.263 106.452 166.384 106.36C167.296 106.312 168.204 106.214 169.104 106.064C169.783 105.965 170.441 105.76 171.056 105.456C171.248 105.352 171.352 105.248 171.328 105.224C171.304 105.2 171.432 105.12 171.504 105.048L171.776 104.8L172.312 104.296C173.032 103.656 173.712 102.88 174.416 102.176C175.8 100.688 177.176 99.1601 178.48 97.5361C179.784 95.9121 181.104 94.2801 182.384 92.6001C183.664 90.9201 184.904 89.2161 186.152 87.5121C187.4 85.8081 188.616 84.0161 189.768 82.3601L198.248 87.8161Z" fill="#FFC3BD"/>
<path d="M202.896 85.6961C205.584 94.4961 189.976 104.248 189.976 104.248L179.832 91.3281C182.118 87.068 184.941 83.1185 188.232 79.5761C195.136 72.0641 200.848 79.0001 202.896 85.6961Z" fill="#5E88C6"/>
<g opacity="0.3">
<path d="M202.896 85.6961C205.584 94.4961 189.976 104.248 189.976 104.248L179.832 91.3281C182.118 87.068 184.941 83.1185 188.232 79.5761C195.136 72.0641 200.848 79.0001 202.896 85.6961Z" fill="white"/>
</g>
<path d="M156.4 106.064L148.184 104.56L149.048 111.664C149.048 111.664 153.32 114.064 156.416 110.312L156.4 106.064Z" fill="#FFC3BD"/>
<path d="M145.016 106.16L146.792 111.288L149.032 111.664L148.168 104.56L145.016 106.16Z" fill="#FFC3BD"/>
</svg>
