<svg width="100" height="100" viewBox="0 0 100 100" fill="none" xmlns="http://www.w3.org/2000/svg">
<path d="M50.1139 0H49.8861C22.3348 0 0 22.3348 0 49.8861V50.1139C0 77.6652 22.3348 100 49.8861 100H50.1139C77.6652 100 100 77.6652 100 50.1139V49.8861C100 22.3348 77.6652 0 50.1139 0Z" fill="url(#paint0_linear_55_445)"/>
<path d="M65.4731 20.3447H34.5303C25.9818 20.3447 19.0273 27.2991 19.0273 35.8477V64.1558C19.0273 72.7043 25.9818 79.6587 34.5303 79.6587H65.4731C74.0216 79.6587 80.976 72.7043 80.976 64.1558V35.8477C80.976 27.2991 74.0216 20.3447 65.4731 20.3447ZM24.4963 35.8477C24.4963 30.3156 28.9983 25.8137 34.5303 25.8137H65.4731C71.0051 25.8137 75.507 30.3156 75.507 35.8477V64.1558C75.507 69.6878 71.0051 74.1898 65.4731 74.1898H34.5303C28.9983 74.1898 24.4963 69.6878 24.4963 64.1558V35.8477Z" fill="white"/>
<path d="M50.0019 64.4188C57.9513 64.4188 64.4222 57.9514 64.4222 49.9985C64.4222 42.0456 57.9548 35.5781 50.0019 35.5781C42.049 35.5781 35.5815 42.0456 35.5815 49.9985C35.5815 57.9514 42.049 64.4188 50.0019 64.4188ZM50.0019 41.0506C54.9383 41.0506 58.9533 45.0656 58.9533 50.002C58.9533 54.9384 54.9383 58.9534 50.0019 58.9534C45.0655 58.9534 41.0505 54.9384 41.0505 50.002C41.0505 45.0656 45.0655 41.0506 50.0019 41.0506Z" fill="white"/>
<path d="M65.7569 37.9079C67.8976 37.9079 69.6423 36.1667 69.6423 34.0226C69.6423 31.8784 67.9011 30.1372 65.7569 30.1372C63.6128 30.1372 61.8716 31.8784 61.8716 34.0226C61.8716 36.1667 63.6128 37.9079 65.7569 37.9079Z" fill="white"/>
<defs>
<linearGradient id="paint0_linear_55_445" x1="14.6095" y1="85.3905" x2="85.3905" y2="14.613" gradientUnits="userSpaceOnUse">
<stop stop-color="#FAAD4F"/>
<stop offset="0.35" stop-color="#DD2A7B"/>
<stop offset="0.62" stop-color="#9537B0"/>
<stop offset="1" stop-color="#515BD4"/>
</linearGradient>
</defs>
</svg>
