<svg width="100" height="100" viewBox="0 0 100 100" fill="none" xmlns="http://www.w3.org/2000/svg">
<path d="M50.1139 0H49.8861C22.3348 0 0 22.3348 0 49.8861V50.1139C0 77.6652 22.3348 100 49.8861 100H50.1139C77.6652 100 100 77.6652 100 50.1139V49.8861C100 22.3348 77.6652 0 50.1139 0Z" fill="#00B0F2"/>
<path d="M18.9397 48.2954C19.0798 48.2253 19.22 48.1588 19.3566 48.0957C21.732 46.9956 24.1389 45.9656 26.5423 44.9356C26.6719 44.9356 26.8891 44.7849 27.0117 44.7359C27.1974 44.6553 27.3831 44.5782 27.5688 44.4976L28.6374 44.0387C29.3521 43.7339 30.0632 43.4291 30.7779 43.1243C32.2039 42.5147 33.6298 41.9051 35.0557 41.2919C37.9075 40.0727 40.7629 38.85 43.6148 37.6308C46.4666 36.4116 49.3219 35.1889 52.1738 33.9697C55.0256 32.7504 57.8809 31.5277 60.7328 30.3085C63.5846 29.0893 66.44 27.8666 69.2918 26.6474C69.926 26.3741 70.6126 25.9677 71.2923 25.8486C71.8634 25.747 72.4204 25.5508 72.995 25.4422C74.0845 25.2355 75.2863 25.1514 76.3303 25.6033C76.6912 25.761 77.024 25.9817 77.3008 26.2585C78.6251 27.5688 78.4394 29.7199 78.1591 31.5628C76.2077 44.4065 74.2562 57.2538 72.3013 70.0976C72.035 71.8599 71.6706 73.7938 70.2798 74.9079C69.1026 75.8503 67.4279 75.9554 65.974 75.556C64.52 75.1531 63.2378 74.3088 61.98 73.4785C56.7633 70.024 51.5432 66.5696 46.3265 63.1152C45.0862 62.2953 43.7059 61.2233 43.7199 59.7343C43.7269 58.8374 44.2629 58.0386 44.8094 57.3274C49.3429 51.4135 55.884 47.3495 60.7503 41.7089C61.437 40.9136 61.9765 39.4771 61.0341 39.0182C60.4735 38.7449 59.8288 39.1163 59.3173 39.4701C52.8849 43.9371 46.4561 48.4075 40.0237 52.8745C37.9251 54.3319 35.7249 55.8314 33.1954 56.1888C30.9322 56.5111 28.6549 55.8805 26.4652 55.2358C24.6294 54.6963 22.797 54.1427 20.9717 53.5717C20.0012 53.2704 18.9992 52.9445 18.2495 52.2614C17.4997 51.5782 17.0689 50.429 17.5208 49.5181C17.8046 48.9471 18.3546 48.5862 18.9327 48.2919L18.9397 48.2954Z" fill="#FEFFFC"/>
</svg>
