<svg width="100" height="100" viewBox="0 0 100 100" fill="none" xmlns="http://www.w3.org/2000/svg">
<path d="M50.1139 0H49.8861C22.3348 0 0 22.3348 0 49.8861V50.1139C0 77.6652 22.3348 100 49.8861 100H50.1139C77.6652 100 100 77.6652 100 50.1139V49.8861C100 22.3348 77.6652 0 50.1139 0Z" fill="#00E510"/>
<path d="M59.7449 64.6253C46.9466 64.6253 36.5343 54.2094 36.5308 41.4112C36.5343 38.1669 39.1759 35.5288 42.4131 35.5288C42.746 35.5288 43.0753 35.5568 43.3906 35.6129C44.0843 35.7285 44.7429 35.9632 45.349 36.3171C45.4366 36.3696 45.4962 36.4537 45.5102 36.5518L46.8625 45.0758C46.8801 45.1774 46.8485 45.2755 46.782 45.3491C46.0357 46.1759 45.0828 46.7715 44.0212 47.0693L43.5097 47.2129L43.7024 47.7069C45.4471 52.1493 48.9997 55.6984 53.4456 57.4501L53.9396 57.6463L54.0832 57.1348C54.381 56.0732 54.9766 55.1203 55.8034 54.3741C55.863 54.318 55.9436 54.29 56.0242 54.29C56.0417 54.29 56.0592 54.29 56.0802 54.2935L64.6042 55.6458C64.7058 55.6633 64.7899 55.7194 64.8424 55.807C65.1928 56.4131 65.4275 57.0752 65.5467 57.7689C65.6027 58.0772 65.6272 58.4031 65.6272 58.7429C65.6272 61.9836 62.9891 64.6218 59.7449 64.6253Z" fill="#FDFDFD"/>
<path d="M82.4406 47.1921C81.7504 39.3933 78.1768 32.1586 72.3786 26.8228C66.5453 21.4555 58.9777 18.4985 51.0633 18.4985C33.693 18.4985 19.56 32.6316 19.56 50.0019C19.56 55.8317 21.1681 61.5108 24.2126 66.4578L17.4229 81.4877L39.162 79.1719C42.9423 80.7204 46.9432 81.5052 51.0598 81.5052C52.1424 81.5052 53.253 81.4492 54.3671 81.3336C55.3481 81.2284 56.3396 81.0743 57.3136 80.8781C71.8601 77.9387 82.4791 65.0283 82.5632 50.17V50.0019C82.5632 49.0559 82.5211 48.11 82.4371 47.1921H82.4406ZM39.9993 72.5748L27.9719 73.8571L31.563 65.9007L30.8447 64.9372C30.7922 64.8672 30.7396 64.7971 30.6801 64.7165C27.562 60.4107 25.9153 55.3237 25.9153 50.0054C25.9153 36.1386 37.1965 24.8574 51.0633 24.8574C64.0543 24.8574 75.0657 34.9929 76.1273 47.9313C76.1833 48.625 76.2149 49.3222 76.2149 50.0089C76.2149 50.2051 76.2114 50.3978 76.2079 50.6045C75.9416 62.2045 67.838 72.0563 56.5007 74.5648C55.6354 74.7575 54.749 74.9047 53.8661 74.9993C52.9482 75.1044 52.0058 75.1569 51.0703 75.1569C47.7385 75.1569 44.5013 74.5123 41.4428 73.237C41.1029 73.1004 40.7701 72.9532 40.4583 72.8026L40.0028 72.5818L39.9993 72.5748Z" fill="#FDFDFD"/>
</svg>
